<svg width="64" height="64" viewBox="0 0 64 64" fill="none" xmlns="http://www.w3.org/2000/svg">
<rect width="64" height="64" rx="32" fill="white" fill-opacity="0.2"/>
<path d="M32 45.3332C39.364 45.3332 45.3333 39.3638 45.3333 31.9998C45.3333 24.6358 39.364 18.6665 32 18.6665C24.636 18.6665 18.6666 24.6358 18.6666 31.9998C18.6666 39.3638 24.636 45.3332 32 45.3332Z" stroke="#D7DFFF" stroke-width="2.66667" stroke-linecap="round" stroke-linejoin="round"/>
<path d="M26.6666 26.6667H33.3333M33.3333 26.6667H34.6666C35.556 26.6667 37.3333 27.2 37.3333 29.3333C37.3333 31.4667 35.556 32 34.6666 32M33.3333 26.6667V24M34.6666 32C35.556 32 37.3333 32.5333 37.3333 34.6667C37.3333 36.8 35.556 37.3333 34.6666 37.3333H33.3333M34.6666 32H29.3333M33.3333 37.3333H26.6666M33.3333 37.3333V40M29.3333 32V24M29.3333 32V40" stroke="#D7DFFF" stroke-width="2.66667" stroke-linecap="round" stroke-linejoin="round"/>
</svg>
