<svg width="64" height="64" viewBox="0 0 64 64" fill="none" xmlns="http://www.w3.org/2000/svg">
<rect width="64" height="64" rx="32" fill="white" fill-opacity="0.2"/>
<path d="M42.7313 31.6821L28.7313 46.6821C28.5829 46.8405 28.3871 46.9462 28.1733 46.9835C27.9596 47.0208 27.7395 46.9875 27.5463 46.8887C27.3531 46.7899 27.1973 46.631 27.1024 46.4359C27.0075 46.2408 26.9786 46.0201 27.02 45.8071L28.8525 36.6409L21.6488 33.9359C21.4941 33.878 21.3561 33.7827 21.2472 33.6585C21.1383 33.5343 21.0619 33.3851 21.0248 33.2241C20.9876 33.0632 20.9909 32.8955 21.0344 32.7362C21.0778 32.5768 21.1601 32.4307 21.2738 32.3109L35.2738 17.3109C35.4222 17.1525 35.618 17.0468 35.8317 17.0095C36.0455 16.9722 36.2656 17.0055 36.4588 17.1043C36.652 17.2031 36.8078 17.362 36.9027 17.5571C36.9976 17.7522 37.0265 17.9729 36.985 18.1859L35.1475 27.3621L42.3513 30.0634C42.5049 30.1216 42.6417 30.2168 42.7498 30.3405C42.8578 30.4642 42.9337 30.6127 42.9708 30.7727C43.0079 30.9327 43.005 31.0994 42.9623 31.258C42.9197 31.4166 42.8386 31.5623 42.7263 31.6821H42.7313Z" fill="#D7DFFF"/>
</svg>
