<svg width="249" height="249" viewBox="0 0 249 249" fill="none" xmlns="http://www.w3.org/2000/svg">
<rect width="249" height="249" rx="12" fill="white"/>
<g clip-path="url(#clip0_87_5368)">
<path d="M233 16H16V233H233V16Z" fill="white"/>
<path d="M38.6042 29.5625H29.5625V38.6042H38.6042V29.5625Z" fill="black"/>
<path d="M47.6458 29.5625H38.6042V38.6042H47.6458V29.5625Z" fill="black"/>
<path d="M56.6875 29.5625H47.6458V38.6042H56.6875V29.5625Z" fill="black"/>
<path d="M65.7292 29.5625H56.6875V38.6042H65.7292V29.5625Z" fill="black"/>
<path d="M74.7708 29.5625H65.7292V38.6042H74.7708V29.5625Z" fill="black"/>
<path d="M83.8125 29.5625H74.7708V38.6042H83.8125V29.5625Z" fill="black"/>
<path d="M92.8542 29.5625H83.8125V38.6042H92.8542V29.5625Z" fill="black"/>
<path d="M110.937 29.5625H101.896V38.6042H110.937V29.5625Z" fill="black"/>
<path d="M119.979 29.5625H110.937V38.6042H119.979V29.5625Z" fill="black"/>
<path d="M138.062 29.5625H129.021V38.6042H138.062V29.5625Z" fill="black"/>
<path d="M147.104 29.5625H138.062V38.6042H147.104V29.5625Z" fill="black"/>
<path d="M165.188 29.5625H156.146V38.6042H165.188V29.5625Z" fill="black"/>
<path d="M174.229 29.5625H165.188V38.6042H174.229V29.5625Z" fill="black"/>
<path d="M183.271 29.5625H174.229V38.6042H183.271V29.5625Z" fill="black"/>
<path d="M192.312 29.5625H183.271V38.6042H192.312V29.5625Z" fill="black"/>
<path d="M201.354 29.5625H192.312V38.6042H201.354V29.5625Z" fill="black"/>
<path d="M210.396 29.5625H201.354V38.6042H210.396V29.5625Z" fill="black"/>
<path d="M219.438 29.5625H210.396V38.6042H219.438V29.5625Z" fill="black"/>
<path d="M38.6042 38.6042H29.5625V47.6458H38.6042V38.6042Z" fill="black"/>
<path d="M92.8542 38.6042H83.8125V47.6458H92.8542V38.6042Z" fill="black"/>
<path d="M119.979 38.6042H110.937L110.938 47.6458H119.979V38.6042Z" fill="black"/>
<path d="M138.062 38.6042H129.021V47.6458H138.062V38.6042Z" fill="black"/>
<path d="M147.104 38.6042H138.062V47.6458H147.104V38.6042Z" fill="black"/>
<path d="M165.188 38.6042H156.146V47.6458H165.188V38.6042Z" fill="black"/>
<path d="M219.438 38.6042H210.396V47.6458H219.438V38.6042Z" fill="black"/>
<path d="M38.6042 47.6458H29.5625V56.6875H38.6042V47.6458Z" fill="black"/>
<path d="M56.6875 47.6458H47.6458V56.6875H56.6875V47.6458Z" fill="black"/>
<path d="M65.7292 47.6458H56.6875V56.6875H65.7292V47.6458Z" fill="black"/>
<path d="M74.7708 47.6458H65.7292V56.6875H74.7708V47.6458Z" fill="black"/>
<path d="M92.8542 47.6458H83.8125V56.6875H92.8542V47.6458Z" fill="black"/>
<path d="M119.979 47.6458H110.938V56.6875H119.979V47.6458Z" fill="black"/>
<path d="M138.062 47.6458H129.021V56.6875H138.062V47.6458Z" fill="black"/>
<path d="M147.104 47.6458H138.062V56.6875H147.104V47.6458Z" fill="black"/>
<path d="M165.188 47.6458H156.146V56.6875H165.188V47.6458Z" fill="black"/>
<path d="M183.271 47.6458H174.229V56.6875H183.271V47.6458Z" fill="black"/>
<path d="M192.312 47.6458H183.271V56.6875H192.312V47.6458Z" fill="black"/>
<path d="M201.354 47.6458H192.312V56.6875H201.354V47.6458Z" fill="black"/>
<path d="M219.438 47.6458H210.396V56.6875H219.438V47.6458Z" fill="black"/>
<path d="M38.6042 56.6875H29.5625V65.7292H38.6042V56.6875Z" fill="black"/>
<path d="M56.6875 56.6875H47.6458V65.7292H56.6875V56.6875Z" fill="black"/>
<path d="M65.7292 56.6875H56.6875V65.7292H65.7292V56.6875Z" fill="black"/>
<path d="M74.7708 56.6875H65.7292V65.7292H74.7708V56.6875Z" fill="black"/>
<path d="M92.8542 56.6875H83.8125V65.7292H92.8542V56.6875Z" fill="black"/>
<path d="M129.021 56.6875H119.979L119.979 65.7292H129.021L129.021 56.6875Z" fill="black"/>
<path d="M138.062 56.6875H129.021L129.021 65.7292H138.062V56.6875Z" fill="black"/>
<path d="M147.104 56.6875H138.062V65.7292H147.104V56.6875Z" fill="black"/>
<path d="M165.188 56.6875H156.146V65.7292H165.188V56.6875Z" fill="black"/>
<path d="M183.271 56.6875H174.229V65.7292H183.271V56.6875Z" fill="black"/>
<path d="M192.312 56.6875H183.271V65.7292H192.312V56.6875Z" fill="black"/>
<path d="M201.354 56.6875H192.312V65.7292H201.354V56.6875Z" fill="black"/>
<path d="M219.438 56.6875H210.396V65.7292H219.438V56.6875Z" fill="black"/>
<path d="M38.6042 65.7292H29.5625V74.7708H38.6042V65.7292Z" fill="black"/>
<path d="M56.6875 65.7292H47.6458V74.7708H56.6875V65.7292Z" fill="black"/>
<path d="M65.7292 65.7292H56.6875V74.7708H65.7292V65.7292Z" fill="black"/>
<path d="M74.7708 65.7292H65.7292V74.7708H74.7708V65.7292Z" fill="black"/>
<path d="M92.8542 65.7292H83.8125V74.7708H92.8542V65.7292Z" fill="black"/>
<path d="M110.937 65.7292H101.896V74.7708H110.937V65.7292Z" fill="black"/>
<path d="M129.021 65.7292H119.979V74.7708H129.021V65.7292Z" fill="black"/>
<path d="M165.188 65.7292H156.146V74.7708H165.188V65.7292Z" fill="black"/>
<path d="M183.271 65.7292H174.229V74.7708H183.271V65.7292Z" fill="black"/>
<path d="M192.312 65.7292H183.271V74.7708H192.312V65.7292Z" fill="black"/>
<path d="M201.354 65.7292H192.312V74.7708H201.354V65.7292Z" fill="black"/>
<path d="M219.438 65.7292H210.396V74.7708H219.438V65.7292Z" fill="black"/>
<path d="M38.6042 74.7708H29.5625V83.8125H38.6042V74.7708Z" fill="black"/>
<path d="M92.8542 74.7708H83.8125V83.8125H92.8542V74.7708Z" fill="black"/>
<path d="M138.062 74.7708H129.021L129.021 83.8125H138.062V74.7708Z" fill="black"/>
<path d="M147.104 74.7708H138.062V83.8125H147.104V74.7708Z" fill="black"/>
<path d="M165.188 74.7708H156.146V83.8125H165.188V74.7708Z" fill="black"/>
<path d="M219.438 74.7708H210.396V83.8125H219.438V74.7708Z" fill="black"/>
<path d="M38.6042 83.8125H29.5625V92.8542H38.6042V83.8125Z" fill="black"/>
<path d="M47.6458 83.8125H38.6042V92.8542H47.6458V83.8125Z" fill="black"/>
<path d="M56.6875 83.8125H47.6458V92.8542H56.6875V83.8125Z" fill="black"/>
<path d="M65.7292 83.8125H56.6875V92.8542H65.7292V83.8125Z" fill="black"/>
<path d="M74.7708 83.8125H65.7292V92.8542H74.7708V83.8125Z" fill="black"/>
<path d="M83.8125 83.8125H74.7708V92.8542H83.8125V83.8125Z" fill="black"/>
<path d="M92.8542 83.8125H83.8125V92.8542H92.8542V83.8125Z" fill="black"/>
<path d="M110.937 83.8125H101.896V92.8542H110.937V83.8125Z" fill="black"/>
<path d="M129.021 83.8125H119.979V92.8542H129.021L129.021 83.8125Z" fill="black"/>
<path d="M147.104 83.8125H138.062V92.8542H147.104V83.8125Z" fill="black"/>
<path d="M165.188 83.8125H156.146V92.8542H165.188V83.8125Z" fill="black"/>
<path d="M174.229 83.8125H165.188V92.8542H174.229V83.8125Z" fill="black"/>
<path d="M183.271 83.8125H174.229V92.8542H183.271V83.8125Z" fill="black"/>
<path d="M192.312 83.8125H183.271V92.8542H192.312V83.8125Z" fill="black"/>
<path d="M201.354 83.8125H192.312V92.8542H201.354V83.8125Z" fill="black"/>
<path d="M210.396 83.8125H201.354V92.8542H210.396V83.8125Z" fill="black"/>
<path d="M219.438 83.8125H210.396V92.8542H219.438V83.8125Z" fill="black"/>
<path d="M110.937 92.8542H101.896V101.896H110.937V92.8542Z" fill="black"/>
<path d="M129.021 92.8542H119.979V101.896H129.021V92.8542Z" fill="black"/>
<path d="M138.062 92.8542H129.021V101.896H138.062V92.8542Z" fill="black"/>
<path d="M38.6042 101.896H29.5625V110.937H38.6042V101.896Z" fill="black"/>
<path d="M65.7292 101.896H56.6875V110.937H65.7292V101.896Z" fill="black"/>
<path d="M74.7708 101.896H65.7292V110.937H74.7708V101.896Z" fill="black"/>
<path d="M83.8125 101.896H74.7708V110.937H83.8125V101.896Z" fill="black"/>
<path d="M92.8542 101.896H83.8125V110.937H92.8542V101.896Z" fill="black"/>
<path d="M101.896 101.896L92.8542 101.896V110.937H101.896L101.896 101.896Z" fill="black"/>
<path d="M110.937 101.896H101.896L101.896 110.937H110.937V101.896Z" fill="black"/>
<path d="M119.979 101.896H110.937V110.937H119.979L119.979 101.896Z" fill="black"/>
<path d="M138.062 101.896H129.021L129.021 110.937H138.062V101.896Z" fill="black"/>
<path d="M156.146 101.896H147.104V110.937H156.146V101.896Z" fill="black"/>
<path d="M165.188 101.896H156.146V110.937H165.188V101.896Z" fill="black"/>
<path d="M183.271 101.896H174.229V110.937H183.271V101.896Z" fill="black"/>
<path d="M219.438 101.896H210.396V110.937H219.438V101.896Z" fill="black"/>
<path d="M38.6042 110.937H29.5625V119.979H38.6042V110.937Z" fill="black"/>
<path d="M56.6875 110.937L47.6458 110.938V119.979H56.6875V110.937Z" fill="black"/>
<path d="M65.7292 110.937H56.6875V119.979H65.7292V110.937Z" fill="black"/>
<path d="M74.7708 110.937H65.7292V119.979H74.7708V110.937Z" fill="black"/>
<path d="M83.8125 110.937H74.7708V119.979H83.8125V110.937Z" fill="black"/>
<path d="M101.896 110.937H92.8542V119.979H101.896V110.937Z" fill="black"/>
<path d="M129.021 110.937H119.979L119.979 119.979H129.021L129.021 110.937Z" fill="black"/>
<path d="M156.146 110.937H147.104V119.979H156.146V110.937Z" fill="black"/>
<path d="M174.229 110.937H165.188V119.979H174.229V110.937Z" fill="black"/>
<path d="M183.271 110.937H174.229V119.979H183.271V110.937Z" fill="black"/>
<path d="M210.396 110.937L201.354 110.938V119.979H210.396V110.937Z" fill="black"/>
<path d="M219.438 110.937H210.396V119.979H219.438V110.937Z" fill="black"/>
<path d="M65.7292 119.979H56.6875V129.021H65.7292V119.979Z" fill="black"/>
<path d="M74.7708 119.979H65.7292V129.021H74.7708V119.979Z" fill="black"/>
<path d="M92.8542 119.979H83.8125V129.021H92.8542V119.979Z" fill="black"/>
<path d="M101.896 119.979H92.8542V129.021H101.896V119.979Z" fill="black"/>
<path d="M110.937 119.979L101.896 119.979V129.021H110.937V119.979Z" fill="black"/>
<path d="M119.979 119.979L110.937 119.979V129.021H119.979L119.979 119.979Z" fill="black"/>
<path d="M138.062 119.979L129.021 119.979L129.021 129.021H138.062V119.979Z" fill="black"/>
<path d="M147.104 119.979L138.062 119.979V129.021H147.104V119.979Z" fill="black"/>
<path d="M192.312 119.979L183.271 119.979V129.021H192.312V119.979Z" fill="black"/>
<path d="M201.354 119.979L192.312 119.979V129.021H201.354V119.979Z" fill="black"/>
<path d="M56.6875 129.021L47.6458 129.021V138.062H56.6875V129.021Z" fill="black"/>
<path d="M74.7708 129.021H65.7292V138.062H74.7708V129.021Z" fill="black"/>
<path d="M138.062 129.021H129.021V138.062H138.062V129.021Z" fill="black"/>
<path d="M147.104 129.021H138.062V138.062H147.104V129.021Z" fill="black"/>
<path d="M156.146 129.021L147.104 129.021V138.062H156.146V129.021Z" fill="black"/>
<path d="M165.188 129.021H156.146V138.062H165.188V129.021Z" fill="black"/>
<path d="M210.396 129.021L201.354 129.021V138.062H210.396V129.021Z" fill="black"/>
<path d="M219.438 129.021H210.396V138.062H219.438V129.021Z" fill="black"/>
<path d="M47.6458 138.062H38.6042V147.104H47.6458V138.062Z" fill="black"/>
<path d="M56.6875 138.062H47.6458V147.104H56.6875V138.062Z" fill="black"/>
<path d="M65.7292 138.062H56.6875V147.104H65.7292V138.062Z" fill="black"/>
<path d="M74.7708 138.062H65.7292V147.104H74.7708V138.062Z" fill="black"/>
<path d="M83.8125 138.062H74.7708V147.104H83.8125V138.062Z" fill="black"/>
<path d="M92.8542 138.062H83.8125V147.104H92.8542V138.062Z" fill="black"/>
<path d="M110.937 138.062H101.896V147.104H110.937V138.062Z" fill="black"/>
<path d="M119.979 138.062H110.937V147.104H119.979V138.062Z" fill="black"/>
<path d="M129.021 138.062H119.979V147.104H129.021L129.021 138.062Z" fill="black"/>
<path d="M138.062 138.062H129.021L129.021 147.104H138.062V138.062Z" fill="black"/>
<path d="M156.146 138.062H147.104V147.104H156.146V138.062Z" fill="black"/>
<path d="M183.271 138.062H174.229V147.104H183.271V138.062Z" fill="black"/>
<path d="M192.312 138.062H183.271V147.104H192.312V138.062Z" fill="black"/>
<path d="M201.354 138.062H192.312V147.104H201.354V138.062Z" fill="black"/>
<path d="M210.396 138.062H201.354V147.104H210.396V138.062Z" fill="black"/>
<path d="M110.937 147.104H101.896V156.146H110.937V147.104Z" fill="black"/>
<path d="M119.979 147.104H110.937V156.146H119.979V147.104Z" fill="black"/>
<path d="M129.021 147.104H119.979V156.146H129.021V147.104Z" fill="black"/>
<path d="M174.229 147.104H165.188V156.146H174.229V147.104Z" fill="black"/>
<path d="M183.271 147.104H174.229V156.146H183.271V147.104Z" fill="black"/>
<path d="M192.312 147.104H183.271V156.146H192.312V147.104Z" fill="black"/>
<path d="M201.354 147.104H192.312V156.146H201.354V147.104Z" fill="black"/>
<path d="M38.6042 156.146H29.5625V165.188H38.6042V156.146Z" fill="black"/>
<path d="M47.6458 156.146H38.6042V165.188H47.6458V156.146Z" fill="black"/>
<path d="M56.6875 156.146H47.6458V165.188H56.6875V156.146Z" fill="black"/>
<path d="M65.7292 156.146H56.6875V165.188H65.7292V156.146Z" fill="black"/>
<path d="M74.7708 156.146H65.7292V165.188H74.7708V156.146Z" fill="black"/>
<path d="M83.8125 156.146H74.7708V165.188H83.8125V156.146Z" fill="black"/>
<path d="M92.8542 156.146H83.8125V165.188H92.8542V156.146Z" fill="black"/>
<path d="M110.937 156.146H101.896V165.188H110.937V156.146Z" fill="black"/>
<path d="M119.979 156.146H110.937V165.188H119.979V156.146Z" fill="black"/>
<path d="M147.104 156.146H138.062V165.188H147.104V156.146Z" fill="black"/>
<path d="M165.188 156.146H156.146V165.188H165.188V156.146Z" fill="black"/>
<path d="M174.229 156.146H165.188V165.188H174.229V156.146Z" fill="black"/>
<path d="M183.271 156.146H174.229V165.188H183.271V156.146Z" fill="black"/>
<path d="M192.312 156.146H183.271V165.188H192.312V156.146Z" fill="black"/>
<path d="M219.438 156.146H210.396V165.188H219.438V156.146Z" fill="black"/>
<path d="M38.6042 165.188H29.5625V174.229H38.6042V165.188Z" fill="black"/>
<path d="M92.8542 165.188H83.8125V174.229H92.8542V165.188Z" fill="black"/>
<path d="M110.937 165.188H101.896V174.229H110.937V165.188Z" fill="black"/>
<path d="M138.062 165.188H129.021V174.229H138.062V165.188Z" fill="black"/>
<path d="M147.104 165.188H138.062V174.229H147.104V165.188Z" fill="black"/>
<path d="M165.188 165.188H156.146V174.229H165.188V165.188Z" fill="black"/>
<path d="M174.229 165.188H165.188V174.229H174.229V165.188Z" fill="black"/>
<path d="M192.312 165.188H183.271V174.229H192.312V165.188Z" fill="black"/>
<path d="M38.6042 174.229H29.5625V183.271H38.6042V174.229Z" fill="black"/>
<path d="M56.6875 174.229H47.6458V183.271H56.6875V174.229Z" fill="black"/>
<path d="M65.7292 174.229H56.6875V183.271H65.7292V174.229Z" fill="black"/>
<path d="M74.7708 174.229H65.7292V183.271H74.7708V174.229Z" fill="black"/>
<path d="M92.8542 174.229H83.8125V183.271H92.8542V174.229Z" fill="black"/>
<path d="M110.937 174.229H101.896V183.271H110.937V174.229Z" fill="black"/>
<path d="M147.104 174.229H138.062V183.271H147.104V174.229Z" fill="black"/>
<path d="M165.188 174.229H156.146V183.271H165.188V174.229Z" fill="black"/>
<path d="M192.312 174.229H183.271V183.271H192.312V174.229Z" fill="black"/>
<path d="M201.354 174.229H192.312V183.271H201.354V174.229Z" fill="black"/>
<path d="M210.396 174.229H201.354V183.271H210.396V174.229Z" fill="black"/>
<path d="M38.6042 183.271H29.5625V192.312H38.6042V183.271Z" fill="black"/>
<path d="M56.6875 183.271H47.6458V192.312H56.6875V183.271Z" fill="black"/>
<path d="M65.7292 183.271H56.6875V192.312H65.7292V183.271Z" fill="black"/>
<path d="M74.7708 183.271H65.7292V192.312H74.7708V183.271Z" fill="black"/>
<path d="M92.8542 183.271H83.8125V192.312H92.8542V183.271Z" fill="black"/>
<path d="M110.937 183.271H101.896V192.312H110.937V183.271Z" fill="black"/>
<path d="M119.979 183.271H110.937V192.312H119.979V183.271Z" fill="black"/>
<path d="M147.104 183.271H138.062V192.312H147.104V183.271Z" fill="black"/>
<path d="M183.271 183.271H174.229V192.312H183.271V183.271Z" fill="black"/>
<path d="M192.312 183.271H183.271V192.312H192.312V183.271Z" fill="black"/>
<path d="M201.354 183.271H192.312V192.312H201.354V183.271Z" fill="black"/>
<path d="M219.438 183.271H210.396V192.312H219.438V183.271Z" fill="black"/>
<path d="M38.6042 192.312H29.5625V201.354H38.6042V192.312Z" fill="black"/>
<path d="M56.6875 192.312H47.6458V201.354H56.6875V192.312Z" fill="black"/>
<path d="M65.7292 192.312H56.6875V201.354H65.7292V192.312Z" fill="black"/>
<path d="M74.7708 192.312H65.7292V201.354H74.7708V192.312Z" fill="black"/>
<path d="M92.8542 192.312H83.8125V201.354H92.8542V192.312Z" fill="black"/>
<path d="M119.979 192.312H110.937L110.938 201.354H119.979V192.312Z" fill="black"/>
<path d="M156.146 192.312H147.104V201.354H156.146V192.312Z" fill="black"/>
<path d="M165.188 192.312H156.146V201.354H165.188V192.312Z" fill="black"/>
<path d="M192.312 192.312H183.271V201.354H192.312V192.312Z" fill="black"/>
<path d="M38.6042 201.354H29.5625V210.396H38.6042V201.354Z" fill="black"/>
<path d="M92.8542 201.354H83.8125V210.396H92.8542V201.354Z" fill="black"/>
<path d="M119.979 201.354H110.938V210.396H119.979V201.354Z" fill="black"/>
<path d="M129.021 201.354H119.979V210.396H129.021V201.354Z" fill="black"/>
<path d="M165.188 201.354H156.146V210.396H165.188V201.354Z" fill="black"/>
<path d="M192.312 201.354H183.271V210.396H192.312V201.354Z" fill="black"/>
<path d="M38.6042 210.396H29.5625V219.438H38.6042V210.396Z" fill="black"/>
<path d="M47.6458 210.396H38.6042V219.438H47.6458V210.396Z" fill="black"/>
<path d="M56.6875 210.396H47.6458V219.438H56.6875V210.396Z" fill="black"/>
<path d="M65.7292 210.396H56.6875V219.438H65.7292V210.396Z" fill="black"/>
<path d="M74.7708 210.396H65.7292V219.438H74.7708V210.396Z" fill="black"/>
<path d="M83.8125 210.396H74.7708V219.438H83.8125V210.396Z" fill="black"/>
<path d="M92.8542 210.396H83.8125V219.438H92.8542V210.396Z" fill="black"/>
<path d="M110.938 210.396H101.896V219.438H110.937L110.938 210.396Z" fill="black"/>
<path d="M147.104 210.396H138.062V219.438H147.104V210.396Z" fill="black"/>
<path d="M174.229 210.396H165.188V219.438H174.229V210.396Z" fill="black"/>
<path d="M183.271 210.396H174.229V219.438H183.271V210.396Z" fill="black"/>
<path d="M192.312 210.396H183.271V219.438H192.312V210.396Z" fill="black"/>
<path d="M219.438 210.396H210.396V219.438H219.438V210.396Z" fill="black"/>
</g>
<defs>
<clipPath id="clip0_87_5368">
<rect width="217" height="217" fill="white" transform="translate(16 16)"/>
</clipPath>
</defs>
</svg>
