<svg width="64" height="64" viewBox="0 0 64 64" fill="none" xmlns="http://www.w3.org/2000/svg">
<rect width="64" height="64" rx="32" fill="white" fill-opacity="0.2"/>
<g clip-path="url(#clip0_121_5858)">
<path d="M22.3239 26.3108L17.3467 31.288L22.3159 36.2571L27.2877 41.229L29.4574 39.0593L31.6244 36.8923L33.7941 39.0593L35.9611 41.229L40.9383 36.2518L45.9155 31.2746L40.9463 26.3054L35.9745 21.3336L33.8074 23.5006L31.6378 25.6703L29.4681 23.5006L27.3011 21.3336L22.3239 26.3108ZM34.1197 32.182C33.6206 32.681 33.2123 33.1027 33.2123 33.116C33.2123 33.1294 33.4552 33.3856 33.7514 33.6818L34.2932 34.2236L35.7663 32.7504L37.2421 31.2746L34.995 29.0275L32.7453 26.7778L34.3599 25.1632L35.9745 23.5486L39.8388 27.413L43.7004 31.2746L39.8308 35.1443L35.9611 39.014L32.0995 35.1523L28.2351 31.288L29.1505 30.3726L30.0632 29.4599L29.5081 28.9048L28.9557 28.3524L27.4879 29.8202L26.0201 31.288L28.2698 33.5377L30.5169 35.7848L28.9023 37.3994L27.2877 39.014L23.4234 35.1496L19.5617 31.288L23.4314 27.4183L27.3011 23.5486L31.1627 27.4103L35.0271 31.2746L34.1197 32.182Z" fill="#D7DFFF"/>
</g>
<defs>
<clipPath id="clip0_121_5858">
<rect width="28.5822" height="19.8954" fill="white" transform="translate(17.3334 21.3335)"/>
</clipPath>
</defs>
</svg>
