<svg width="64" height="64" viewBox="0 0 64 64" fill="none" xmlns="http://www.w3.org/2000/svg">
<rect width="64" height="64" rx="32" fill="white" fill-opacity="0.2"/>
<path d="M32 21.5C29.6266 21.5 27.3066 22.2038 25.3332 23.5224C23.3598 24.8409 21.8217 26.7151 20.9135 28.9078C20.0052 31.1005 19.7676 33.5133 20.2306 35.8411C20.6936 38.1689 21.8365 40.3071 23.5147 41.9853C25.193 43.6635 27.3312 44.8064 29.6589 45.2694C31.9867 45.7324 34.3995 45.4948 36.5922 44.5866C38.7849 43.6783 40.6591 42.1402 41.9776 40.1668C43.2962 38.1935 44 35.8734 44 33.5C43.9964 30.3185 42.7309 27.2684 40.4813 25.0187C38.2316 22.7691 35.1815 21.5036 32 21.5ZM32 42.5C30.22 42.5 28.4799 41.9722 26.9999 40.9832C25.5198 39.9943 24.3663 38.5887 23.6851 36.9442C23.0039 35.2996 22.8257 33.49 23.1729 31.7442C23.5202 29.9984 24.3774 28.3947 25.636 27.136C26.8947 25.8774 28.4984 25.0202 30.2442 24.6729C31.99 24.3257 33.7996 24.5039 35.4442 25.1851C37.0887 25.8663 38.4943 27.0198 39.4832 28.4999C40.4722 29.9799 41 31.72 41 33.5C40.9974 35.8861 40.0483 38.1738 38.361 39.861C36.6738 41.5483 34.3861 42.4974 32 42.5ZM36.5613 28.4388C36.7011 28.5781 36.812 28.7437 36.8878 28.926C36.9635 29.1084 37.0024 29.3038 37.0024 29.5013C37.0024 29.6987 36.9635 29.8942 36.8878 30.0765C36.812 30.2588 36.7011 30.4244 36.5613 30.5638L33.0613 34.0638C32.7795 34.3455 32.3973 34.5039 31.9988 34.5039C31.6002 34.5039 31.218 34.3455 30.9363 34.0638C30.6545 33.782 30.4962 33.3998 30.4962 33.0013C30.4962 32.6027 30.6545 32.2205 30.9363 31.9388L34.4363 28.4388C34.5756 28.2989 34.7412 28.188 34.9235 28.1122C35.1059 28.0365 35.3013 27.9976 35.4988 27.9976C35.6962 27.9976 35.8917 28.0365 36.074 28.1122C36.2563 28.188 36.4219 28.2989 36.5613 28.4388ZM27.5 18C27.5 17.6022 27.658 17.2206 27.9393 16.9393C28.2206 16.658 28.6022 16.5 29 16.5H35C35.3978 16.5 35.7794 16.658 36.0607 16.9393C36.342 17.2206 36.5 17.6022 36.5 18C36.5 18.3978 36.342 18.7794 36.0607 19.0607C35.7794 19.342 35.3978 19.5 35 19.5H29C28.6022 19.5 28.2206 19.342 27.9393 19.0607C27.658 18.7794 27.5 18.3978 27.5 18Z" fill="white"/>
</svg>
