<svg xmlns="http://www.w3.org/2000/svg" width="73" height="72" viewBox="0 0 73 72" fill="none">
  <g clip-path="url(#clip0_165_18279)">
    <path d="M36.3899 72C56.2721 72 72.3899 55.8823 72.3899 36C72.3899 16.1177 56.2721 0 36.3899 0C16.5076 0 0.389893 16.1177 0.389893 36C0.389893 55.8823 16.5076 72 36.3899 72Z" fill="url(#paint0_linear_165_18279)"/>
    <path d="M52.1455 50.3437L39.973 20.9137C39.2868 19.3922 38.2658 18.6497 36.9215 18.6497H35.8443C34.4999 18.6497 33.479 19.3922 32.7927 20.9137L27.494 33.7359H23.4861C22.9091 33.7393 22.3567 33.97 21.9486 34.3781C21.5406 34.7861 21.3099 35.3386 21.3065 35.9156V35.9437C21.3149 37.1418 22.2908 38.115 23.4861 38.1234H25.6377L20.5808 50.3437C20.488 50.6137 20.4318 50.8922 20.4318 51.179C20.4318 51.8653 20.6455 52.4025 21.0252 52.8215C21.4049 53.2378 21.9533 53.4431 22.6396 53.4431C23.0952 53.4347 23.5311 53.294 23.8911 53.0268C24.2821 52.7568 24.5493 52.3687 24.763 51.9215L30.329 38.115H34.1877C34.7647 38.1116 35.3172 37.8808 35.7252 37.4728C36.1333 37.0648 36.364 36.5123 36.3674 35.9353V35.879C36.359 34.6809 35.383 33.7078 34.1877 33.6993H32.129L36.3786 23.1131L47.9577 51.9131C48.1715 52.3575 48.4415 52.7484 48.8296 53.0184C49.1924 53.2884 49.6368 53.4262 50.0811 53.4347C50.7674 53.4347 51.3046 53.2293 51.6955 52.8131C52.0865 52.3968 52.289 51.8568 52.289 51.1706C52.2974 50.8922 52.2524 50.6053 52.1399 50.3437H52.1455Z" fill="white"/>
    <path d="M50.3286 54.6778L61.3565 61.0819V36.7031L50.3286 54.6778Z" fill="#D7D7D7"/>
    <path d="M61.3565 36.7031V61.0819L72.3843 54.6778L61.3565 36.7031Z" fill="#878787"/>
    <path d="M61.3593 49.756L72.3843 54.6779L61.3593 61.0791V49.7532V49.756Z" fill="white"/>
    <path d="M61.3565 49.7559H61.3593V61.0818H61.3565L50.3286 54.6805L61.3565 49.7559Z" fill="#999999"/>
    <path d="M50.3286 56.7336L61.3565 71.9999V63.1349L50.3286 56.7336Z" fill="#D7D7D7"/>
    <path d="M61.3565 63.1349V71.9999L72.3899 56.7336L61.3565 63.1349Z" fill="#878787"/>
  </g>
  <defs>
    <linearGradient id="paint0_linear_165_18279" x1="63.0749" y1="13.6237" x2="10.6949" y2="59.4562" gradientUnits="userSpaceOnUse">
      <stop stop-color="#B6509E"/>
      <stop offset="1" stop-color="#2EBAC6"/>
    </linearGradient>
    <clipPath id="clip0_165_18279">
      <rect width="72" height="72" fill="white" transform="translate(0.389893)"/>
    </clipPath>
  </defs>
</svg>