<svg xmlns="http://www.w3.org/2000/svg" width="73" height="72" viewBox="0 0 73 72" fill="none">
  <g clip-path="url(#clip0_165_18294)">
    <path d="M36.1081 2.92502C37.6831 2.10939 39.5956 3.99377 38.7519 5.56877C38.2737 6.83439 36.4456 7.20002 35.4893 6.21564C34.505 5.28752 34.8144 3.43127 36.1081 2.92502ZM19.205 4.75314C20.1612 4.35939 21.3706 5.23127 21.2581 6.27189C21.3706 7.39689 19.9925 8.24064 19.0081 7.70627C17.7425 7.20002 17.8831 5.11877 19.205 4.75314ZM53.7987 7.73439C52.3081 7.56564 52.0831 5.20314 53.5175 4.75314C54.6425 4.21877 55.655 5.23127 55.8237 6.27189C55.5706 7.17189 54.8112 7.98752 53.7987 7.73439ZM23.0581 11.925C24.6612 10.9125 26.9394 12.4313 26.6862 14.2594C26.6018 16.1156 24.1269 17.2125 22.7206 15.9469C21.3706 14.9625 21.5675 12.7125 23.0581 11.925ZM47.3862 12.9938C48.0893 11.1656 50.9862 11.1094 51.7737 12.8813C52.5612 14.2594 51.5768 15.975 50.1706 16.4531C48.2862 16.8469 46.4862 14.7938 47.3862 12.9938ZM34.055 16.3688C34.0268 14.7938 35.4612 13.6125 36.98 13.5C37.9643 13.6969 39.0612 14.1188 39.4831 15.1313C40.2706 16.5094 39.5675 18.4219 38.1331 19.0406C37.4862 19.4063 36.6987 19.2656 35.9956 19.2375C34.8987 18.7031 33.9706 17.6625 34.055 16.3688ZM8.96747 18.675C10.43 17.775 12.3987 19.4063 11.8362 20.9813C11.5268 22.3594 9.69872 22.8938 8.62997 22.0219C7.50497 21.2344 7.70185 19.2656 8.96747 18.675ZM62.855 18.675C64.0925 17.7188 66.1175 18.8156 65.9769 20.3625C66.0612 21.7969 64.2893 22.8656 63.08 22.1344C61.73 21.5156 61.5893 19.4344 62.855 18.675ZM41.1143 21.4875C43.1393 20.7563 45.5862 21.6281 46.7393 23.4563C48.2581 25.6781 47.4425 29.0531 45.08 30.3469C42.605 31.8656 39.005 30.5719 38.105 27.8156C37.0644 25.3688 38.5831 22.275 41.1143 21.4875ZM29.1612 21.7406C31.4112 20.6719 34.4487 21.5719 35.5456 23.8781C36.8393 26.1281 35.8269 29.25 33.5487 30.4313C31.2425 31.725 28.0081 30.7406 26.8831 28.3219C25.6456 25.9875 26.7425 22.8094 29.1612 21.7406ZM17.18 25.8469C17.3487 24.3844 18.7268 23.4563 20.105 23.3438C21.5956 23.5125 22.7768 24.6938 22.9456 26.1844C22.8612 27.675 21.68 29.1375 20.105 29.1375C18.3893 29.2781 16.8425 27.5625 17.18 25.8469ZM52.5612 23.6531C54.3612 22.6125 56.8362 24.1313 56.7519 26.1844C56.8643 28.35 54.1362 29.8969 52.3362 28.6313C50.48 27.5625 50.6487 24.5531 52.5612 23.6531ZM24.2956 31.3313C26.3769 30.7688 28.7956 31.7531 29.8081 33.6656C30.9331 35.6063 30.4831 38.3063 28.7393 39.7125C26.4893 41.7938 22.355 40.95 21.1737 38.1094C19.7956 35.5219 21.455 32.0063 24.2956 31.3313ZM46.9925 31.3313C49.0175 30.7406 51.4081 31.5281 52.505 33.3844C53.9393 35.4938 53.2643 38.6719 51.0987 40.0219C48.8487 41.5969 45.3612 40.7813 44.0956 38.3063C42.605 35.7188 44.1237 32.0906 46.9925 31.3313ZM10.8237 33.75C12.6237 33.075 14.6487 35.0719 13.9175 36.8438C13.4675 38.475 11.1612 39.0938 9.97997 37.8844C8.57372 36.7594 9.1081 34.2281 10.8237 33.75ZM59.8456 36.3375C59.7893 34.8469 60.8862 33.525 62.4331 33.4406C63.6706 33.6375 64.88 34.6219 64.7675 35.9719C64.88 37.7438 62.7425 38.9531 61.2237 38.1375C60.5206 37.7719 60.155 37.0406 59.8456 36.3375ZM1.93622 34.6219C3.0331 34.1438 4.3831 35.1 4.12997 36.3094C4.07372 37.6875 2.04872 38.1938 1.31747 37.0688C0.642473 36.2531 1.03622 35.0156 1.93622 34.6219ZM70.5331 34.5938C71.2925 34.0594 72.53 34.4531 72.8393 35.325C73.3456 36.3094 72.4175 37.6313 71.3206 37.4625C69.7737 37.6313 69.2675 35.2688 70.5331 34.5938ZM30.2018 41.1469C33.0706 40.4156 36.1362 42.7781 36.1643 45.7313C36.3612 48.7125 33.3237 51.3563 30.3987 50.6531C28.1206 50.2875 26.3487 48.0938 26.4331 45.8156C26.405 43.65 28.0644 41.625 30.2018 41.1469ZM41.5362 41.1469C44.4331 40.3313 47.6112 42.7781 47.555 45.7875C47.6956 48.7125 44.7706 51.2719 41.9018 50.6813C39.2018 50.3438 37.205 47.3625 37.9643 44.7469C38.3581 43.0031 39.8206 41.5688 41.5362 41.1469ZM19.6831 42.975C21.68 42.6375 23.5925 44.8875 22.7768 46.7719C22.1862 48.7969 19.2331 49.3594 17.9112 47.7C16.3643 46.0969 17.5175 43.2 19.6831 42.975ZM52.9268 43.0594C54.7268 42.3 56.9206 43.8469 56.78 45.8156C56.8643 47.9531 54.1362 49.4438 52.3925 48.1781C50.3956 47.0531 50.7612 43.7344 52.9268 43.0594ZM62.2362 52.3688C61.5331 51.0469 62.7987 49.3313 64.2612 49.5563C64.9925 49.5563 65.4987 50.1188 65.9487 50.5969C66.0331 51.3844 66.2019 52.2844 65.555 52.9031C64.6831 54.0281 62.6862 53.6906 62.2362 52.3688ZM8.96747 49.95C10.3175 49.05 12.2862 50.4 11.9768 51.975C11.8081 53.3813 10.0362 54.1688 8.8831 53.3813C7.61747 52.65 7.67372 50.5969 8.96747 49.95ZM35.7706 52.875C37.5425 52.0875 39.8206 53.6344 39.6518 55.6031C39.7925 57.7688 36.98 59.2594 35.2362 57.9656C33.3237 56.8406 33.6331 53.5781 35.7706 52.875ZM23.3675 55.7719C24.8862 54.9844 26.9112 56.3625 26.7706 58.05C26.8268 59.4281 25.4487 60.6375 24.0987 60.4125C22.9737 60.3844 22.2143 59.3719 21.8487 58.3875C21.8487 57.3469 22.2987 56.1656 23.3675 55.7719ZM48.5394 55.8C50.0862 54.8438 52.3081 56.2219 52.1675 58.0219C52.1956 59.9063 49.6925 61.1156 48.2581 59.8781C46.8237 58.9219 47.0206 56.5875 48.5394 55.8ZM52.8987 66.6281C52.1956 65.5875 53.0112 64.3219 54.1362 64.0688C55.0362 64.2656 55.9925 64.9406 55.7956 65.9813C55.6831 67.4156 53.6019 67.8375 52.8987 66.6281ZM18.1643 65.7C18.4456 64.8563 19.1206 64.0406 20.0768 64.2656C21.5112 64.3781 21.9331 66.5156 20.6675 67.1906C19.5706 67.95 18.2487 66.9094 18.1643 65.7ZM34.9268 66.6563C35.2081 65.4188 36.7831 64.8281 37.8519 65.475C38.555 65.7844 38.7518 66.5438 38.9206 67.2188C38.8362 67.5563 38.7519 67.8938 38.6675 68.2594C38.2456 68.7656 37.6831 69.2719 36.98 69.2719C35.63 69.4125 34.4206 67.9219 34.9268 66.6563Z" fill="white"/>
  </g>
  <defs>
    <clipPath id="clip0_165_18294">
      <rect width="72" height="72" fill="white" transform="translate(0.97998)"/>
    </clipPath>
  </defs>
</svg>