<svg xmlns="http://www.w3.org/2000/svg" width="73" height="72" viewBox="0 0 73 72" fill="none">
  <g clip-path="url(#clip0_165_18299)">
    <path d="M35.788 2.92502C37.363 2.10939 39.2755 3.99377 38.4318 5.56877C37.9537 6.83439 36.1255 7.20002 35.1693 6.21564C34.1849 5.28752 34.4943 3.43127 35.788 2.92502ZM18.8849 4.75314C19.8412 4.35939 21.0505 5.23127 20.938 6.27189C21.0505 7.39689 19.6724 8.24064 18.688 7.70627C17.4224 7.20002 17.563 5.11877 18.8849 4.75314ZM53.4787 7.73439C51.988 7.56564 51.763 5.20314 53.1974 4.75314C54.3224 4.21877 55.3349 5.23127 55.5037 6.27189C55.2505 7.17189 54.4912 7.98752 53.4787 7.73439ZM22.738 11.925C24.3412 10.9125 26.6193 12.4313 26.3662 14.2594C26.2818 16.1156 23.8068 17.2125 22.4005 15.9469C21.0505 14.9625 21.2474 12.7125 22.738 11.925ZM47.0662 12.9938C47.7693 11.1656 50.6662 11.1094 51.4537 12.8813C52.2412 14.2594 51.2568 15.975 49.8505 16.4531C47.9662 16.8469 46.1662 14.7938 47.0662 12.9938ZM33.7349 16.3688C33.7068 14.7938 35.1412 13.6125 36.6599 13.5C37.6443 13.6969 38.7412 14.1188 39.163 15.1313C39.9505 16.5094 39.2474 18.4219 37.813 19.0406C37.1662 19.4063 36.3787 19.2656 35.6755 19.2375C34.5787 18.7031 33.6505 17.6625 33.7349 16.3688ZM8.6474 18.675C10.1099 17.775 12.0787 19.4063 11.5162 20.9813C11.2068 22.3594 9.37865 22.8938 8.3099 22.0219C7.1849 21.2344 7.38178 19.2656 8.6474 18.675ZM62.5349 18.675C63.7724 17.7188 65.7974 18.8156 65.6568 20.3625C65.7412 21.7969 63.9693 22.8656 62.7599 22.1344C61.4099 21.5156 61.2693 19.4344 62.5349 18.675ZM40.7943 21.4875C42.8193 20.7563 45.2662 21.6281 46.4193 23.4563C47.938 25.6781 47.1224 29.0531 44.7599 30.3469C42.2849 31.8656 38.6849 30.5719 37.7849 27.8156C36.7443 25.3688 38.263 22.275 40.7943 21.4875ZM28.8412 21.7406C31.0912 20.6719 34.1287 21.5719 35.2255 23.8781C36.5193 26.1281 35.5068 29.25 33.2287 30.4313C30.9224 31.725 27.688 30.7406 26.563 28.3219C25.3255 25.9875 26.4224 22.8094 28.8412 21.7406ZM16.8599 25.8469C17.0287 24.3844 18.4068 23.4563 19.7849 23.3438C21.2755 23.5125 22.4568 24.6938 22.6255 26.1844C22.5412 27.675 21.3599 29.1375 19.7849 29.1375C18.0693 29.2781 16.5224 27.5625 16.8599 25.8469ZM52.2412 23.6531C54.0412 22.6125 56.5162 24.1313 56.4318 26.1844C56.5443 28.35 53.8162 29.8969 52.0162 28.6313C50.1599 27.5625 50.3287 24.5531 52.2412 23.6531ZM23.9755 31.3313C26.0568 30.7688 28.4755 31.7531 29.488 33.6656C30.613 35.6063 30.163 38.3063 28.4193 39.7125C26.1693 41.7938 22.0349 40.95 20.8537 38.1094C19.4755 35.5219 21.1349 32.0063 23.9755 31.3313ZM46.6724 31.3313C48.6974 30.7406 51.088 31.5281 52.1849 33.3844C53.6193 35.4938 52.9443 38.6719 50.7787 40.0219C48.5287 41.5969 45.0412 40.7813 43.7755 38.3063C42.2849 35.7188 43.8037 32.0906 46.6724 31.3313ZM10.5037 33.75C12.3037 33.075 14.3287 35.0719 13.5974 36.8438C13.1474 38.475 10.8412 39.0938 9.6599 37.8844C8.25365 36.7594 8.78803 34.2281 10.5037 33.75ZM59.5255 36.3375C59.4693 34.8469 60.5662 33.525 62.113 33.4406C63.3505 33.6375 64.5599 34.6219 64.4474 35.9719C64.5599 37.7438 62.4224 38.9531 60.9037 38.1375C60.2005 37.7719 59.8349 37.0406 59.5255 36.3375ZM1.61615 34.6219C2.71303 34.1438 4.06303 35.1 3.8099 36.3094C3.75365 37.6875 1.72865 38.1938 0.997404 37.0688C0.322404 36.2531 0.716154 35.0156 1.61615 34.6219ZM70.213 34.5938C70.9724 34.0594 72.2099 34.4531 72.5193 35.325C73.0255 36.3094 72.0974 37.6313 71.0005 37.4625C69.4537 37.6313 68.9474 35.2688 70.213 34.5938ZM29.8818 41.1469C32.7505 40.4156 35.8162 42.7781 35.8443 45.7313C36.0412 48.7125 33.0037 51.3563 30.0787 50.6531C27.8005 50.2875 26.0287 48.0938 26.113 45.8156C26.0849 43.65 27.7443 41.625 29.8818 41.1469ZM41.2162 41.1469C44.113 40.3313 47.2912 42.7781 47.2349 45.7875C47.3755 48.7125 44.4505 51.2719 41.5818 50.6813C38.8818 50.3438 36.8849 47.3625 37.6443 44.7469C38.038 43.0031 39.5005 41.5688 41.2162 41.1469ZM19.363 42.975C21.3599 42.6375 23.2724 44.8875 22.4568 46.7719C21.8662 48.7969 18.913 49.3594 17.5912 47.7C16.0443 46.0969 17.1974 43.2 19.363 42.975ZM52.6068 43.0594C54.4068 42.3 56.6005 43.8469 56.4599 45.8156C56.5443 47.9531 53.8162 49.4438 52.0724 48.1781C50.0755 47.0531 50.4412 43.7344 52.6068 43.0594ZM61.9162 52.3688C61.213 51.0469 62.4787 49.3313 63.9412 49.5563C64.6724 49.5563 65.1787 50.1188 65.6287 50.5969C65.713 51.3844 65.8818 52.2844 65.2349 52.9031C64.363 54.0281 62.3662 53.6906 61.9162 52.3688ZM8.6474 49.95C9.9974 49.05 11.9662 50.4 11.6568 51.975C11.488 53.3813 9.71615 54.1688 8.56303 53.3813C7.2974 52.65 7.35365 50.5969 8.6474 49.95ZM35.4505 52.875C37.2224 52.0875 39.5005 53.6344 39.3318 55.6031C39.4724 57.7688 36.6599 59.2594 34.9162 57.9656C33.0037 56.8406 33.313 53.5781 35.4505 52.875ZM23.0474 55.7719C24.5662 54.9844 26.5912 56.3625 26.4505 58.05C26.5068 59.4281 25.1287 60.6375 23.7787 60.4125C22.6537 60.3844 21.8943 59.3719 21.5287 58.3875C21.5287 57.3469 21.9787 56.1656 23.0474 55.7719ZM48.2193 55.8C49.7662 54.8438 51.988 56.2219 51.8474 58.0219C51.8755 59.9063 49.3724 61.1156 47.938 59.8781C46.5037 58.9219 46.7005 56.5875 48.2193 55.8ZM52.5787 66.6281C51.8755 65.5875 52.6912 64.3219 53.8162 64.0688C54.7162 64.2656 55.6724 64.9406 55.4755 65.9813C55.363 67.4156 53.2818 67.8375 52.5787 66.6281ZM17.8443 65.7C18.1255 64.8563 18.8005 64.0406 19.7568 64.2656C21.1912 64.3781 21.613 66.5156 20.3474 67.1906C19.2505 67.95 17.9287 66.9094 17.8443 65.7ZM34.6068 66.6563C34.888 65.4188 36.463 64.8281 37.5318 65.475C38.2349 65.7844 38.4318 66.5438 38.6005 67.2188C38.5162 67.5563 38.4318 67.8938 38.3474 68.2594C37.9255 68.7656 37.363 69.2719 36.6599 69.2719C35.3099 69.4125 34.1005 67.9219 34.6068 66.6563Z" fill="white"/>
    <path fill-rule="evenodd" clip-rule="evenodd" d="M55.0255 36.7031C64.7849 36.7031 72.688 44.6063 72.688 54.3656C72.688 64.125 64.7568 72 55.0255 72C45.2943 72 37.363 64.0969 37.363 54.3375C37.363 44.5781 45.2662 36.7031 55.0255 36.7031Z" fill="#F0B90B"/>
    <path d="M47.0661 54.3657V59.0345L51.0318 61.3688V64.097L44.7599 60.4126V53.0157L47.0661 54.3657ZM47.0661 49.697V52.4251L44.7599 51.047V48.3188L47.0661 46.9407L49.4005 48.3188L47.0661 49.697ZM52.6911 48.3188L54.9974 46.9407L57.3318 48.3188L54.9974 49.697L52.6911 48.3188ZM48.7255 58.0501V55.322L51.0318 56.7001V59.4282L48.7255 58.0501ZM52.6911 62.3251L54.9974 63.7032L57.3318 62.3251V65.0532L54.9974 66.4313L52.6911 65.0532V62.3251ZM60.6505 48.3188L62.9568 46.9407L65.2911 48.3188V51.047L62.9568 52.4251V49.697L60.6505 48.3188ZM62.9568 59.0063V54.3376L65.263 52.9595V60.3563L58.9911 64.0407V61.3126L62.9568 59.0063ZM61.2974 58.0501L58.9911 59.4001V56.672L61.2974 55.2938V58.0501ZM61.2974 50.6532V53.3813L57.3318 55.7157V60.3845L55.0255 61.7345L52.7193 60.3845V55.7157L48.7536 53.3813V50.6532L51.0599 49.2751L55.0255 51.6095L58.9911 49.2751L61.2974 50.6532ZM48.7255 45.9845L54.9974 42.272L61.2693 45.9845L58.963 47.3626L54.9974 45.0282L51.0318 47.3626L48.7255 45.9845Z" fill="white"/>
  </g>
  <defs>
    <clipPath id="clip0_165_18299">
      <rect width="72" height="72" fill="white" transform="translate(0.659912)"/>
    </clipPath>
  </defs>
</svg>