<svg xmlns="http://www.w3.org/2000/svg" width="73" height="72" viewBox="0 0 73 72" fill="none">
  <g clip-path="url(#clip0_165_18306)">
    <path d="M35.4581 2.92502C37.0331 2.10939 38.9456 3.99377 38.1018 5.56877C37.6237 6.83439 35.7956 7.20002 34.8393 6.21564C33.8549 5.28752 34.1643 3.43127 35.4581 2.92502ZM18.555 4.75314C19.5112 4.35939 20.7206 5.23127 20.6081 6.27189C20.7206 7.39689 19.3424 8.24064 18.3581 7.70627C17.0924 7.20002 17.2331 5.11877 18.555 4.75314ZM53.1487 7.73439C51.6581 7.56564 51.4331 5.20314 52.8675 4.75314C53.9925 4.21877 55.0049 5.23127 55.1737 6.27189C54.9206 7.17189 54.1612 7.98752 53.1487 7.73439ZM22.4081 11.925C24.0112 10.9125 26.2893 12.4313 26.0362 14.2594C25.9518 16.1156 23.4768 17.2125 22.0706 15.9469C20.7206 14.9625 20.9174 12.7125 22.4081 11.925ZM46.7362 12.9938C47.4393 11.1656 50.3362 11.1094 51.1237 12.8813C51.9112 14.2594 50.9268 15.975 49.5206 16.4531C47.6362 16.8469 45.8362 14.7938 46.7362 12.9938ZM33.4049 16.3688C33.3768 14.7938 34.8112 13.6125 36.3299 13.5C37.3143 13.6969 38.4112 14.1188 38.8331 15.1313C39.6206 16.5094 38.9174 18.4219 37.4831 19.0406C36.8362 19.4063 36.0487 19.2656 35.3456 19.2375C34.2487 18.7031 33.3206 17.6625 33.4049 16.3688ZM8.31745 18.675C9.77995 17.775 11.7487 19.4063 11.1862 20.9813C10.8768 22.3594 9.0487 22.8938 7.97995 22.0219C6.85495 21.2344 7.05182 19.2656 8.31745 18.675ZM62.2049 18.675C63.4424 17.7188 65.4675 18.8156 65.3268 20.3625C65.4112 21.7969 63.6393 22.8656 62.43 22.1344C61.0799 21.5156 60.9393 19.4344 62.2049 18.675ZM40.4643 21.4875C42.4893 20.7563 44.9362 21.6281 46.0893 23.4563C47.6081 25.6781 46.7924 29.0531 44.43 30.3469C41.9549 31.8656 38.3549 30.5719 37.4549 27.8156C36.4143 25.3688 37.9331 22.275 40.4643 21.4875ZM28.5112 21.7406C30.7612 20.6719 33.7987 21.5719 34.8956 23.8781C36.1893 26.1281 35.1768 29.25 32.8987 30.4313C30.5925 31.725 27.3581 30.7406 26.2331 28.3219C24.9956 25.9875 26.0924 22.8094 28.5112 21.7406ZM16.5299 25.8469C16.6987 24.3844 18.0768 23.4563 19.4549 23.3438C20.9456 23.5125 22.1268 24.6938 22.2956 26.1844C22.2112 27.675 21.0299 29.1375 19.4549 29.1375C17.7393 29.2781 16.1924 27.5625 16.5299 25.8469ZM51.9112 23.6531C53.7112 22.6125 56.1862 24.1313 56.1018 26.1844C56.2143 28.35 53.4862 29.8969 51.6862 28.6313C49.83 27.5625 49.9987 24.5531 51.9112 23.6531ZM23.6456 31.3313C25.7268 30.7688 28.1456 31.7531 29.1581 33.6656C30.2831 35.6063 29.8331 38.3063 28.0893 39.7125C25.8393 41.7938 21.705 40.95 20.5237 38.1094C19.1456 35.5219 20.8049 32.0063 23.6456 31.3313ZM46.3425 31.3313C48.3675 30.7406 50.7581 31.5281 51.8549 33.3844C53.2893 35.4938 52.6143 38.6719 50.4487 40.0219C48.1987 41.5969 44.7112 40.7813 43.4456 38.3063C41.9549 35.7188 43.4737 32.0906 46.3425 31.3313ZM10.1737 33.75C11.9737 33.075 13.9987 35.0719 13.2674 36.8438C12.8174 38.475 10.5112 39.0938 9.32995 37.8844C7.9237 36.7594 8.45807 34.2281 10.1737 33.75ZM59.1956 36.3375C59.1393 34.8469 60.2362 33.525 61.7831 33.4406C63.0206 33.6375 64.2299 34.6219 64.1175 35.9719C64.2299 37.7438 62.0924 38.9531 60.5737 38.1375C59.8706 37.7719 59.505 37.0406 59.1956 36.3375ZM1.2862 34.6219C2.38307 34.1438 3.73307 35.1 3.47995 36.3094C3.4237 37.6875 1.3987 38.1938 0.667448 37.0688C-0.00755161 36.2531 0.386198 35.0156 1.2862 34.6219ZM69.8831 34.5938C70.6424 34.0594 71.88 34.4531 72.1893 35.325C72.6956 36.3094 71.7674 37.6313 70.6706 37.4625C69.1237 37.6313 68.6174 35.2688 69.8831 34.5938ZM29.5518 41.1469C32.4206 40.4156 35.4862 42.7781 35.5143 45.7313C35.7112 48.7125 32.6737 51.3563 29.7487 50.6531C27.4706 50.2875 25.6987 48.0938 25.7831 45.8156C25.7549 43.65 27.4143 41.625 29.5518 41.1469ZM40.8862 41.1469C43.7831 40.3313 46.9612 42.7781 46.905 45.7875C47.0456 48.7125 44.1206 51.2719 41.2518 50.6813C38.5518 50.3438 36.555 47.3625 37.3143 44.7469C37.7081 43.0031 39.1706 41.5688 40.8862 41.1469ZM19.0331 42.975C21.0299 42.6375 22.9424 44.8875 22.1268 46.7719C21.5362 48.7969 18.5831 49.3594 17.2612 47.7C15.7143 46.0969 16.8674 43.2 19.0331 42.975ZM52.2768 43.0594C54.0768 42.3 56.2706 43.8469 56.1299 45.8156C56.2143 47.9531 53.4862 49.4438 51.7425 48.1781C49.7456 47.0531 50.1112 43.7344 52.2768 43.0594ZM61.5862 52.3688C60.8831 51.0469 62.1487 49.3313 63.6112 49.5563C64.3425 49.5563 64.8487 50.1188 65.2987 50.5969C65.3831 51.3844 65.5518 52.2844 64.905 52.9031C64.0331 54.0281 62.0362 53.6906 61.5862 52.3688ZM8.31745 49.95C9.66745 49.05 11.6362 50.4 11.3268 51.975C11.1581 53.3813 9.3862 54.1688 8.23307 53.3813C6.96745 52.65 7.0237 50.5969 8.31745 49.95ZM35.1206 52.875C36.8924 52.0875 39.1706 53.6344 39.0018 55.6031C39.1424 57.7688 36.3299 59.2594 34.5862 57.9656C32.6737 56.8406 32.9831 53.5781 35.1206 52.875ZM22.7174 55.7719C24.2362 54.9844 26.2612 56.3625 26.1206 58.05C26.1768 59.4281 24.7987 60.6375 23.4487 60.4125C22.3237 60.3844 21.5643 59.3719 21.1987 58.3875C21.1987 57.3469 21.6487 56.1656 22.7174 55.7719ZM47.8893 55.8C49.4362 54.8438 51.6581 56.2219 51.5174 58.0219C51.5456 59.9063 49.0424 61.1156 47.6081 59.8781C46.1737 58.9219 46.3706 56.5875 47.8893 55.8ZM52.2487 66.6281C51.5456 65.5875 52.3612 64.3219 53.4862 64.0688C54.3862 64.2656 55.3424 64.9406 55.1456 65.9813C55.0331 67.4156 52.9518 67.8375 52.2487 66.6281ZM17.5143 65.7C17.7956 64.8563 18.4706 64.0406 19.4268 64.2656C20.8612 64.3781 21.2831 66.5156 20.0174 67.1906C18.9206 67.95 17.5987 66.9094 17.5143 65.7ZM34.2768 66.6563C34.5581 65.4188 36.1331 64.8281 37.2018 65.475C37.905 65.7844 38.1018 66.5438 38.2706 67.2188C38.1862 67.5563 38.1018 67.8938 38.0174 68.2594C37.5956 68.7656 37.0331 69.2719 36.3299 69.2719C34.9799 69.4125 33.7706 67.9219 34.2768 66.6563Z" fill="white"/>
    <path fill-rule="evenodd" clip-rule="evenodd" d="M54.4143 36.7031C64.1737 36.7031 72.0768 44.6063 72.0768 54.3656C72.0768 64.125 64.1456 72 54.4143 72C44.6831 72 36.7518 64.0969 36.7518 54.3375C36.7518 44.5781 44.655 36.7031 54.4143 36.7031Z" fill="black"/>
    <path d="M46.4549 54.3657V59.0345L50.4206 61.3688V64.097L44.1487 60.4126V53.0157L46.4549 54.3657ZM46.4549 49.697V52.4251L44.1487 51.047V48.3188L46.4549 46.9407L48.7893 48.3188L46.4549 49.697ZM52.0799 48.3188L54.3862 46.9407L56.7206 48.3188L54.3862 49.697L52.0799 48.3188ZM48.1143 58.0501V55.322L50.4206 56.7001V59.4282L48.1143 58.0501ZM52.0799 62.3251L54.3862 63.7032L56.7206 62.3251V65.0532L54.3862 66.4313L52.0799 65.0532V62.3251ZM60.0393 48.3188L62.3456 46.9407L64.6799 48.3188V51.047L62.3456 52.4251V49.697L60.0393 48.3188ZM62.3456 59.0063V54.3376L64.6518 52.9595V60.3563L58.3799 64.0407V61.3126L62.3456 59.0063ZM60.6862 58.0501L58.3799 59.4001V56.672L60.6862 55.2938V58.0501ZM60.6862 50.6532V53.3813L56.7206 55.7157V60.3845L54.4143 61.7345L52.1081 60.3845V55.7157L48.1424 53.3813V50.6532L50.4487 49.2751L54.4143 51.6095L58.3799 49.2751L60.6862 50.6532ZM48.1143 45.9845L54.3862 42.272L60.6581 45.9845L58.3518 47.3626L54.3862 45.0282L50.4206 47.3626L48.1143 45.9845Z" fill="#F0B90B"/>
  </g>
  <defs>
    <clipPath id="clip0_165_18306">
      <rect width="72" height="72" fill="white" transform="translate(0.329956)"/>
    </clipPath>
  </defs>
</svg>