<svg xmlns="http://www.w3.org/2000/svg" width="73" height="72" viewBox="0 0 73 72" fill="none">
  <g clip-path="url(#clip0_165_18315)">
    <path fill-rule="evenodd" clip-rule="evenodd" d="M36.9799 0C56.8642 0 72.9799 16.1156 72.9799 36C72.9799 55.8844 56.8642 72 36.9799 72C17.0955 72 0.979858 55.8844 0.979858 36C0.979858 16.1156 17.0955 0 36.9799 0Z" fill="white"/>
    <path fill-rule="evenodd" clip-rule="evenodd" d="M36.9236 15.2437C48.3986 15.2437 57.6799 24.553 57.6799 35.9999C57.6799 47.4749 48.3705 56.7562 36.9236 56.7562C25.4486 56.7562 16.1674 47.4468 16.1674 35.9999C16.1392 24.5249 25.4486 15.2437 36.9236 15.2437Z" fill="#E6E6E6"/>
    <path fill-rule="evenodd" clip-rule="evenodd" d="M37.5424 6.15942C37.2611 5.9063 37.1205 5.87817 37.0924 5.87817C37.0642 5.87817 36.9236 5.87817 36.6424 6.15942C36.3611 6.44067 35.9955 6.89067 35.6299 7.62192C34.8705 9.0563 34.1392 11.2219 33.5205 14.0344C32.8174 17.1563 32.2549 21.0094 31.9174 25.3125C33.6049 26.1282 35.3486 27.0282 37.0924 27.9563C38.8642 27 40.5799 26.1282 42.2674 25.3125C41.9299 21.0094 41.3674 17.1563 40.6642 14.0063C40.0455 11.1938 39.3142 9.02817 38.5549 7.5938C38.1892 6.89067 37.8517 6.44067 37.5424 6.15942ZM35.6017 28.7719C34.308 28.0969 33.0424 27.4219 31.7767 26.8313C31.6924 28.2094 31.608 29.6438 31.5517 31.1063C32.1986 30.7125 32.8736 30.3188 33.5486 29.925C34.2517 29.5313 34.9267 29.1657 35.6017 28.7719ZM30.5392 24.6657C31.5517 12.8532 34.1111 4.47192 37.0924 4.47192C40.0736 4.47192 42.633 12.8532 43.6455 24.6657C54.3892 19.6313 62.9111 17.6625 64.4299 20.2219C65.9205 22.8094 59.9299 29.1938 50.1986 35.9719C59.9299 42.75 65.9205 49.1625 64.4299 51.7219C62.9392 54.3094 54.3892 52.3126 43.6455 47.2782C42.633 59.0907 40.0736 67.4719 37.0924 67.4719C34.1111 67.4719 31.5517 59.0907 30.5392 47.2782C19.7955 52.3126 11.2455 54.2813 9.75486 51.7219C8.26423 49.1344 14.2549 42.75 23.9861 35.9719C14.283 29.2219 8.29236 22.8094 9.78298 20.25C11.2736 17.6625 19.7955 19.6313 30.5392 24.6657ZM25.2517 35.1563C21.6799 32.7094 18.6424 30.2907 16.2517 28.125C14.1424 26.1844 12.6236 24.4688 11.7517 23.1188C11.3299 22.4438 11.0767 21.8813 10.9924 21.5157C10.908 21.15 10.9642 21.0094 10.9924 20.9813C10.9924 20.9532 11.0767 20.8407 11.4424 20.7282C11.8361 20.6157 12.3986 20.5313 13.2142 20.5594C14.8455 20.6157 17.0674 21.0938 19.8236 21.9375C22.8892 22.8938 26.5174 24.3563 30.4267 26.2125C30.2861 28.0688 30.2017 30.0094 30.1455 32.0344C28.4299 33.0469 26.7986 34.0875 25.2517 35.1563ZM25.2517 36.8438C21.6799 39.2907 18.6424 41.7094 16.2517 43.875C14.1424 45.8157 12.6236 47.5313 11.7517 48.8813C11.3299 49.5563 11.0767 50.1188 10.9924 50.4844C10.908 50.8501 10.9642 50.9907 10.9924 51.0188C10.9924 51.0469 11.0767 51.1594 11.4424 51.2719C11.8361 51.3844 12.3986 51.4688 13.2142 51.4407C14.8455 51.3844 17.0674 50.9063 19.8236 50.0625C22.8892 49.1063 26.5174 47.6438 30.4267 45.7876C30.2861 43.9313 30.2017 41.9907 30.1455 39.9657C28.4299 38.9532 26.7986 37.9125 25.2517 36.8438ZM30.0892 38.3344C28.8517 37.5469 27.6424 36.7875 26.4892 36C27.6424 35.2125 28.8517 34.4532 30.0892 33.6657C30.0892 34.425 30.0611 35.2125 30.0611 36C30.0892 36.7875 30.0892 37.5751 30.0892 38.3344ZM31.5236 39.2063C31.4955 38.1657 31.4955 37.0688 31.4955 36C31.4955 34.9032 31.4955 33.8344 31.5236 32.7938C32.4236 32.2594 33.3517 31.6969 34.2799 31.1625C35.208 30.6282 36.1642 30.0938 37.0924 29.5875C38.0205 30.0938 38.9486 30.6282 39.9049 31.1625C40.833 31.6969 41.7611 32.2594 42.6611 32.7938C42.6892 33.8344 42.6892 34.9313 42.6892 36C42.6892 37.0688 42.6892 38.1657 42.6611 39.2063C41.7611 39.7407 40.833 40.3032 39.9049 40.8376C38.9767 41.3719 38.0205 41.9063 37.0924 42.4126C36.1642 41.9063 35.2361 41.3719 34.2799 40.8376C33.3517 40.3032 32.4236 39.7688 31.5236 39.2063ZM31.5799 40.8938C31.6361 42.3563 31.6924 43.7907 31.8049 45.1688C33.0424 44.5501 34.3361 43.9032 35.6299 43.2282C34.9549 42.8625 34.2799 42.4688 33.6049 42.0751C32.9017 41.6813 32.2267 41.2875 31.5799 40.8938ZM37.0924 44.0157C35.3205 44.9719 33.6049 45.8438 31.9174 46.6594C32.2549 50.9625 32.8174 54.8157 33.5205 57.9657C34.1392 60.7782 34.8705 62.9438 35.6299 64.3782C35.9955 65.1094 36.3611 65.5594 36.6424 65.8407C36.9236 66.0938 37.0642 66.1219 37.0924 66.1219C37.1205 66.1219 37.2611 66.1219 37.5424 65.8407C37.8236 65.5594 38.1892 65.1094 38.5549 64.3782C39.3142 62.9438 40.0455 60.7782 40.6642 57.9657C41.3674 54.8157 41.9299 50.9625 42.2674 46.6594C40.5799 45.8719 38.8361 44.9719 37.0924 44.0157ZM43.758 45.8157C47.6674 47.6719 51.2674 49.1063 54.3611 50.0907C57.0892 50.9626 59.3392 51.4126 60.9705 51.4688C61.7861 51.4969 62.3486 51.4407 62.7424 51.3C63.108 51.1875 63.1924 51.0469 63.1924 51.0469C63.1924 51.0188 63.2767 50.9063 63.1924 50.5126C63.108 50.1188 62.883 49.5844 62.433 48.9094C61.5611 47.5313 60.0424 45.8157 57.933 43.9032C55.5424 41.7094 52.5049 39.3188 48.933 36.8719C47.3861 37.9126 45.7549 38.9813 44.0392 40.0219C43.983 42.0188 43.8705 43.9594 43.758 45.8157ZM48.933 35.1563C52.5049 32.7094 55.5424 30.2907 57.933 28.125C60.0424 26.1844 61.5611 24.4688 62.433 23.1188C62.8549 22.4438 63.108 21.8813 63.1924 21.5157C63.2767 21.15 63.2205 21.0094 63.1924 20.9813C63.1924 20.9532 63.108 20.8407 62.7424 20.7282C62.3486 20.6157 61.7861 20.5313 60.9705 20.5594C59.3392 20.6157 57.1174 21.0938 54.3611 21.9375C51.2955 22.8938 47.6674 24.3563 43.758 26.2125C43.8986 28.0688 43.983 30.0094 44.0392 32.0344C45.7549 33.0469 47.3861 34.0875 48.933 35.1563ZM44.0674 33.6657C45.3049 34.4532 46.5142 35.2125 47.6674 36C46.5142 36.7875 45.3049 37.5469 44.0674 38.3344C44.0674 37.5751 44.0955 36.7875 44.0955 36C44.0955 35.2125 44.0955 34.425 44.0674 33.6657ZM42.6049 31.1063C42.5486 29.6438 42.4924 28.2094 42.3799 26.8313C41.1424 27.45 39.8486 28.0969 38.5549 28.7719C39.2299 29.1375 39.9049 29.5313 40.5799 29.925C41.283 30.3188 41.9299 30.7125 42.6049 31.1063ZM42.3799 45.1688C41.1424 44.5501 39.8486 43.9032 38.5549 43.2282C39.2299 42.8625 39.9049 42.4688 40.5799 42.0751L42.6049 40.8938C42.5486 42.3563 42.4642 43.7907 42.3799 45.1688Z" fill="black"/>
    <path fill-rule="evenodd" clip-rule="evenodd" d="M16.9548 27.1687C18.1923 27.1687 19.1767 28.1531 19.1767 29.3906C19.1767 30.6281 18.1923 31.6125 16.9548 31.6125C15.7173 31.6125 14.733 30.6281 14.733 29.3906C14.733 28.1531 15.7173 27.1687 16.9548 27.1687ZM52.1673 19.575C53.4048 19.575 54.3892 20.5593 54.3892 21.7968C54.3892 23.0343 53.4048 24.0187 52.1673 24.0187C50.9298 24.0187 49.9455 23.0343 49.9455 21.7968C49.9455 20.5593 50.9298 19.575 52.1673 19.575ZM32.6205 54.3937C33.858 54.3937 34.8423 55.3781 34.8423 56.6156C34.8423 57.8531 33.858 58.8375 32.6205 58.8375C31.383 58.8375 30.3986 57.8531 30.3986 56.6156C30.3986 55.3781 31.383 54.3937 32.6205 54.3937ZM36.9517 32.2312C39.033 32.2312 40.6923 33.9187 40.6923 35.9718C40.6923 38.0531 39.0048 39.7125 36.9517 39.7125C34.8705 39.7125 33.2111 38.025 33.2111 35.9718C33.2111 33.9187 34.8986 32.2312 36.9517 32.2312Z" fill="black"/>
  </g>
  <defs>
    <clipPath id="clip0_165_18315">
      <rect width="72" height="72" fill="white" transform="translate(0.979858)"/>
    </clipPath>
  </defs>
</svg>