<svg xmlns="http://www.w3.org/2000/svg" width="73" height="72" viewBox="0 0 73 72" fill="none">
  <g clip-path="url(#clip0_165_18324)">
    <path d="M36.665 72C56.5473 72 72.665 55.8823 72.665 36C72.665 16.1177 56.5473 0 36.665 0C16.7828 0 0.665039 16.1177 0.665039 36C0.665039 55.8823 16.7828 72 36.665 72Z" fill="#E84142"/>
    <path fill-rule="evenodd" clip-rule="evenodd" d="M26.4557 50.3157H19.4807C18.0182 50.3157 17.2869 50.3157 16.8369 50.0345C16.3588 49.7251 16.0775 49.2188 16.0213 48.6563C15.9932 48.122 16.3588 47.5032 17.09 46.2376L34.3307 15.8345C35.0619 14.5407 35.4275 13.8938 35.9057 13.6688C36.4119 13.4157 37.0025 13.4157 37.5088 13.6688C37.9869 13.8938 38.3525 14.5407 39.0838 15.8345L42.6275 22.022L42.6557 22.0501C43.4432 23.4282 43.8369 24.1313 44.0338 24.8626C44.2307 25.6782 44.2307 26.522 44.0338 27.3095C43.865 28.0407 43.4713 28.772 42.6557 30.1782L33.5994 46.2095L33.5713 46.2376C32.7838 47.6438 32.3619 48.347 31.7994 48.8814C31.1807 49.472 30.4494 49.8938 29.6619 50.1188C28.9307 50.3157 28.115 50.3157 26.4557 50.3157ZM44.1182 50.3157H54.1307C55.6213 50.3157 56.3525 50.3157 56.8025 50.0345C57.2807 49.7251 57.59 49.1907 57.6182 48.6282C57.6463 48.122 57.2807 47.5032 56.6057 46.322C56.5775 46.2938 56.5494 46.2376 56.5213 46.2095L51.515 37.6313L51.4588 37.547C50.7557 36.3657 50.39 35.747 49.94 35.522C49.4338 35.2689 48.8432 35.2689 48.3369 35.522C47.8869 35.747 47.4932 36.3938 46.7619 37.6595L41.7275 46.2095L41.6994 46.2376C40.9682 47.5032 40.6025 48.122 40.6307 48.6563C40.6588 49.2188 40.9682 49.7532 41.4463 50.0626C41.8963 50.3157 42.6275 50.3157 44.1182 50.3157Z" fill="white"/>
  </g>
  <defs>
    <clipPath id="clip0_165_18324">
      <rect width="72" height="72" fill="white" transform="translate(0.665039)"/>
    </clipPath>
  </defs>
</svg>