<svg xmlns="http://www.w3.org/2000/svg" width="73" height="72" viewBox="0 0 73 72" fill="none">
  <g clip-path="url(#clip0_165_18343)">
    <path d="M36.98 72C56.8622 72 72.98 55.8823 72.98 36C72.98 16.1177 56.8622 0 36.98 0C17.0977 0 0.97998 16.1177 0.97998 36C0.97998 55.8823 17.0977 72 36.98 72Z" fill="#85C459"/>
    <path d="M54.6425 37.6876C54.3894 36.422 53.9112 35.1563 53.1519 34.1157C52.055 32.8782 50.6769 32.1751 49.0175 31.8376C48.455 31.7251 47.9487 31.7251 47.3862 31.6126C47.5831 31.5001 47.6394 31.3595 47.7519 31.3032C48.4269 30.6001 49.0456 29.7845 49.355 28.8845C49.7769 27.6751 49.6925 26.4376 49.4394 25.172C49.0456 23.3438 48.1456 21.7688 46.4862 20.672C45.2769 19.997 43.955 19.6313 42.6331 19.5188L38.4706 19.6876C38.105 19.7438 37.9644 19.6876 37.9081 19.322C37.8519 18.7032 37.7112 18.1407 37.5706 17.6063C37.2894 16.2282 36.98 14.8501 36.6425 13.3876C36.53 13.4438 36.5019 13.3313 36.3894 13.3876C35.1237 13.6407 33.9987 13.922 32.8175 14.1188C32.5644 14.1188 32.5081 14.2595 32.6206 14.4845L32.9019 15.8626C33.155 17.3813 33.4362 18.7595 33.7737 20.2501C33.7175 20.3907 33.7175 20.6438 33.605 20.7001C32.6769 20.897 31.6644 21.1501 30.7644 21.347C30.7644 21.0938 30.7081 20.9813 30.68 20.897C30.2862 19.0688 29.8362 17.1282 29.4425 15.3001C29.4425 15.047 29.3862 14.9345 29.0487 14.9907C27.9237 15.3001 26.9112 15.5251 25.73 15.722C25.3644 15.7782 25.3362 15.9188 25.3644 16.2845C25.8144 18.2251 26.2081 20.0532 26.63 21.9938C26.6862 22.3595 26.63 22.5001 26.2644 22.5563C24.9987 22.8095 23.7612 23.147 22.4956 23.4001C21.3144 23.6251 20.1612 23.9345 19.0081 24.1876C19.2331 25.3688 19.5144 26.6345 19.7394 27.8157C19.7394 28.0688 19.88 28.1251 20.105 28.0126C21.0331 27.8157 22.0456 27.5626 23.1144 27.422C24.1831 27.2813 25.1394 27.9563 25.3362 28.8563C26.7144 34.7626 27.9237 40.6126 29.1612 46.4626C29.4144 47.222 28.9925 47.9251 28.0925 48.122C27.3331 48.3751 26.405 48.5719 25.5894 48.7126C25.28 48.8532 25.1956 48.9095 25.2237 49.2751C25.3081 50.2313 25.3644 51.3563 25.3925 52.4813C25.3925 52.9876 25.4487 53.3532 25.4206 53.8595C28.1769 53.2688 30.8206 52.7345 33.4644 52.2001C33.5769 52.397 33.5206 52.5657 33.5487 52.6501C33.83 54.5345 34.28 56.4751 34.73 58.3876C34.73 58.6407 34.7862 58.7532 35.1237 58.6969C36.2487 58.3876 37.3737 58.1063 38.5269 57.9094C38.8925 57.8532 38.8362 57.7688 38.8362 57.5157C38.5831 56.5032 38.4425 55.4345 38.1894 54.422C37.9362 53.4095 37.7956 52.3407 37.5425 51.3282C38.555 51.0751 39.4831 50.8782 40.3831 50.6813C40.6362 50.6813 40.58 50.8219 40.6925 51.047C40.9737 52.9313 41.4237 54.8719 41.8737 56.7844C41.8737 57.0376 41.93 57.1501 42.2675 57.0938C43.28 56.8407 44.4612 56.6438 45.4737 56.4188C46.0925 56.3626 46.0362 56.2782 45.9237 55.8001C45.53 53.9719 45.08 52.0313 44.6862 50.2032C44.63 49.8376 44.7987 49.6407 45.1362 49.5844C47.33 48.8813 49.4675 48.0938 51.4644 46.7438C52.9831 45.7313 54.08 44.3251 54.5581 42.4407C55.0362 40.8094 54.9237 39.3188 54.6425 37.6876ZM33.4081 33.8345C32.9581 31.3876 32.48 29.1095 31.9456 26.7188C31.8894 26.3532 31.9456 26.2126 32.3112 26.1563C34.0269 25.8188 35.63 25.4251 37.3456 25.3407C38.4706 25.3126 39.68 25.4532 40.6362 26.1282C42.4925 27.3657 42.5769 30.0938 40.8612 31.472C40.4956 31.7813 40.0456 32.1188 39.8487 32.2313C38.2175 33.0188 36.755 33.3844 35.1237 33.9188C34.6737 34.0032 34.3081 34.0595 33.8581 34.172C33.5487 34.1438 33.4081 34.0876 33.4081 33.8345ZM45.5019 43.3126C44.5737 44.2688 43.4487 44.8313 42.1831 45.3095C40.4112 46.0688 38.4144 46.4063 36.5862 46.8001C36.5862 46.8001 36.4456 46.7438 36.3331 46.8001C35.9956 45.0844 35.6019 43.4813 35.2925 41.8782C34.9831 40.7532 34.8425 39.6845 34.5612 38.5595C34.505 38.1938 34.4769 38.1095 34.8144 38.0532C37.0644 37.4626 39.3987 36.8157 41.7331 36.9282C42.8019 37.0407 43.8706 37.1532 44.7706 37.7157C46.7112 38.8126 47.1331 41.7657 45.5019 43.3126Z" fill="white"/>
  </g>
  <defs>
    <clipPath id="clip0_165_18343">
      <rect width="72" height="72" fill="white" transform="translate(0.97998)"/>
    </clipPath>
  </defs>
</svg>