<svg xmlns="http://www.w3.org/2000/svg" width="73" height="72" viewBox="0 0 73 72" fill="none">
  <g clip-path="url(#clip0_165_18349)">
    <path fill-rule="evenodd" clip-rule="evenodd" d="M36.6649 0C56.5493 0 72.6649 16.1156 72.6649 36C72.6649 55.8844 56.5493 72 36.6649 72C16.7805 72 0.664917 55.8844 0.664917 36C0.664917 16.1156 16.7805 0 36.6649 0Z" fill="#F0B90B"/>
    <path d="M20.4368 36L20.4649 45.5063L28.5649 50.2594V55.8281L15.7399 48.3188V33.2156L20.4368 36ZM20.4368 26.4937V32.0344L15.7399 29.25V23.6812L20.4368 20.8969L25.1618 23.6812L20.4368 26.4937ZM31.9399 23.6812L36.6368 20.8969L41.3618 23.6812L36.6649 26.4937L31.9399 23.6812ZM23.8681 43.5375V37.9688L28.5649 40.7531V46.2938L23.8681 43.5375ZM31.9399 52.2844L36.6368 55.0688L41.3618 52.2844V57.825L36.6368 60.6094L31.9399 57.825V52.2844ZM48.1399 23.6812L52.8368 20.8969L57.5618 23.6812V29.25L52.8368 32.0344V26.4937L48.1399 23.6812ZM52.8649 45.5063L52.8931 36L57.5899 33.2156V48.3188L44.7649 55.8281V50.2594L52.8649 45.5063ZM49.4618 43.5375L44.7649 46.2938V40.7531L49.4618 37.9688V43.5375ZM49.4618 28.4625L49.4899 34.0312L41.3899 38.7844V48.3188L36.6931 51.075L31.9962 48.3188V38.7844L23.8681 34.0312V28.4625L28.5931 25.6781L36.6649 30.4594L44.7649 25.6781L49.4618 28.4625ZM23.8681 18.9281L36.6649 11.3906L49.4899 18.9281L44.7931 21.7125L36.6931 16.9313L28.5931 21.7125L23.8681 18.9281Z" fill="white"/>
  </g>
  <defs>
    <clipPath id="clip0_165_18349">
      <rect width="72" height="72" fill="white" transform="translate(0.664917)"/>
    </clipPath>
  </defs>
</svg>