<svg xmlns="http://www.w3.org/2000/svg" width="73" height="72" viewBox="0 0 73 72" fill="none">
  <g clip-path="url(#clip0_165_18357)">
    <path fill-rule="evenodd" clip-rule="evenodd" d="M36.33 0C56.2143 0 72.33 16.1156 72.33 36C72.33 55.8844 56.2143 72 36.33 72C16.4456 72 0.329956 55.8844 0.329956 36C0.329956 16.1156 16.4456 0 36.33 0Z" fill="black"/>
    <path d="M20.1018 36L20.13 45.5063L28.23 50.2594V55.8281L15.405 48.3188V33.2156L20.1018 36ZM20.1018 26.4937V32.0344L15.405 29.25V23.6812L20.1018 20.8969L24.8268 23.6812L20.1018 26.4937ZM31.605 23.6812L36.3018 20.8969L41.0268 23.6812L36.33 26.4937L31.605 23.6812ZM23.5331 43.5375V37.9688L28.23 40.7531V46.2938L23.5331 43.5375ZM31.605 52.2844L36.3018 55.0688L41.0268 52.2844V57.825L36.3018 60.6094L31.605 57.825V52.2844ZM47.805 23.6812L52.5018 20.8969L57.2268 23.6812V29.25L52.5018 32.0344V26.4937L47.805 23.6812ZM52.53 45.5063L52.5581 36L57.255 33.2156V48.3188L44.43 55.8281V50.2594L52.53 45.5063ZM49.1268 43.5375L44.43 46.2938V40.7531L49.1268 37.9688V43.5375ZM49.1268 28.4625L49.155 34.0312L41.055 38.7844V48.3188L36.3581 51.075L31.6612 48.3188V38.7844L23.5331 34.0312V28.4625L28.2581 25.6781L36.33 30.4594L44.43 25.6781L49.1268 28.4625ZM23.5331 18.9281L36.33 11.3906L49.155 18.9281L44.4581 21.7125L36.3581 16.9313L28.2581 21.7125L23.5331 18.9281Z" fill="#F0B90B"/>
  </g>
  <defs>
    <clipPath id="clip0_165_18357">
      <rect width="72" height="72" fill="white" transform="translate(0.329956)"/>
    </clipPath>
  </defs>
</svg>