<svg xmlns="http://www.w3.org/2000/svg" width="73" height="72" viewBox="0 0 73 72" fill="none">
  <g clip-path="url(#clip0_165_18365)">
    <path d="M71.9111 44.7186C67.1017 64.0124 47.5548 75.7405 28.2892 70.9311C8.99546 66.1218 -2.76079 46.5749 2.04858 27.2811C6.85796 8.01552 26.4048 -3.74073 45.6986 1.06864C64.9642 5.87802 76.7205 25.4249 71.9111 44.7186Z" fill="#F7931A"/>
    <path d="M52.8424 30.8812C53.5455 26.0999 49.9174 23.5124 44.9111 21.7968L46.5424 15.2999L42.6049 14.3155L41.0299 20.6437C39.9893 20.3905 38.9205 20.1374 37.8799 19.9124L39.4549 13.5562L35.5174 12.5718L33.8861 19.0405C33.0143 18.8437 32.1705 18.6468 31.3549 18.4499V18.4218L25.8986 17.0718L24.858 21.2905C24.858 21.2905 27.783 21.9655 27.7268 21.9937C29.3299 22.3874 29.6111 23.4562 29.5549 24.2999L27.6986 31.6968C27.8111 31.7249 27.9518 31.753 28.1205 31.8374L27.6986 31.7249L25.1111 42.0749C24.9143 42.553 24.408 43.2843 23.3111 43.003C23.3393 43.0593 20.4424 42.2999 20.4424 42.2999L18.4736 46.828L23.6205 48.1218C24.5768 48.3749 25.5049 48.5999 26.433 48.853L24.8018 55.4062L28.7393 56.3905L30.3705 49.8937C31.4393 50.1749 32.4799 50.4562 33.5205 50.7093L31.9174 57.178L35.8549 58.1624L37.4861 51.6093C44.2361 52.8749 49.2986 52.3687 51.408 46.2655C53.1236 41.3718 51.3236 38.5312 47.7799 36.6749C50.3955 36.0843 52.3361 34.3687 52.8424 30.8812ZM43.8424 43.5374C42.633 48.4312 34.3643 45.7874 31.6924 45.1124L33.858 36.4218C36.5299 37.0968 45.108 38.4187 43.8424 43.5374ZM45.0518 30.7968C43.9268 35.2687 37.0643 32.9905 34.8424 32.428L36.8111 24.553C39.033 25.1155 46.2049 26.1562 45.0518 30.7968Z" fill="white"/>
  </g>
  <defs>
    <clipPath id="clip0_165_18365">
      <rect width="72" height="72" fill="white" transform="translate(0.979858)"/>
    </clipPath>
  </defs>
</svg>
