<svg xmlns="http://www.w3.org/2000/svg" width="73" height="72" viewBox="0 0 73 72" fill="none">
  <g clip-path="url(#clip0_165_18371)">
    <path d="M71.8112 44.7186C67.0018 64.0124 47.4549 75.7405 28.1893 70.9311C8.89554 66.1218 -2.86071 46.5749 1.94867 27.2811C6.75804 8.01552 26.3049 -3.74073 45.5987 1.06864C64.8643 5.87802 76.6205 25.4249 71.8112 44.7186Z" fill="#F7931A"/>
    <path d="M52.7424 30.8812C53.4455 26.0999 49.8174 23.5124 44.8112 21.7968L46.4424 15.2999L42.5049 14.3155L40.9299 20.6437C39.8893 20.3905 38.8205 20.1374 37.7799 19.9124L39.3549 13.5562L35.4174 12.5718L33.7862 19.0405C32.9143 18.8437 32.0705 18.6468 31.2549 18.4499V18.4218L25.7987 17.0718L24.758 21.2905C24.758 21.2905 27.683 21.9655 27.6268 21.9937C29.2299 22.3874 29.5112 23.4562 29.4549 24.2999L27.5987 31.6968C27.7112 31.7249 27.8518 31.753 28.0205 31.8374L27.5987 31.7249L25.0112 42.0749C24.8143 42.553 24.308 43.2843 23.2112 43.003C23.2393 43.0593 20.3424 42.2999 20.3424 42.2999L18.3737 46.828L23.5205 48.1218C24.4768 48.3749 25.4049 48.5999 26.333 48.853L24.7018 55.4062L28.6393 56.3905L30.2705 49.8937C31.3393 50.1749 32.3799 50.4562 33.4205 50.7093L31.8174 57.178L35.7549 58.1624L37.3862 51.6093C44.1362 52.8749 49.1987 52.3687 51.308 46.2655C53.0237 41.3718 51.2237 38.5312 47.6799 36.6749C50.2955 36.0843 52.2362 34.3687 52.7424 30.8812ZM43.7424 43.5374C42.533 48.4312 34.2643 45.7874 31.5924 45.1124L33.758 36.4218C36.4299 37.0968 45.008 38.4187 43.7424 43.5374ZM44.9518 30.7968C43.8268 35.2687 36.9643 32.9905 34.7424 32.428L36.7112 24.553C38.933 25.1155 46.1049 26.1562 44.9518 30.7968Z" fill="white"/>
    <path fill-rule="evenodd" clip-rule="evenodd" d="M55.2455 36.7031C65.0049 36.7031 72.908 44.6063 72.908 54.3656C72.908 64.125 64.9768 72 55.2455 72C45.5143 72 37.583 64.0969 37.583 54.3375C37.583 44.5781 45.4861 36.7031 55.2455 36.7031Z" fill="#F0B90B"/>
    <path d="M47.2861 54.3657V59.0345L51.2517 61.3688V64.097L44.9799 60.4126V53.0157L47.2861 54.3657ZM47.2861 49.697V52.4251L44.9799 51.047V48.3188L47.2861 46.9407L49.6205 48.3188L47.2861 49.697ZM52.9111 48.3188L55.2174 46.9407L57.5517 48.3188L55.2174 49.697L52.9111 48.3188ZM48.9455 58.0501V55.322L51.2517 56.7001V59.4282L48.9455 58.0501ZM52.9111 62.3251L55.2174 63.7032L57.5517 62.3251V65.0532L55.2174 66.4313L52.9111 65.0532V62.3251ZM60.8705 48.3188L63.1767 46.9407L65.5111 48.3188V51.047L63.1767 52.4251V49.697L60.8705 48.3188ZM63.1767 59.0063V54.3376L65.483 52.9595V60.3563L59.2111 64.0407V61.3126L63.1767 59.0063ZM61.5174 58.0501L59.2111 59.4001V56.672L61.5174 55.2938V58.0501ZM61.5174 50.6532V53.3813L57.5517 55.7157V60.3845L55.2455 61.7345L52.9392 60.3845V55.7157L48.9736 53.3813V50.6532L51.2799 49.2751L55.2455 51.6095L59.2111 49.2751L61.5174 50.6532ZM48.9455 45.9845L55.2174 42.272L61.4892 45.9845L59.183 47.3626L55.2174 45.0282L51.2517 47.3626L48.9455 45.9845Z" fill="white"/>
  </g>
  <defs>
    <clipPath id="clip0_165_18371">
      <rect width="72" height="72" fill="white" transform="translate(0.879883)"/>
    </clipPath>
  </defs>
</svg>