<svg xmlns="http://www.w3.org/2000/svg" width="73" height="72" viewBox="0 0 73 72" fill="none">
  <g clip-path="url(#clip0_165_18379)">
    <path d="M71.2613 44.7186C66.452 64.0124 46.9051 75.7405 27.6395 70.9311C8.3457 66.1218 -3.41055 46.5749 1.39883 27.2811C6.2082 8.01552 25.7551 -3.74073 45.0488 1.06864C64.3145 5.87802 76.0707 25.4249 71.2613 44.7186Z" fill="#F7931A"/>
    <path d="M52.1926 30.8812C52.8957 26.0999 49.2676 23.5124 44.2613 21.7968L45.8926 15.2999L41.9551 14.3155L40.3801 20.6437C39.3395 20.3905 38.2707 20.1374 37.2301 19.9124L38.8051 13.5562L34.8676 12.5718L33.2363 19.0405C32.3645 18.8437 31.5207 18.6468 30.7051 18.4499V18.4218L25.2488 17.0718L24.2082 21.2905C24.2082 21.2905 27.1332 21.9655 27.077 21.9937C28.6801 22.3874 28.9613 23.4562 28.9051 24.2999L27.0488 31.6968C27.1613 31.7249 27.302 31.753 27.4707 31.8374L27.0488 31.7249L24.4613 42.0749C24.2645 42.553 23.7582 43.2843 22.6613 43.003C22.6895 43.0593 19.7926 42.2999 19.7926 42.2999L17.8238 46.828L22.9707 48.1218C23.927 48.3749 24.8551 48.5999 25.7832 48.853L24.152 55.4062L28.0895 56.3905L29.7207 49.8937C30.7895 50.1749 31.8301 50.4562 32.8707 50.7093L31.2676 57.178L35.2051 58.1624L36.8363 51.6093C43.5863 52.8749 48.6488 52.3687 50.7582 46.2655C52.4738 41.3718 50.6738 38.5312 47.1301 36.6749C49.7457 36.0843 51.6863 34.3687 52.1926 30.8812ZM43.1926 43.5374C41.9832 48.4312 33.7145 45.7874 31.0426 45.1124L33.2082 36.4218C35.8801 37.0968 44.4582 38.4187 43.1926 43.5374ZM44.402 30.7968C43.277 35.2687 36.4145 32.9905 34.1926 32.428L36.1613 24.553C38.3832 25.1155 45.5551 26.1562 44.402 30.7968Z" fill="white"/>
    <path fill-rule="evenodd" clip-rule="evenodd" d="M54.7238 36.7031C64.4832 36.7031 72.3863 44.6063 72.3863 54.3656C72.3863 64.125 64.4551 72 54.7238 72C44.9926 72 37.0613 64.0969 37.0613 54.3375C37.0613 44.5781 44.9644 36.7031 54.7238 36.7031Z" fill="black"/>
    <path d="M46.7645 54.3657V59.0345L50.7301 61.3688V64.097L44.4582 60.4126V53.0157L46.7645 54.3657ZM46.7645 49.697V52.4251L44.4582 51.047V48.3188L46.7645 46.9407L49.0988 48.3188L46.7645 49.697ZM52.3895 48.3188L54.6957 46.9407L57.0301 48.3188L54.6957 49.697L52.3895 48.3188ZM48.4238 58.0501V55.322L50.7301 56.7001V59.4282L48.4238 58.0501ZM52.3895 62.3251L54.6957 63.7032L57.0301 62.3251V65.0532L54.6957 66.4313L52.3895 65.0532V62.3251ZM60.3488 48.3188L62.6551 46.9407L64.9895 48.3188V51.047L62.6551 52.4251V49.697L60.3488 48.3188ZM62.6551 59.0063V54.3376L64.9613 52.9595V60.3563L58.6895 64.0407V61.3126L62.6551 59.0063ZM60.9957 58.0501L58.6895 59.4001V56.672L60.9957 55.2938V58.0501ZM60.9957 50.6532V53.3813L57.0301 55.7157V60.3845L54.7238 61.7345L52.4176 60.3845V55.7157L48.452 53.3813V50.6532L50.7582 49.2751L54.7238 51.6095L58.6895 49.2751L60.9957 50.6532ZM48.4238 45.9845L54.6957 42.272L60.9676 45.9845L58.6613 47.3626L54.6957 45.0282L50.7301 47.3626L48.4238 45.9845Z" fill="#F0B90B"/>
  </g>
  <defs>
    <clipPath id="clip0_165_18379">
      <rect width="72" height="72" fill="white" transform="translate(0.330078)"/>
    </clipPath>
  </defs>
</svg>