<svg xmlns="http://www.w3.org/2000/svg" width="72" height="72" viewBox="0 0 72 72" fill="none">
  <g clip-path="url(#clip0_165_18387)">
    <path d="M35.9949 72C55.8771 72 71.9949 55.8823 71.9949 36C71.9949 16.1177 55.8771 0 35.9949 0C16.1126 0 -0.00512695 16.1177 -0.00512695 36C-0.00512695 55.8823 16.1126 72 35.9949 72Z" fill="white"/>
    <path d="M46.3449 5.09058L36.4167 31.275L26.4324 34.3125L46.3449 5.09058ZM51.2949 34.8187C52.1386 33.75 51.8292 32.3437 50.873 31.6968L35.9949 33.4687L20.4417 39.2906C20.7511 39.9937 21.4542 40.5281 22.3824 40.5281H35.573L35.7136 47.25L25.5605 66.9375L51.2949 34.8187Z" fill="#431E9A"/>
    <path d="M25.5605 66.9375L35.573 40.5281H41.0855L25.5605 66.9375Z" fill="url(#paint0_linear_165_18387)"/>
    <path d="M20.7511 37.1531C20.2167 37.8281 20.1605 38.6437 20.4417 39.2906L50.8449 31.6687C50.4792 31.4156 50.0574 31.275 49.5511 31.275H30.7074L46.3167 5.09058L20.7511 37.1531Z" fill="url(#paint1_linear_165_18387)"/>
  </g>
  <defs>
    <linearGradient id="paint0_linear_165_18387" x1="21.4618" y1="62.8382" x2="42.4192" y2="41.8809" gradientUnits="userSpaceOnUse">
      <stop offset="0.62" stop-color="#6BC7B2"/>
      <stop offset="1" stop-color="#3D8EFA"/>
    </linearGradient>
    <linearGradient id="paint1_linear_165_18387" x1="24.071" y1="42.9201" x2="54.1178" y2="12.873" gradientUnits="userSpaceOnUse">
      <stop offset="0.068" stop-color="#6BC7B2"/>
      <stop offset="0.225" stop-color="#4DA0E1"/>
      <stop offset="0.337" stop-color="#3A88FE"/>
      <stop offset="0.524" stop-color="#4634B3"/>
      <stop offset="0.62" stop-color="#4B0D91"/>
    </linearGradient>
    <clipPath id="clip0_165_18387">
      <rect width="72" height="72" fill="white" transform="translate(-0.00512695)"/>
    </clipPath>
  </defs>
</svg>