<svg xmlns="http://www.w3.org/2000/svg" width="73" height="72" viewBox="0 0 73 72" fill="none">
  <g clip-path="url(#clip0_165_18397)">
    <path d="M36.7818 0C16.8975 0.028125 0.781848 16.1719 0.809973 36.0562C0.809973 45.5906 4.60685 54.7313 11.3568 61.4813C25.4193 75.5156 48.2287 75.5156 62.2631 61.425C76.2975 47.3344 76.2975 24.5531 62.2069 10.5188C55.4569 3.79688 46.3162 0 36.7818 0ZM36.7818 68.4281C18.8662 68.4563 4.35372 53.9438 4.3256 36.0281C4.29747 18.1125 18.81 3.6 36.7256 3.6C54.6412 3.57188 69.1537 18.0844 69.1819 36V36.0281C69.1819 53.9156 54.6693 68.4281 36.7818 68.4281ZM17.4318 52.425C14.6475 46.5187 14.3943 39.2625 16.8975 33.2156C18.3318 29.7281 20.61 26.6344 23.5068 24.2156C27.5568 20.8687 32.8162 18.8719 38.0756 18.9L38.1037 15.6656V15.0469H37.4287C30.6506 15.3 24.21 18.0562 19.3162 22.7812C14.985 27.0281 12.2568 32.8781 11.5537 38.8969C10.7943 45.3937 12.6225 52.2 16.7006 57.3469L16.7568 57.4312C18.4162 59.5125 20.385 61.3969 22.7475 62.6625C26.6568 64.8281 31.0443 66.0094 35.5162 66.1781C27.8381 64.7719 20.7787 59.5125 17.4318 52.425ZM56.4412 56.7L54.1631 56.8687C47.7787 57.2344 40.7475 57.0656 35.1225 53.6625C33.5756 52.7344 32.1693 51.525 31.0162 50.1469C26.9662 45.3375 27.1068 38.0531 32.2818 34.0594C36.7818 30.6 43.5881 31.2469 47.2162 35.6906C47.5256 36.0844 48.2569 36.9844 48.2569 36.9844C48.2569 36.9844 49.4381 36.3656 49.8319 36.1688L49.9444 36.1125L50.0287 36.0844L50.2256 35.9719L50.3381 35.9156L51.2381 35.4656L51.7444 35.2125L51.7162 35.1844C50.6756 33.4406 49.2693 31.8937 47.61 30.7125C44.4318 28.4625 40.5225 27.5063 36.6693 28.0688C30.4818 28.9969 25.3631 33.7781 24.3506 39.9656C23.31 46.3781 26.5162 52.5094 31.7756 56.0812C37.26 59.7937 44.1506 60.3 50.6475 60.0469C52.1662 59.9906 55.2881 59.7094 55.26 59.6812C56.5256 58.6406 57.7068 57.5438 58.8037 56.3344C58.8037 56.3344 56.7506 56.6719 56.4412 56.7ZM45.6693 62.4656C44.8819 62.4375 44.1225 62.4094 43.335 62.325C36.9225 61.7063 30.3975 59.2875 26.1506 54.2531C22.2412 49.5844 20.5818 42.9469 22.4943 37.0969C25.3912 28.2375 34.9537 23.4 43.8131 26.325C44.0943 26.4094 44.3756 26.5219 44.685 26.6344C44.685 26.6344 45.4444 24.975 45.5287 24.8344V24.8062L45.5569 24.75L45.6131 24.6375C45.8662 24.1313 46.0912 23.5969 46.3443 23.0906C40.9725 21.1781 35.1787 21.0656 29.8912 23.4563C19.4006 28.2375 14.76 40.6406 19.5412 51.1313C20.16 52.4813 20.9193 53.775 21.8193 54.9844C24.1256 58.0781 27.3037 60.4406 30.7068 62.2125C36.1068 64.9969 43.8694 65.3625 44.4319 65.2219C47.1037 64.575 50.9569 62.7469 51.7444 62.1281C50.5912 62.3531 48.5943 62.4375 47.4131 62.4656C46.8225 62.4938 46.26 62.4938 45.6693 62.4656Z" fill="#FCFCFC"/>
  </g>
  <defs>
    <clipPath id="clip0_165_18397">
      <rect width="72" height="72" fill="white" transform="translate(0.809937)"/>
    </clipPath>
  </defs>
</svg>