<svg xmlns="http://www.w3.org/2000/svg" width="72" height="72" viewBox="0 0 72 72" fill="none">
  <g clip-path="url(#clip0_165_18439)">
    <path d="M35.9949 0C55.8792 0 71.9949 16.1156 71.9949 36C71.9949 55.8844 55.8792 72 35.9949 72C16.1105 72 -0.00512695 55.8844 -0.00512695 36C-0.00512695 16.1156 16.1105 0 35.9949 0Z" fill="url(#paint0_linear_165_18439)"/>
    <path fill-rule="evenodd" clip-rule="evenodd" d="M35.9667 61.0876C28.598 61.0876 22.6636 59.3157 18.5011 56.1376C14.3105 52.9313 12.0605 48.347 12.0605 43.2001C12.0605 38.222 14.2824 34.6501 16.7855 32.2032C18.7542 30.2907 20.9199 29.0813 22.4386 28.3782C22.1011 27.3376 21.6792 25.9595 21.2855 24.5251C20.7792 22.6126 20.273 20.3907 20.273 18.7595C20.273 16.8188 20.6949 14.8782 21.8199 13.3595C23.0292 11.7563 24.8292 10.9126 26.9949 10.9126C28.6824 10.9126 30.1449 11.5313 31.2699 12.6282C32.3386 13.6688 33.0699 15.047 33.5761 16.4813C34.448 19.0126 34.7855 22.1907 34.898 25.3688H36.9792C37.0636 22.1907 37.4011 19.0126 38.3011 16.4813C38.8074 15.047 39.5105 13.6688 40.6074 12.6282C41.7324 11.5313 43.1949 10.9126 44.8824 10.9126C47.048 10.9126 48.8761 11.7563 50.0574 13.3595C51.1824 14.8782 51.6042 16.8188 51.6042 18.7595C51.6042 20.3907 51.098 22.6126 50.5917 24.5251C50.198 25.9595 49.7761 27.3095 49.4386 28.3782C50.9574 29.0813 53.123 30.2907 55.0917 32.2032C57.5949 34.622 59.8167 38.222 59.8167 43.2001C59.8167 48.3751 57.5949 52.9313 53.3761 56.1376C49.2136 59.3157 43.2792 61.0876 35.9105 61.0876H35.9667Z" fill="#633001"/>
    <path d="M27.0792 12.7688C23.9011 12.7688 22.4105 15.1594 22.4105 18.5063C22.4105 21.15 24.1261 26.4375 24.8292 28.4907C24.998 28.9407 24.7449 29.475 24.2949 29.6438C21.7355 30.6563 14.198 34.3969 14.198 42.9188C14.198 51.9188 21.8761 58.6969 35.9949 58.6969H36.0511C50.198 58.6969 57.848 51.9188 57.848 42.9188C57.848 34.3969 50.3105 30.6563 47.7511 29.6438C47.3011 29.475 47.048 28.9688 47.2167 28.4907C47.9199 26.4375 49.6355 21.15 49.6355 18.5063C49.6355 15.1875 48.173 12.7688 44.9667 12.7688C40.3824 12.7688 39.2292 19.35 39.1449 26.3813C39.1449 26.8594 38.7511 27.225 38.3011 27.225H33.7449C33.2667 27.225 32.9011 26.8313 32.9011 26.3813C32.8167 19.3219 31.6636 12.7688 27.0792 12.7688Z" fill="#D1884F"/>
    <path d="M36.023 55.7999C25.6449 55.7999 14.198 50.175 14.198 42.9187V42.9468C14.198 51.9468 21.8761 58.725 36.023 58.725C50.1699 58.725 57.848 51.9468 57.848 42.9468V42.9187C57.8199 50.2031 46.4011 55.7999 36.023 55.7999Z" fill="#FEDC90"/>
    <path d="M30.2293 40.6969C30.2293 43.1438 29.0761 44.4376 27.6699 44.4376C26.2636 44.4376 25.1105 43.1719 25.1105 40.6969C25.1105 38.2219 26.2636 36.9563 27.6699 36.9563C29.1043 36.9563 30.2293 38.25 30.2293 40.6969ZM46.9074 40.6969C46.9074 43.1438 45.7543 44.4376 44.348 44.4376C42.9418 44.4376 41.7886 43.1719 41.7886 40.6969C41.7886 38.2219 42.9418 36.9563 44.348 36.9563C45.7543 36.9563 46.9074 38.25 46.9074 40.6969Z" fill="#633001"/>
  </g>
  <defs>
    <linearGradient id="paint0_linear_165_18439" x1="35.9949" y1="0" x2="35.9949" y2="72" gradientUnits="userSpaceOnUse">
      <stop stop-color="#54DADE"/>
      <stop offset="0.762" stop-color="#24C7D6"/>
    </linearGradient>
    <clipPath id="clip0_165_18439">
      <rect width="72" height="72" fill="white" transform="translate(-0.00512695)"/>
    </clipPath>
  </defs>
</svg>