<svg xmlns="http://www.w3.org/2000/svg" width="73" height="72" viewBox="0 0 73 72" fill="none">
  <g clip-path="url(#clip0_165_18450)">
    <path fill-rule="evenodd" clip-rule="evenodd" d="M9.33433 5.31567H34.1687C49.2718 5.31567 60.7187 13.4438 64.9656 25.2563H72.7V32.4H66.5968C66.7093 33.525 66.7656 34.6782 66.7656 35.8594V36.0282C66.7656 37.3501 66.6812 38.6438 66.5406 39.9094H72.7V47.0532H64.825C60.4656 58.6969 49.1031 66.7407 34.1687 66.7407H9.33433V47.0532H0.699951V39.9094H9.33433V32.4282H0.699951V25.2282H9.33433V5.31567ZM16.2812 46.9969V60.2719H34.1687C45.1937 60.2719 53.4062 54.9563 57.2312 46.9969H16.2812ZM59.3406 39.8813H16.2812V32.4H59.3687C59.5375 33.5813 59.6218 34.7907 59.6218 36.0282V36.1969C59.5937 37.4344 59.5093 38.6719 59.3406 39.8813ZM34.1687 11.7C45.25 11.7 53.4906 17.1563 57.2874 25.2282H16.2812V11.7H34.1687Z" fill="#F4B731"/>
    <path fill-rule="evenodd" clip-rule="evenodd" d="M55.0656 36.7031C64.825 36.7031 72.7281 44.6063 72.7281 54.3656C72.7281 64.125 64.7968 72 55.0656 72C45.3343 72 37.4031 64.0969 37.4031 54.3375C37.4031 44.5781 45.3062 36.7031 55.0656 36.7031Z" fill="black"/>
    <path d="M47.1062 54.3657V59.0345L51.0718 61.3688V64.097L44.7999 60.4126V53.0157L47.1062 54.3657ZM47.1062 49.697V52.4251L44.7999 51.047V48.3188L47.1062 46.9407L49.4406 48.3188L47.1062 49.697ZM52.7312 48.3188L55.0374 46.9407L57.3718 48.3188L55.0374 49.697L52.7312 48.3188ZM48.7655 58.0501V55.322L51.0718 56.7001V59.4282L48.7655 58.0501ZM52.7312 62.3251L55.0374 63.7032L57.3718 62.3251V65.0532L55.0374 66.4313L52.7312 65.0532V62.3251ZM60.6906 48.3188L62.9968 46.9407L65.3312 48.3188V51.047L62.9968 52.4251V49.697L60.6906 48.3188ZM62.9968 59.0063V54.3376L65.3031 52.9595V60.3563L59.0312 64.0407V61.3126L62.9968 59.0063ZM61.3374 58.0501L59.0312 59.4001V56.672L61.3374 55.2938V58.0501ZM61.3374 50.6532V53.3813L57.3718 55.7157V60.3845L55.0656 61.7345L52.7593 60.3845V55.7157L48.7937 53.3813V50.6532L51.0999 49.2751L55.0656 51.6095L59.0312 49.2751L61.3374 50.6532ZM48.7655 45.9845L55.0374 42.272L61.3093 45.9845L59.0031 47.3626L55.0374 45.0282L51.0718 47.3626L48.7655 45.9845Z" fill="#F0B90B"/>
  </g>
  <defs>
    <clipPath id="clip0_165_18450">
      <rect width="72" height="72" fill="white" transform="translate(0.699951)"/>
    </clipPath>
  </defs>
</svg>