<svg xmlns="http://www.w3.org/2000/svg" width="73" height="72" viewBox="0 0 73 72" fill="none">
  <g clip-path="url(#clip0_165_18457)">
    <path fill-rule="evenodd" clip-rule="evenodd" d="M8.96433 5.31567H33.7987C48.9018 5.31567 60.3487 13.4438 64.5956 25.2563H72.33V32.4H66.2268C66.3393 33.525 66.3956 34.6782 66.3956 35.8594V36.0282C66.3956 37.3501 66.3112 38.6438 66.1706 39.9094H72.33V47.0532H64.455C60.0956 58.6969 48.7331 66.7407 33.7987 66.7407H8.96433V47.0532H0.329956V39.9094H8.96433V32.4282H0.329956V25.2282H8.96433V5.31567ZM15.9112 46.9969V60.2719H33.7987C44.8237 60.2719 53.0362 54.9563 56.8612 46.9969H15.9112ZM58.9706 39.8813H15.9112V32.4H58.9987C59.1675 33.5813 59.2518 34.7907 59.2518 36.0282V36.1969C59.2237 37.4344 59.1393 38.6719 58.9706 39.8813ZM33.7987 11.7C44.88 11.7 53.1206 17.1563 56.9175 25.2282H15.9112V11.7H33.7987Z" fill="#F4B731"/>
    <path d="M50.28 54.675L61.305 61.0875V36.7031L50.28 54.675Z" fill="#D7D7D7"/>
    <path d="M61.3049 36.7031V61.0875L72.3299 54.675L61.3049 36.7031Z" fill="#878787"/>
    <path d="M61.3049 49.7532L72.3299 54.675L61.3049 61.0875V49.7532Z" fill="white"/>
    <path d="M61.305 49.7532V61.0875L50.28 54.675L61.305 49.7532Z" fill="#999999"/>
    <path d="M50.28 56.728L61.305 71.9999V63.1405L50.28 56.728Z" fill="#D7D7D7"/>
    <path d="M61.3049 63.1405V71.9999L72.3299 56.728L61.3049 63.1405Z" fill="#878787"/>
  </g>
  <defs>
    <clipPath id="clip0_165_18457">
      <rect width="72" height="72" fill="white" transform="translate(0.329956)"/>
    </clipPath>
  </defs>
</svg>