<svg xmlns="http://www.w3.org/2000/svg" width="73" height="72" viewBox="0 0 73 72" fill="none">
  <g clip-path="url(#clip0_165_18468)">
    <path d="M36.9799 72C56.8621 72 72.9799 55.8823 72.9799 36C72.9799 16.1177 56.8621 0 36.9799 0C17.0976 0 0.979858 16.1177 0.979858 36C0.979858 55.8823 17.0976 72 36.9799 72Z" fill="#008CE3"/>
    <path d="M43.3361 19.5188H28.5142L27.2767 26.3813L40.6361 26.4094C47.2173 26.4094 49.158 28.8 49.1017 32.7657C49.0736 34.7907 48.2017 38.25 47.808 39.3469C46.7955 42.3282 44.7142 45.7032 36.8955 45.7032H23.9017L22.7205 52.5938H37.5142C42.7173 52.5938 44.9392 51.975 47.3017 50.9063C52.5048 48.4875 55.5986 43.3688 56.8361 36.6469C58.6642 26.6344 56.358 19.5188 43.3361 19.5188Z" fill="white"/>
    <path d="M22.0455 32.7095C18.1642 32.7095 17.6017 35.2688 17.2361 36.8157C16.758 38.8407 16.5892 39.6563 16.5892 39.6563H31.8049C35.6861 39.6563 36.2486 37.097 36.6142 35.5501C37.0924 33.5251 37.2611 32.7095 37.2611 32.7095H22.0455Z" fill="white"/>
  </g>
  <defs>
    <clipPath id="clip0_165_18468">
      <rect width="72" height="72" fill="white" transform="translate(0.979858)"/>
    </clipPath>
  </defs>
</svg>