<svg xmlns="http://www.w3.org/2000/svg" width="73" height="72" viewBox="0 0 73 72" fill="none">
  <g clip-path="url(#clip0_165_18476)">
    <path d="M33.3168 0.168674C40.9387 -0.562576 48.8137 1.2093 55.3387 5.20305C61.5262 8.91555 66.5324 14.5405 69.5137 21.0937C72.6637 27.9562 73.5074 35.8031 72.0168 43.1999C70.5543 50.5968 66.6168 57.4874 61.0481 62.578C55.4512 67.7249 48.1949 71.0155 40.6293 71.8312C35.7637 72.2812 30.7574 71.9156 26.0887 70.4249C18.0731 67.9781 11.0137 62.578 6.48557 55.5468C2.66057 49.6687 0.635566 42.6655 0.719941 35.6905C0.748066 27.703 3.58869 19.7718 8.59494 13.5562C14.5856 5.99055 23.6981 1.04055 33.3168 0.168674Z" fill="#988430"/>
    <path d="M36.0168 1.12508C42.4293 1.01258 48.8699 2.64383 54.3824 5.90633C60.3449 9.39383 65.2387 14.7095 68.1918 20.9251C71.3981 27.422 72.3262 34.9594 71.0887 42.1032C69.4574 51.6657 63.5793 60.3563 55.3668 65.5032C49.6856 69.1594 42.9074 71.0438 36.1574 70.8751C29.5762 70.8188 23.0231 68.7657 17.5387 65.1376C11.9137 61.4251 7.35743 56.0813 4.71368 49.8938C1.64805 42.9469 1.00118 34.9595 2.85743 27.5626C4.68555 20.0813 9.1293 13.3313 15.1762 8.5782C21.0543 3.88133 28.5074 1.2657 36.0168 1.12508Z" fill="#7A6A2A"/>
    <path d="M22.7419 4.83748C28.7606 2.10935 35.595 1.23748 42.0919 2.2781C48.8981 3.34685 55.3388 6.5531 60.3169 11.3062C66.3919 17.0719 70.2169 25.1156 70.8075 33.4969C71.5669 43.0312 68.0794 52.7906 61.4138 59.6531C61.3294 57.6562 61.3013 55.6875 61.245 53.6906C61.2169 52.2281 60.9075 50.7656 60.7669 49.3031C60.795 48.7968 60.8513 48.2906 60.8794 47.7843C60.9638 46.4062 60.2325 45.1125 60.4013 43.7343C60.57 41.7656 59.5575 39.9937 59.0513 38.1656C58.545 36.8718 58.5731 35.4656 58.095 34.1719C57.7294 29.1937 55.8169 24.1594 52.02 20.7844C52.1325 20.6156 52.3856 20.25 52.4981 20.0812C52.6388 20.4187 52.8075 20.7281 52.9763 21.0375C53.8481 20.0531 53.9888 18.675 54.2419 17.4375C54.72 15.2156 54.3825 12.9094 54.0169 10.7156C53.7356 9.5906 53.4825 8.26873 52.5544 7.48123C51.5419 6.8906 49.7981 6.86248 49.2075 8.04373C49.1794 8.09998 49.1513 8.2406 49.1231 8.32498C48.6731 9.08435 48.0825 9.75935 47.295 10.2094C45.945 11.0531 45.1856 12.6281 43.7513 13.3594C42.8513 13.6687 41.9231 13.1625 40.995 13.2469C39.2513 13.4156 37.4794 13.5281 35.7919 14.0062C34.1888 13.7531 32.5856 13.5 31.0106 13.1906C31.0106 13.0781 31.0388 12.8531 31.0388 12.7406C30.3075 12.0375 29.6606 11.2219 29.3794 10.2375C28.9013 8.38123 27.7481 6.58123 26.0325 5.68123C25.7794 5.59685 25.5544 5.48435 25.3013 5.39998C25.1606 5.56873 24.9919 5.73748 24.8513 5.90623C24.795 6.04685 24.6825 6.29998 24.6263 6.41248C24.2325 7.28435 24.3169 8.2406 24.2888 9.1406C24.2606 11.5031 24.0075 13.9219 23.0231 16.1156C21.42 16.1156 19.8169 16.0875 18.1856 16.1156C17.8763 16.8469 17.9888 17.6344 17.9606 18.3937C15.3731 20.7844 14.3325 24.3281 13.8544 27.7031C13.8544 27.9562 13.8544 28.2375 13.8825 28.4906C13.8825 28.6031 13.8825 28.8 13.9106 28.9125C12.7856 30.4031 12.5606 32.3719 12.2794 34.1719C12.7013 34.1437 13.1231 34.1156 13.5169 34.1156C13.1231 34.1437 12.7575 34.2 12.3638 34.2281C12.2794 34.65 12.2231 35.0437 12.195 35.4656C12.5606 35.325 12.9544 35.1843 13.32 35.0437H13.5169C13.0669 35.2125 12.645 35.4375 12.195 35.6625C12.195 35.9156 12.2231 36.45 12.2231 36.7031L13.7419 35.9437L13.545 36.1406C13.1231 36.4219 12.5606 36.5625 12.2231 36.9562C12.2231 37.9125 12.3638 38.8406 12.5044 39.7687C12.8419 41.9062 13.5731 43.9593 14.67 45.8156C14.6419 47.1656 14.3325 48.5437 13.545 49.6687C13.77 50.0906 14.1356 50.4843 14.1638 50.9906C14.0231 51.8344 13.3481 52.5375 13.4888 53.4375C13.6575 55.6031 12.87 57.6843 11.9419 59.5968C7.04813 54.5062 3.81376 47.8687 2.82938 40.8656C1.90126 34.3406 2.88563 27.5344 5.69813 21.5718C9.15751 14.2031 15.3169 8.1281 22.7419 4.83748Z" fill="#BA9F33"/>
    <path d="M24.8794 5.85C25.02 5.68125 25.1606 5.5125 25.3294 5.34375C25.5825 5.42813 25.8075 5.5125 26.0606 5.625C26.4825 6.91875 27.1012 8.2125 26.9887 9.59062C26.9325 10.5187 26.7356 11.5312 27.2137 12.375C27.4106 12.8812 27.9169 13.1344 28.3106 13.4156C28.0575 13.6125 27.8044 13.8094 27.5512 13.9781C26.4544 14.4 25.5825 15.2156 24.795 16.0312H23.8387C25.5544 13.95 26.3137 11.2219 26.3137 8.57812C26.3137 7.50938 25.47 6.69375 24.8794 5.85Z" fill="#C79C3B"/>
    <path d="M26.0605 5.625C27.7762 6.525 28.9293 8.325 29.4074 10.1813C29.6605 11.1656 30.3355 11.9812 31.0668 12.6844C31.0668 12.7969 31.0387 13.0219 31.0387 13.1344C30.1387 12.825 29.0418 12.6562 28.3105 13.4156C27.8887 13.1344 27.4105 12.8812 27.2137 12.375C26.7355 11.5031 26.9605 10.5187 26.9887 9.59062C27.1012 8.2125 26.4543 6.91875 26.0605 5.625Z" fill="#B58634"/>
    <path d="M24.8793 5.8501C25.4981 6.66572 26.3418 7.48135 26.3137 8.57822C26.3137 11.2501 25.5543 13.9782 23.8387 16.0313H23.3606C24.12 14.8782 24.8512 13.6407 24.9356 12.2626C25.0762 10.2938 24.4575 8.3251 24.6825 6.35635C24.7106 6.24385 24.8231 5.99072 24.8793 5.8501Z" fill="#DFC068"/>
    <path d="M24.3168 9.1124C24.3449 8.18428 24.2606 7.22803 24.6543 6.38428C24.4574 8.35303 25.0481 10.3218 24.9074 12.2905C24.8231 13.6968 24.0918 14.9343 23.3324 16.0593H23.0231C24.0356 13.8937 24.2887 11.4749 24.3168 9.1124Z" fill="#A78F33"/>
    <path d="M49.2075 8.01573C49.7981 6.83448 51.5419 6.83448 52.5544 7.45323C53.5106 8.24073 53.7356 9.53448 54.0169 10.6876C54.3825 12.9095 54.7481 15.1876 54.2419 17.4095C53.9888 18.647 53.8481 20.0251 52.9763 21.0095C52.8075 20.7001 52.6388 20.3907 52.4981 20.0532C52.3294 19.5751 52.1888 19.0689 52.02 18.5626C52.6388 17.2126 52.92 15.722 53.0888 14.2595C53.2294 12.9376 52.3575 11.8689 51.4856 10.997C51.0638 9.81573 50.1356 8.91573 49.2075 8.01573Z" fill="#A17C34"/>
    <path d="M49.123 8.29688C49.1512 8.24062 49.1793 8.1 49.2074 8.01562C50.1074 8.91563 51.0637 9.81563 51.5137 11.025C51.4855 11.3906 51.4012 11.7844 51.0355 11.8969C49.9668 12.4312 48.7855 12.825 47.998 13.7812C47.4637 14.4563 46.423 14.85 46.3387 15.7781L46.7887 16.1156C46.6762 16.2562 46.4793 16.5375 46.3668 16.6781L46.7887 17.1C47.3512 16.5094 48.223 16.4531 48.9543 16.2C48.8418 16.4812 48.7293 16.7625 48.6168 17.0719C48.9262 17.0156 49.2355 16.9312 49.573 16.875C49.1793 17.325 48.7574 17.7188 48.2793 18.1125C48.223 18.0844 48.1105 18.0281 48.0824 18C47.5199 17.7188 46.9855 17.3531 46.3387 17.325C46.3105 17.2406 46.2543 17.0437 46.2262 16.9594C45.8605 16.9312 45.523 16.875 45.1855 16.7625C45.2699 16.5375 45.4668 16.0594 45.5512 15.8344C45.3543 15.9187 44.9605 16.1156 44.7637 16.2C45.298 15.3281 45.8043 14.4562 46.3105 13.5844C46.3387 13.5281 46.423 13.3875 46.4512 13.3313C47.1543 12.0094 48.223 10.9125 48.9262 9.59062C49.1793 9.16875 49.1512 8.71875 49.123 8.29688Z" fill="#B89844"/>
    <path d="M49.123 8.29688C49.1512 8.71875 49.1512 9.16875 48.9262 9.5625C48.223 10.8844 47.1543 11.9812 46.4512 13.3031C46.4512 12.2062 46.5918 11.0531 47.323 10.1813C48.0824 9.73125 48.7012 9.05625 49.123 8.29688Z" fill="#CBA94C"/>
    <path d="M43.7512 13.3312C45.2137 12.5999 45.945 10.9968 47.295 10.1812C46.5637 11.053 46.4231 12.2062 46.4231 13.303C46.395 13.3593 46.3106 13.4999 46.2825 13.5562C46.3106 13.1343 46.2825 12.7124 46.1981 12.2905C45.5231 13.6968 44.7637 15.103 43.7231 16.3124C43.1325 16.1437 42.4856 16.0874 41.8669 16.0874C42.2044 15.4405 42.6544 14.8218 43.1325 14.2593C40.7137 13.6968 38.2387 14.2312 35.7919 14.0062C37.4794 13.528 39.2512 13.4437 40.995 13.2468C41.9231 13.1343 42.8512 13.6124 43.7512 13.3312Z" fill="#AC8132"/>
    <path d="M51.5137 11.0249C52.3856 11.8968 53.2575 12.9655 53.1169 14.2874C52.9481 15.7499 52.6387 17.2405 52.0481 18.5905C51.5981 18.9562 51.1481 19.2937 50.67 19.6593C50.445 19.4905 50.22 19.3499 50.0231 19.1812L49.9106 19.0968C50.6137 17.578 51.7387 16.1718 51.8231 14.428C50.4731 14.4843 49.1512 14.7093 47.8575 15.103C47.3231 15.2437 47.07 15.7218 46.7887 16.1437L46.3387 15.8062C46.4231 14.8499 47.4637 14.4843 47.9981 13.8093C48.7856 12.853 49.9669 12.4593 51.0356 11.9249C51.4012 11.7843 51.4856 11.3905 51.5137 11.0249Z" fill="#927238"/>
    <path d="M46.2262 12.2905C46.2824 12.7124 46.3387 13.1343 46.3105 13.5562C45.8043 14.428 45.2699 15.2999 44.7637 16.1718C44.9605 16.0874 45.3543 15.8905 45.5512 15.8062C45.4668 16.0312 45.2699 16.5093 45.1855 16.7343C44.7074 16.5655 44.2574 16.4249 43.7793 16.2843C44.7918 15.0749 45.5512 13.6968 46.2262 12.2905Z" fill="#8C6228"/>
    <path d="M28.2825 13.4437C29.0137 12.6843 30.1106 12.853 31.0106 13.1624C32.5856 13.4718 34.2169 13.7249 35.7919 13.978C38.2387 14.203 40.7137 13.6687 43.1325 14.2312C42.6544 14.7937 42.2325 15.4124 41.8669 16.0593C37.9294 16.0593 33.9637 16.0874 30.0262 16.0593C29.8575 15.4968 29.8294 14.7937 29.3231 14.428C28.7887 14.0624 28.1137 14.0624 27.495 14.0062C27.8044 13.8374 28.0294 13.6405 28.2825 13.4437Z" fill="#D2A83E"/>
    <path d="M24.7668 16.0595C25.5825 15.2438 26.4543 14.4282 27.5231 14.0063C28.1418 14.0626 28.8168 14.0626 29.3512 14.4282C29.8575 14.7938 29.8856 15.497 30.0543 16.0595H24.7668Z" fill="#DCBA5A"/>
    <path d="M47.8574 15.1032C49.1231 14.6813 50.4731 14.4845 51.8231 14.4282C51.7387 16.1438 50.6137 17.5782 49.9106 19.097C49.3762 18.7313 48.8418 18.3938 48.2793 18.0845C48.7293 17.7188 49.1793 17.297 49.5731 16.847C49.2637 16.9032 48.9543 16.9876 48.6168 17.0438C48.7293 16.7626 48.8418 16.4813 48.9543 16.172C48.2231 16.4251 47.3512 16.4813 46.7887 17.072L46.3668 16.6501C46.4793 16.5095 46.6762 16.2282 46.7887 16.0876C47.0699 15.722 47.3231 15.2438 47.8574 15.1032Z" fill="#543E26"/>
    <path d="M18.2137 16.0875C19.8169 16.0593 21.42 16.0875 23.0512 16.0875H30.0825C34.02 16.1156 37.9856 16.0875 41.9231 16.0875C42.5419 16.0875 43.1606 16.1437 43.7794 16.3125C44.2575 16.425 44.7075 16.5937 45.1856 16.7625C45.5231 16.875 45.8606 16.9312 46.2262 16.9593C46.2544 17.0437 46.3106 17.2406 46.3387 17.325C46.9856 17.3531 47.52 17.7187 48.0825 18C47.7169 18.9281 46.9856 19.6312 46.2825 20.3343C46.8731 20.6718 47.4919 21.0093 48.0262 21.4312C48.7294 20.7 49.3762 19.9406 50.0231 19.1812C50.2481 19.35 50.4731 19.4906 50.67 19.6593C51.1481 19.9968 51.5981 20.3906 52.02 20.7843C55.7887 24.1593 57.7294 29.1937 58.095 34.1718C58.1512 34.8187 58.1512 35.4656 58.1794 36.1406C58.1512 38.7281 57.9262 41.3437 57.2512 43.8468C56.7731 45.5906 56.1262 47.2781 55.1981 48.825C54.5512 49.8093 53.8762 50.7656 53.0325 51.6093C52.4981 52.1718 51.9356 52.7062 51.3169 53.1843L50.4731 52.7625C49.995 53.0156 49.545 53.4375 48.9825 53.4656C48.2231 53.5218 47.4919 53.8593 46.7325 54C47.4637 52.9031 48.9825 52.0593 48.7294 50.5406C48.3075 50.5687 47.9137 50.5687 47.4919 50.5968C47.6325 50.0625 47.7731 49.5281 47.8856 48.9937C47.745 48.9093 47.4637 48.7124 47.3512 48.6281C47.8294 48.1218 48.2794 47.5875 48.7294 47.0531C47.8012 47.2781 46.9575 47.7281 46.0575 48.0937C47.745 45.6187 49.2637 43.0031 50.5012 40.275C51.2044 38.5875 52.1606 36.9 52.1887 35.0156C52.245 33.8062 51.4856 32.7656 51.4575 31.5843C51.345 30.2062 51.345 28.6312 50.22 27.6468C48.2512 28.0406 46.2544 27.675 44.2856 27.45C43.7512 27.3656 43.2169 27.4781 42.7106 27.5625C42.6262 27.45 42.5137 27.3375 42.4294 27.2531C41.8106 26.6343 41.1637 25.9875 40.3481 25.7062C39.5887 25.5937 38.8012 25.6781 38.0137 25.6781L37.9012 25.65C37.0575 25.2843 36.1575 24.8062 35.2012 24.975C34.3856 25.0593 33.9075 25.7906 33.2887 26.1843C32.6419 26.6062 31.9669 27.0281 31.4606 27.6468C32.1075 28.7718 33.3169 29.3906 34.5262 29.7C34.4981 30.4312 34.4137 31.1625 34.3575 31.8937C33.5981 32.1468 32.895 32.5125 32.2481 32.9906C31.9106 32.2312 31.7419 31.4437 31.4044 30.6843C31.0387 30.2062 30.5606 29.8687 30.1106 29.475C29.9981 29.7843 29.9137 30.1218 29.8012 30.4312C29.5762 30.5437 29.3512 30.6562 29.1262 30.7968C29.0981 30.2343 29.07 29.6718 28.9856 29.1375C28.7606 28.1531 28.0575 27.3656 27.6637 26.4093C27.72 25.4531 28.0294 24.525 28.0294 23.5687C27.5512 23.7656 27.0731 23.9343 26.595 24.1593C25.9481 24.4125 25.6387 25.0875 25.1044 25.4531C24.57 25.6781 23.9794 25.7906 23.4169 25.9312L23.5012 25.7343C24.0075 25.2843 24.1481 24.6375 24.2606 24.0187C23.9512 24.1593 23.6419 24.3281 23.3044 24.4687C22.9106 23.9062 23.5012 23.5406 23.8669 23.175C23.3606 22.6968 22.6575 22.3312 21.9544 22.5843C20.7731 23.0062 20.2387 24.3 20.1262 25.4812C19.6481 25.4812 19.17 25.5093 18.6637 25.5093C18.8606 25.1718 19.0294 24.8062 19.2262 24.4687C19.0012 23.9343 18.4387 23.7375 17.9325 23.5687C17.9606 22.2468 17.9325 20.925 17.9325 19.6031C17.9325 19.2093 17.9606 18.8437 17.9606 18.45C18.0169 17.6062 17.9044 16.7906 18.2137 16.0875Z" fill="#F3EBDB"/>
    <path d="M48.0544 17.9719C48.1106 18 48.2231 18.0563 48.2513 18.0844C48.8138 18.3938 49.3481 18.7032 49.8825 19.0969L49.995 19.1813C49.3481 19.9407 48.7013 20.7282 47.9981 21.4313C47.4356 21.0094 46.845 20.6719 46.2544 20.3344C46.9575 19.6032 47.6888 18.9282 48.0544 17.9719Z" fill="#DCDAD7"/>
    <path d="M13.8824 27.6751C14.3606 24.3001 15.4012 20.7563 17.9887 18.3657C17.9887 18.7595 17.9887 19.1251 17.9606 19.5188C16.2449 21.3188 15.2606 23.7095 14.7824 26.1282C14.6137 26.9438 14.2199 27.7032 13.8824 28.4626C13.9106 28.2095 13.8824 27.9563 13.8824 27.6751Z" fill="#A78E32"/>
    <path d="M50.6699 19.6313C51.1199 19.2656 51.598 18.9281 52.048 18.5625C52.2168 19.0687 52.3574 19.5469 52.5262 20.0531C52.4137 20.2219 52.1605 20.5875 52.048 20.7563C51.598 20.3625 51.148 19.9969 50.6699 19.6313Z" fill="#B59544"/>
    <path d="M14.8106 26.1282C15.2887 23.7094 16.2731 21.3188 17.9887 19.5188C17.9887 20.8407 18.0168 22.1625 17.9887 23.4844C17.1731 24.1875 16.8075 25.3125 15.7668 25.7344C15.6262 26.4657 15.345 27.1407 14.9231 27.7313C14.6137 28.125 14.2762 28.4907 13.9668 28.8844C13.9668 28.7719 13.9668 28.575 13.9387 28.4625C14.2762 27.7032 14.6418 26.9438 14.8106 26.1282Z" fill="#EBCC73"/>
    <path d="M21.9825 22.5282C22.6856 22.2751 23.3887 22.6407 23.895 23.1188C23.5575 23.4845 22.9387 23.8501 23.3325 24.4126C23.6418 24.2438 23.9512 24.1032 24.2887 23.9626C24.1762 24.5813 24.0075 25.2282 23.5293 25.6782C22.8825 25.5938 22.2356 25.5657 21.5887 25.6501C21.6168 25.2563 21.645 24.8626 21.7575 24.497C22.0668 24.1876 22.4887 24.047 22.8543 23.8501C22.6293 23.6251 22.4325 23.3157 22.1512 23.1751C21.4481 23.372 20.745 23.9063 20.6325 24.6657C20.6606 25.0032 20.7168 25.3688 20.745 25.7063C20.6325 25.7063 20.4075 25.6782 20.2668 25.6782H20.1262L20.1543 25.4251C20.2668 24.2438 20.8012 22.9501 21.9825 22.5282Z" fill="#D7D7D5"/>
    <path d="M51.2887 23.0063C51.8793 22.8095 52.4981 22.6126 53.0887 22.4438C53.5387 23.3438 53.3981 24.3563 52.9199 25.2282H53.5949C53.6231 25.9876 53.6231 27.0845 52.7231 27.3095C52.2168 26.2126 51.0356 25.5657 50.7262 24.3563C50.7824 23.8501 51.0637 23.4282 51.2887 23.0063Z" fill="#E6DED7"/>
    <path d="M20.6044 24.6376C20.7169 23.8782 21.42 23.3438 22.1231 23.147C22.4325 23.2876 22.6012 23.597 22.8262 23.822C22.4606 24.0188 22.0387 24.1595 21.7294 24.4688C21.645 24.8345 21.6169 25.2282 21.5606 25.622C21.3637 25.6501 20.9419 25.6782 20.7169 25.6782C20.6606 25.3126 20.6044 24.9751 20.6044 24.6376Z" fill="#F5F2E6"/>
    <path d="M26.6231 24.075C27.1012 23.85 27.5793 23.6812 28.0575 23.4844C28.0293 24.4406 27.7481 25.3687 27.6918 26.325C28.0575 27.2531 28.7887 28.0406 29.0137 29.0531C29.1262 29.6156 29.1262 30.15 29.1543 30.7125C29.3793 30.6 29.6043 30.4594 29.8293 30.3469C29.9418 30.0375 30.0262 29.7 30.1387 29.3906C30.5887 29.7844 31.0668 30.1219 31.4325 30.6C31.77 31.3594 31.9387 32.175 32.2762 32.9062C32.9231 32.4563 33.6262 32.0625 34.3856 31.8094L34.5543 29.6156V29.3062C34.1325 28.9406 33.4293 28.7156 33.3731 28.0688C33.3168 27.2531 33.8512 26.5219 34.4137 25.9875C34.5825 26.0156 34.7512 26.0719 34.92 26.1C35.2293 26.0719 35.3981 25.875 35.37 25.5375C35.7918 25.5094 36.2137 25.5375 36.6356 25.5656C36.2137 26.1563 35.6512 26.7188 34.8918 26.8313C34.8918 27.225 34.8918 27.6187 34.92 28.0406C34.8918 28.4344 34.8637 28.8562 34.8356 29.25V32.3719C34.8356 37.125 34.8075 41.85 34.8356 46.575C34.8637 46.6594 34.8918 46.8562 34.92 46.9406C37.0575 46.8 39.4762 47.475 41.3325 46.0688C43.92 44.2125 44.9887 40.95 45.27 37.8844C45.5793 34.2844 44.9325 30.4031 42.6825 27.4781C43.1887 27.3937 43.7231 27.3094 44.2575 27.3656C46.2262 27.5906 48.2231 27.9844 50.1918 27.5625C51.345 28.5469 51.3168 30.1219 51.4293 31.5C51.4575 32.6812 52.245 33.7219 52.1606 34.9312C52.1325 36.8156 51.1762 38.5031 50.4731 40.1906C49.2356 42.9187 47.7168 45.5344 46.0293 48.0094C46.9293 47.6719 47.7731 47.1938 48.7012 46.9688C48.2512 47.5031 47.8012 48.0375 47.3231 48.5438C47.4637 48.6281 47.7168 48.825 47.8575 48.9094C47.7168 49.4437 47.6043 49.9781 47.4637 50.5125C47.8856 50.4844 48.2793 50.4844 48.7012 50.4562C48.9543 51.975 47.4356 52.8187 46.7043 53.9156C47.4637 53.775 48.195 53.4375 48.9543 53.3813C49.5168 53.3813 49.9668 52.9594 50.445 52.6781L51.2887 53.1C48.3075 55.35 44.5668 56.5875 40.8262 56.5031C37.5637 56.5031 34.3293 56.5312 31.0668 56.5031H22.8543C21.4762 56.5031 20.0981 56.5594 18.72 56.5031C18.2418 56.5312 18.045 55.9969 18.045 55.6031C17.9887 54.5062 18.045 53.4094 18.0168 52.3125C18.0168 51.075 18.045 49.8094 18.0168 48.5719C18.0168 48.0375 18.1012 47.475 18.2137 46.9688C19.9575 46.8 21.7012 47.025 23.445 46.8844V45.1125V43.7344C23.5575 44.1281 23.67 44.5219 23.8106 44.9156C24.6262 44.775 25.5543 44.55 26.1731 45.2812C27.6356 43.9875 29.7731 44.0438 31.4887 43.3406C31.8543 42.3563 32.7543 41.5688 32.6418 40.4438C32.5856 40.4156 32.4168 40.3875 32.3606 40.3875C30.5325 39.825 28.845 40.9781 27.0731 41.1187C25.8918 41.0062 24.7668 40.4438 24.0075 39.5156C24.0637 39.2625 24.1481 38.9812 24.2043 38.7281C24.0356 38.5875 23.8668 38.4469 23.67 38.3062C23.6418 37.7719 23.6418 37.2656 23.67 36.7313C23.8387 36.1125 24.2325 35.6344 24.8231 35.3531C24.9918 34.425 25.1606 33.4969 25.3293 32.5406C24.8512 31.9219 24.1762 31.5 23.4731 31.2188V31.1344V29.25V26.0156C23.4731 25.9594 23.5012 25.8187 23.5012 25.7625C24.0637 25.6219 24.6543 25.5375 25.1887 25.2844C25.6668 25.0031 25.9762 24.3281 26.6231 24.075Z" fill="#F8F3E4"/>
    <path d="M15.7669 25.7344C16.8075 25.3125 17.1731 24.1875 17.9887 23.4844C17.9887 24.1031 18.0169 24.7219 18.0169 25.3406C18.1856 25.3687 18.5231 25.3969 18.6919 25.425C19.17 25.425 19.6481 25.425 20.1544 25.3969L20.1262 25.65C19.4512 25.65 18.8044 25.6219 18.1294 25.6219C18.045 25.9875 17.9887 26.3812 17.9606 26.7469C16.6669 27.2531 15.8794 28.4344 14.8387 29.25C14.8387 28.7438 14.8669 28.2094 14.895 27.7031C15.345 27.1125 15.6262 26.4375 15.7669 25.7344Z" fill="#F4EFC8"/>
    <path d="M17.9888 23.4844C18.495 23.6531 19.0294 23.85 19.2825 24.3844C19.0856 24.7219 18.9169 25.0875 18.72 25.425C18.5513 25.3969 18.2138 25.3687 18.045 25.3406C18.0169 24.7219 17.9888 24.1031 17.9888 23.4844Z" fill="#FCFCF4"/>
    <path d="M33.2606 26.1C33.9074 25.7063 34.3856 24.975 35.1731 24.8906C36.1293 24.7219 37.0293 25.2 37.8731 25.5656C37.4512 25.5656 37.0293 25.5656 36.6074 25.5375C36.1856 25.5094 35.7637 25.4813 35.3418 25.5094C35.0043 25.5375 34.8356 25.7063 34.8918 26.0719C34.7231 26.0438 34.5543 26.0156 34.3856 25.9594C33.7949 26.4938 33.2887 27.1969 33.3449 28.0406C33.4012 28.6875 34.0762 28.9125 34.5262 29.2781V29.5875C33.2887 29.2781 32.1074 28.6594 31.4606 27.5344C31.9387 26.9438 32.6137 26.5219 33.2606 26.1Z" fill="#D7D7D5"/>
    <path d="M18.1294 25.6218C18.8044 25.6218 19.4513 25.65 20.1263 25.65H20.2669C20.52 26.1843 20.8856 26.6343 21.42 26.9437C21.5888 27.0562 21.7294 27.1968 21.8981 27.3375C21.3919 28.125 20.6325 28.7718 20.2388 29.6437C19.8731 29.7843 19.5075 29.9531 19.1419 30.0937C19.0575 30.0375 18.9169 29.9531 18.8325 29.8968C18.9169 29.7562 19.0575 29.5031 19.1419 29.3906C18.8606 29.3343 18.5794 29.25 18.2981 29.1937C18.1575 28.4062 18.045 27.5906 17.9888 26.775C17.9888 26.3812 18.045 25.9875 18.1294 25.6218Z" fill="#E5C66B"/>
    <path d="M20.2668 25.6501C20.3793 25.6501 20.6043 25.6501 20.745 25.6782C20.6887 26.6626 21.8137 26.5501 22.4887 26.4657C22.1793 26.1845 21.8981 25.9032 21.5887 25.622C22.2356 25.5657 22.8825 25.5657 23.5293 25.6501L23.445 25.847C23.445 25.9032 23.4168 26.0157 23.4168 26.1001C22.6856 26.2407 22.1793 27.0282 21.3918 26.9438C20.8856 26.6626 20.52 26.1845 20.2668 25.6501Z" fill="#242110"/>
    <path d="M20.7168 25.6781C20.9137 25.65 21.3356 25.6218 21.5606 25.6218C21.87 25.9031 22.1793 26.1843 22.4606 26.4656C21.8137 26.55 20.6606 26.6625 20.7168 25.6781Z" fill="#938357"/>
    <path d="M34.8918 26.1001C34.8637 25.7345 35.0043 25.5657 35.3418 25.5376C35.3699 25.8751 35.2012 26.072 34.8918 26.1001Z" fill="#CDBD83"/>
    <path d="M36.6356 25.5376C37.0574 25.5657 37.4793 25.5376 37.9012 25.5657L38.0137 25.5938C38.5762 25.9595 39.1106 26.3251 39.5606 26.8032C39.0543 27.9282 38.1262 28.8563 36.9731 29.3345C36.2981 29.5313 35.5668 29.4751 34.8356 29.5032V29.222C35.3699 29.222 35.9043 29.1938 36.4387 29.1657C35.8481 28.9126 35.2856 28.5751 34.9199 28.0126C34.8918 27.6188 34.8918 27.2251 34.8918 26.8032C35.6512 26.6907 36.2137 26.1563 36.6356 25.5376Z" fill="#252211"/>
    <path d="M37.9856 25.5936C38.7449 25.5936 39.5324 25.4811 40.3199 25.6218C41.1637 25.903 41.8106 26.5499 42.4012 27.1686C41.6137 27.9843 41.1074 28.9968 40.4324 29.8968C39.7574 30.8249 38.5762 30.9655 37.6199 31.4999C36.7481 31.978 35.8199 32.2874 34.8356 32.3718V29.5311C35.5387 29.503 36.2699 29.5593 36.9731 29.3624C38.1262 28.8843 39.0262 27.9561 39.5606 26.8311C39.0824 26.3249 38.5481 25.9593 37.9856 25.5936Z" fill="#D2B257"/>
    <path d="M21.3918 26.9438C22.1793 27.0282 22.6574 26.2407 23.4168 26.1001C23.4168 27.1688 23.4449 28.2657 23.4168 29.3345C22.8262 29.4751 22.2074 29.7845 21.5887 29.5595C21.1387 29.3907 20.6606 29.4188 20.2106 29.6438C20.5762 28.7438 21.3356 28.1251 21.8699 27.3376C21.7293 27.197 21.5606 27.0563 21.3918 26.9438Z" fill="#E6BD62"/>
    <path d="M36.7199 26.1843C36.3262 26.9156 37.5355 26.2406 36.7199 26.1843V26.1843Z" fill="#696148"/>
    <path d="M14.8388 29.25C15.9075 28.4343 16.6669 27.225 17.9606 26.7468C17.9888 27.5625 18.1013 28.35 18.27 29.1656C18.5513 29.2218 18.8325 29.3062 19.1138 29.3625C19.0294 29.5031 18.8888 29.7562 18.8044 29.8687C17.9606 30.4875 16.8919 30.9656 16.47 32.0062C15.9919 33.2718 16.0481 34.65 15.8794 35.9718C15.57 35.6625 15.12 35.4093 15.1481 34.9312C15.0919 33.9468 15.345 32.9625 15.4013 31.9781C14.9513 32.6531 14.67 33.4125 14.3888 34.1718C14.2763 34.65 13.7138 34.7625 13.3481 34.9875C12.9825 35.1281 12.5888 35.2687 12.2231 35.4093C12.2794 34.9875 12.3356 34.5937 12.3919 34.1718C12.7856 34.1437 13.1513 34.0875 13.545 34.0593C13.1231 34.0875 12.7013 34.0875 12.3075 34.1156C12.5888 32.3156 12.8138 30.3468 13.9388 28.8562C14.2763 28.4625 14.6138 28.0968 14.895 27.7031C14.8669 28.2375 14.8669 28.7437 14.8388 29.25Z" fill="#F4ECB4"/>
    <path d="M36.9731 27.1126C37.0575 27.9001 37.7044 26.747 36.9731 27.1126V27.1126Z" fill="#71694F"/>
    <path d="M42.4012 27.1687C42.4856 27.2812 42.5981 27.3656 42.6825 27.4781C44.9325 30.4031 45.5794 34.2843 45.27 37.8843C44.8762 38.0812 44.4825 38.3062 44.1169 38.5312C43.4981 38.9531 43.1606 39.6843 42.5137 40.1062C41.4169 40.6406 40.0387 40.5281 39.0544 41.3156C38.4919 41.9343 38.1262 42.7218 37.4794 43.2843C37.8169 43.65 38.2106 43.9593 38.52 44.3531C38.6887 44.6343 38.6325 45.0281 38.8012 45.3093C39.1106 45.5625 39.4762 45.7593 39.8137 45.9562C38.9137 46.0968 38.0419 46.0687 37.1419 45.9281C36.3262 45.7593 35.5669 46.2374 34.8356 46.5187C34.8075 41.7656 34.8356 37.0406 34.8356 32.3156C35.82 32.2312 36.7481 31.9218 37.62 31.4437C38.5481 30.9375 39.7575 30.7687 40.4325 29.8406C41.1075 28.9968 41.6137 27.9843 42.4012 27.1687ZM34.92 28.0125C35.2856 28.575 35.8481 28.8843 36.4387 29.1656C35.9044 29.1937 35.37 29.2218 34.8356 29.2218C34.8637 28.8281 34.8919 28.4343 34.92 28.0125Z" fill="#DFCD88"/>
    <path d="M20.2387 29.6438C20.6887 29.447 21.1668 29.3907 21.6168 29.5595C22.2356 29.7845 22.8543 29.4751 23.445 29.3345V31.2188C22.2637 30.797 21.0543 30.4876 19.7887 30.5438C19.5637 30.4032 19.3668 30.2345 19.1418 30.0938C19.5075 29.9532 19.8731 29.7845 20.2387 29.6438Z" fill="#DFC57C"/>
    <path d="M16.47 32.0062C16.8919 30.9655 17.9606 30.4874 18.8044 29.8687C18.8887 29.9249 19.0294 30.0093 19.1137 30.0655C19.3387 30.2062 19.5356 30.3749 19.7606 30.5155C18.6356 30.5437 17.5387 31.2749 17.3981 32.4562C17.2012 33.9468 16.695 35.4093 16.5544 36.8999C16.4137 37.9968 17.3981 38.6999 17.7075 39.628C17.7919 40.1343 17.8481 40.6687 17.9606 41.1749C17.82 41.8218 17.6794 42.4968 17.5669 43.1718C17.3419 43.1718 17.1169 43.1718 16.92 43.1999C16.695 43.7343 16.4137 44.2687 16.245 44.8312C16.4419 45.8999 16.8075 46.9687 17.0606 48.0374C17.0044 48.1499 16.92 48.403 16.8637 48.5155C16.3294 47.9249 16.02 47.1093 15.3169 46.7155C15.1481 46.4062 14.9512 46.1249 14.7544 45.8155C13.6575 43.9593 12.9262 41.878 12.5887 39.7687C12.7012 39.1499 12.8137 38.503 12.9262 37.8843C13.3762 38.7843 13.32 39.8812 13.9387 40.6968C14.3606 40.5843 14.7544 40.4999 15.1762 40.4155L15.3731 40.6687C15.795 40.0499 16.2169 39.3749 16.3012 38.5874C16.02 38.9812 15.7669 39.3749 15.5137 39.7968C15.1762 39.2624 14.7544 38.728 14.5575 38.1093C14.445 37.4062 14.4731 36.6749 14.4169 35.9718L13.6575 36.1405L13.8544 35.9437C14.0794 35.6905 14.3044 35.4374 14.5294 35.1562C14.22 35.128 13.9106 35.0718 13.6012 35.0437H13.4044C13.77 34.8187 14.3325 34.7062 14.445 34.228C14.7262 33.4687 15.0075 32.7093 15.4575 32.0343C15.4012 33.0187 15.1481 34.003 15.2044 34.9874C15.1762 35.4655 15.6262 35.7187 15.9356 36.028C16.0481 34.678 16.02 33.2999 16.47 32.0062Z" fill="#F3E19D"/>
    <path d="M17.3981 32.4843C17.5387 31.3031 18.6356 30.5718 19.7606 30.5437C21.0262 30.4875 22.2356 30.7968 23.4168 31.2187V34.7906C23.0512 35.1562 22.6856 35.5218 22.3481 35.9156C21.7574 36.4218 20.9699 36.6187 20.2387 36.8156C20.2106 36.9843 20.1262 37.2937 20.0981 37.4625C20.0699 37.6312 19.9856 37.9968 19.9293 38.1656C18.8606 37.1812 18.2418 35.8593 17.5668 34.65C17.1731 33.975 17.3137 33.1875 17.3981 32.4843Z" fill="#252211"/>
    <path d="M23.4168 31.2749C24.148 31.5562 24.7949 31.978 25.273 32.5968C25.1043 33.5249 24.9637 34.453 24.7668 35.4093C24.2043 35.6905 23.7824 36.1687 23.6137 36.7874C23.6418 36.0562 23.5293 35.2968 23.3887 34.5937C23.4168 33.4687 23.4449 32.3718 23.4168 31.2749Z" fill="#DFDDD9"/>
    <path d="M6.6825 31.5844C7.47 31.4719 8.2575 31.5563 9.045 31.5282L8.70749 31.9782C9.91687 31.8938 11.1825 31.9782 12.3637 32.3157C11.295 32.0907 10.1981 31.9219 9.07312 32.0063C8.65125 32.0626 8.31374 31.8657 7.97624 31.6688C7.55437 31.6407 6.93562 32.0626 6.6825 31.5844Z" fill="#D6D6D5"/>
    <path d="M16.5543 36.9281C16.6949 35.4094 17.2012 33.975 17.3981 32.4844C17.3137 33.1875 17.1731 33.975 17.5668 34.65C18.2699 35.8875 18.8887 37.2094 19.9293 38.1656C19.9574 37.9969 20.0418 37.6312 20.0981 37.4625C20.4918 37.4906 20.8574 37.4906 21.2512 37.5187C21.7856 37.9687 22.3762 38.3625 22.8543 38.8687C23.3606 37.9125 22.6574 36.9563 22.7418 35.9719C22.6574 35.9438 22.4606 35.9156 22.3481 35.8875C22.7137 35.5219 23.0512 35.1281 23.4168 34.7625V39.7969C21.5324 39.2063 19.5074 38.5312 17.5106 39.15C19.3668 39.9937 21.4481 40.05 23.4168 40.5844V42.2437C22.5168 42.6375 21.7012 43.2 20.8012 43.6781C19.8731 43.0594 19.2262 42.1594 18.2981 41.5406L17.9606 41.2031C17.8199 40.6969 17.7918 40.1625 17.7074 39.6562C17.3981 38.7281 16.4137 37.9969 16.5543 36.9281Z" fill="#6E6342"/>
    <path d="M9.01685 35.2126C9.9731 34.6782 11.0418 34.4532 12.0825 34.2563C11.97 34.4813 11.7731 34.622 11.52 34.6782C10.7043 34.9032 9.88872 35.2126 9.01685 35.2126Z" fill="#BFA64C"/>
    <path d="M58.0669 34.1438C58.545 35.4375 58.5169 36.8438 59.0231 38.1376C59.5294 39.9657 60.5419 41.7375 60.3731 43.7063C60.12 43.2844 59.895 42.8625 59.895 42.3563C59.895 41.2875 59.3325 40.3875 59.0794 39.375C58.77 38.2782 58.4606 37.1813 58.1231 36.0844C58.1231 35.4657 58.1231 34.7907 58.0669 34.1438Z" fill="#988430"/>
    <path d="M23.4168 34.5657C23.5574 35.2969 23.6699 36.0282 23.6418 36.7594C23.6137 37.2938 23.6137 37.8 23.6418 38.3344C23.8105 38.475 23.9793 38.6157 24.1762 38.7563C24.1199 39.0094 24.0355 39.2626 23.9793 39.5438C23.8949 39.9376 23.8668 40.3313 23.8668 40.725C26.5387 41.6813 29.9137 42.3282 32.3324 40.4157C32.3887 40.4438 32.5574 40.4719 32.6137 40.4719C32.7262 41.5969 31.8543 42.3844 31.4605 43.3688C29.7168 44.0719 27.5793 44.0157 26.1449 45.3094C25.5262 44.5782 24.598 44.8032 23.7824 44.9438C23.6418 44.55 23.5293 44.1563 23.4168 43.7626C23.3887 43.2563 23.3887 42.75 23.3887 42.2438V40.5844V39.7969V34.7625L23.4168 34.5657Z" fill="#E7E3DB"/>
    <path d="M13.545 35.0156C13.8543 35.0438 14.1637 35.0719 14.4731 35.1281C14.2481 35.3813 14.0231 35.6625 13.7981 35.9156L12.2793 36.675C12.2793 36.4219 12.2512 35.8875 12.2512 35.6344C12.6731 35.4094 13.1231 35.1844 13.545 35.0156Z" fill="#F5EDB6"/>
    <path d="M13.6293 36.1126L14.3887 35.9438C14.4449 36.647 14.4168 37.3782 14.5293 38.0813C14.7262 38.7001 15.148 39.2063 15.4855 39.7688C15.373 39.9657 15.2605 40.1907 15.148 40.4157C14.7262 40.5001 14.3043 40.5845 13.9105 40.697C13.2918 39.8813 13.348 38.7845 12.898 37.8845C12.7855 38.5032 12.673 39.122 12.5605 39.7688C12.4199 38.8407 12.3074 37.8845 12.2793 36.9563C12.6449 36.5345 13.1793 36.3938 13.6293 36.1126Z" fill="#F4ECB4"/>
    <path d="M20.2388 36.8155C20.9981 36.6187 21.7575 36.4218 22.3481 35.9155C22.4325 35.9437 22.6294 35.9718 22.7419 35.9999C22.6575 36.9843 23.3606 37.9405 22.8544 38.8968C22.3763 38.3624 21.8138 37.9687 21.2513 37.5468C20.8575 37.5187 20.4638 37.4905 20.0981 37.4905C20.1263 37.2937 20.2106 36.9562 20.2388 36.8155Z" fill="#39331F"/>
    <path d="M58.1512 36.1125C58.4887 37.2094 58.7981 38.3063 59.1075 39.4032C59.3606 40.3876 59.9231 41.3157 59.9231 42.3844C59.895 42.8907 60.1481 43.3126 60.4012 43.7344C60.2043 45.1126 60.9356 46.4063 60.8793 47.7844C60.8512 48.2907 60.795 48.7969 60.7668 49.3032C60.57 48.9938 60.3731 48.6844 60.12 48.4032C59.8387 49.2188 60.0356 50.2594 59.3606 50.9063C59.0512 50.4844 58.9106 49.7813 58.32 49.7251C57.4481 49.5844 56.6325 50.0063 56.0418 50.6251C55.2825 51.4407 54.0731 51.4969 53.0325 51.5813C53.8481 50.7375 54.5512 49.7813 55.1981 48.7969C55.7606 48.9657 56.1543 48.4594 56.5762 48.1782C56.9981 47.8126 57.5606 47.7001 58.0106 47.4188C58.4043 46.8001 58.7137 46.0969 58.8825 45.3657C58.7418 44.8876 58.5168 44.4376 58.4043 43.9594C58.1512 44.0157 57.9262 44.0719 57.6731 44.1282C57.5606 44.0438 57.3356 43.875 57.2512 43.7907C57.8981 41.3157 58.1512 38.7 58.1512 36.1125Z" fill="#CCA847"/>
    <path d="M11.1825 37.1813C11.5481 37.0125 11.5481 37.4907 11.2669 37.5751C11.0137 37.7157 10.7044 37.9688 10.395 37.8563C10.3669 37.4626 10.9012 37.3219 11.1825 37.1813Z" fill="#C1A956"/>
    <path d="M44.145 38.5312C44.5106 38.278 44.9044 38.0812 45.2981 37.8843C45.0169 40.9499 43.9763 44.2124 41.3606 46.0687C39.5044 47.4468 37.0856 46.7999 34.9481 46.9405C34.92 46.8562 34.8638 46.6593 34.8638 46.5749C35.595 46.2937 36.3544 45.8155 37.17 45.9843C38.07 46.0968 38.97 46.1249 39.8419 46.0124C39.5044 45.7874 39.1388 45.6187 38.8294 45.3655C38.6606 45.0562 38.7169 44.6905 38.5481 44.4093C38.2388 44.0437 37.845 43.7062 37.5075 43.3405C38.1544 42.778 38.5481 42.0187 39.0825 41.3718C40.0669 40.5562 41.445 40.6968 42.5419 40.1624C43.1888 39.6843 43.5263 38.9812 44.145 38.5312Z" fill="#ECD592"/>
    <path d="M15.4856 39.7687C15.7106 39.3468 15.9918 38.9531 16.2731 38.5593C16.1887 39.3468 15.7949 40.0218 15.3449 40.6406L15.1481 40.3875C15.2606 40.1906 15.3731 39.9937 15.4856 39.7687Z" fill="#D7C27C"/>
    <path d="M17.5387 39.1782C19.5074 38.5313 21.5324 39.2344 23.4449 39.825V40.6125C21.4762 40.0781 19.3949 40.0219 17.5387 39.1782Z" fill="#242110"/>
    <path d="M23.8668 40.753C23.8668 40.3593 23.8668 39.9655 23.9793 39.5718C24.7387 40.4718 25.8637 41.0624 27.0449 41.1749C28.8168 41.0343 30.5043 39.853 32.3324 40.4437C29.9137 42.3562 26.5387 41.6812 23.8668 40.753Z" fill="#D6D6D5"/>
    <path d="M17.9606 41.2031L18.2981 41.5406C18.3825 42.75 19.1137 43.7344 19.6762 44.775C20.1262 45.6187 20.9137 46.2375 21.7012 46.7719C22.2637 46.9406 22.8544 46.9125 23.4169 46.9406C21.6731 47.0531 19.9294 46.8281 18.1856 47.025C18.045 47.5594 17.9606 48.0937 17.9887 48.6281C17.6794 48.4312 17.37 48.2344 17.0606 48.0656C16.8075 46.9969 16.47 45.9281 16.245 44.8594C16.4137 44.2969 16.695 43.7625 16.92 43.2281C17.145 43.2281 17.37 43.2 17.5669 43.2C17.6794 42.525 17.82 41.8781 17.9606 41.2031Z" fill="#EED88B"/>
    <path d="M18.3262 41.5405C19.2262 42.1593 19.9012 43.0593 20.8293 43.678C21.0824 43.903 21.3355 44.1562 21.5605 44.3812C22.0949 44.803 22.798 44.9437 23.4449 45.1405V46.9124C22.8824 46.8562 22.2918 46.8843 21.7293 46.7437C20.9418 46.2093 20.1824 45.5905 19.7043 44.7468C19.1418 43.7343 18.4105 42.7218 18.3262 41.5405Z" fill="#DFC677"/>
    <path d="M20.8013 43.678C21.6731 43.228 22.4888 42.6655 23.4169 42.2437C23.4169 42.7499 23.4169 43.2562 23.445 43.7624C22.7981 43.8749 22.0388 43.8187 21.5606 44.3812C21.3075 44.1562 21.0825 43.903 20.8013 43.678Z" fill="#927D49"/>
    <path d="M21.5605 44.3812C22.0105 43.8187 22.798 43.875 23.4449 43.7625V45.1406C22.7699 44.9718 22.0949 44.8312 21.5605 44.3812Z" fill="#C4A859"/>
    <path d="M57.223 43.8188C57.3355 43.9032 57.5605 44.072 57.6449 44.1563C57.898 44.1001 58.123 44.0438 58.3762 43.9876C58.4887 44.4657 58.7137 44.9157 58.8543 45.3938C58.6855 46.1251 58.4043 46.8282 57.9824 47.447C57.5043 47.7282 56.9699 47.8407 56.548 48.2063C56.1262 48.4876 55.7324 48.9938 55.1699 48.8251C56.098 47.2501 56.7449 45.5626 57.223 43.8188Z" fill="#C0993A"/>
    <path d="M14.7262 45.8157C14.895 46.125 15.0918 46.4063 15.2887 46.7157C15.795 48.7407 16.5262 50.85 17.9887 52.3688C18.0168 53.4657 17.9606 54.5625 18.0168 55.6594C18.0168 56.0532 18.2137 56.5876 18.6918 56.5594C20.07 56.6157 21.4481 56.5594 22.8262 56.5594C22.2918 57.2626 22.6856 58.1063 22.6856 58.8938C22.7137 59.8219 23.1918 60.6375 23.3325 61.5657C22.9387 62.55 22.2918 63.3938 21.7856 64.3219C21.2793 64.4063 20.745 64.1813 20.2387 64.3501C19.9575 64.7438 19.7887 65.3344 19.2262 65.4469C16.5825 63.8157 14.1075 61.9032 11.97 59.6251C12.9262 57.7126 13.7137 55.6313 13.5168 53.4657C13.3762 52.5657 14.0512 51.8625 14.1918 51.0188C14.1637 50.5125 13.7981 50.1188 13.5731 49.6969C14.4168 48.5438 14.6981 47.1657 14.7262 45.8157Z" fill="#E5CB7A"/>
    <path d="M15.2887 46.7156C15.9918 47.1093 16.3012 47.9249 16.8356 48.5156C16.8918 48.4031 16.9762 48.15 17.0324 48.0375C17.3418 48.2343 17.6512 48.4312 17.9606 48.6C17.9887 49.8375 17.9887 51.1031 17.9606 52.3406C16.5262 50.85 15.8231 48.7406 15.2887 46.7156Z" fill="#D2B159"/>
    <path d="M60.1199 48.4031C60.3449 48.6843 60.5699 48.9656 60.7668 49.3031C60.8793 50.7656 61.2168 52.1999 61.2449 53.6906C61.2731 55.6874 61.3012 57.6562 61.4137 59.6531C59.1918 61.9875 56.6324 64.0125 53.8481 65.6156C52.7793 64.8562 51.5699 65.4468 50.5856 66.0375C50.7543 65.6718 51.0356 65.3906 51.3449 65.1375C51.9356 64.6312 52.1606 63.8437 52.7793 63.3656C53.4262 62.8031 54.2699 62.4656 54.7762 61.7343C55.2824 60.6374 56.4074 60.0468 57.0543 59.0624C57.6731 58.1624 58.7137 57.3468 58.6012 56.1375C58.5449 55.0968 58.7699 54.0843 58.8824 53.0718C58.9106 52.3406 59.0231 51.5812 59.3324 50.9062C60.0356 50.2593 59.8668 49.2468 60.1199 48.4031Z" fill="#BA9040"/>
    <path d="M56.0418 50.6532C56.6325 50.0345 57.4481 49.6126 58.32 49.7532C58.9106 49.8095 59.0793 50.5126 59.3606 50.9345C59.0512 51.6095 58.9387 52.3688 58.9106 53.1001C58.7981 54.1126 58.5731 55.1251 58.6293 56.1657C58.7137 57.3751 57.7012 58.1907 57.0825 59.0907C56.4075 60.0751 55.3106 60.6657 54.8043 61.7626H53.7356C54.6356 60.3845 55.1981 58.8376 55.9012 57.3751C56.07 57.122 55.9856 56.8688 55.9012 56.6157C55.7325 56.1938 55.9575 55.7438 55.9293 55.322C55.845 54.872 55.6762 54.4501 55.5075 54.0282C54.7481 53.8876 53.9887 53.6907 53.2012 53.747C52.245 53.9157 51.57 54.7313 50.6981 55.1251C50.2762 55.2938 49.7981 55.3501 49.4325 55.6032C48.6731 56.2501 48.4762 57.4032 47.5762 57.9657C46.7043 58.5563 45.945 59.2876 45.1012 59.9626C44.6231 60.4126 43.92 60.0751 43.3293 60.1876C42.8231 60.4407 42.4575 60.9188 41.9793 61.2282C41.3606 61.4532 40.6012 61.3407 40.095 61.8188C39.2512 62.5501 37.9856 62.3532 37.0856 63.0001C36.0731 63.5063 35.595 64.6595 34.6387 65.2501C33.9075 65.7001 33.3168 66.3188 32.7543 66.9376C32.5856 66.7407 32.445 66.5438 32.2762 66.347C31.4606 66.8251 30.8137 67.5845 29.8575 67.7813C29.52 67.3876 29.1825 66.8813 28.5918 66.8532C28.6762 66.6563 28.7887 66.4595 28.8731 66.2626C28.6762 66.0095 28.4512 65.7563 28.0856 65.7845C27.1856 65.672 26.2856 65.8688 25.4137 65.8126C24.795 65.5032 24.2887 64.997 23.9231 64.4063C24.5981 63.5907 24.9356 62.5501 25.4981 61.6782C25.8356 61.2001 26.3981 61.5938 26.82 61.6782C26.9887 61.2563 27.1856 60.8626 27.3543 60.4688C27.6075 60.497 27.8325 60.5251 28.0856 60.5532C28.6762 60.0188 29.0137 59.3157 29.2387 58.5845C29.6325 58.472 30.0262 58.3595 30.3918 58.247C30.3918 57.6001 30.6731 57.0376 31.1512 56.6157C34.4137 56.6438 37.6481 56.6157 40.9106 56.6157C44.6512 56.7001 48.3918 55.4907 51.3731 53.2126C51.9918 52.7345 52.5543 52.2001 53.0887 51.6376C54.0731 51.497 55.2543 51.4688 56.0418 50.6532Z" fill="#D8C173"/>
    <path d="M50.67 55.097C51.5418 54.7032 52.2168 53.9157 53.1731 53.7188C53.9606 53.6626 54.72 53.8595 55.4793 54.0001C55.62 54.422 55.8168 54.8438 55.9012 55.2938C55.9293 55.7157 55.7043 56.1657 55.8731 56.5876C55.9575 56.8407 56.0418 57.0938 55.8731 57.347C55.17 58.8095 54.6075 60.3563 53.7075 61.7345H54.7762C54.27 62.4657 53.4262 62.7751 52.7793 63.3657C52.1606 63.8438 51.9356 64.6313 51.345 65.1376C51.0356 65.3907 50.7825 65.672 50.5856 66.0376C49.32 66.8813 47.8012 67.2751 46.4512 67.9501C46.4512 67.697 46.4231 67.4438 46.4231 67.1907C45.4387 67.4157 44.4543 67.6126 43.4981 67.8657C42.6825 68.0907 42.1762 68.8501 41.445 69.2438C40.8543 69.4688 40.1793 69.497 39.7575 70.0032C35.2856 70.3688 30.7293 69.9188 26.4543 68.597C26.9325 68.4563 27.4106 68.2876 27.8887 68.0907C27.945 67.5563 28.2543 67.1345 28.62 66.7688C29.2106 66.797 29.5481 67.2751 29.8856 67.697C30.8418 67.5001 31.4887 66.7407 32.3043 66.2626C32.4731 66.4595 32.6137 66.6563 32.7825 66.8532C33.3731 66.2345 33.9356 65.5876 34.6668 65.1657C35.6512 64.6032 36.1012 63.4501 37.1137 62.9157C38.0137 62.2688 39.2793 62.4657 40.1231 61.7345C40.6575 61.2563 41.3887 61.3688 42.0075 61.1438C42.4856 60.8345 42.8512 60.3563 43.3575 60.1032C43.9481 60.0188 44.6512 60.3282 45.1293 59.8782C45.945 59.2032 46.7325 58.5001 47.6043 57.8813C48.5043 57.347 48.6731 56.1938 49.4606 55.5188C49.7981 55.322 50.2481 55.2938 50.67 55.097Z" fill="#E0CD81"/>
    <path d="M22.8543 56.5593H23.7543C24.4574 57.375 25.3574 58.3031 26.5106 58.3031C27.4106 58.2187 26.9606 57.1218 26.8481 56.5593H31.0668C30.5887 56.9812 30.3074 57.5437 30.3074 58.1906C29.9137 58.3031 29.5199 58.4156 29.1543 58.5281C28.9293 59.2593 28.5918 59.9906 28.0012 60.4968C27.7481 60.4687 27.5231 60.4406 27.2699 60.4125C27.1012 60.8062 26.9043 61.2281 26.7356 61.6218C26.3137 61.5093 25.7512 61.1437 25.4137 61.6218C24.8512 62.4937 24.5137 63.5343 23.8387 64.35C23.7262 64.0968 23.5856 63.8437 23.4731 63.5906C22.9106 63.8437 22.3481 64.0687 21.7574 64.2937C22.2637 63.3656 22.9106 62.5218 23.3043 61.5375C23.1637 60.6375 22.6856 59.8218 22.6574 58.8656C22.7137 58.1062 22.3199 57.2625 22.8543 56.5593Z" fill="#C2A44D"/>
    <path d="M23.7544 56.5593H26.8481C26.9606 57.1218 27.4106 58.2187 26.5106 58.3031C25.3575 58.3031 24.4575 57.375 23.7544 56.5593Z" fill="#D2B159"/>
    <path d="M21.8138 64.3218C22.3763 64.0968 22.9669 63.8718 23.5294 63.6187C23.6419 63.8718 23.7544 64.1249 23.895 64.378C24.2606 64.9687 24.7669 65.4468 25.3856 65.7843C26.2856 65.8405 27.1856 65.6718 28.0575 65.7562C28.4231 65.6999 28.6481 65.953 28.845 66.2343C28.7606 66.4312 28.6763 66.628 28.5638 66.8249C28.1981 67.1905 27.9169 67.6124 27.8325 68.1468L26.3981 68.653C23.9231 67.8374 21.5044 66.7405 19.2544 65.4468C19.8169 65.3343 19.9856 64.7718 20.2669 64.3499C20.745 64.1812 21.3075 64.378 21.8138 64.3218Z" fill="#CEB052"/>
    <path d="M50.5575 66.0376C51.5137 65.4188 52.7512 64.8563 53.82 65.6157C49.545 68.1188 44.6794 69.6938 39.7294 70.0313C40.1512 69.525 40.8262 69.4688 41.4169 69.2719C42.1481 68.8782 42.6544 68.1188 43.47 67.8938C44.4262 67.6125 45.4106 67.4157 46.395 67.2188C46.395 67.4719 46.4231 67.725 46.4231 67.9782C47.7731 67.2469 49.2919 66.8813 50.5575 66.0376Z" fill="#D2BA6B"/>
  </g>
  <defs>
    <clipPath id="clip0_165_18476">
      <rect width="72" height="72" fill="white" transform="translate(0.719971)"/>
    </clipPath>
  </defs>
</svg>