<svg xmlns="http://www.w3.org/2000/svg" width="73" height="72" viewBox="0 0 73 72" fill="none">
  <g clip-path="url(#clip0_165_18551)">
    <path d="M72.3301 72H0.330078V0H72.3301" fill="white"/>
    <path d="M36.3301 21.2064C41.3783 21.2064 45.4707 18.8266 45.4707 15.8908C45.4707 12.9551 41.3783 10.5752 36.3301 10.5752C31.2819 10.5752 27.1895 12.9551 27.1895 15.8908C27.1895 18.8266 31.2819 21.2064 36.3301 21.2064Z" fill="#E6007A"/>
    <path d="M36.3301 61.3407C41.3783 61.3407 45.4707 58.9608 45.4707 56.0251C45.4707 53.0894 41.3783 50.7095 36.3301 50.7095C31.2819 50.7095 27.1895 53.0894 27.1895 56.0251C27.1895 58.9608 31.2819 61.3407 36.3301 61.3407Z" fill="#E6007A"/>
    <path d="M23.5547 28.5998C26.0788 24.2279 26.0639 19.4938 23.5215 18.026C20.9791 16.5581 16.8719 18.9123 14.3477 23.2842C11.8236 27.6561 11.8385 32.3901 14.3809 33.858C16.9233 35.3259 21.0306 32.9717 23.5547 28.5998Z" fill="#E6007A"/>
    <path d="M58.3019 48.6394C60.826 44.2675 60.8111 39.5334 58.2687 38.0655C55.7263 36.5977 51.6191 38.9518 49.0949 43.3237C46.5708 47.6956 46.5857 52.4297 49.1281 53.8976C51.6705 55.3654 55.7778 53.0112 58.3019 48.6394Z" fill="#E6007A"/>
    <path d="M23.5161 53.9057C26.0585 52.4378 26.0733 47.7037 23.5492 43.3318C21.0251 38.9599 16.9179 36.6058 14.3755 38.0736C11.833 39.5415 11.8182 44.2756 14.3423 48.6475C16.8664 53.0194 20.9737 55.3735 23.5161 53.9057Z" fill="#E6007A"/>
    <path d="M58.2778 33.8422C60.8202 32.3743 60.8351 27.6402 58.311 23.2684C55.7869 18.8965 51.6796 16.5423 49.1372 18.0102C46.5948 19.478 46.5799 24.2121 49.104 28.584C51.6281 32.9559 55.7354 35.3101 58.2778 33.8422Z" fill="#E6007A"/>
  </g>
  <defs>
    <clipPath id="clip0_165_18551">
      <rect width="72" height="72" fill="white" transform="translate(0.330078)"/>
    </clipPath>
  </defs>
</svg>