<svg xmlns="http://www.w3.org/2000/svg" width="46" height="72" viewBox="0 0 46 72" fill="none">
  <g clip-path="url(#clip0_165_18563)">
    <path d="M39.7987 21.7406L22.98 0L6.16123 21.7406L0.620605 57.5156L22.98 72L45.3394 57.5156L39.7987 21.7406ZM43.1175 52.4531L34.9612 37.9969L38.955 25.4812L43.1175 52.4531ZM24.0487 3.88125L38.0831 22.0219L33.7237 35.7469L24.0487 18.6469V3.88125ZM32.9081 38.25L27.1706 56.3062H18.7894L13.0519 38.25L22.98 20.6438L32.9081 38.25ZM21.9112 3.88125V18.6469L12.2362 35.775L7.87686 22.0219L21.9112 3.88125ZM7.03311 25.4812L11.0269 37.9969L2.87061 52.4531L7.03311 25.4812ZM11.7862 40.4719L16.8206 56.3062H2.87061L11.7862 40.4719ZM3.99561 57.9937H17.3831L20.8706 68.9344L3.99561 57.9937ZM19.3237 57.9937H26.6081L22.9519 69.4688L19.3237 57.9937ZM25.1175 68.9344L28.605 57.9937H41.9644L25.1175 68.9344ZM29.1112 56.3062L34.1456 40.4719L43.0894 56.3062H29.1112Z" fill="#96A6ED"/>
  </g>
  <defs>
    <clipPath id="clip0_165_18563">
      <rect width="44.7188" height="72" fill="white" transform="translate(0.620605)"/>
    </clipPath>
  </defs>
</svg>