<svg width="40" height="40" viewBox="0 0 40 40" fill="none" xmlns="http://www.w3.org/2000/svg">
<path opacity="0.2" d="M39.8915 20.0003C39.8915 30.9879 30.9846 39.8951 19.9972 39.8951C9.00961 39.8951 0.102539 30.9879 0.102539 20.0003C0.102539 9.0129 9.00961 0.105835 19.9972 0.105835C30.9845 0.105835 39.8915 9.0129 39.8915 20.0003Z" fill="#505050"/>
<g opacity="0.8">
<path d="M19.9336 10.7693L19.8107 11.187V23.3066L19.9336 23.4293L25.5594 20.1039L19.9336 10.7693Z" fill="white"/>
<path d="M19.9336 10.7693L14.3078 20.1039L19.9336 23.4294V17.5468V10.7693Z" fill="white"/>
<path d="M19.9335 25.2597L19.8643 25.3441V29.6614L19.9335 29.8636L25.5627 21.9359L19.9335 25.2597Z" fill="white"/>
<path d="M19.9336 29.8637V25.2597L14.3078 21.9359L19.9336 29.8637Z" fill="white"/>
<path d="M19.9335 23.4293L25.5593 20.104L19.9335 17.5469V23.4293Z" fill="white"/>
<path d="M14.3078 20.104L19.9335 23.4294V17.5469L14.3078 20.104Z" fill="white"/>
</g>
</svg>
