<svg xmlns="http://www.w3.org/2000/svg" width="72" height="72" viewBox="0 0 72 72" fill="none">
  <g clip-path="url(#clip0_165_18587)">
    <path d="M13.4949 36.675L35.9949 49.725V0L13.4949 36.675Z" fill="#D7D7D7"/>
    <path d="M35.9949 0V49.7531L58.4949 36.7031L35.9949 0Z" fill="#878787"/>
    <path d="M35.9949 26.6343L58.4949 36.6749L35.9949 49.7249V26.6343Z" fill="white"/>
    <path d="M35.9949 26.6343V49.7249L13.4949 36.6749L35.9949 26.6343Z" fill="#999999"/>
    <path d="M13.4949 40.8657L35.9949 72.0001V53.9157L13.4949 40.8657Z" fill="#D7D7D7"/>
    <path d="M35.9949 53.9157V72.0001L58.4949 40.8657L35.9949 53.9157Z" fill="#878787"/>
    <path fill-rule="evenodd" clip-rule="evenodd" d="M54.3605 36.7031C64.1199 36.7031 72.023 44.6063 72.023 54.3656C72.023 64.125 64.0917 72 54.3605 72C44.6292 72 36.698 64.0969 36.698 54.3375C36.698 44.5781 44.6011 36.7031 54.3605 36.7031Z" fill="#F0B90B"/>
    <path d="M46.4011 54.3657V59.0345L50.3667 61.3688V64.097L44.0948 60.4126V53.0157L46.4011 54.3657ZM46.4011 49.697V52.4251L44.0948 51.047V48.3188L46.4011 46.9407L48.7355 48.3188L46.4011 49.697ZM52.0261 48.3188L54.3323 46.9407L56.6667 48.3188L54.3323 49.697L52.0261 48.3188ZM48.0605 58.0501V55.322L50.3667 56.7001V59.4282L48.0605 58.0501ZM52.0261 62.3251L54.3323 63.7032L56.6667 62.3251V65.0532L54.3323 66.4313L52.0261 65.0532V62.3251ZM59.9855 48.3188L62.2917 46.9407L64.6261 48.3188V51.047L62.2917 52.4251V49.697L59.9855 48.3188ZM62.2917 59.0063V54.3376L64.598 52.9595V60.3563L58.3261 64.0407V61.3126L62.2917 59.0063ZM60.6323 58.0501L58.3261 59.4001V56.672L60.6323 55.2938V58.0501ZM60.6323 50.6532V53.3813L56.6667 55.7157V60.3845L54.3605 61.7345L52.0542 60.3845V55.7157L48.0886 53.3813V50.6532L50.3948 49.2751L54.3605 51.6095L58.3261 49.2751L60.6323 50.6532ZM48.0605 45.9845L54.3323 42.272L60.6042 45.9845L58.298 47.3626L54.3323 45.0282L50.3667 47.3626L48.0605 45.9845Z" fill="white"/>
  </g>
  <defs>
    <clipPath id="clip0_165_18587">
      <rect width="72" height="72" fill="white" transform="translate(-0.00512695)"/>
    </clipPath>
  </defs>
</svg>