<svg xmlns="http://www.w3.org/2000/svg" width="73" height="72" viewBox="0 0 73 72" fill="none">
  <g clip-path="url(#clip0_165_18602)">
    <path d="M12.1963 36.675L34.6963 49.725V0L12.1963 36.675Z" fill="#D7D7D7"/>
    <path d="M34.6963 0V49.7531L57.1963 36.7031L34.6963 0Z" fill="#878787"/>
    <path d="M34.6963 26.6343L57.1963 36.6749L34.6963 49.7249V26.6343Z" fill="white"/>
    <path d="M34.6963 26.6343V49.7249L12.1963 36.6749L34.6963 26.6343Z" fill="#999999"/>
    <path d="M12.1963 40.8657L34.6963 72.0001V53.9157L12.1963 40.8657Z" fill="#D7D7D7"/>
    <path d="M34.6963 53.9157V72.0001L57.1963 40.8657L34.6963 53.9157Z" fill="#878787"/>
    <path fill-rule="evenodd" clip-rule="evenodd" d="M55.0307 36.7031C64.79 36.7031 72.6932 44.6063 72.6932 54.3656C72.6932 64.125 64.7619 72 55.0307 72C45.2994 72 37.3682 64.0969 37.3682 54.3375C37.3682 44.5781 45.2713 36.7031 55.0307 36.7031Z" fill="black"/>
    <path d="M47.0713 54.3657V59.0345L51.0369 61.3688V64.097L44.765 60.4126V53.0157L47.0713 54.3657ZM47.0713 49.697V52.4251L44.765 51.047V48.3188L47.0713 46.9407L49.4056 48.3188L47.0713 49.697ZM52.6963 48.3188L55.0025 46.9407L57.3369 48.3188L55.0025 49.697L52.6963 48.3188ZM48.7306 58.0501V55.322L51.0369 56.7001V59.4282L48.7306 58.0501ZM52.6963 62.3251L55.0025 63.7032L57.3369 62.3251V65.0532L55.0025 66.4313L52.6963 65.0532V62.3251ZM60.6556 48.3188L62.9619 46.9407L65.2963 48.3188V51.047L62.9619 52.4251V49.697L60.6556 48.3188ZM62.9619 59.0063V54.3376L65.2681 52.9595V60.3563L58.9963 64.0407V61.3126L62.9619 59.0063ZM61.3025 58.0501L58.9963 59.4001V56.672L61.3025 55.2938V58.0501ZM61.3025 50.6532V53.3813L57.3369 55.7157V60.3845L55.0306 61.7345L52.7244 60.3845V55.7157L48.7588 53.3813V50.6532L51.065 49.2751L55.0306 51.6095L58.9963 49.2751L61.3025 50.6532ZM48.7306 45.9845L55.0025 42.272L61.2744 45.9845L58.9681 47.3626L55.0025 45.0282L51.0369 47.3626L48.7306 45.9845Z" fill="#F0B90B"/>
  </g>
  <defs>
    <clipPath id="clip0_165_18602">
      <rect width="72" height="72" fill="white" transform="translate(0.665039)"/>
    </clipPath>
  </defs>
</svg>