<svg xmlns="http://www.w3.org/2000/svg" width="73" height="72" viewBox="0 0 73 72" fill="none">
  <g clip-path="url(#clip0_165_18617)">
    <path d="M36.3301 72C56.2123 72 72.3301 55.8823 72.3301 36C72.3301 16.1177 56.2123 0 36.3301 0C16.4478 0 0.330078 16.1177 0.330078 36C0.330078 55.8823 16.4478 72 36.3301 72Z" fill="#1969EE"/>
    <path d="M33.9844 9.51729C35.3007 8.82822 37.306 8.82822 38.6223 9.51729L52.0576 16.5542C52.8507 16.9704 53.2866 17.5892 53.3654 18.2276H53.3794V53.6032C53.3626 54.3007 52.921 54.9926 52.0604 55.4454L38.6251 62.4823C37.3088 63.1713 35.3035 63.1713 33.9873 62.4823L20.552 55.4454C19.6941 54.9954 19.2807 54.2979 19.261 53.6032V18.2276H19.2666C19.3257 17.5807 19.742 16.9788 20.552 16.5542L33.9873 9.51729H33.9844ZM51.2616 37.9629L38.6194 44.5835C37.3032 45.2726 35.2979 45.2726 33.9816 44.5835L21.3676 37.977V53.5329L33.9816 60.1057C34.6932 60.4826 35.4329 60.851 36.1557 60.8988L36.2991 60.9045C37.0529 60.9045 37.7841 60.5276 38.5238 60.1676L51.256 53.4795V37.9657L51.2616 37.9629ZM17.0701 52.8326C17.0701 54.1882 17.2276 55.0798 17.5454 55.707C17.8069 56.2273 18.1979 56.6238 18.9151 57.1076L18.9573 57.1357C19.1148 57.2398 19.2863 57.3523 19.4973 57.4788L19.7448 57.6307L20.5069 58.0863L19.4129 59.8807L18.5579 59.3688L18.4145 59.2817C18.167 59.1298 17.9616 59.0004 17.7704 58.8738C15.7285 57.5098 14.9691 56.022 14.9523 52.9254V52.8326H17.0673H17.0701ZM35.2444 28.482C35.146 28.5157 35.056 28.5551 34.9716 28.5973L21.5363 35.6342C21.5223 35.6426 21.5082 35.6482 21.497 35.6567L21.4857 35.6623L21.5082 35.6735L21.5391 35.6904L34.9745 42.7273C35.0588 42.7723 35.1488 42.8088 35.2473 42.8426V28.4792L35.2444 28.482ZM37.3594 28.482V42.8454C37.4579 42.8117 37.5479 42.7723 37.6323 42.7301L51.0676 35.6932C51.0816 35.6848 51.0957 35.6792 51.1069 35.6707L51.1182 35.6651L51.0985 35.6538L51.0676 35.637L37.6323 28.6001C37.5479 28.5551 37.4579 28.5185 37.3594 28.4848V28.482ZM51.2616 20.7363L39.2073 27.0504L51.2616 33.3645V20.7392V20.7363ZM21.3704 20.7504V33.3476L33.3966 27.0504L21.3704 20.7504ZM37.6323 11.3707C36.9348 11.0051 35.6691 11.0051 34.9716 11.3707L21.5363 18.4076C21.5223 18.416 21.5082 18.4217 21.497 18.4301L21.4857 18.4357L21.5082 18.447L21.5391 18.4638L34.9745 25.5007C35.672 25.8663 36.9376 25.8663 37.6351 25.5007L51.0704 18.4638C51.0844 18.4554 51.0985 18.4498 51.1098 18.4413L51.121 18.4357L51.1013 18.4245L51.0704 18.4076L37.6351 11.3707H37.6323ZM53.2473 12.1413L54.1023 12.6532L54.2457 12.7404C54.4932 12.8923 54.6985 13.0217 54.8898 13.1482C56.9316 14.5123 57.691 16.0001 57.7079 19.0967V19.1923H55.5929C55.5929 17.8367 55.4354 16.9451 55.1176 16.3179C54.856 15.7976 54.4651 15.401 53.7479 14.9173L53.7057 14.8892C53.5482 14.7851 53.3766 14.6754 53.1657 14.546L52.9182 14.3942L52.156 13.9385L53.2501 12.1442L53.2473 12.1413Z" fill="white"/>
  </g>
  <defs>
    <clipPath id="clip0_165_18617">
      <rect width="72" height="72" fill="white" transform="translate(0.330078)"/>
    </clipPath>
  </defs>
</svg>