<svg xmlns="http://www.w3.org/2000/svg" width="73" height="72" viewBox="0 0 73 72" fill="none">
  <g clip-path="url(#clip0_165_18623)">
    <path d="M36.28 72C56.1623 72 72.28 55.8823 72.28 36C72.28 16.1177 56.1623 0 36.28 0C16.3978 0 0.280029 16.1177 0.280029 36C0.280029 55.8823 16.3978 72 36.28 72Z" fill="#41E6AF"/>
    <path fill-rule="evenodd" clip-rule="evenodd" d="M27.8943 35.8548L42.4394 50.403L51.6211 41.2216C52.4118 40.5104 53.4452 40.1297 54.5083 40.1578C55.5715 40.1859 56.5833 40.6208 57.3353 41.3729C58.0873 42.1249 58.5221 43.1367 58.5502 44.1999C58.5783 45.263 58.1975 46.2964 57.4863 47.0871L45.3697 59.2056C44.5876 59.975 43.5343 60.4063 42.4371 60.4063C41.3399 60.4063 40.2867 59.975 39.5046 59.2056L22.0235 41.7203V52.113C22.028 52.6613 21.9239 53.205 21.7172 53.7128C21.5105 54.2207 21.2053 54.6826 20.8192 55.0718C20.4331 55.4611 19.9738 55.7701 19.4676 55.981C18.9615 56.1918 18.4187 56.3004 17.8704 56.3004C17.3221 56.3004 16.7792 56.1918 16.2731 55.981C15.767 55.7701 15.3077 55.4611 14.9216 55.0718C14.5355 54.6826 14.2303 54.2207 14.0236 53.7128C13.8169 53.205 13.7128 52.6613 13.7173 52.113V19.5828C13.7263 18.4872 14.1678 17.4396 14.9457 16.6681C15.7236 15.8966 16.7748 15.4637 17.8704 15.4637C18.966 15.4637 20.0172 15.8966 20.795 16.6681C21.5729 17.4396 22.0144 18.4872 22.0235 19.5828V29.9758L39.5032 12.4947C40.2851 11.7249 41.3384 11.2935 42.4357 11.2935C43.5331 11.2935 44.5864 11.7249 45.3683 12.4947L57.4939 24.6113C58.2051 25.4019 58.5859 26.4353 58.5578 27.4985C58.5297 28.5616 58.0949 29.5734 57.3429 30.3255C56.5909 31.0775 55.5791 31.5124 54.5159 31.5405C53.4528 31.5687 52.4194 31.1879 51.6287 30.4767L42.447 21.295L27.8943 35.8548ZM42.447 31.6968C42.4473 32.1534 42.6289 32.5912 42.952 32.914C43.275 33.2367 43.713 33.4179 44.1696 33.4178C44.6263 33.4176 45.0642 33.2361 45.387 32.9132C45.7098 32.5902 45.8912 32.1523 45.8912 31.6957C45.8912 31.239 45.7098 30.8011 45.387 30.4782C45.0642 30.1552 44.6263 29.9737 44.1696 29.9736C43.713 29.9734 43.275 30.1546 42.952 30.4774C42.6289 30.8001 42.4473 31.2379 42.447 31.6945V31.6968Z" fill="white"/>
  </g>
  <defs>
    <clipPath id="clip0_165_18623">
      <rect width="72" height="72" fill="white" transform="translate(0.280029)"/>
    </clipPath>
  </defs>
</svg>