<svg xmlns="http://www.w3.org/2000/svg" width="73" height="72" viewBox="0 0 73 72" fill="none">
  <g clip-path="url(#clip0_165_18636)">
    <path d="M36.33 0C16.4456 0 0.329956 16.1156 0.329956 36C0.329956 55.8844 16.4456 72 36.33 72C56.2143 72 72.33 55.8844 72.33 36C72.4143 16.1156 56.2987 0 36.33 0Z" fill="#345D9D"/>
    <path d="M36.9487 37.2093L33.2081 49.8374H53.2612C53.88 49.8374 54.3019 50.2593 54.3019 50.878V51.1312L52.5581 57.1499C52.3894 57.7687 51.855 58.1062 51.2644 58.1062H20.5519L25.6987 40.5843L19.9331 42.328L21.2269 38.3062L26.9925 36.5624L34.2206 11.9812C34.3894 11.3624 34.9237 11.0249 35.5144 11.0249H43.2769C43.8956 11.0249 44.3175 11.4468 44.3175 12.0655V12.3187L38.2144 33.0749L43.98 31.3312L42.7706 35.5218L36.9487 37.2093Z" fill="white"/>
  </g>
  <defs>
    <clipPath id="clip0_165_18636">
      <rect width="72" height="72" fill="white" transform="translate(0.329956)"/>
    </clipPath>
  </defs>
</svg>