<svg xmlns="http://www.w3.org/2000/svg" width="73" height="72" viewBox="0 0 73 72" fill="none">
  <g clip-path="url(#clip0_165_18671)">
    <path d="M54.7274 23.9907C53.4055 23.2032 51.6618 23.2032 50.1993 23.9907L39.8493 29.9813L32.818 33.8907L22.468 39.8813C21.1461 40.6688 19.4024 40.6688 17.9399 39.8813L9.69927 35.1845C8.37739 34.397 7.44927 32.9626 7.44927 31.3876V22.1626C7.44927 20.5876 8.23677 19.1532 9.69927 18.3657L17.7993 13.8095C19.1211 13.022 20.8649 13.022 22.3274 13.8095L30.4274 18.3657C31.7493 19.1532 32.6774 20.5876 32.6774 22.1626V28.1532L39.7086 24.1032V18.1126C39.7086 16.5376 38.9211 15.1032 37.4586 14.3157L22.4399 5.7376C21.118 4.9501 19.3743 4.9501 17.9118 5.7376L2.63989 14.3438C1.17739 15.1313 0.389893 16.5657 0.389893 18.1407V35.4938C0.389893 37.0688 1.17739 38.5032 2.63989 39.2907L17.9118 47.897C19.2336 48.6845 20.9774 48.6845 22.4399 47.897L32.7899 42.0188L39.8211 37.9688L50.1711 32.0907C51.493 31.3032 53.2368 31.3032 54.6993 32.0907L62.7993 36.647C64.1211 37.4345 65.0493 38.8688 65.0493 40.4438V49.697C65.0493 51.272 64.2618 52.7063 62.7993 53.4938L54.6993 58.1907C53.3774 58.9782 51.6336 58.9782 50.1711 58.1907L42.0711 53.6345C40.7493 52.847 39.8211 51.4126 39.8211 49.8376V43.847L32.7899 47.897V53.8876C32.7899 55.4626 33.5774 56.897 35.0399 57.6845L50.3118 66.2907C51.6336 67.0782 53.3774 67.0782 54.8399 66.2907L70.1399 57.6563C71.4618 56.8688 72.3899 55.4345 72.3899 53.8595V36.5063C72.3899 34.9313 71.6024 33.497 70.1399 32.7095L54.7274 23.9907Z" fill="#8247E5"/>
    <path d="M50.3399 54.675L61.3649 61.0875V36.7031L50.3399 54.675Z" fill="#D7D7D7"/>
    <path d="M61.3649 36.7031V61.0875L72.3899 54.675L61.3649 36.7031Z" fill="#878787"/>
    <path d="M61.3649 49.7529L72.3899 54.6748L61.3649 61.0873V49.7529Z" fill="white"/>
    <path d="M61.3649 49.7529V61.0873L50.3399 54.6748L61.3649 49.7529Z" fill="#999999"/>
    <path d="M50.3399 56.728L61.3649 71.9999V63.1405L50.3399 56.728Z" fill="#D7D7D7"/>
    <path d="M61.3649 63.1405V71.9999L72.3899 56.728L61.3649 63.1405Z" fill="#878787"/>
  </g>
  <defs>
    <clipPath id="clip0_165_18671">
      <rect width="72" height="72" fill="white" transform="translate(0.389893)"/>
    </clipPath>
  </defs>
</svg>