<svg xmlns="http://www.w3.org/2000/svg" width="73" height="72" viewBox="0 0 73 72" fill="none">
  <g clip-path="url(#clip0_165_18666)">
    <path d="M54.9974 23.9907C53.6755 23.2032 51.9318 23.2032 50.4693 23.9907L40.1193 29.9813L33.088 33.8907L22.738 39.8813C21.4162 40.6688 19.6724 40.6688 18.2099 39.8813L9.96929 35.1845C8.64741 34.397 7.71929 32.9626 7.71929 31.3876V22.1626C7.71929 20.5876 8.50679 19.1532 9.96929 18.3657L18.0693 13.8095C19.3912 13.022 21.1349 13.022 22.5974 13.8095L30.6974 18.3657C32.0193 19.1532 32.9474 20.5876 32.9474 22.1626V28.1532L39.9787 24.1032V18.1126C39.9787 16.5376 39.1912 15.1032 37.7287 14.3157L22.7099 5.7376C21.388 4.9501 19.6443 4.9501 18.1818 5.7376L2.90991 14.3438C1.44741 15.1313 0.659912 16.5657 0.659912 18.1407V35.4938C0.659912 37.0688 1.44741 38.5032 2.90991 39.2907L18.1818 47.897C19.5037 48.6845 21.2474 48.6845 22.7099 47.897L33.0599 42.0188L40.0912 37.9688L50.4412 32.0907C51.763 31.3032 53.5068 31.3032 54.9693 32.0907L63.0693 36.647C64.3912 37.4345 65.3193 38.8688 65.3193 40.4438V49.697C65.3193 51.272 64.5318 52.7063 63.0693 53.4938L54.9693 58.1907C53.6474 58.9782 51.9037 58.9782 50.4412 58.1907L42.3412 53.6345C41.0193 52.847 40.0912 51.4126 40.0912 49.8376V43.847L33.0599 47.897V53.8876C33.0599 55.4626 33.8474 56.897 35.3099 57.6845L50.5818 66.2907C51.9037 67.0782 53.6474 67.0782 55.1099 66.2907L70.4099 57.6563C71.7318 56.8688 72.6599 55.4345 72.6599 53.8595V36.5063C72.6599 34.9313 71.8724 33.497 70.4099 32.7095L54.9974 23.9907Z" fill="#8247E5"/>
  </g>
  <defs>
    <clipPath id="clip0_165_18666">
      <rect width="72" height="72" fill="white" transform="translate(0.659912)"/>
    </clipPath>
  </defs>
</svg>