<svg xmlns="http://www.w3.org/2000/svg" width="73" height="72" viewBox="0 0 73 72" fill="none">
  <g clip-path="url(#clip0_165_18711)">
    <path d="M22.9425 29.5876C23.3925 29.6158 23.8987 29.5595 24.405 29.5314C24.9393 29.5033 25.4737 29.3908 25.98 29.1939C26.2893 29.0814 26.5706 28.8845 26.7112 28.5751C26.9362 27.9845 26.9925 27.3376 26.8237 26.7189C26.5425 25.7626 25.8393 25.1158 25.08 24.5251C24.4331 24.0189 23.6737 23.7939 22.8581 23.9345C21.4518 24.1595 20.0175 25.4251 19.8487 26.8876C19.7643 27.5345 19.7362 28.1533 20.1018 28.7158C20.355 29.1095 20.6081 29.447 21.1143 29.4751C21.705 29.5314 22.2956 29.5876 22.9425 29.5876ZM49.4925 29.5876C49.8018 29.6158 50.3081 29.5595 50.8143 29.5033C51.2643 29.4751 51.6862 29.3626 51.9393 28.9408C52.3331 28.3501 52.4737 27.7033 52.3893 27.0001C52.2206 25.7908 51.5175 24.947 50.4768 24.3283C49.6612 23.8501 48.7893 23.7095 47.8612 24.0189C47.3268 24.2158 46.905 24.5814 46.4831 24.947C45.78 25.622 45.2175 26.3814 45.1331 27.422C45.0487 28.3783 45.4425 28.9408 46.3425 29.1939C47.3268 29.5314 48.3112 29.5876 49.4925 29.5876ZM54.33 33.6939C54.33 33.1033 54.33 32.5126 54.1612 31.922C53.9362 31.1908 53.9925 31.1908 53.2893 31.247C52.305 31.3314 51.4612 31.7533 50.5893 32.1751C49.38 32.7939 48.2268 33.497 47.0737 34.2564C46.1456 34.8751 45.2175 35.4376 44.4018 36.197C43.7831 36.8158 43.2206 37.4626 43.08 38.3908C43.0237 38.672 43.1362 38.8408 43.4456 38.9251C43.7268 38.9814 44.0081 39.0658 44.3175 39.0376C45.4425 39.0376 46.5393 38.8408 47.6362 38.5595C49.0425 38.222 50.3925 37.7439 51.6862 37.097C52.53 36.647 53.3456 36.1408 53.9925 35.4376C54.1612 35.2408 54.3018 35.0439 54.2737 34.7908C54.2737 34.397 54.3018 34.0595 54.33 33.6939ZM18.5268 33.6095C18.5268 33.8626 18.5831 34.2845 18.5831 34.7345C18.5831 35.1283 18.78 35.4095 19.0331 35.6626C20.13 36.7314 21.48 37.3501 22.8862 37.8845C23.7862 38.222 24.7425 38.5033 25.6987 38.7001C26.655 38.897 27.6112 39.0658 28.5956 39.0939C28.9331 39.0939 29.2987 39.0658 29.6362 38.9533C29.9175 38.8689 30.0018 38.7283 29.9737 38.447C29.9456 38.1939 29.8612 37.9689 29.7487 37.7439C29.2987 36.872 28.6237 36.197 27.8362 35.6626C25.8112 34.2564 23.7581 32.9064 21.48 31.922C20.7768 31.6126 20.0737 31.3876 19.3143 31.3876C19.0612 31.3876 18.9487 31.5001 18.8362 31.7251C18.6112 32.2314 18.5831 32.822 18.5268 33.6095ZM11.4112 4.52827C11.2425 4.50014 11.2143 4.55639 11.0737 4.89389C10.5112 6.13139 10.3706 7.45327 10.2862 8.77514C10.2581 9.59077 10.3143 10.4345 10.3987 11.2501C10.455 11.8126 10.5112 12.3751 10.5956 12.9376C10.68 13.5564 10.7925 14.1751 10.9331 14.822C11.1018 15.6376 11.2706 16.4533 11.4675 17.2689C11.7206 18.2814 12.0018 19.2939 12.2831 20.2783C12.5362 21.122 12.7893 21.9376 13.0425 22.7533C13.0706 22.8095 13.0706 22.8939 13.155 22.8939C13.2112 22.8939 13.2393 22.8376 13.2675 22.7814C13.83 21.9095 14.3925 21.0095 15.0112 20.1658C15.7987 19.1251 16.6143 18.1126 17.5143 17.1564C18.2456 16.397 19.005 15.6376 19.8206 14.9626C20.58 14.3439 21.3393 13.7251 22.155 13.1626C22.2956 13.0501 22.2956 12.9939 22.1831 12.8533C21.6487 12.2626 21.1143 11.672 20.5518 11.1095C19.5956 10.1533 18.6393 9.22514 17.5987 8.35327C16.8393 7.73452 16.1081 7.11577 15.2925 6.55327C14.4487 5.96264 13.5768 5.45639 12.6768 5.00639C12.2831 4.83764 11.8331 4.64077 11.4112 4.52827ZM52.53 15.3001C52.6706 15.5251 52.8956 15.6376 53.0643 15.8064C53.8518 16.5939 54.6393 17.3533 55.3706 18.2251C55.9331 18.9001 56.4956 19.6033 57.03 20.3064C57.5925 21.0658 58.0987 21.8251 58.605 22.6126C58.6893 22.7251 58.6893 22.922 58.8581 22.922C58.8862 22.922 58.9706 22.697 58.9987 22.5845C59.3081 21.5439 59.6456 20.5314 59.9268 19.5189C60.2643 18.3376 60.5737 17.1845 60.8268 16.0033C61.1081 14.7095 61.3612 13.3876 61.5018 12.0658C61.6143 11.1939 61.6706 10.2939 61.6987 9.42202C61.7268 8.63452 61.6425 7.84702 61.5581 7.05952C61.53 7.00327 61.5018 6.94702 61.5018 6.91889C61.4175 6.18764 61.1925 5.48452 60.8831 4.80952C60.7425 4.47202 60.6862 4.47202 60.3487 4.61264C59.1393 5.09077 57.9862 5.70952 56.9175 6.44077C55.23 7.59389 53.7112 8.94389 52.2487 10.3501C51.405 11.1658 50.5893 12.0376 49.8018 12.9095C49.6893 13.0501 49.6612 13.1064 49.83 13.247C50.4768 13.7251 51.1237 14.2033 51.7706 14.7095C51.9956 14.8783 52.2206 15.1314 52.53 15.3001ZM52.1362 6.32827C52.8956 5.59702 53.5987 4.86577 54.3862 4.19077C55.8206 2.95327 57.3393 1.88452 59.0831 1.09702C60.2081 0.590767 61.3612 0.225142 62.6268 0.140767C62.7956 0.140767 62.9081 0.168892 63.0206 0.337642C63.4706 1.06889 63.7518 1.85639 63.9768 2.70014C64.4268 4.38764 64.5112 6.13139 64.4268 7.87514C64.3706 9.30952 64.23 10.7158 64.0331 12.122C63.8643 13.247 63.6675 14.3439 63.4706 15.4689C63.3862 15.8908 63.2737 16.3126 63.2175 16.7345L63.1331 16.9876C62.8237 18.422 62.4581 19.8564 62.0925 21.2908C61.6425 22.9783 61.1925 24.6376 60.63 26.297C60.4612 26.7751 60.5737 27.1408 60.7706 27.5626C61.305 28.7439 61.98 29.8689 62.4581 31.1064C62.7956 31.9783 63.105 32.8501 63.3581 33.7501C63.8081 35.2126 64.1175 36.7033 64.3706 38.1939C64.5112 39.122 64.6237 40.0501 64.7081 40.9783C64.7925 41.7939 64.8206 42.5814 64.8487 43.397C64.8487 43.7064 64.9893 44.0158 64.8768 44.3251C64.455 44.2689 64.0331 44.1845 63.6393 44.1283C62.2612 43.9876 60.9112 43.9314 59.5331 44.0439C57.93 44.2126 56.4112 44.5783 54.9206 45.1689C53.0081 45.9564 51.3206 47.1095 49.8018 48.5439L48.5925 49.7533C48.4237 49.2751 48.2831 48.8251 48.1143 48.347C47.6643 47.0251 47.0175 45.8158 46.3987 44.5783C46.23 44.2126 46.005 43.847 45.7237 43.5376C44.7675 42.4408 43.6706 41.4564 42.4331 40.697C40.5206 39.5158 38.3831 39.0095 36.1612 38.9814C35.0081 38.9814 33.855 39.2064 32.7581 39.572C30.5643 40.247 28.7925 41.5689 27.3018 43.2845C26.7675 43.9033 26.4018 44.6345 25.98 45.3376C25.4175 46.2939 24.8831 47.2501 24.4612 48.2626C24.2643 48.7408 24.0393 49.247 23.8143 49.7533C23.7018 49.6408 23.6175 49.5564 23.5331 49.4439C20.9456 46.5751 17.8518 44.6345 13.9987 44.0439C12.5643 43.8189 11.13 43.8189 9.66747 43.9314C8.96434 43.9876 8.23309 44.1001 7.52997 44.2408C7.52997 43.4251 7.61434 42.6376 7.67059 41.822C7.75497 40.7533 7.89559 39.7126 8.09247 38.672C8.23309 37.8001 8.42997 36.9283 8.65497 36.0564C8.99247 34.6501 9.38622 33.272 9.86434 31.922C9.94872 31.6689 10.0893 31.4158 9.86434 31.1626C9.86434 31.1626 9.86434 31.1064 9.89247 31.0783C10.0612 31.2751 10.1175 31.247 10.2018 31.022C10.68 29.7001 11.2425 28.4345 11.8331 27.1408C11.8893 27.0001 11.9456 26.8876 11.8893 26.747C11.355 25.397 10.905 24.047 10.5112 22.6408C10.1737 21.6001 9.89247 20.5314 9.66747 19.4626C9.49872 18.6751 9.32997 17.9158 9.16122 17.1283C9.13309 16.4814 8.96434 15.8626 8.87997 15.2158C8.73934 14.2314 8.59872 13.247 8.48622 12.2626C8.37372 11.2501 8.31747 10.2376 8.26122 9.19702C8.20497 8.21264 8.20497 7.20014 8.23309 6.21577C8.28934 4.97827 8.37372 3.76889 8.68309 2.55952C8.85184 1.91264 9.07684 1.26577 9.44247 0.703267C9.86434 0.0563922 10.2018 -0.0842328 10.9612 0.0282672C12.3112 0.225142 13.4925 0.815767 14.6175 1.54702C16.1362 2.50327 17.4581 3.68452 18.7237 4.95014L20.2425 6.46889C20.2706 6.52514 20.2987 6.55327 20.3268 6.60952C21.0018 7.34077 21.6768 8.04389 22.3237 8.80327C23.2518 9.84389 24.18 10.9126 25.08 11.9533C25.2768 12.1783 25.4175 12.2064 25.6706 12.0939C27.2737 11.447 28.9331 10.9689 30.6206 10.6595C32.0831 10.3783 33.5737 10.2939 35.0643 10.2376C37.2018 10.1533 39.3112 10.2658 41.4206 10.6033C43.305 10.9126 45.1612 11.3908 46.9331 12.0658C47.3268 12.2064 47.3268 12.2345 47.6081 11.8689C48.3956 10.7439 49.2393 9.67514 50.1112 8.63452C50.7581 7.84702 51.4612 7.08764 52.1362 6.32827Z" fill="#F4A817"/>
    <path d="M64.8768 44.2969C64.9893 43.9876 64.8768 43.6782 64.8487 43.3688C64.8206 42.5532 64.7643 41.7657 64.7081 40.9501C64.6233 40.0188 64.5107 39.0902 64.3706 38.1657C64.1174 36.6469 63.8081 35.1844 63.3581 33.7219C63.0768 32.8219 62.7674 31.9501 62.4581 31.0782C62.0081 29.8407 61.3049 28.7157 60.7706 27.5344C60.5737 27.1126 60.4893 26.7469 60.6299 26.2688C61.1643 24.6094 61.6424 22.9501 62.0924 21.2626C62.4581 19.8282 62.8237 18.3938 63.1331 16.9594L63.2174 16.7063C64.0612 17.9157 64.7924 19.2094 65.4956 20.5313C66.3674 22.2469 67.0987 24.0188 67.6893 25.8469C68.1956 27.4219 68.5893 29.0251 68.8706 30.6563C69.2924 32.9907 69.4612 35.3532 69.4331 37.7157C69.4049 39.5157 69.2643 41.3157 68.9549 43.0876C68.1956 47.5594 66.7049 51.7782 64.3706 55.6876C62.0081 59.6532 58.9706 63.0282 55.2299 65.7844C53.1768 67.3032 50.9549 68.5688 48.5924 69.5532C47.2143 70.1438 45.8081 70.6219 44.3456 71.0157C42.7706 71.4376 41.1674 71.7188 39.5643 71.8876C37.5674 72.0844 35.5987 72.1126 33.6018 71.9438C31.9424 71.8032 30.3112 71.5219 28.7081 71.1001C26.4862 70.5376 24.3768 69.7782 22.3518 68.7376C17.4862 66.3188 13.4924 62.8876 10.2862 58.5282C8.59868 56.2219 7.22055 53.7751 6.12368 51.1313C5.50493 49.6126 4.97055 48.0938 4.54868 46.4907C4.1268 44.8594 3.81743 43.2001 3.59243 41.5126C3.28305 39.0376 3.25493 36.5907 3.4518 34.1157C3.59243 32.1188 3.92993 30.1219 4.40805 28.1813C5.39243 24.2719 6.96743 20.6157 9.1893 17.2126C9.1893 17.1844 9.21743 17.1844 9.21743 17.1844C9.38618 17.9719 9.55493 18.7313 9.72368 19.5188C9.89243 20.5313 10.1737 21.6001 10.4831 22.6407C10.8768 24.0188 11.3268 25.3969 11.8612 26.7469C11.9174 26.8876 11.8612 27.0001 11.8049 27.1407C11.2143 28.4063 10.6518 29.7001 10.1737 31.0219C10.0893 31.2469 10.0049 31.2751 9.8643 31.0782C9.8643 31.1344 9.83618 31.1626 9.83618 31.1626C10.0893 31.4157 9.94868 31.6688 9.83618 31.9219C9.35805 33.2719 8.9643 34.6501 8.6268 36.0563C8.42993 36.9282 8.23305 37.8001 8.0643 38.6719C7.89555 39.7126 7.7268 40.7532 7.64243 41.8219C7.58618 42.6376 7.5018 43.4251 7.5018 44.2407C7.44555 45.2532 7.52993 46.2376 7.78305 47.1938C8.1768 48.6282 8.79555 49.9501 9.58305 51.2157C11.1581 53.7469 13.1831 55.8844 15.4331 57.8251C18.5549 60.5251 21.9862 62.7188 25.7268 64.4626C26.4581 64.8001 27.1893 65.1376 27.9487 65.4188L29.6362 66.0094C30.0018 66.1219 30.3393 66.2626 30.7049 66.3751C32.0268 66.7969 33.3768 67.0501 34.7549 67.1907C36.3299 67.3313 37.8768 67.2469 39.4518 66.9938C40.8581 66.7688 42.2081 66.4313 43.5581 65.9813C44.9362 65.5313 46.2862 64.9969 47.6081 64.3782C49.4643 63.5063 51.2643 62.5219 52.9799 61.3969C54.6112 60.3282 56.1299 59.1469 57.5643 57.8251C58.1831 57.2626 58.7737 56.7001 59.3081 56.0532C59.3643 56.0532 59.4206 55.9969 59.4206 55.9407H59.4487V55.9126C59.4768 55.8844 59.5049 55.8563 59.5331 55.8563C60.5174 54.7594 61.4174 53.6063 62.1768 52.3407C62.5987 51.6376 63.0487 50.9344 63.3862 50.2032C64.0331 48.8532 64.4549 47.4188 64.6799 45.9563C64.8487 45.3938 64.9049 44.8313 64.8768 44.2969ZM52.1362 6.32818C51.4612 7.08756 50.7581 7.84693 50.1112 8.63443C49.2393 9.67506 48.3956 10.7438 47.6081 11.8688C47.3549 12.2344 47.3549 12.2344 46.9331 12.0657C45.1331 11.3907 43.3049 10.9126 41.4206 10.6032C39.3112 10.2376 37.2018 10.1532 35.0643 10.2376C33.5737 10.2938 32.0831 10.3782 30.6206 10.6594C28.9331 10.9688 27.2737 11.4469 25.6706 12.0938C25.4174 12.2063 25.2768 12.1501 25.0799 11.9532C24.1799 10.8844 23.2518 9.84381 22.3237 8.80318C21.6768 8.07193 21.0018 7.34068 20.3268 6.60943C20.2987 6.58131 20.2706 6.52506 20.2424 6.46881C22.1831 5.31568 24.2362 4.38756 26.3737 3.68443C28.1737 3.09381 30.0018 2.67193 31.8581 2.39068C34.2487 2.05318 36.6393 1.99693 39.0299 2.19381C40.6893 2.33443 42.2924 2.61568 43.9237 3.00943C46.7643 3.71256 49.4362 4.80943 51.9956 6.24381C52.0518 6.24381 52.0799 6.30006 52.1362 6.32818Z" fill="#F00500"/>
    <path d="M58.2112 57.0658C58.155 57.0658 58.155 57.0939 58.2112 57.0658C58.1831 57.0939 58.1831 57.0939 58.2112 57.0658C58.2112 57.0939 58.2112 57.0939 58.2112 57.0658ZM40.4362 66.6283H40.1831C40.2675 66.6846 40.3519 66.6564 40.4362 66.6283ZM39.6206 66.7408C39.8175 66.7971 39.93 66.7408 40.0987 66.6846C39.93 66.6283 39.7894 66.7127 39.6206 66.7408ZM36.78 56.4752H34.5019C34.0519 56.4752 34.0519 56.4752 34.08 56.9252C34.08 57.0377 34.1362 57.0939 34.2206 57.1502C34.4456 57.2908 34.6987 57.3752 34.9519 57.4877C35.1206 57.5721 35.205 57.5439 35.2894 57.3471C35.43 56.9533 35.43 56.9533 35.8519 56.9814C35.9925 56.9814 36.0769 57.0658 36.1331 57.1502C36.2737 57.3752 36.4144 57.6283 36.555 57.8533C36.78 58.2189 37.1456 58.2471 37.4269 57.9096C37.5394 57.7689 37.68 57.6283 37.7925 57.4877C38.1862 57.0096 38.1862 57.0096 38.6644 57.4314C38.7206 57.4877 38.7769 57.5721 38.8894 57.5439C39.2831 57.4596 39.5644 57.0658 39.5925 56.7002C39.5925 56.5033 39.5081 56.4752 39.3394 56.4752H36.78ZM44.5987 54.1408H42.3206C42.2081 54.1408 42.1519 54.1971 42.1237 54.2814C42.0394 54.4783 41.8987 54.5346 41.7019 54.5064C41.1112 54.4783 40.5206 54.5064 39.93 54.5064C39.6206 54.5064 39.255 54.5908 39.03 54.4502C38.805 54.3096 38.6644 53.9721 38.5237 53.6908C38.4112 53.4939 38.2987 53.4096 38.1019 53.4377C37.9612 53.4658 37.905 53.4096 37.905 53.2689V51.2439C37.905 51.1314 37.9331 51.0752 38.0456 51.0471C38.58 50.8783 39.03 50.5971 39.48 50.2596C40.3237 49.6127 40.9425 48.7971 41.1394 47.7002C41.28 46.9689 41.1956 46.2096 41.2237 45.4783C41.2519 44.5783 40.3519 43.6502 39.4519 43.6502H34.4737C33.4612 43.6502 32.7862 44.3252 32.7862 45.3377C32.7862 45.8158 32.8144 46.2939 32.7862 46.7721C32.73 47.7564 33.1237 48.5158 33.7706 49.1908C34.5581 50.0064 35.5425 50.5408 36.555 50.9908C36.6675 51.0471 36.7519 51.0471 36.7519 51.1877V53.2408C36.7519 53.3533 36.7237 53.4377 36.6112 53.4096C36.33 53.3533 36.2456 53.5221 36.1331 53.7189C36.0206 53.9439 35.88 54.1408 35.7394 54.3658C35.6831 54.4783 35.6269 54.5064 35.5144 54.5064C34.4456 54.5064 33.405 54.5064 32.3362 54.4502C32.2519 54.4502 32.1675 54.4502 32.1675 54.3377C32.1675 54.1689 32.055 54.1408 31.9144 54.1408H29.6925C29.6362 54.1408 29.5519 54.1127 29.5519 54.1971C29.5519 54.2814 29.5237 54.3658 29.6081 54.4502C29.7487 54.5627 29.8612 54.7033 30.0019 54.8158C30.1706 54.9564 30.255 55.1252 30.255 55.3502C30.2831 55.6596 30.3394 55.9689 30.3956 56.2783C30.4519 56.5314 30.5362 56.6158 30.7894 56.5314C30.9581 56.4752 31.155 56.4471 31.1831 56.7283C31.2112 57.0939 31.3519 57.4596 31.4644 57.8252C31.6331 58.3033 31.8019 58.7814 32.1112 59.1752C32.4487 58.8096 32.505 58.4158 32.4769 57.9377C32.4487 57.0939 32.4769 56.2502 32.4769 55.4064C32.5894 55.4064 32.73 55.4346 32.8706 55.4627C33.9956 55.6877 35.1206 55.7721 36.2737 55.8283C38.1019 55.8846 39.93 55.7439 41.7581 55.4346C41.955 55.4064 41.9831 55.4346 41.9831 55.6314C41.955 56.5033 41.955 57.3471 41.955 58.2189C41.955 58.6127 42.2362 58.8658 42.405 59.2033C42.6862 58.4439 42.9675 57.7127 43.2487 57.0096C43.4175 56.5877 43.4175 56.5877 43.8394 56.5877C43.9519 56.5877 44.0644 56.5877 44.0925 56.4471C44.205 55.6596 44.4019 54.9283 44.5987 54.1408ZM59.1675 56.1377L59.2237 56.0814C59.2237 56.0814 59.1956 56.0814 59.1956 56.0533C59.1675 56.0814 59.1675 56.1096 59.1675 56.1377C59.1394 56.1377 59.1394 56.1658 59.1112 56.1939C59.0269 56.1939 58.9987 56.2221 58.9987 56.3064C58.9706 56.3064 58.9425 56.3064 58.9425 56.3346C58.9425 56.3346 58.9425 56.3627 58.9706 56.3627L59.0269 56.3064C59.0831 56.2783 59.1112 56.2502 59.1394 56.1939C59.1112 56.1658 59.1394 56.1658 59.1675 56.1377ZM58.83 56.4752C58.8581 56.4752 58.8862 56.4752 58.8581 56.4189C58.8581 56.4471 58.83 56.4471 58.83 56.4752C58.8019 56.4752 58.8019 56.4752 58.8019 56.5033L58.83 56.4752ZM58.5769 56.7283L58.605 56.7002C58.5769 56.6721 58.5769 56.7002 58.5769 56.7283C58.5487 56.7283 58.5487 56.7283 58.5487 56.7564L58.5769 56.7283ZM59.3925 56.0533C58.8581 56.7002 58.2394 57.2627 57.6487 57.8252C56.2144 59.1471 54.6675 60.3283 53.0644 61.3971C51.3487 62.5221 49.5487 63.5346 47.6925 64.3783C46.3706 64.9971 45.0206 65.5314 43.6425 65.9814C42.2925 66.4033 40.9425 66.7408 39.5362 66.9939C37.9894 67.2471 36.4144 67.3596 34.8394 67.1908C33.4612 67.0502 32.1112 66.7689 30.7894 66.3752C30.4237 66.2627 30.0862 66.1502 29.7206 66.0096L28.0331 65.4189C27.2737 65.1377 26.5425 64.8002 25.8112 64.4627C22.0706 62.7471 18.6112 60.5252 15.5175 57.8252C13.2675 55.8846 11.2425 53.7471 9.66748 51.2158C8.87998 49.9502 8.26123 48.6283 7.86748 47.1939C7.61436 46.2096 7.50186 45.2252 7.58623 44.2408C8.28936 44.1283 8.99248 43.9877 9.72373 43.9314C11.1581 43.8189 12.6206 43.8189 14.055 44.0439C17.9362 44.6346 21.0019 46.6033 23.5894 49.4439C23.6737 49.5283 23.7581 49.6408 23.8706 49.7533C24.0956 49.2471 24.2925 48.7408 24.5175 48.2627C24.9394 47.2502 25.4737 46.2939 26.0362 45.3377C26.4581 44.6346 26.8237 43.9033 27.3581 43.2846C28.8487 41.5689 30.6206 40.2752 32.8144 39.5721C33.9112 39.2346 35.0644 38.9814 36.2175 38.9814C38.4675 38.9814 40.5769 39.5158 42.4894 40.6971C43.7269 41.4564 44.8237 42.4408 45.78 43.5377C46.0612 43.8471 46.2862 44.1846 46.455 44.5783C47.0456 45.8158 47.7206 47.0252 48.1706 48.3471C48.3112 48.7971 48.48 49.2752 48.6487 49.7533L49.8581 48.5439C51.3487 47.1096 53.0644 45.9846 54.9769 45.1689C56.4394 44.5502 57.9862 44.1846 59.5894 44.0439C60.9675 43.9033 62.3456 43.9596 63.6956 44.1283C64.1175 44.1846 64.5394 44.2408 64.9331 44.3252C64.9612 44.8596 64.905 45.4221 64.8206 45.9564C64.5956 47.4471 64.1456 48.8533 63.5269 50.2033C63.1894 50.9346 62.7394 51.6377 62.3175 52.3408C61.5581 53.6064 60.6581 54.7596 59.6737 55.8564C59.6456 55.8846 59.6175 55.9127 59.5894 55.9127C59.5331 55.8002 59.7019 55.7439 59.6737 55.6033C59.5612 55.7158 59.4487 55.7721 59.4206 55.9127C59.3925 55.9127 59.3362 55.9408 59.3362 55.9408C59.28 56.0252 59.3362 56.0252 59.3925 56.0533Z" fill="#FFFEFE"/>
    <path d="M11.4112 4.52811C11.8612 4.66874 12.2831 4.83749 12.7049 5.06248C13.6049 5.51249 14.4768 6.04686 15.3206 6.60936C16.1081 7.17186 16.8674 7.79061 17.6268 8.40936C18.6674 9.28123 19.6237 10.2094 20.5799 11.1656C21.1424 11.7281 21.6768 12.3187 22.2112 12.9094C22.3237 13.0219 22.3237 13.1062 22.1831 13.2187C21.3674 13.7812 20.5799 14.3719 19.8487 15.0187C19.0331 15.6937 18.2737 16.4531 17.5424 17.2125C16.6424 18.1406 15.8268 19.1812 15.0393 20.2219C14.3924 21.0094 13.8299 21.9094 13.2674 22.7812C13.2393 22.8375 13.2112 22.8937 13.1549 22.8937C13.0706 22.8937 13.0424 22.8375 13.0424 22.7531C12.7893 21.9375 12.5081 21.0937 12.2831 20.2781C12.0018 19.2656 11.7206 18.2812 11.4674 17.2687C11.2706 16.4531 11.0737 15.6375 10.9331 14.8219C10.8206 14.2031 10.7081 13.5844 10.5956 12.9375C10.5112 12.375 10.4549 11.8125 10.3987 11.25C10.3143 10.4344 10.2581 9.61874 10.2862 8.77499C10.3424 7.45311 10.5112 6.13123 11.0737 4.89373C11.1862 4.52811 11.2424 4.49999 11.4112 4.52811Z" fill="#F28F1F"/>
    <path d="M61.53 7.03125C61.6143 7.81875 61.7268 8.60625 61.6706 9.39375C61.6425 10.2656 61.5862 11.1656 61.4737 12.0375C61.3331 13.3594 61.08 14.6812 60.7987 15.975C60.5456 17.1562 60.2362 18.3375 59.8987 19.4906C59.6175 20.5313 59.28 21.5437 58.9706 22.5562C58.9425 22.6687 58.8581 22.8938 58.83 22.8938C58.6893 22.8938 58.6612 22.6969 58.5768 22.5844C58.0706 21.7969 57.5643 21.0375 57.0018 20.2781C56.4675 19.575 55.9331 18.8719 55.3425 18.1969C54.6112 17.3531 53.7956 16.5938 53.0362 15.7781C52.8675 15.6094 52.6143 15.4969 52.5018 15.2719C52.5581 15.2156 52.6143 15.1594 52.6425 15.075C52.98 14.3437 53.3737 13.6688 53.7675 12.9938C54.3862 11.9531 55.0612 10.9688 55.8768 10.0969C56.7206 9.16875 57.6768 8.35313 58.8018 7.79063C59.7018 7.36875 60.5737 7.05938 61.53 7.03125Z" fill="#F28B20"/>
    <path d="M18.5269 33.6094C18.5831 32.85 18.5831 32.2594 18.8362 31.6969C18.9206 31.4719 19.0331 31.3594 19.3144 31.3594C20.1019 31.3594 20.805 31.5844 21.48 31.8938C23.7581 32.8781 25.8112 34.2281 27.8362 35.6344C28.6237 36.1687 29.2987 36.8438 29.7206 37.7156C29.8331 37.9406 29.9175 38.1656 29.9456 38.4188C30.0019 38.7 29.8894 38.8406 29.6081 38.925C29.2706 39.0375 28.9331 39.0656 28.5675 39.0656C27.5831 39.0375 26.6269 38.8969 25.6706 38.6719C24.7144 38.475 23.7862 38.1938 22.8581 37.8563C21.4519 37.3219 20.1019 36.7031 19.005 35.6344C18.7519 35.3812 18.555 35.1 18.555 34.7063C18.6112 34.2844 18.555 33.8625 18.5269 33.6094Z" fill="#1F1712"/>
    <path d="M54.33 33.6936C54.3018 34.0592 54.2737 34.4248 54.2737 34.7623C54.2737 35.0436 54.1612 35.2404 53.9925 35.4092C53.3456 36.1404 52.53 36.6467 51.6862 37.0686C50.3925 37.7436 49.0425 38.1936 47.6362 38.5311C46.5393 38.7842 45.4425 39.0092 44.3175 39.0092C44.0081 39.0092 43.7268 38.9529 43.4456 38.8967C43.1362 38.8123 43.0518 38.6436 43.08 38.3623C43.2206 37.4623 43.7831 36.7873 44.4018 36.1686C45.1893 35.3811 46.1456 34.8186 47.0737 34.2279C48.1987 33.4686 49.3518 32.7654 50.5893 32.1467C51.4331 31.7248 52.305 31.3029 53.2893 31.2186C53.9925 31.1623 53.9362 31.1623 54.1612 31.8936C54.33 32.4842 54.3018 33.1029 54.33 33.6936Z" fill="#1F1713"/>
    <path d="M61.53 7.03146C60.5737 7.05959 59.7018 7.36896 58.83 7.79084C57.705 8.35334 56.7487 9.16896 55.905 10.0971C55.0893 10.9971 54.4143 11.9815 53.7956 12.994C53.3737 13.669 53.0081 14.3721 52.6706 15.0752C52.6425 15.1596 52.5862 15.2158 52.53 15.2721C52.2206 15.1315 51.9956 14.8502 51.7425 14.6533C51.1237 14.1471 50.4768 13.669 49.8018 13.1908C49.6331 13.0502 49.6612 12.994 49.7737 12.8533C50.5612 11.9815 51.3768 11.1096 52.2206 10.294C53.6831 8.88771 55.2018 7.53771 56.8893 6.38459C57.9581 5.65334 59.1112 5.03459 60.3206 4.55646C60.6581 4.41584 60.7143 4.41584 60.855 4.75334C61.1643 5.42834 61.3893 6.10334 61.4737 6.86271C61.5018 6.91896 61.5018 6.97521 61.53 7.03146Z" fill="#F2991D"/>
    <path d="M49.4924 29.5873C48.3112 29.5592 47.3268 29.5311 46.3706 29.2498C45.4706 28.9967 45.1049 28.4061 45.1612 27.4779C45.2456 26.4654 45.7799 25.6779 46.5112 25.0029C46.9049 24.6373 47.3549 24.2717 47.8893 24.0748C48.8174 23.7373 49.6893 23.9061 50.5049 24.3842C51.5174 24.9748 52.2487 25.8186 52.4174 27.0561C52.5018 27.7592 52.3612 28.3779 51.9674 28.9967C51.6862 29.4186 51.2643 29.5311 50.8424 29.5592C50.3081 29.5592 49.8018 29.6154 49.4924 29.5873ZM22.9424 29.5873C22.2956 29.5873 21.7049 29.5311 21.1424 29.5029C20.6362 29.4748 20.3549 29.1373 20.1299 28.7436C19.7643 28.1529 19.7924 27.5342 19.8768 26.9154C20.0456 25.4529 21.4799 24.2154 22.8862 23.9623C23.7018 23.8217 24.4612 24.0186 25.1081 24.5529C25.8674 25.1436 26.5706 25.7904 26.8518 26.7467C27.0206 27.3654 26.9924 27.9842 26.7393 28.6029C26.6268 28.9404 26.3174 29.1092 26.0081 29.2217C25.5018 29.4186 24.9674 29.5029 24.4331 29.5592C23.8987 29.5592 23.3924 29.6154 22.9424 29.5873Z" fill="#FFFEFE"/>
    <path d="M59.3643 55.9124C59.3643 55.7718 59.5049 55.6874 59.6174 55.603C59.6456 55.7437 59.4768 55.7999 59.5331 55.9124V55.9405H59.5049C59.4768 55.9124 59.4206 55.9124 59.3643 55.9124Z" fill="#F6D9A7"/>
    <path d="M59.3643 55.9126H59.5049C59.4768 55.9688 59.4487 56.0251 59.3924 56.0251L59.3643 55.997V55.9126Z" fill="#FFFEFE"/>
    <path d="M44.5987 54.1408C44.4018 54.9283 44.2331 55.6596 44.0362 56.4189C44.0081 56.5596 43.8956 56.5596 43.7831 56.5596C43.3612 56.5596 43.3612 56.5596 43.1925 56.9814C42.9112 57.6846 42.63 58.4158 42.3487 59.1752C42.18 58.8377 41.8987 58.5846 41.8987 58.1908C41.8987 57.3189 41.8987 56.4752 41.9268 55.6033C41.9268 55.4064 41.8987 55.3502 41.7018 55.4064C39.9018 55.7158 38.0737 55.8846 36.2175 55.8002C35.0925 55.7439 33.9393 55.6877 32.8143 55.4346C32.6737 55.4064 32.5612 55.4064 32.4206 55.3783C32.4206 56.2221 32.3925 57.0658 32.4206 57.9096C32.4487 58.3596 32.3925 58.7814 32.055 59.1471C31.7456 58.7533 31.5768 58.2752 31.4081 57.7971C31.2956 57.4314 31.155 57.0939 31.1268 56.7002C31.0987 56.4189 30.9018 56.4471 30.7331 56.5033C30.48 56.5877 30.3956 56.5033 30.3393 56.2502C30.2831 55.9408 30.2268 55.6314 30.1987 55.3221C30.1706 55.0971 30.1143 54.9283 29.9456 54.7877C29.805 54.6752 29.6925 54.5346 29.5518 54.4221C29.4675 54.3377 29.4956 54.2533 29.4956 54.1689C29.5237 54.0846 29.6081 54.1127 29.6362 54.1127H31.8581C31.9987 54.1127 32.1112 54.1408 32.1112 54.3096C32.1112 54.4221 32.1956 54.4221 32.28 54.4221C33.3487 54.4783 34.3893 54.4783 35.4581 54.4783C35.5706 54.4783 35.6268 54.4502 35.6831 54.3377C35.7956 54.1127 35.9362 53.9158 36.0768 53.6908C36.1893 53.4939 36.2737 53.3252 36.555 53.3814C36.6675 53.4096 36.6956 53.3252 36.6956 53.2127V51.1596C36.6956 51.0189 36.6112 50.9908 36.4987 50.9627C35.4581 50.5127 34.5018 49.9783 33.7143 49.1627C33.0675 48.4877 32.6456 47.7002 32.73 46.7439C32.7581 46.2658 32.73 45.7877 32.73 45.3096C32.73 44.2971 33.405 43.6221 34.4175 43.6221H39.3956C40.2956 43.6221 41.1956 44.5502 41.1675 45.4502C41.1393 46.1814 41.2237 46.9408 41.0831 47.6721C40.8862 48.7408 40.2956 49.5564 39.4237 50.2314C38.9737 50.5689 38.5237 50.8221 37.9893 51.0189C37.8768 51.0471 37.8487 51.1033 37.8487 51.2158V53.2408C37.8487 53.3814 37.905 53.4377 38.0456 53.4096C38.2706 53.3814 38.3831 53.4658 38.4675 53.6627C38.6081 53.9439 38.7487 54.2814 38.9737 54.4221C39.1987 54.5627 39.5643 54.4502 39.8737 54.4783H41.6456C41.8425 54.4783 41.9831 54.4502 42.0675 54.2533C42.0956 54.1689 42.1518 54.1127 42.2643 54.1127C43.0518 54.1408 43.8112 54.1408 44.5987 54.1408Z" fill="#1D1919"/>
    <path d="M36.7799 56.4752H39.283C39.4518 56.4752 39.5362 56.5033 39.5362 56.7002C39.5362 57.0939 39.2268 57.4596 38.833 57.5439C38.7205 57.5721 38.6643 57.4877 38.6081 57.4314C38.1299 57.0377 38.1299 57.0377 37.7362 57.4877C37.6237 57.6283 37.483 57.7689 37.3705 57.9096C37.0893 58.2471 36.7237 58.2189 36.4987 57.8533C36.3581 57.6283 36.2174 57.3752 36.0768 57.1502C36.0205 57.0377 35.9362 56.9814 35.7955 56.9814C35.3737 56.9533 35.3737 56.9533 35.233 57.3471C35.1768 57.5439 35.0643 57.5721 34.8955 57.4877C34.6424 57.3752 34.3893 57.2908 34.1643 57.1502C34.0799 57.0939 34.0237 57.0377 34.0237 56.9252C33.9955 56.4752 33.9955 56.4752 34.4455 56.4752C35.2612 56.4471 36.0206 56.4471 36.7799 56.4752Z" fill="#171413"/>
    <path d="M39.6206 66.7407C39.7894 66.7126 39.93 66.6282 40.0987 66.6845C39.93 66.7407 39.8175 66.797 39.6206 66.7407ZM40.4362 66.6282C40.3519 66.6563 40.2956 66.6845 40.1831 66.6282H40.4362ZM59.3644 55.9126V56.0251C59.3362 55.997 59.2519 56.0251 59.28 55.9688C59.28 55.9407 59.3362 55.9407 59.3644 55.9126ZM58.9987 56.3063C58.9987 56.222 59.0269 56.1938 59.1112 56.1938C59.0831 56.2501 59.055 56.2782 58.9987 56.3063Z" fill="#F6D9A7"/>
    <path d="M58.9987 56.3062L58.9424 56.3624C58.9424 56.3624 58.9424 56.3343 58.9143 56.3343C58.9424 56.3062 58.9706 56.3062 58.9987 56.3062ZM58.2112 57.0655C58.2112 57.0937 58.2112 57.0937 58.2112 57.0655C58.1831 57.0937 58.2112 57.0937 58.2112 57.0655C58.1549 57.0937 58.1549 57.0655 58.2112 57.0655Z" fill="#F7DDB0"/>
    <path d="M59.1675 56.1373C59.1675 56.1092 59.1956 56.0811 59.1956 56.0811C59.1956 56.0811 59.2237 56.0811 59.2237 56.1092C59.1956 56.1092 59.1675 56.1373 59.1675 56.1373ZM59.1112 56.1936L59.1675 56.1373C59.1393 56.1654 59.1112 56.1654 59.1112 56.1936Z" fill="#F6D9A7"/>
    <path d="M58.83 56.4471L58.8581 56.4189C58.8862 56.4471 58.8581 56.4471 58.83 56.4471ZM58.83 56.4752L58.8018 56.5033C58.8018 56.4752 58.83 56.4752 58.83 56.4752ZM58.5487 56.7283C58.5487 56.7002 58.5768 56.6721 58.605 56.7002C58.605 56.7002 58.5768 56.7283 58.5487 56.7283ZM58.5768 56.7283C58.5768 56.7283 58.5487 56.7283 58.5487 56.7564C58.5487 56.7564 58.5487 56.7283 58.5768 56.7283Z" fill="#F7DDB0"/>
    <path fill-rule="evenodd" clip-rule="evenodd" d="M54.6956 36.7031C64.455 36.7031 72.3581 44.6063 72.3581 54.3656C72.3581 64.125 64.4268 72 54.6956 72C44.9643 72 37.0331 64.0969 37.0331 54.3375C37.0331 44.5781 44.9362 36.7031 54.6956 36.7031Z" fill="black"/>
    <path d="M46.7362 54.3657V59.0345L50.7018 61.3688V64.097L44.4299 60.4126V53.0157L46.7362 54.3657ZM46.7362 49.697V52.4251L44.4299 51.047V48.3188L46.7362 46.9407L49.0706 48.3188L46.7362 49.697ZM52.3612 48.3188L54.6674 46.9407L57.0018 48.3188L54.6674 49.697L52.3612 48.3188ZM48.3956 58.0501V55.322L50.7018 56.7001V59.4282L48.3956 58.0501ZM52.3612 62.3251L54.6674 63.7032L57.0018 62.3251V65.0532L54.6674 66.4313L52.3612 65.0532V62.3251ZM60.3206 48.3188L62.6268 46.9407L64.9612 48.3188V51.047L62.6268 52.4251V49.697L60.3206 48.3188ZM62.6268 59.0063V54.3376L64.9331 52.9595V60.3563L58.6612 64.0407V61.3126L62.6268 59.0063ZM60.9674 58.0501L58.6612 59.4001V56.672L60.9674 55.2938V58.0501ZM60.9674 50.6532V53.3813L57.0018 55.7157V60.3845L54.6956 61.7345L52.3893 60.3845V55.7157L48.4237 53.3813V50.6532L50.7299 49.2751L54.6956 51.6095L58.6612 49.2751L60.9674 50.6532ZM48.3956 45.9845L54.6674 42.272L60.9393 45.9845L58.6331 47.3626L54.6674 45.0282L50.7018 47.3626L48.3956 45.9845Z" fill="#F0B90B"/>
  </g>
  <defs>
    <clipPath id="clip0_165_18711">
      <rect width="72" height="72" fill="white" transform="translate(0.329956)"/>
    </clipPath>
  </defs>
</svg>