<svg xmlns="http://www.w3.org/2000/svg" width="73" height="72" viewBox="0 0 73 72" fill="none">
  <g clip-path="url(#clip0_165_18688)">
    <path d="M23.2774 29.5876C23.7274 29.6158 24.2337 29.5595 24.7399 29.5314C25.2743 29.5033 25.8087 29.3908 26.3149 29.1939C26.6243 29.0814 26.9056 28.8845 27.0462 28.5751C27.2712 27.9845 27.3274 27.3376 27.1587 26.7189C26.8774 25.7626 26.1743 25.1158 25.4149 24.5251C24.7681 24.0189 24.0087 23.7939 23.1931 23.9345C21.7868 24.1595 20.3524 25.4251 20.1837 26.8876C20.0993 27.5345 20.0712 28.1533 20.4368 28.7158C20.6899 29.1095 20.9431 29.447 21.4493 29.4751C22.0399 29.5314 22.6306 29.5876 23.2774 29.5876ZM49.8274 29.5876C50.1368 29.6158 50.6431 29.5595 51.1493 29.5033C51.5993 29.4751 52.0212 29.3626 52.2743 28.9408C52.6681 28.3501 52.8087 27.7033 52.7243 27.0001C52.5556 25.7908 51.8524 24.947 50.8118 24.3283C49.9962 23.8501 49.1243 23.7095 48.1962 24.0189C47.6618 24.2158 47.2399 24.5814 46.8181 24.947C46.1149 25.622 45.5524 26.3814 45.4681 27.422C45.3837 28.3783 45.7774 28.9408 46.6774 29.1939C47.6618 29.5314 48.6462 29.5876 49.8274 29.5876ZM54.6649 33.6939C54.6649 33.1033 54.6649 32.5126 54.4962 31.922C54.2712 31.1908 54.3274 31.1908 53.6243 31.247C52.6399 31.3314 51.7962 31.7533 50.9243 32.1751C49.7149 32.7939 48.5618 33.497 47.4087 34.2564C46.4806 34.8751 45.5524 35.4376 44.7368 36.197C44.1181 36.8158 43.5556 37.4626 43.4149 38.3908C43.3587 38.672 43.4712 38.8408 43.7806 38.9251C44.0618 38.9814 44.3431 39.0658 44.6524 39.0376C45.7774 39.0376 46.8743 38.8408 47.9712 38.5595C49.3774 38.222 50.7274 37.7439 52.0212 37.097C52.8649 36.647 53.6806 36.1408 54.3274 35.4376C54.4962 35.2408 54.6368 35.0439 54.6087 34.7908C54.6087 34.397 54.6368 34.0595 54.6649 33.6939ZM18.8618 33.6095C18.8618 33.8626 18.9181 34.2845 18.9181 34.7345C18.9181 35.1283 19.1149 35.4095 19.3681 35.6626C20.4649 36.7314 21.8149 37.3501 23.2212 37.8845C24.1212 38.222 25.0774 38.5033 26.0337 38.7001C26.9899 38.897 27.9462 39.0658 28.9306 39.0939C29.2681 39.0939 29.6337 39.0658 29.9712 38.9533C30.2524 38.8689 30.3368 38.7283 30.3087 38.447C30.2806 38.1939 30.1962 37.9689 30.0837 37.7439C29.6337 36.872 28.9587 36.197 28.1712 35.6626C26.1462 34.2564 24.0931 32.9064 21.8149 31.922C21.1118 31.6126 20.4087 31.3876 19.6493 31.3876C19.3962 31.3876 19.2837 31.5001 19.1712 31.7251C18.9462 32.2314 18.9181 32.822 18.8618 33.6095ZM11.7462 4.52827C11.5774 4.50014 11.5493 4.55639 11.4087 4.89389C10.8462 6.13139 10.7056 7.45327 10.6212 8.77514C10.5931 9.59077 10.6493 10.4345 10.7337 11.2501C10.7899 11.8126 10.8462 12.3751 10.9306 12.9376C11.0149 13.5564 11.1274 14.1751 11.2681 14.822C11.4368 15.6376 11.6056 16.4533 11.8024 17.2689C12.0556 18.2814 12.3368 19.2939 12.6181 20.2783C12.8712 21.122 13.1243 21.9376 13.3774 22.7533C13.4056 22.8095 13.4056 22.8939 13.4899 22.8939C13.5462 22.8939 13.5743 22.8376 13.6024 22.7814C14.1649 21.9095 14.7274 21.0095 15.3462 20.1658C16.1337 19.1251 16.9493 18.1126 17.8493 17.1564C18.5806 16.397 19.3399 15.6376 20.1556 14.9626C20.9149 14.3439 21.6743 13.7251 22.4899 13.1626C22.6306 13.0501 22.6306 12.9939 22.5181 12.8533C21.9837 12.2626 21.4493 11.672 20.8868 11.1095C19.9306 10.1533 18.9743 9.22514 17.9337 8.35327C17.1743 7.73452 16.4431 7.11577 15.6274 6.55327C14.7837 5.96264 13.9118 5.45639 13.0118 5.00639C12.6181 4.83764 12.1681 4.64077 11.7462 4.52827ZM52.8649 15.3001C53.0056 15.5251 53.2306 15.6376 53.3993 15.8064C54.1868 16.5939 54.9743 17.3533 55.7056 18.2251C56.2681 18.9001 56.8306 19.6033 57.3649 20.3064C57.9274 21.0658 58.4337 21.8251 58.9399 22.6126C59.0243 22.7251 59.0243 22.922 59.1931 22.922C59.2212 22.922 59.3056 22.697 59.3337 22.5845C59.6431 21.5439 59.9806 20.5314 60.2618 19.5189C60.5993 18.3376 60.9087 17.1845 61.1618 16.0033C61.4431 14.7095 61.6962 13.3876 61.8368 12.0658C61.9493 11.1939 62.0056 10.2939 62.0337 9.42202C62.0618 8.63452 61.9774 7.84702 61.8931 7.05952C61.8649 7.00327 61.8368 6.94702 61.8368 6.91889C61.7524 6.18764 61.5274 5.48452 61.2181 4.80952C61.0774 4.47202 61.0212 4.47202 60.6837 4.61264C59.4743 5.09077 58.3212 5.70952 57.2524 6.44077C55.5649 7.59389 54.0462 8.94389 52.5837 10.3501C51.7399 11.1658 50.9243 12.0376 50.1368 12.9095C50.0243 13.0501 49.9962 13.1064 50.1649 13.247C50.8118 13.7251 51.4587 14.2033 52.1056 14.7095C52.3306 14.8783 52.5556 15.1314 52.8649 15.3001ZM52.4712 6.32827C53.2306 5.59702 53.9337 4.86577 54.7212 4.19077C56.1556 2.95327 57.6743 1.88452 59.4181 1.09702C60.5431 0.590767 61.6962 0.225142 62.9618 0.140767C63.1306 0.140767 63.243 0.168892 63.3556 0.337642C63.8055 1.06889 64.0868 1.85639 64.3118 2.70014C64.7618 4.38764 64.8462 6.13139 64.7618 7.87514C64.7056 9.30952 64.5649 10.7158 64.3681 12.122C64.1993 13.247 64.0024 14.3439 63.8056 15.4689C63.7212 15.8908 63.6087 16.3126 63.5524 16.7345L63.4681 16.9876C63.1587 18.422 62.7931 19.8564 62.4274 21.2908C61.9774 22.9783 61.5274 24.6376 60.9649 26.297C60.7962 26.7751 60.9087 27.1408 61.1056 27.5626C61.6399 28.7439 62.3149 29.8689 62.7931 31.1064C63.1306 31.9783 63.4399 32.8501 63.6931 33.7501C64.1431 35.2126 64.4524 36.7033 64.7056 38.1939C64.8462 39.122 64.9587 40.0501 65.0431 40.9783C65.1274 41.7939 65.1556 42.5814 65.1837 43.397C65.1837 43.7064 65.3243 44.0158 65.2118 44.3251C64.7899 44.2689 64.3681 44.1845 63.9743 44.1283C62.5962 43.9876 61.2462 43.9314 59.8681 44.0439C58.2649 44.2126 56.7462 44.5783 55.2556 45.1689C53.3431 45.9564 51.6556 47.1095 50.1368 48.5439L48.9274 49.7533C48.7587 49.2751 48.618 48.8251 48.4493 48.347C47.9993 47.0251 47.3524 45.8158 46.7337 44.5783C46.5649 44.2126 46.3399 43.847 46.0587 43.5376C45.1024 42.4408 44.0056 41.4564 42.7681 40.697C40.8556 39.5158 38.7181 39.0095 36.4962 38.9814C35.3431 38.9814 34.1899 39.2064 33.0931 39.572C30.8993 40.247 29.1274 41.5689 27.6368 43.2845C27.1024 43.9033 26.7368 44.6345 26.3149 45.3376C25.7524 46.2939 25.2181 47.2501 24.7962 48.2626C24.5993 48.7408 24.3743 49.247 24.1493 49.7533C24.0368 49.6408 23.9524 49.5564 23.8681 49.4439C21.2806 46.5751 18.1868 44.6345 14.3337 44.0439C12.8993 43.8189 11.4649 43.8189 10.0024 43.9314C9.2993 43.9876 8.56805 44.1001 7.86493 44.2408C7.86493 43.4251 7.9493 42.6376 8.00555 41.822C8.08993 40.7533 8.23055 39.7126 8.42743 38.672C8.56805 37.8001 8.76493 36.9283 8.98993 36.0564C9.32743 34.6501 9.72118 33.272 10.1993 31.922C10.2837 31.6689 10.4243 31.4158 10.1993 31.1626C10.1993 31.1626 10.1993 31.1064 10.2274 31.0783C10.3962 31.2751 10.4524 31.247 10.5368 31.022C11.0149 29.7001 11.5774 28.4345 12.1681 27.1408C12.2243 27.0001 12.2806 26.8876 12.2243 26.747C11.6899 25.397 11.2399 24.047 10.8462 22.6408C10.5087 21.6001 10.2274 20.5314 10.0024 19.4626C9.83368 18.6751 9.66493 17.9158 9.49618 17.1283C9.46805 16.4814 9.2993 15.8626 9.21493 15.2158C9.0743 14.2314 8.93368 13.247 8.82118 12.2626C8.70868 11.2501 8.65243 10.2376 8.59618 9.19702C8.53993 8.21264 8.53993 7.20014 8.56805 6.21577C8.6243 4.97827 8.70868 3.76889 9.01805 2.55952C9.1868 1.91264 9.4118 1.26577 9.77743 0.703267C10.1993 0.0563922 10.5368 -0.0842328 11.2962 0.0282672C12.6462 0.225142 13.8274 0.815767 14.9524 1.54702C16.4712 2.50327 17.7931 3.68452 19.0587 4.95014L20.5774 6.46889C20.6056 6.52514 20.6337 6.55327 20.6618 6.60952C21.3368 7.34077 22.0118 8.04389 22.6587 8.80327C23.5868 9.84389 24.5149 10.9126 25.4149 11.9533C25.6118 12.1783 25.7524 12.2064 26.0056 12.0939C27.6087 11.447 29.2681 10.9689 30.9556 10.6595C32.4181 10.3783 33.9087 10.2939 35.3993 10.2376C37.5368 10.1533 39.6462 10.2658 41.7556 10.6033C43.6399 10.9126 45.4962 11.3908 47.2681 12.0658C47.6618 12.2064 47.6618 12.2345 47.9431 11.8689C48.7306 10.7439 49.5743 9.67514 50.4462 8.63452C51.0931 7.84702 51.7962 7.08764 52.4712 6.32827Z" fill="#F4A817"/>
    <path d="M65.2118 44.2969C65.3243 43.9876 65.2118 43.6782 65.1836 43.3688C65.1555 42.5532 65.0993 41.7657 65.043 40.9501C64.9583 40.0188 64.8457 39.0902 64.7055 38.1657C64.4524 36.6469 64.143 35.1844 63.693 33.7219C63.4118 32.8219 63.1024 31.9501 62.793 31.0782C62.343 29.8407 61.6399 28.7157 61.1055 27.5344C60.9086 27.1126 60.8243 26.7469 60.9649 26.2688C61.4993 24.6094 61.9774 22.9501 62.4274 21.2626C62.793 19.8282 63.1586 18.3938 63.468 16.9594L63.5524 16.7063C64.3961 17.9157 65.1274 19.2094 65.8305 20.5313C66.7024 22.2469 67.4336 24.0188 68.0243 25.8469C68.5305 27.4219 68.9243 29.0251 69.2055 30.6563C69.6274 32.9907 69.7961 35.3532 69.768 37.7157C69.7399 39.5157 69.5993 41.3157 69.2899 43.0876C68.5305 47.5594 67.0399 51.7782 64.7055 55.6876C62.343 59.6532 59.3055 63.0282 55.5649 65.7844C53.5118 67.3032 51.2899 68.5688 48.9274 69.5532C47.5493 70.1438 46.143 70.6219 44.6805 71.0157C43.1055 71.4376 41.5024 71.7188 39.8993 71.8876C37.9024 72.0844 35.9336 72.1126 33.9368 71.9438C32.2774 71.8032 30.6461 71.5219 29.043 71.1001C26.8211 70.5376 24.7118 69.7782 22.6868 68.7376C17.8211 66.3188 13.8274 62.8876 10.6211 58.5282C8.93364 56.2219 7.55551 53.7751 6.45864 51.1313C5.83989 49.6126 5.30551 48.0938 4.88364 46.4907C4.46176 44.8594 4.15239 43.2001 3.92739 41.5126C3.61801 39.0376 3.58989 36.5907 3.78676 34.1157C3.92739 32.1188 4.26489 30.1219 4.74301 28.1813C5.72739 24.2719 7.30239 20.6157 9.52426 17.2126C9.52426 17.1844 9.55239 17.1844 9.55239 17.1844C9.72114 17.9719 9.88989 18.7313 10.0586 19.5188C10.2274 20.5313 10.5086 21.6001 10.818 22.6407C11.2118 24.0188 11.6618 25.3969 12.1961 26.7469C12.2524 26.8876 12.1961 27.0001 12.1399 27.1407C11.5493 28.4063 10.9868 29.7001 10.5086 31.0219C10.4243 31.2469 10.3399 31.2751 10.1993 31.0782C10.1993 31.1344 10.1711 31.1626 10.1711 31.1626C10.4243 31.4157 10.2836 31.6688 10.1711 31.9219C9.69301 33.2719 9.29926 34.6501 8.96176 36.0563C8.76489 36.9282 8.56801 37.8001 8.39926 38.6719C8.23051 39.7126 8.06176 40.7532 7.97739 41.8219C7.92114 42.6376 7.83676 43.4251 7.83676 44.2407C7.78051 45.2532 7.86489 46.2376 8.11801 47.1938C8.51176 48.6282 9.13051 49.9501 9.91801 51.2157C11.493 53.7469 13.518 55.8844 15.768 57.8251C18.8899 60.5251 22.3211 62.7188 26.0618 64.4626C26.793 64.8001 27.5243 65.1376 28.2836 65.4188L29.9711 66.0094C30.3368 66.1219 30.6743 66.2626 31.0399 66.3751C32.3618 66.7969 33.7118 67.0501 35.0899 67.1907C36.6649 67.3313 38.2118 67.2469 39.7868 66.9938C41.193 66.7688 42.543 66.4313 43.893 65.9813C45.2711 65.5313 46.6211 64.9969 47.943 64.3782C49.7993 63.5063 51.5993 62.5219 53.3149 61.3969C54.9461 60.3282 56.4649 59.1469 57.8993 57.8251C58.518 57.2626 59.1086 56.7001 59.643 56.0532C59.6993 56.0532 59.7555 55.9969 59.7555 55.9407H59.7836V55.9126C59.8118 55.8844 59.8399 55.8563 59.868 55.8563C60.8524 54.7594 61.7524 53.6063 62.5118 52.3407C62.9336 51.6376 63.3836 50.9344 63.7211 50.2032C64.368 48.8532 64.7899 47.4188 65.0149 45.9563C65.1836 45.3938 65.2399 44.8313 65.2118 44.2969ZM52.4711 6.32818C51.7961 7.08756 51.093 7.84693 50.4461 8.63443C49.5743 9.67506 48.7305 10.7438 47.943 11.8688C47.6899 12.2344 47.6899 12.2344 47.268 12.0657C45.468 11.3907 43.6399 10.9126 41.7555 10.6032C39.6461 10.2376 37.5368 10.1532 35.3993 10.2376C33.9086 10.2938 32.418 10.3782 30.9555 10.6594C29.268 10.9688 27.6086 11.4469 26.0055 12.0938C25.7524 12.2063 25.6118 12.1501 25.4149 11.9532C24.5149 10.8844 23.5868 9.84381 22.6586 8.80318C22.0118 8.07193 21.3368 7.34068 20.6618 6.60943C20.6336 6.58131 20.6055 6.52506 20.5774 6.46881C22.518 5.31568 24.5711 4.38756 26.7086 3.68443C28.5086 3.09381 30.3368 2.67193 32.193 2.39068C34.5836 2.05318 36.9743 1.99693 39.3649 2.19381C41.0243 2.33443 42.6274 2.61568 44.2586 3.00943C47.0993 3.71256 49.7711 4.80943 52.3305 6.24381C52.3868 6.24381 52.4149 6.30006 52.4711 6.32818Z" fill="#F00500"/>
    <path d="M58.5462 57.0658C58.4899 57.0658 58.4899 57.0939 58.5462 57.0658C58.5181 57.0939 58.5181 57.0939 58.5462 57.0658C58.5462 57.0939 58.5462 57.0939 58.5462 57.0658ZM40.7712 66.6283H40.5181C40.6024 66.6846 40.6868 66.6564 40.7712 66.6283ZM39.9556 66.7408C40.1524 66.7971 40.2649 66.7408 40.4337 66.6846C40.2649 66.6283 40.1243 66.7127 39.9556 66.7408ZM37.1149 56.4752H34.8368C34.3868 56.4752 34.3868 56.4752 34.4149 56.9252C34.4149 57.0377 34.4712 57.0939 34.5556 57.1502C34.7806 57.2908 35.0337 57.3752 35.2868 57.4877C35.4556 57.5721 35.5399 57.5439 35.6243 57.3471C35.7649 56.9533 35.7649 56.9533 36.1868 56.9814C36.3274 56.9814 36.4118 57.0658 36.4681 57.1502C36.6087 57.3752 36.7493 57.6283 36.8899 57.8533C37.1149 58.2189 37.4806 58.2471 37.7618 57.9096C37.8743 57.7689 38.0149 57.6283 38.1274 57.4877C38.5212 57.0096 38.5212 57.0096 38.9993 57.4314C39.0556 57.4877 39.1118 57.5721 39.2243 57.5439C39.6181 57.4596 39.8993 57.0658 39.9274 56.7002C39.9274 56.5033 39.8431 56.4752 39.6743 56.4752H37.1149ZM44.9337 54.1408H42.6556C42.5431 54.1408 42.4868 54.1971 42.4587 54.2814C42.3743 54.4783 42.2337 54.5346 42.0368 54.5064C41.4462 54.4783 40.8556 54.5064 40.2649 54.5064C39.9556 54.5064 39.5899 54.5908 39.3649 54.4502C39.1399 54.3096 38.9993 53.9721 38.8587 53.6908C38.7462 53.4939 38.6337 53.4096 38.4368 53.4377C38.2962 53.4658 38.2399 53.4096 38.2399 53.2689V51.2439C38.2399 51.1314 38.2681 51.0752 38.3806 51.0471C38.9149 50.8783 39.3649 50.5971 39.8149 50.2596C40.6587 49.6127 41.2774 48.7971 41.4743 47.7002C41.6149 46.9689 41.5306 46.2096 41.5587 45.4783C41.5868 44.5783 40.6868 43.6502 39.7868 43.6502H34.8087C33.7962 43.6502 33.1212 44.3252 33.1212 45.3377C33.1212 45.8158 33.1493 46.2939 33.1212 46.7721C33.0649 47.7564 33.4587 48.5158 34.1056 49.1908C34.8931 50.0064 35.8774 50.5408 36.8899 50.9908C37.0024 51.0471 37.0868 51.0471 37.0868 51.1877V53.2408C37.0868 53.3533 37.0587 53.4377 36.9462 53.4096C36.6649 53.3533 36.5806 53.5221 36.4681 53.7189C36.3556 53.9439 36.2149 54.1408 36.0743 54.3658C36.0181 54.4783 35.9618 54.5064 35.8493 54.5064C34.7806 54.5064 33.7399 54.5064 32.6712 54.4502C32.5868 54.4502 32.5024 54.4502 32.5024 54.3377C32.5024 54.1689 32.3899 54.1408 32.2493 54.1408H30.0274C29.9712 54.1408 29.8868 54.1127 29.8868 54.1971C29.8868 54.2814 29.8587 54.3658 29.9431 54.4502C30.0837 54.5627 30.1962 54.7033 30.3368 54.8158C30.5056 54.9564 30.5899 55.1252 30.5899 55.3502C30.6181 55.6596 30.6743 55.9689 30.7306 56.2783C30.7868 56.5314 30.8712 56.6158 31.1243 56.5314C31.2931 56.4752 31.4899 56.4471 31.5181 56.7283C31.5462 57.0939 31.6868 57.4596 31.7993 57.8252C31.9681 58.3033 32.1368 58.7814 32.4462 59.1752C32.7837 58.8096 32.8399 58.4158 32.8118 57.9377C32.7837 57.0939 32.8118 56.2502 32.8118 55.4064C32.9243 55.4064 33.0649 55.4346 33.2056 55.4627C34.3306 55.6877 35.4556 55.7721 36.6087 55.8283C38.4368 55.8846 40.2649 55.7439 42.0931 55.4346C42.2899 55.4064 42.3181 55.4346 42.3181 55.6314C42.2899 56.5033 42.2899 57.3471 42.2899 58.2189C42.2899 58.6127 42.5712 58.8658 42.7399 59.2033C43.0212 58.4439 43.3024 57.7127 43.5837 57.0096C43.7524 56.5877 43.7524 56.5877 44.1743 56.5877C44.2868 56.5877 44.3993 56.5877 44.4274 56.4471C44.5399 55.6596 44.7368 54.9283 44.9337 54.1408ZM59.5024 56.1377L59.5587 56.0814C59.5587 56.0814 59.5306 56.0814 59.5306 56.0533C59.5024 56.0814 59.5024 56.1096 59.5024 56.1377C59.4743 56.1377 59.4743 56.1658 59.4462 56.1939C59.3618 56.1939 59.3337 56.2221 59.3337 56.3064C59.3056 56.3064 59.2774 56.3064 59.2774 56.3346C59.2774 56.3346 59.2774 56.3627 59.3056 56.3627L59.3618 56.3064C59.4181 56.2783 59.4462 56.2502 59.4743 56.1939C59.4462 56.1658 59.4743 56.1658 59.5024 56.1377ZM59.1649 56.4752C59.1931 56.4752 59.2212 56.4752 59.1931 56.4189C59.1931 56.4471 59.1649 56.4471 59.1649 56.4752C59.1368 56.4752 59.1368 56.4752 59.1368 56.5033L59.1649 56.4752ZM58.9118 56.7283L58.9399 56.7002C58.9118 56.6721 58.9118 56.7002 58.9118 56.7283C58.8837 56.7283 58.8837 56.7283 58.8837 56.7564L58.9118 56.7283ZM59.7274 56.0533C59.1931 56.7002 58.5743 57.2627 57.9837 57.8252C56.5493 59.1471 55.0024 60.3283 53.3993 61.3971C51.6837 62.5221 49.8837 63.5346 48.0274 64.3783C46.7056 64.9971 45.3556 65.5314 43.9774 65.9814C42.6274 66.4033 41.2774 66.7408 39.8712 66.9939C38.3243 67.2471 36.7493 67.3596 35.1743 67.1908C33.7962 67.0502 32.4462 66.7689 31.1243 66.3752C30.7587 66.2627 30.4212 66.1502 30.0556 66.0096L28.3681 65.4189C27.6087 65.1377 26.8774 64.8002 26.1462 64.4627C22.4056 62.7471 18.9462 60.5252 15.8524 57.8252C13.6024 55.8846 11.5774 53.7471 10.0024 51.2158C9.21495 49.9502 8.59619 48.6283 8.20244 47.1939C7.94932 46.2096 7.83682 45.2252 7.92119 44.2408C8.62432 44.1283 9.32745 43.9877 10.0587 43.9314C11.4931 43.8189 12.9556 43.8189 14.3899 44.0439C18.2712 44.6346 21.3368 46.6033 23.9243 49.4439C24.0087 49.5283 24.0931 49.6408 24.2056 49.7533C24.4306 49.2471 24.6274 48.7408 24.8524 48.2627C25.2743 47.2502 25.8087 46.2939 26.3712 45.3377C26.7931 44.6346 27.1587 43.9033 27.6931 43.2846C29.1837 41.5689 30.9556 40.2752 33.1493 39.5721C34.2462 39.2346 35.3993 38.9814 36.5524 38.9814C38.8024 38.9814 40.9118 39.5158 42.8243 40.6971C44.0618 41.4564 45.1587 42.4408 46.1149 43.5377C46.3962 43.8471 46.6212 44.1846 46.7899 44.5783C47.3806 45.8158 48.0556 47.0252 48.5056 48.3471C48.6462 48.7971 48.8149 49.2752 48.9837 49.7533L50.1931 48.5439C51.6837 47.1096 53.3993 45.9846 55.3118 45.1689C56.7743 44.5502 58.3212 44.1846 59.9243 44.0439C61.3024 43.9033 62.6806 43.9596 64.0306 44.1283C64.4524 44.1846 64.8743 44.2408 65.2681 44.3252C65.2962 44.8596 65.2399 45.4221 65.1556 45.9564C64.9306 47.4471 64.4806 48.8533 63.8618 50.2033C63.5243 50.9346 63.0743 51.6377 62.6524 52.3408C61.8931 53.6064 60.9931 54.7596 60.0087 55.8564C59.9806 55.8846 59.9524 55.9127 59.9243 55.9127C59.8681 55.8002 60.0368 55.7439 60.0087 55.6033C59.8962 55.7158 59.7837 55.7721 59.7556 55.9127C59.7274 55.9127 59.6712 55.9408 59.6712 55.9408C59.6149 56.0252 59.6712 56.0252 59.7274 56.0533Z" fill="#FFFEFE"/>
    <path d="M11.7461 4.52811C12.1961 4.66874 12.618 4.83749 13.0399 5.06248C13.9399 5.51249 14.8118 6.04686 15.6555 6.60936C16.443 7.17186 17.2024 7.79061 17.9618 8.40936C19.0024 9.28123 19.9586 10.2094 20.9149 11.1656C21.4774 11.7281 22.0118 12.3187 22.5461 12.9094C22.6586 13.0219 22.6586 13.1062 22.518 13.2187C21.7024 13.7812 20.9149 14.3719 20.1836 15.0187C19.368 15.6937 18.6086 16.4531 17.8774 17.2125C16.9774 18.1406 16.1618 19.1812 15.3743 20.2219C14.7274 21.0094 14.1649 21.9094 13.6024 22.7812C13.5743 22.8375 13.5461 22.8937 13.4899 22.8937C13.4055 22.8937 13.3774 22.8375 13.3774 22.7531C13.1243 21.9375 12.843 21.0937 12.618 20.2781C12.3368 19.2656 12.0555 18.2812 11.8024 17.2687C11.6055 16.4531 11.4086 15.6375 11.268 14.8219C11.1555 14.2031 11.043 13.5844 10.9305 12.9375C10.8461 12.375 10.7899 11.8125 10.7336 11.25C10.6493 10.4344 10.593 9.61874 10.6211 8.77499C10.6774 7.45311 10.8461 6.13123 11.4086 4.89373C11.5211 4.52811 11.5774 4.49999 11.7461 4.52811Z" fill="#F28F1F"/>
    <path d="M61.8649 7.03125C61.9493 7.81875 62.0618 8.60625 62.0055 9.39375C61.9774 10.2656 61.9212 11.1656 61.8087 12.0375C61.668 13.3594 61.4149 14.6812 61.1337 15.975C60.8805 17.1562 60.5712 18.3375 60.2337 19.4906C59.9524 20.5313 59.6149 21.5437 59.3055 22.5562C59.2774 22.6687 59.193 22.8938 59.1649 22.8938C59.0243 22.8938 58.9962 22.6969 58.9118 22.5844C58.4055 21.7969 57.8993 21.0375 57.3368 20.2781C56.8024 19.575 56.268 18.8719 55.6774 18.1969C54.9462 17.3531 54.1305 16.5938 53.3712 15.7781C53.2024 15.6094 52.9493 15.4969 52.8368 15.2719C52.893 15.2156 52.9493 15.1594 52.9774 15.075C53.3149 14.3437 53.7087 13.6688 54.1024 12.9938C54.7212 11.9531 55.3962 10.9688 56.2118 10.0969C57.0555 9.16875 58.0118 8.35313 59.1368 7.79063C60.0368 7.36875 60.9087 7.05938 61.8649 7.03125Z" fill="#F28B20"/>
    <path d="M18.8618 33.6094C18.9181 32.85 18.9181 32.2594 19.1712 31.6969C19.2556 31.4719 19.3681 31.3594 19.6493 31.3594C20.4368 31.3594 21.1399 31.5844 21.8149 31.8938C24.0931 32.8781 26.1462 34.2281 28.1712 35.6344C28.9587 36.1687 29.6337 36.8438 30.0556 37.7156C30.1681 37.9406 30.2524 38.1656 30.2806 38.4188C30.3368 38.7 30.2243 38.8406 29.9431 38.925C29.6056 39.0375 29.2681 39.0656 28.9024 39.0656C27.9181 39.0375 26.9618 38.8969 26.0056 38.6719C25.0493 38.475 24.1212 38.1938 23.1931 37.8563C21.7868 37.3219 20.4368 36.7031 19.3399 35.6344C19.0868 35.3812 18.8899 35.1 18.8899 34.7063C18.9462 34.2844 18.8899 33.8625 18.8618 33.6094Z" fill="#1F1712"/>
    <path d="M54.6649 33.6936C54.6368 34.0592 54.6087 34.4248 54.6087 34.7623C54.6087 35.0436 54.4962 35.2404 54.3274 35.4092C53.6805 36.1404 52.8649 36.6467 52.0212 37.0686C50.7274 37.7436 49.3774 38.1936 47.9712 38.5311C46.8743 38.7842 45.7774 39.0092 44.6524 39.0092C44.343 39.0092 44.0618 38.9529 43.7805 38.8967C43.4712 38.8123 43.3868 38.6436 43.4149 38.3623C43.5555 37.4623 44.118 36.7873 44.7368 36.1686C45.5243 35.3811 46.4805 34.8186 47.4087 34.2279C48.5337 33.4686 49.6868 32.7654 50.9243 32.1467C51.768 31.7248 52.6399 31.3029 53.6243 31.2186C54.3274 31.1623 54.2712 31.1623 54.4962 31.8936C54.6649 32.4842 54.6368 33.1029 54.6649 33.6936Z" fill="#1F1713"/>
    <path d="M61.8649 7.03146C60.9087 7.05959 60.0368 7.36896 59.1649 7.79084C58.0399 8.35334 57.0837 9.16896 56.2399 10.0971C55.4243 10.9971 54.7493 11.9815 54.1306 12.994C53.7087 13.669 53.3431 14.3721 53.0056 15.0752C52.9774 15.1596 52.9212 15.2158 52.8649 15.2721C52.5556 15.1315 52.3306 14.8502 52.0774 14.6533C51.4587 14.1471 50.8118 13.669 50.1368 13.1908C49.9681 13.0502 49.9962 12.994 50.1087 12.8533C50.8962 11.9815 51.7118 11.1096 52.5556 10.294C54.0181 8.88771 55.5368 7.53771 57.2243 6.38459C58.2931 5.65334 59.4462 5.03459 60.6556 4.55646C60.9931 4.41584 61.0493 4.41584 61.1899 4.75334C61.4993 5.42834 61.7243 6.10334 61.8087 6.86271C61.8368 6.91896 61.8368 6.97521 61.8649 7.03146Z" fill="#F2991D"/>
    <path d="M49.8274 29.5873C48.6461 29.5592 47.6618 29.5311 46.7055 29.2498C45.8055 28.9967 45.4399 28.4061 45.4961 27.4779C45.5805 26.4654 46.1149 25.6779 46.8461 25.0029C47.2399 24.6373 47.6899 24.2717 48.2243 24.0748C49.1524 23.7373 50.0243 23.9061 50.8399 24.3842C51.8524 24.9748 52.5836 25.8186 52.7524 27.0561C52.8368 27.7592 52.6962 28.3779 52.3024 28.9967C52.0212 29.4186 51.5993 29.5311 51.1774 29.5592C50.643 29.5592 50.1368 29.6154 49.8274 29.5873ZM23.2774 29.5873C22.6305 29.5873 22.0399 29.5311 21.4774 29.5029C20.9711 29.4748 20.6899 29.1373 20.4649 28.7436C20.0993 28.1529 20.1274 27.5342 20.2118 26.9154C20.3805 25.4529 21.8149 24.2154 23.2211 23.9623C24.0368 23.8217 24.7961 24.0186 25.443 24.5529C26.2024 25.1436 26.9055 25.7904 27.1868 26.7467C27.3555 27.3654 27.3274 27.9842 27.0743 28.6029C26.9618 28.9404 26.6524 29.1092 26.343 29.2217C25.8368 29.4186 25.3024 29.5029 24.768 29.5592C24.2336 29.5592 23.7274 29.6154 23.2774 29.5873Z" fill="#FFFEFE"/>
    <path d="M59.6993 55.9124C59.6993 55.7718 59.8399 55.6874 59.9524 55.603C59.9805 55.7437 59.8118 55.7999 59.868 55.9124V55.9405H59.8399C59.8118 55.9124 59.7555 55.9124 59.6993 55.9124Z" fill="#F6D9A7"/>
    <path d="M59.6993 55.9126H59.8399C59.8118 55.9688 59.7837 56.0251 59.7274 56.0251L59.6993 55.997V55.9126Z" fill="#FFFEFE"/>
    <path d="M44.9337 54.1408C44.7368 54.9283 44.568 55.6596 44.3712 56.4189C44.343 56.5596 44.2306 56.5596 44.1181 56.5596C43.6962 56.5596 43.6962 56.5596 43.5274 56.9814C43.2462 57.6846 42.9649 58.4158 42.6837 59.1752C42.5149 58.8377 42.2337 58.5846 42.2337 58.1908C42.2337 57.3189 42.2337 56.4752 42.2618 55.6033C42.2618 55.4064 42.2337 55.3502 42.0368 55.4064C40.2368 55.7158 38.4087 55.8846 36.5524 55.8002C35.4274 55.7439 34.2743 55.6877 33.1493 55.4346C33.0087 55.4064 32.8962 55.4064 32.7555 55.3783C32.7555 56.2221 32.7274 57.0658 32.7555 57.9096C32.7837 58.3596 32.7274 58.7814 32.3899 59.1471C32.0806 58.7533 31.9118 58.2752 31.7431 57.7971C31.6306 57.4314 31.4899 57.0939 31.4618 56.7002C31.4337 56.4189 31.2368 56.4471 31.068 56.5033C30.8149 56.5877 30.7305 56.5033 30.6743 56.2502C30.618 55.9408 30.5618 55.6314 30.5337 55.3221C30.5055 55.0971 30.4493 54.9283 30.2806 54.7877C30.1399 54.6752 30.0274 54.5346 29.8868 54.4221C29.8024 54.3377 29.8305 54.2533 29.8305 54.1689C29.8587 54.0846 29.943 54.1127 29.9712 54.1127H32.193C32.3337 54.1127 32.4462 54.1408 32.4462 54.3096C32.4462 54.4221 32.5306 54.4221 32.6149 54.4221C33.6837 54.4783 34.7243 54.4783 35.7931 54.4783C35.9056 54.4783 35.9618 54.4502 36.018 54.3377C36.1305 54.1127 36.2712 53.9158 36.4118 53.6908C36.5243 53.4939 36.6087 53.3252 36.8899 53.3814C37.0024 53.4096 37.0306 53.3252 37.0306 53.2127V51.1596C37.0306 51.0189 36.9462 50.9908 36.8337 50.9627C35.7931 50.5127 34.8368 49.9783 34.0493 49.1627C33.4024 48.4877 32.9805 47.7002 33.0649 46.7439C33.093 46.2658 33.0649 45.7877 33.0649 45.3096C33.0649 44.2971 33.7399 43.6221 34.7524 43.6221H39.7305C40.6305 43.6221 41.5305 44.5502 41.5024 45.4502C41.4743 46.1814 41.5587 46.9408 41.418 47.6721C41.2212 48.7408 40.6306 49.5564 39.7587 50.2314C39.3087 50.5689 38.8587 50.8221 38.3243 51.0189C38.2118 51.0471 38.1837 51.1033 38.1837 51.2158V53.2408C38.1837 53.3814 38.2399 53.4377 38.3806 53.4096C38.6056 53.3814 38.7181 53.4658 38.8024 53.6627C38.9431 53.9439 39.0837 54.2814 39.3087 54.4221C39.5337 54.5627 39.8993 54.4502 40.2087 54.4783H41.9805C42.1774 54.4783 42.318 54.4502 42.4024 54.2533C42.4305 54.1689 42.4868 54.1127 42.5993 54.1127C43.3868 54.1408 44.1462 54.1408 44.9337 54.1408Z" fill="#1D1919"/>
    <path d="M37.1149 56.4752H39.618C39.7868 56.4752 39.8711 56.5033 39.8711 56.7002C39.8711 57.0939 39.5618 57.4596 39.168 57.5439C39.0555 57.5721 38.9993 57.4877 38.943 57.4314C38.4649 57.0377 38.4649 57.0377 38.0711 57.4877C37.9586 57.6283 37.818 57.7689 37.7055 57.9096C37.4243 58.2471 37.0586 58.2189 36.8336 57.8533C36.693 57.6283 36.5524 57.3752 36.4118 57.1502C36.3555 57.0377 36.2711 56.9814 36.1305 56.9814C35.7086 56.9533 35.7086 56.9533 35.568 57.3471C35.5118 57.5439 35.3993 57.5721 35.2305 57.4877C34.9774 57.3752 34.7243 57.2908 34.4993 57.1502C34.4149 57.0939 34.3586 57.0377 34.3586 56.9252C34.3305 56.4752 34.3305 56.4752 34.7805 56.4752C35.5961 56.4471 36.3555 56.4471 37.1149 56.4752Z" fill="#171413"/>
    <path d="M39.9556 66.7407C40.1243 66.7126 40.2649 66.6282 40.4337 66.6845C40.2649 66.7407 40.1524 66.797 39.9556 66.7407ZM40.7712 66.6282C40.6868 66.6563 40.6306 66.6845 40.5181 66.6282H40.7712ZM59.6993 55.9126V56.0251C59.6712 55.997 59.5868 56.0251 59.6149 55.9688C59.6149 55.9407 59.6712 55.9407 59.6993 55.9126ZM59.3337 56.3063C59.3337 56.222 59.3618 56.1938 59.4462 56.1938C59.4181 56.2501 59.3899 56.2782 59.3337 56.3063Z" fill="#F6D9A7"/>
    <path d="M59.3337 56.3062L59.2774 56.3624C59.2774 56.3624 59.2774 56.3343 59.2493 56.3343C59.2774 56.3062 59.3055 56.3062 59.3337 56.3062ZM58.5462 57.0655C58.5462 57.0937 58.5462 57.0937 58.5462 57.0655C58.518 57.0937 58.5462 57.0937 58.5462 57.0655C58.4899 57.0937 58.4899 57.0655 58.5462 57.0655Z" fill="#F7DDB0"/>
    <path d="M59.5024 56.1373C59.5024 56.1092 59.5305 56.0811 59.5305 56.0811C59.5305 56.0811 59.5587 56.0811 59.5587 56.1092C59.5305 56.1092 59.5024 56.1373 59.5024 56.1373ZM59.4462 56.1936L59.5024 56.1373C59.4743 56.1654 59.4462 56.1654 59.4462 56.1936Z" fill="#F6D9A7"/>
    <path d="M59.1649 56.4471L59.193 56.4189C59.2212 56.4471 59.193 56.4471 59.1649 56.4471ZM59.1649 56.4752L59.1368 56.5033C59.1368 56.4752 59.1649 56.4752 59.1649 56.4752ZM58.8837 56.7283C58.8837 56.7002 58.9118 56.6721 58.9399 56.7002C58.9399 56.7002 58.9118 56.7283 58.8837 56.7283ZM58.9118 56.7283C58.9118 56.7283 58.8837 56.7283 58.8837 56.7564C58.8837 56.7564 58.8837 56.7283 58.9118 56.7283Z" fill="#F7DDB0"/>
  </g>
  <defs>
    <clipPath id="clip0_165_18688">
      <rect width="72" height="72" fill="white" transform="translate(0.664917)"/>
    </clipPath>
  </defs>
</svg>