<svg xmlns="http://www.w3.org/2000/svg" width="73" height="72" viewBox="0 0 73 72" fill="none">
  <g clip-path="url(#clip0_165_18737)">
    <path fill-rule="evenodd" clip-rule="evenodd" d="M13.2986 52.9596C13.5236 52.7064 13.8049 52.5096 14.1143 52.3689C14.4236 52.2283 14.7611 52.1439 15.0986 52.1439H71.658C71.9111 52.1439 72.1361 52.2283 72.333 52.3408C72.5299 52.4814 72.6986 52.6502 72.783 52.8752C72.8674 53.1002 72.8955 53.3252 72.8674 53.5783C72.8393 53.8033 72.7268 54.0283 72.558 54.1971L60.5768 67.5002C60.3518 67.7533 60.0705 67.9502 59.7611 68.0908C59.4518 68.2314 59.1143 68.3158 58.7768 68.3158H2.16113C1.90801 68.3158 1.68301 68.2314 1.48613 68.1189C1.28926 67.9783 1.12051 67.8096 1.03613 67.5846C0.951758 67.3596 0.923633 67.1346 0.951758 66.8814C0.979883 66.6564 1.09238 66.4314 1.26113 66.2627L13.2986 52.9596ZM72.5861 41.9346C72.7549 42.1033 72.8674 42.3283 72.8955 42.5533C72.9236 42.7783 72.8955 43.0314 72.8111 43.2564C72.7268 43.4814 72.558 43.6502 72.3611 43.7908C72.1643 43.9314 71.9393 43.9877 71.6861 43.9877L15.1268 44.0439C14.7893 44.0439 14.4518 43.9596 14.1424 43.8189C13.833 43.6783 13.5518 43.4814 13.3268 43.2283L1.23301 29.9814C1.06426 29.8127 0.951758 29.5877 0.923633 29.3627C0.895508 29.1377 0.923633 28.8846 1.00801 28.6596C1.09238 28.4346 1.26113 28.2658 1.45801 28.1252C1.65488 27.9846 1.87988 27.9283 2.13301 27.9283L58.7205 27.8439C59.058 27.8439 59.3955 27.9283 59.7049 28.0689C60.0143 28.2096 60.2955 28.4064 60.5205 28.6596L72.5861 41.9346ZM13.2986 4.35957C13.5236 4.10645 13.8049 3.90957 14.1143 3.76895C14.4236 3.62832 14.7611 3.54395 15.0986 3.54395L71.6861 3.6002C71.9111 3.6002 72.1643 3.68457 72.3611 3.79707C72.558 3.9377 72.7268 4.10645 72.8111 4.33145C72.8955 4.55645 72.9236 4.78145 72.8955 5.03457C72.8674 5.25957 72.7549 5.48457 72.5861 5.65332L60.5486 18.9283C60.3236 19.1814 60.0424 19.3783 59.733 19.5189C59.4236 19.6596 59.0861 19.7439 58.7486 19.7439H2.16113C1.90801 19.7439 1.68301 19.6596 1.48613 19.5471C1.28926 19.4064 1.12051 19.2377 1.03613 19.0127C0.951758 18.7877 0.923633 18.5627 0.951758 18.3096C0.979883 18.0564 1.09238 17.8314 1.26113 17.6627L13.2986 4.35957Z" fill="url(#paint0_linear_165_18737)"/>
  </g>
  <defs>
    <linearGradient id="paint0_linear_165_18737" x1="3.09123" y1="69.7719" x2="70.7231" y2="2.14023" gradientUnits="userSpaceOnUse">
      <stop stop-color="#9945FF"/>
      <stop offset="0.14" stop-color="#8A53F4"/>
      <stop offset="0.42" stop-color="#6377D6"/>
      <stop offset="0.79" stop-color="#24B0A7"/>
      <stop offset="0.99" stop-color="#00D18C"/>
      <stop offset="1" stop-color="#00D18C"/>
    </linearGradient>
    <clipPath id="clip0_165_18737">
      <rect width="72" height="72" fill="white" transform="translate(0.979858)"/>
    </clipPath>
  </defs>
</svg>