<svg xmlns="http://www.w3.org/2000/svg" width="73" height="72" viewBox="0 0 73 72" fill="none">
  <g clip-path="url(#clip0_165_18742)">
    <path d="M36.6599 72C43.78 72 50.7403 69.8887 56.6604 65.9329C62.5806 61.9772 67.1948 56.3548 69.9196 49.7766C72.6443 43.1985 73.3572 35.9601 71.9682 28.9768C70.5791 21.9935 67.1505 15.5789 62.1158 10.5442C57.0811 5.50948 50.6665 2.08081 43.6832 0.691746C36.6998 -0.697322 29.4614 0.0155981 22.8833 2.74035C16.3052 5.46511 10.6827 10.0793 6.72701 15.9995C2.77128 21.9197 0.659912 28.8799 0.659912 36C0.659912 45.5478 4.45276 54.7046 11.2041 61.4559C17.9554 68.2072 27.1121 72 36.6599 72Z" fill="#0088CC"/>
    <path fill-rule="evenodd" clip-rule="evenodd" d="M26.63 23.7656H46.8215C47.571 23.7509 48.3142 23.9057 48.9955 24.2185C49.6986 24.5668 50.2884 25.1076 50.6962 25.778C50.7221 25.8155 50.7462 25.8544 50.7685 25.8947C51.1591 26.5814 51.3632 27.3584 51.3605 28.1484C51.3634 28.9632 51.1597 29.7654 50.7685 30.4802L50.7567 30.501L38 52.414C37.8618 52.6514 37.6635 52.8483 37.4251 52.9847C37.1867 53.1212 36.9165 53.1926 36.6418 53.1916C36.3671 53.1906 36.0975 53.1174 35.86 52.9792C35.6226 52.8411 35.4257 52.6428 35.2891 52.4045L22.7661 30.5381L22.7552 30.5204C22.3184 29.8802 22.0416 29.1446 21.948 28.3753C21.8759 27.5084 22.071 26.6401 22.5069 25.8873C22.9428 25.1344 23.5987 24.533 24.3864 24.1639C25.0951 23.865 25.8617 23.7289 26.63 23.7656ZM35.0821 26.8962H26.63C26.3203 26.8668 26.0078 26.9022 25.7125 27C25.5049 27.0972 25.3322 27.2558 25.2178 27.4545C25.1016 27.6556 25.0496 27.8874 25.0687 28.1188C25.0797 28.2519 25.134 28.404 25.4538 28.9319L25.4735 28.9654L35.0821 45.7439V26.8962ZM38.2127 26.8962V45.8266L48.0438 28.9387C48.1685 28.694 48.2324 28.4229 48.23 28.1484C48.2325 27.916 48.1769 27.6867 48.0682 27.4812C47.9939 27.3684 47.9108 27.2617 47.8196 27.162C47.7782 27.1172 47.7283 27.081 47.6728 27.0557C47.4054 26.9367 47.1138 26.8821 46.8215 26.8962H38.2127Z" fill="white"/>
  </g>
  <defs>
    <clipPath id="clip0_165_18742">
      <rect width="72" height="72" fill="white" transform="translate(0.659912)"/>
    </clipPath>
  </defs>
</svg>