<svg xmlns="http://www.w3.org/2000/svg" width="72" height="72" viewBox="0 0 72 72" fill="none">
  <g clip-path="url(#clip0_165_18753)">
    <path d="M35.9949 72C55.8771 72 71.9949 55.8823 71.9949 36C71.9949 16.1177 55.8771 0 35.9949 0C16.1126 0 -0.00512695 16.1177 -0.00512695 36C-0.00512695 55.8823 16.1126 72 35.9949 72Z" fill="#012968"/>
    <path d="M54.1074 57.6H17.8824C15.9418 57.6 14.3668 56.025 14.3668 54.0844V17.8594C14.3668 15.9187 15.9418 14.3438 17.8824 14.3438H54.1355C56.0761 14.3438 57.6511 15.9187 57.6511 17.8594V54.1125C57.623 56.025 56.048 57.6 54.1074 57.6Z" fill="white"/>
    <path d="M14.9855 40.5283V17.8877C14.9855 16.2564 16.3074 14.9346 17.9386 14.9346H54.1074C55.7386 14.9346 57.0605 16.2564 57.0605 17.8877V40.5283C57.0605 40.8939 56.7511 41.2033 56.3855 41.2033H15.6324C15.2668 41.1752 14.9855 40.8939 14.9855 40.5283Z" fill="#012968"/>
    <path d="M35.9949 19.7158H27.8667C27.2761 19.7158 27.0511 19.8846 27.0511 20.4752V23.5689C27.0511 24.1314 27.248 24.3283 27.8105 24.3283H32.9855C33.548 24.3283 33.6886 24.4408 33.6886 25.0033C33.6605 28.5189 33.6886 32.0627 33.6605 35.5783C33.6605 36.1971 33.8574 36.4221 34.5042 36.4221H37.2324C38.273 36.4221 38.273 36.4221 38.273 35.3814C38.273 31.9502 38.3011 28.5189 38.2449 25.0877C38.2449 24.3846 38.4699 24.3283 39.0886 24.3283H44.0386C44.7136 24.3283 44.9105 24.1033 44.8824 23.4564V20.5877C44.8824 19.9127 44.6574 19.7158 43.9824 19.7158H35.9949Z" fill="white"/>
    <path d="M44.5449 49.4158V45.6752C44.5449 45.5908 44.6292 45.5064 44.7136 45.5064H47.3292C47.6949 45.5064 48.1167 45.5064 48.4542 45.5627C50.648 45.9002 52.0824 47.5877 51.9417 49.5846C51.773 51.7502 50.1699 53.2127 47.9199 53.2689H44.7136C44.6292 53.2689 44.5449 53.1846 44.5449 53.1002C44.5167 52.5096 44.5449 50.3439 44.5449 49.4158ZM47.3855 47.0814H46.4574C46.373 47.0814 46.2886 47.1658 46.2886 47.2502V51.6939C46.2886 51.7783 46.373 51.8627 46.4574 51.8627H47.8636C48.9605 51.8627 50.0855 51.0471 50.0855 49.4721C50.0855 47.9814 49.073 47.0814 47.3855 47.0814ZM41.3949 47.9814C41.3386 47.9814 41.2824 47.9533 41.2542 47.8971C41.0855 47.5314 40.748 47.2783 40.6636 47.2221C40.1574 46.8564 39.173 46.8564 38.6667 47.1658C38.4417 47.3064 38.273 47.4752 38.3011 47.7564C38.3292 47.9533 38.4699 48.1221 38.6386 48.2064C39.2292 48.5439 39.9042 48.4877 40.5511 48.6564C40.9167 48.7408 41.3105 48.8252 41.648 48.9377C43.4761 49.5283 43.2511 51.6377 42.3511 52.5096C41.1418 53.6346 38.498 53.6627 37.2886 52.5377C37.148 52.4252 36.5855 51.8346 36.473 51.0471C36.473 50.9346 36.5292 50.8502 36.6417 50.8502H37.9355C37.9917 50.8502 38.048 50.8783 38.0761 50.9346C38.3855 51.4971 38.6667 51.6939 39.0886 51.8627C39.7074 52.0877 40.4667 52.0033 40.973 51.6658C41.4792 51.3002 41.3667 50.6252 40.8042 50.3439C40.298 50.1189 39.7355 50.0908 39.2011 50.0064C38.8636 49.9502 38.5261 49.9221 38.2167 49.8377C37.373 49.6127 36.6699 49.1908 36.5574 48.2064C36.4449 47.3064 36.8949 46.4346 37.7667 45.9564C38.3574 45.6189 39.0042 45.4783 39.623 45.5064C40.8605 45.5064 41.7324 45.9283 42.3792 46.6314C42.5761 46.8283 42.8574 47.3627 42.9136 47.8408C42.9136 47.9533 42.8574 48.0377 42.7449 48.0377L41.3949 47.9814ZM26.7136 45.5064H20.273C20.1886 45.5064 20.1042 45.5908 20.1042 45.6752V46.9408C20.1042 47.0252 20.1886 47.1096 20.273 47.1096H22.6074V53.1564C22.6074 53.2408 22.6917 53.3252 22.7761 53.3252H24.2105C24.2949 53.3252 24.3792 53.2408 24.3792 53.1564V47.1096H26.7136C26.798 47.1096 26.8824 47.0252 26.8824 46.9408V45.6752C26.8824 45.5908 26.798 45.5064 26.7136 45.5064ZM33.4074 45.5064C33.323 45.5064 33.2386 45.5908 33.2386 45.6752V49.3596C33.2386 50.2877 32.9855 51.7221 31.6074 51.7221H31.5511C30.0042 51.7221 29.9199 50.2877 29.9199 49.3596V45.6752C29.9199 45.5908 29.8355 45.5064 29.7511 45.5064H28.3167C28.2324 45.5064 28.148 45.5908 28.148 45.6752V49.4158C28.148 52.5658 29.8636 53.3252 31.4667 53.3252H31.6636C34.1105 53.3252 35.0105 51.4127 35.0105 49.4158V45.6752C35.0105 45.5908 34.9261 45.5064 34.8417 45.5064H33.4074Z" fill="#012968"/>
  </g>
  <defs>
    <clipPath id="clip0_165_18753">
      <rect width="72" height="72" fill="white" transform="translate(-0.00512695)"/>
    </clipPath>
  </defs>
</svg>