<svg xmlns="http://www.w3.org/2000/svg" width="73" height="72" viewBox="0 0 73 72" fill="none">
  <g clip-path="url(#clip0_165_18764)">
    <path d="M0.693054 36C0.693054 16.1156 16.8087 0 36.6931 0C56.5774 0 72.6931 16.1156 72.6931 36C72.6931 55.8844 56.5774 72 36.6931 72C16.8087 72 0.693054 55.8844 0.693054 36Z" fill="white"/>
    <path d="M36.7212 59.9623C36.2149 59.9623 35.7087 59.8217 35.2868 59.5123C32.6149 57.5998 30.3368 56.3623 28.3118 55.2654C19.3399 50.3998 16.7243 47.7561 16.3024 20.2217C16.3024 19.5748 16.5556 18.9279 17.0056 18.4498C17.4556 17.9717 18.1024 17.7186 18.7493 17.7186H19.1431C21.8149 17.7467 28.9024 17.7748 35.1181 12.5998C36.0181 11.8404 37.3681 11.8404 38.2681 12.5998C44.4837 17.8029 51.5993 17.7467 54.2431 17.7186H54.6649C55.3118 17.7186 55.9587 17.9717 56.4087 18.4498C56.8625 18.9279 57.1143 19.5625 57.1118 20.2217C56.6899 47.7561 54.0743 50.3998 45.0743 55.2654C43.0493 56.3623 40.7712 57.5998 38.0993 59.5123C37.7337 59.8217 37.2274 59.9623 36.7212 59.9623ZM21.2806 22.6123C21.7587 46.0967 23.9524 47.3061 30.6743 50.9342C32.3618 51.8623 34.4149 52.9592 36.7212 54.5061C39.0556 52.9592 41.0806 51.8342 42.7962 50.9342C49.5181 47.2779 51.7118 46.0967 52.1899 22.6123C48.6181 22.4717 42.4868 21.7123 36.7212 17.5779C30.9556 21.6842 24.8243 22.4717 21.2806 22.6123Z" fill="#3375BB"/>
  </g>
  <defs>
    <clipPath id="clip0_165_18764">
      <rect width="72" height="72" fill="white" transform="translate(0.664917)"/>
    </clipPath>
  </defs>
</svg>