<svg xmlns="http://www.w3.org/2000/svg" width="73" height="72" viewBox="0 0 73 72" fill="none">
  <g clip-path="url(#clip0_165_18772)">
    <path d="M0.358093 36C0.358093 28.8799 2.46946 21.9197 6.42519 15.9995C10.3809 10.0793 16.0034 5.46511 22.5815 2.74035C29.1596 0.0155981 36.398 -0.697322 43.3813 0.691746C50.3647 2.08081 56.7792 5.50948 61.8139 10.5442C66.8486 15.5789 70.2773 21.9935 71.6664 28.9768C73.0554 35.9601 72.3425 43.1985 69.6178 49.7766C66.893 56.3548 62.2788 61.9772 56.3586 65.9329C50.4385 69.8887 43.4782 72 36.3581 72C26.8103 72 17.6536 68.2072 10.9022 61.4559C4.15094 54.7046 0.358093 45.5478 0.358093 36Z" fill="white"/>
    <path d="M36.3792 59.9757C35.8645 59.9762 35.3627 59.8148 34.9448 59.5144C32.7196 57.9442 30.3918 56.5248 27.9768 55.2659C18.992 50.3915 16.3843 47.7607 15.9674 20.2148C15.9625 19.8886 16.0225 19.5646 16.1439 19.2618C16.2653 18.9589 16.4458 18.6833 16.6747 18.4508C16.9037 18.2184 17.1766 18.0338 17.4776 17.9078C17.7785 17.7818 18.1015 17.717 18.4278 17.717L18.8362 17.719C21.5027 17.7412 28.5877 17.7879 34.803 12.596C35.2456 12.2264 35.8039 12.0239 36.3804 12.0239C36.957 12.0239 37.5153 12.2264 37.9578 12.596C44.1712 17.7868 51.275 17.7505 53.9441 17.719L54.3544 17.7173C54.6807 17.7172 55.0038 17.7821 55.3048 17.908C55.6058 18.034 55.8787 18.2186 56.1077 18.451C56.3367 18.6834 56.5172 18.9591 56.6386 19.262C56.7601 19.5648 56.82 19.8888 56.8151 20.2151C56.3997 47.754 53.7877 50.3856 44.7902 55.2628C42.3721 56.5225 40.0412 57.943 37.8133 59.5147C37.3954 59.8149 36.8937 59.9761 36.3792 59.9757ZM20.9332 22.615C21.4231 46.1098 23.6051 47.2947 30.3233 50.9402C32.0156 51.858 34.0527 52.9638 36.3792 54.5214C38.7088 52.9616 40.7501 51.8549 42.4446 50.9363C49.1752 47.2876 51.3602 46.1025 51.8496 22.6144C48.2777 22.4772 42.1507 21.7012 36.3792 17.5905C30.6133 21.6987 24.5003 22.4772 20.9332 22.615Z" fill="#3375BB"/>
    <path fill-rule="evenodd" clip-rule="evenodd" d="M54.7097 36.7031C58.2002 36.7031 61.6123 37.7382 64.5146 39.6774C67.4169 41.6167 69.6789 44.373 71.0147 47.5978C72.3505 50.8226 72.7 54.3711 72.019 57.7946C71.338 61.2181 69.6572 64.3627 67.189 66.8309C64.7208 69.2991 61.5762 70.9799 58.1527 71.6609C54.7292 72.3419 51.1807 71.9924 47.9559 70.6566C44.7311 69.3208 41.9747 67.0588 40.0355 64.1565C38.0963 61.2542 37.0612 57.8421 37.0612 54.3516C37.0611 52.0339 37.5175 49.7389 38.4044 47.5977C39.2913 45.4564 40.5912 43.5108 42.2301 41.872C43.8689 40.2332 45.8145 38.9332 47.9558 38.0463C50.097 37.1594 52.392 36.703 54.7097 36.7031Z" fill="black"/>
    <path d="M46.7607 54.3515L46.7736 59.0183L50.7392 61.3527V64.0848L44.4536 60.3981V52.9875L46.7598 54.3521L46.7607 54.3515ZM46.7607 49.6848V52.4042L44.4516 51.0381V48.3187L46.7607 46.9527L49.0813 48.3187L46.7607 49.6848ZM52.3947 48.3187L54.704 46.9527L57.0246 48.3187L54.704 49.6848L52.3947 48.3187ZM48.429 58.05V55.3179L50.7384 56.6839V59.4033L48.4293 58.05H48.429ZM52.3947 62.3292L54.704 63.6952L57.0246 62.3292V65.0486L54.704 66.4146L52.3947 65.0486V62.3292ZM60.3366 48.3187L62.6457 46.9527L64.9663 48.3187V51.0381L62.6457 52.4042V49.6848L60.3366 48.3187ZM62.6457 59.0183L62.6586 54.3515L64.9677 52.9855V60.3956L58.682 64.0822V61.3502L62.6457 59.0183ZM60.9899 58.0508L58.6806 59.4042V56.6848L60.9899 55.3188V58.0508ZM60.9899 50.6523L61.0026 53.3843L57.026 55.7187V60.3956L54.7167 61.749L52.4073 60.3956V55.7176L48.4307 53.3832V50.6531L50.7499 49.2871L54.7026 51.6316L58.6792 49.2871L60.9998 50.6531L60.9899 50.6523ZM48.4293 45.9869L54.704 42.2876L60.9899 45.9869L58.6806 47.3529L54.704 45.0084L50.7384 47.3529L48.429 45.9869H48.4293Z" fill="#F0B90B"/>
  </g>
  <defs>
    <clipPath id="clip0_165_18772">
      <rect width="72" height="72" fill="white" transform="translate(0.329956)"/>
    </clipPath>
  </defs>
</svg>