<svg xmlns="http://www.w3.org/2000/svg" width="73" height="72" viewBox="0 0 73 72" fill="none">
  <g clip-path="url(#clip0_165_18841)">
    <path d="M36.6649 72C56.5472 72 72.6649 55.8823 72.6649 36C72.6649 16.1177 56.5472 0 36.6649 0C16.7827 0 0.664917 16.1177 0.664917 36C0.664917 55.8823 16.7827 72 36.6649 72Z" fill="#2775CA"/>
    <path d="M29.9149 61.0312C29.9149 61.875 29.2399 62.3531 28.4524 62.1C17.5399 58.6125 9.66492 48.4312 9.66492 36.3656C9.66492 24.3281 17.5399 14.1187 28.4524 10.6312C29.268 10.3781 29.9149 10.8562 29.9149 11.7V13.8093C29.9149 14.3718 29.493 15.0187 28.9587 15.2156C20.3243 18.3937 14.1649 26.6906 14.1649 36.3656C14.1649 46.0687 20.3243 54.3375 28.9587 57.4875C29.493 57.6843 29.9149 58.3312 29.9149 58.8937V61.0312Z" fill="white"/>
    <path d="M38.9149 53.2407C38.9149 53.8595 38.4087 54.3657 37.7899 54.3657H35.5399C34.9212 54.3657 34.4149 53.8595 34.4149 53.2407V49.697C29.493 49.022 27.1024 46.2938 26.4555 42.5251C26.343 41.8782 26.8493 41.3157 27.4962 41.3157H30.0555C30.5899 41.3157 31.0399 41.7095 31.1524 42.2157C31.6305 44.4376 32.9243 46.1532 36.8618 46.1532C39.7587 46.1532 41.8399 44.522 41.8399 42.1032C41.8399 39.6845 40.6305 38.7563 36.3555 38.0532C30.0555 37.2095 27.0743 35.297 27.0743 30.3751C27.0743 26.5782 29.9712 23.597 34.4149 22.9782V19.4907C34.4149 18.872 34.9212 18.3657 35.5399 18.3657H37.7899C38.4087 18.3657 38.9149 18.872 38.9149 19.4907V23.0626C42.543 23.7095 44.8493 25.7626 45.6087 29.1938C45.7493 29.8407 45.243 30.4313 44.568 30.4313H42.2055C41.6993 30.4313 41.2774 30.0938 41.1368 29.6157C40.4899 27.4501 38.943 26.4938 36.243 26.4938C33.2618 26.4938 31.7149 27.9282 31.7149 29.9532C31.7149 32.0907 32.5868 33.1595 37.1712 33.8063C43.3587 34.6501 46.5649 36.422 46.5649 41.6813C46.5649 45.6751 43.5837 48.9095 38.943 49.6407V53.2407H38.9149Z" fill="white"/>
    <path d="M44.8774 62.0999C44.0618 62.353 43.4149 61.8749 43.4149 61.0311V58.9217C43.4149 58.303 43.7805 57.7124 44.3712 57.5155C52.9774 54.3655 59.1649 46.0686 59.1649 36.3936C59.1649 26.6905 53.0055 18.4217 44.3712 15.2717C43.8368 15.0749 43.4149 14.428 43.4149 13.8655V11.7561C43.4149 10.9124 44.0899 10.4342 44.8774 10.6874C55.7899 14.1186 63.6649 24.328 63.6649 36.3655C63.6649 48.4311 55.7899 58.6124 44.8774 62.0999Z" fill="white"/>
    <path d="M72.2711 49.8095C71.0618 48.9658 69.7399 48.0376 68.4743 47.1376C68.4461 47.1095 68.418 47.0814 68.3899 47.0814C68.2493 46.9689 68.0805 46.8564 67.8836 46.8001H67.8555C64.4524 45.9845 60.993 45.1408 57.6461 44.297C54.6086 43.5658 51.5711 42.8064 48.5336 42.0751C48.4493 42.047 48.3649 42.0189 48.2805 42.0189C47.9993 41.9345 47.6899 41.8501 47.3524 41.9064C47.2399 41.9345 47.1555 41.9626 47.0993 42.0189L47.0149 42.1033C46.8743 42.2439 46.818 42.3845 46.7618 42.497L46.7336 42.5533V42.8908L46.7618 42.947C48.6743 48.347 50.643 53.8314 52.5555 59.1189C54.018 63.197 55.5368 67.4158 57.0274 71.5783C57.1118 71.8595 57.393 72.0564 57.7024 72.0845H57.7868C58.0961 72.0845 58.3493 71.9439 58.4899 71.6908L64.0586 63.5345C65.4086 61.5658 66.7868 59.5689 68.1368 57.572C68.6993 56.7564 69.2618 55.9408 69.7961 55.1251C70.7243 53.7751 71.6524 52.397 72.5805 51.047L72.6368 50.9626V50.8783C72.6649 50.597 72.693 50.0908 72.2711 49.8095ZM65.7461 52.7908C64.4243 53.4658 63.1024 54.1689 61.7524 54.872L64.1149 52.3408C65.0993 51.272 66.1118 50.1751 67.1243 49.1064L67.1524 49.0783C67.2368 48.9658 67.3493 48.8533 67.4618 48.7408L67.7149 48.4876C68.2493 48.8533 68.7555 49.2189 69.2618 49.5845C69.6274 49.8376 69.993 50.1189 70.3868 50.372C68.7836 51.1876 67.2368 52.0033 65.7461 52.7908ZM62.3993 52.4533C61.3868 53.5501 60.3461 54.6751 59.3055 55.772C57.3086 53.3251 55.2555 50.8501 53.2586 48.4595C52.3586 47.3626 51.4586 46.2658 50.5586 45.197C50.3618 44.972 50.1649 44.7189 49.968 44.4658C49.8274 44.297 49.7149 44.1564 49.5743 43.9876C50.3899 44.2126 51.2055 44.4095 52.0211 44.5783C52.7243 44.747 53.4836 44.9158 54.1868 45.1126C58.2649 46.097 62.343 47.1095 66.4211 48.0939C65.0711 49.5564 63.7211 51.0189 62.3993 52.4533ZM58.8555 66.2064C58.9399 65.4751 59.0243 64.7158 59.0805 63.9564C59.1368 63.3658 59.2211 62.747 59.2774 62.1564C59.3899 61.2283 59.4743 60.2439 59.5586 59.2876L59.5868 59.1189C59.6711 58.5001 59.7274 57.8814 59.7836 57.2626C59.868 57.2064 59.9524 57.1783 60.0368 57.1501C60.1493 57.0939 60.2618 57.0658 60.3461 56.9814C61.9774 56.1376 63.6086 55.2658 65.2399 54.422C66.8711 53.5783 68.5305 52.7064 70.1899 51.8345C68.6711 54.0283 67.1805 56.222 65.718 58.3876C64.4524 60.2158 63.1586 62.1283 61.8649 63.9845C61.3586 64.7439 60.8243 65.5033 60.318 66.2345C59.7555 67.0501 59.1649 67.8939 58.6024 68.7376C58.6868 67.8939 58.7711 67.022 58.8555 66.2064ZM49.0399 45.647C48.9555 45.3939 48.843 45.1408 48.7586 44.8876C50.6711 47.1939 52.5836 49.5001 54.4399 51.7501C55.3961 52.9033 56.3805 54.0845 57.3368 55.2376C57.5336 55.4626 57.7305 55.6876 57.8993 55.9126C58.1524 56.1939 58.3774 56.5033 58.6305 56.7845C58.5461 57.5158 58.4618 58.247 58.4055 58.9501C58.3493 59.4564 58.293 59.9345 58.2368 60.4408C58.2086 60.7501 58.1805 61.0876 58.1243 61.397C58.068 61.8189 57.9555 62.8033 57.9555 62.8033V62.8595C57.8149 64.2939 57.6743 65.7283 57.5336 67.1345C57.4774 67.7251 57.4211 68.3158 57.3368 68.9064C57.3086 68.7939 57.2524 68.6814 57.2243 68.597C57.1118 68.3158 56.9993 68.0064 56.9149 67.7251L56.1555 65.6158C53.8211 58.9501 51.4305 52.3126 49.0399 45.647Z" fill="#EC0928"/>
  </g>
  <defs>
    <clipPath id="clip0_165_18841">
      <rect width="72" height="72" fill="white" transform="translate(0.664917)"/>
    </clipPath>
  </defs>
</svg>