<svg xmlns="http://www.w3.org/2000/svg" width="72" height="72" viewBox="0 0 72 72" fill="none">
  <g clip-path="url(#clip0_165_18823)">
    <path d="M35.9949 72C55.8771 72 71.9949 55.8823 71.9949 36C71.9949 16.1177 55.8771 0 35.9949 0C16.1126 0 -0.00512695 16.1177 -0.00512695 36C-0.00512695 55.8823 16.1126 72 35.9949 72Z" fill="#2775CA"/>
    <path d="M29.2449 61.0312C29.2449 61.875 28.5699 62.3531 27.7824 62.1C16.8699 58.6125 8.99487 48.4312 8.99487 36.3656C8.99487 24.3 16.8699 14.1187 27.7824 10.6312C28.598 10.3781 29.2449 10.8562 29.2449 11.7V13.8093C29.2449 14.3718 28.823 15.0187 28.2886 15.2156C19.6542 18.3937 13.4949 26.6906 13.4949 36.3656C13.4949 46.0406 19.6542 54.3375 28.2886 57.4875C28.823 57.6843 29.2449 58.3312 29.2449 58.8937V61.0312Z" fill="white"/>
    <path d="M38.2449 53.2407C38.2449 53.8595 37.7386 54.3657 37.1199 54.3657H34.8699C34.2511 54.3657 33.7449 53.8595 33.7449 53.2407V49.697C28.823 49.022 26.4324 46.2938 25.7855 42.5251C25.673 41.8782 26.1792 41.3157 26.8261 41.3157H29.3855C29.9199 41.3157 30.3699 41.7095 30.4824 42.2157C30.9605 44.4376 32.2542 46.1532 36.1917 46.1532C39.0886 46.1532 41.1699 44.522 41.1699 42.1032C41.1699 39.6845 39.9605 38.7563 35.6855 38.0532C29.3855 37.2095 26.4042 35.297 26.4042 30.3751C26.4042 26.5782 29.3011 23.597 33.7449 22.9782V19.4907C33.7449 18.872 34.2511 18.3657 34.8699 18.3657H37.1199C37.7386 18.3657 38.2449 18.872 38.2449 19.4907V23.0626C41.873 23.7095 44.1792 25.7626 44.9386 29.1938C45.0792 29.8407 44.573 30.4313 43.898 30.4313H41.5355C41.0292 30.4313 40.6074 30.0938 40.4667 29.6157C39.8199 27.4501 38.273 26.4938 35.573 26.4938C32.5917 26.4938 31.0449 27.9282 31.0449 29.9532C31.0449 32.0907 31.9167 33.1595 36.5011 33.8063C42.6886 34.6501 45.8949 36.422 45.8949 41.6813C45.8949 45.6751 42.9136 48.9095 38.273 49.6407V53.2407H38.2449Z" fill="white"/>
    <path d="M44.2074 62.0999C43.3917 62.353 42.7449 61.8749 42.7449 61.0311V58.9217C42.7449 58.303 43.1105 57.7124 43.7011 57.5155C52.3074 54.3655 58.4949 46.0686 58.4949 36.3936C58.4949 26.7186 52.3355 18.4217 43.7011 15.2717C43.1667 15.0749 42.7449 14.428 42.7449 13.8655V11.7561C42.7449 10.9124 43.4199 10.4342 44.2074 10.6874C55.1199 14.1186 62.9949 24.328 62.9949 36.3655C62.9949 48.403 55.1199 58.6124 44.2074 62.0999Z" fill="white"/>
    <path fill-rule="evenodd" clip-rule="evenodd" d="M54.3464 36.7031C64.094 36.7031 71.9949 44.604 71.9949 54.3516C71.9949 64.0991 64.094 72 54.3464 72C44.5989 72 36.698 64.0991 36.698 54.3516C36.698 44.604 44.5989 36.7031 54.3464 36.7031Z" fill="black"/>
    <path fill-rule="evenodd" clip-rule="evenodd" d="M46.2687 60.1655C46.3474 60.0803 46.4425 60.0119 46.5479 59.9644C46.6537 59.9169 46.7679 59.891 46.8837 59.8887H66.2141C66.2959 59.8899 66.3755 59.9146 66.4436 59.9599C66.5116 60.0052 66.5651 60.0693 66.5977 60.1444C66.6303 60.2195 66.6404 60.3022 66.6267 60.3829C66.6132 60.4636 66.5769 60.5387 66.5217 60.5992L62.4242 65.1487C62.3455 65.2339 62.2504 65.3022 62.1449 65.3498C62.0392 65.3973 61.925 65.4232 61.8091 65.4254H42.4664C42.3846 65.4243 42.305 65.3996 42.2369 65.3543C42.1689 65.309 42.1154 65.2449 42.0828 65.1698C42.0502 65.0947 42.0401 65.012 42.0536 64.9313C42.0671 64.8506 42.1036 64.7755 42.1587 64.715L46.2684 60.1655H46.2687ZM66.5403 56.3942C66.5954 56.4547 66.632 56.5298 66.6452 56.6105C66.6587 56.6912 66.6486 56.7739 66.6162 56.849C66.5836 56.9241 66.5302 56.9882 66.4621 57.0335C66.3941 57.0788 66.3145 57.1035 66.2326 57.1046L46.8961 57.1201C46.7802 57.1179 46.6661 57.092 46.5603 57.0445C46.4546 56.9969 46.3595 56.9286 46.281 56.8434L42.1528 52.3091C42.0977 52.2486 42.0612 52.1735 42.0477 52.0928C42.0342 52.012 42.0443 51.9294 42.0769 51.8543C42.1095 51.7792 42.163 51.715 42.231 51.6698C42.2991 51.6245 42.3787 51.5997 42.4605 51.5986L61.797 51.5831C61.9129 51.5854 62.0271 51.6113 62.1328 51.6588C62.2386 51.7063 62.3337 51.7747 62.4121 51.8599L66.5403 56.3942ZM46.2687 43.5546C46.3474 43.4694 46.4425 43.401 46.5479 43.3535C46.6537 43.306 46.7679 43.2801 46.8837 43.2778L66.2264 43.2933C66.308 43.2944 66.3879 43.3192 66.4559 43.3645C66.524 43.4097 66.5772 43.4739 66.6098 43.549C66.6424 43.6241 66.6525 43.7067 66.639 43.7875C66.6255 43.8682 66.589 43.9433 66.5338 44.0037L62.4242 48.5381C62.3455 48.6233 62.2504 48.6916 62.1449 48.7391C62.0392 48.7867 61.925 48.8125 61.8091 48.8148H42.4664C42.3846 48.8137 42.305 48.7889 42.2369 48.7436C42.1689 48.6984 42.1154 48.6342 42.0828 48.5591C42.0502 48.4841 42.0401 48.4014 42.0536 48.3206C42.0671 48.2399 42.1036 48.1648 42.1587 48.1044L46.2684 43.5549L46.2687 43.5546Z" fill="url(#paint0_linear_165_18823)"/>
  </g>
  <defs>
    <linearGradient id="paint0_linear_165_18823" x1="42.7845" y1="65.9134" x2="65.9007" y2="42.7972" gradientUnits="userSpaceOnUse">
      <stop stop-color="#9945FF"/>
      <stop offset="0.14" stop-color="#8A53F4"/>
      <stop offset="0.42" stop-color="#6377D6"/>
      <stop offset="0.79" stop-color="#24B0A7"/>
      <stop offset="0.99" stop-color="#00D18C"/>
      <stop offset="1" stop-color="#00D18C"/>
    </linearGradient>
    <clipPath id="clip0_165_18823">
      <rect width="72" height="72" fill="white" transform="translate(-0.00512695)"/>
    </clipPath>
  </defs>
</svg>