<svg xmlns="http://www.w3.org/2000/svg" width="73" height="72" viewBox="0 0 73 72" fill="none">
  <g clip-path="url(#clip0_165_18812)">
    <path d="M36.3301 72C56.2123 72 72.3301 55.8823 72.3301 36C72.3301 16.1177 56.2123 0 36.3301 0C16.4478 0 0.330078 16.1177 0.330078 36C0.330078 55.8823 16.4478 72 36.3301 72Z" fill="#2775CA"/>
    <path d="M29.5801 61.0312C29.5801 61.875 28.9051 62.3531 28.1176 62.1C17.2051 58.6125 9.33008 48.4312 9.33008 36.3656C9.33008 24.3281 17.2051 14.1187 28.1176 10.6312C28.9332 10.3781 29.5801 10.8562 29.5801 11.7V13.8093C29.5801 14.3718 29.1582 15.0187 28.6238 15.2156C19.9895 18.3937 13.8301 26.6906 13.8301 36.3656C13.8301 46.0687 19.9895 54.3375 28.6238 57.4875C29.1582 57.6843 29.5801 58.3312 29.5801 58.8937V61.0312Z" fill="white"/>
    <path d="M38.5801 53.2407C38.5801 53.8595 38.0738 54.3657 37.4551 54.3657H35.2051C34.5863 54.3657 34.0801 53.8595 34.0801 53.2407V49.697C29.1582 49.022 26.7676 46.2938 26.1207 42.5251C26.0082 41.8782 26.5145 41.3157 27.1613 41.3157H29.7207C30.2551 41.3157 30.7051 41.7095 30.8176 42.2157C31.2957 44.4376 32.5895 46.1532 36.527 46.1532C39.4238 46.1532 41.5051 44.522 41.5051 42.1032C41.5051 39.6845 40.2957 38.7563 36.0207 38.0532C29.7207 37.2095 26.7395 35.297 26.7395 30.3751C26.7395 26.5782 29.6363 23.597 34.0801 22.9782V19.4907C34.0801 18.872 34.5863 18.3657 35.2051 18.3657H37.4551C38.0738 18.3657 38.5801 18.872 38.5801 19.4907V23.0626C42.2082 23.7095 44.5145 25.7626 45.2738 29.1938C45.4145 29.8407 44.9082 30.4313 44.2332 30.4313H41.8707C41.3645 30.4313 40.9426 30.0938 40.802 29.6157C40.1551 27.4501 38.6082 26.4938 35.9082 26.4938C32.927 26.4938 31.3801 27.9282 31.3801 29.9532C31.3801 32.0907 32.252 33.1595 36.8363 33.8063C43.0238 34.6501 46.2301 36.422 46.2301 41.6813C46.2301 45.6751 43.2488 48.9095 38.6082 49.6407V53.2407H38.5801Z" fill="white"/>
    <path d="M44.5426 62.0999C43.727 62.353 43.0801 61.8749 43.0801 61.0311V58.9217C43.0801 58.303 43.4457 57.7124 44.0363 57.5155C52.6426 54.3655 58.8301 46.0686 58.8301 36.3936C58.8301 26.6905 52.6707 18.4217 44.0363 15.2717C43.502 15.0749 43.0801 14.428 43.0801 13.8655V11.7561C43.0801 10.9124 43.7551 10.4342 44.5426 10.6874C55.4551 14.1186 63.3301 24.328 63.3301 36.3655C63.3301 48.4311 55.4551 58.6124 44.5426 62.0999Z" fill="white"/>
    <path d="M62.9926 49.3596C62.2895 48.9377 61.3895 48.9377 60.602 49.3596L55.1176 52.5377L51.4051 54.6189L45.9207 57.7971C45.2176 58.2189 44.3176 58.2189 43.5301 57.7971L39.1707 55.3221C38.4676 54.9002 37.9895 54.1408 37.9895 53.3252V48.3752C37.9895 47.5596 38.4113 46.8002 39.1707 46.3783L43.4457 43.9596C44.1488 43.5377 45.0488 43.5377 45.8363 43.9596L50.1113 46.3783C50.8145 46.8002 51.2926 47.5596 51.2926 48.3752V51.5533L55.0051 49.4158V46.2377C55.0051 45.4221 54.5832 44.6627 53.8238 44.2408L45.8926 39.6846C45.1895 39.2627 44.2895 39.2627 43.502 39.6846L35.4863 44.2408C34.727 44.6627 34.3051 45.4221 34.3051 46.2377V55.4064C34.3051 56.2221 34.727 56.9814 35.4863 57.4033L43.5582 61.9596C44.2613 62.3814 45.1613 62.3814 45.9488 61.9596L51.4332 58.8658L55.1457 56.7283L60.6301 53.6346C61.3332 53.2127 62.2332 53.2127 63.0207 53.6346L67.2957 56.0533C67.9988 56.4752 68.477 57.2346 68.477 58.0502V62.9439C68.477 63.7596 68.0551 64.5189 67.2957 64.9408L63.0207 67.4158C62.3176 67.8377 61.4176 67.8377 60.6301 67.4158L56.3551 64.9971C55.652 64.5752 55.1738 63.8158 55.1738 63.0002V59.8221L51.4613 61.9596V65.1377C51.4613 65.9533 51.8832 66.7127 52.6426 67.1346L60.7145 71.6908C61.4176 72.1127 62.3176 72.1127 63.1051 71.6908L71.177 67.1346C71.8801 66.7127 72.3582 65.9533 72.3582 65.1377V55.9689C72.3582 55.1533 71.9363 54.3939 71.177 53.9721L62.9926 49.3596Z" fill="#8247E5"/>
  </g>
  <defs>
    <clipPath id="clip0_165_18812">
      <rect width="72" height="72" fill="white" transform="translate(0.330078)"/>
    </clipPath>
  </defs>
</svg>