<svg xmlns="http://www.w3.org/2000/svg" width="73" height="72" viewBox="0 0 73 72" fill="none">
  <g clip-path="url(#clip0_165_18795)">
    <path d="M36.665 72C56.5473 72 72.665 55.8823 72.665 36C72.665 16.1177 56.5473 0 36.665 0C16.7828 0 0.665039 16.1177 0.665039 36C0.665039 55.8823 16.7828 72 36.665 72Z" fill="#2775CA"/>
    <path d="M29.915 61.0312C29.915 61.875 29.24 62.3531 28.4525 62.1C17.54 58.6125 9.66504 48.4312 9.66504 36.3656C9.66504 24.3281 17.54 14.1187 28.4525 10.6312C29.2682 10.3781 29.915 10.8562 29.915 11.7V13.8093C29.915 14.3718 29.4932 15.0187 28.9588 15.2156C20.3244 18.3937 14.165 26.6906 14.165 36.3656C14.165 46.0687 20.3244 54.3375 28.9588 57.4875C29.4932 57.6843 29.915 58.3312 29.915 58.8937V61.0312Z" fill="white"/>
    <path d="M38.915 53.2407C38.915 53.8595 38.4088 54.3657 37.79 54.3657H35.54C34.9213 54.3657 34.415 53.8595 34.415 53.2407V49.697C29.4932 49.022 27.1025 46.2938 26.4557 42.5251C26.3432 41.8782 26.8494 41.3157 27.4963 41.3157H30.0557C30.59 41.3157 31.04 41.7095 31.1525 42.2157C31.6307 44.4376 32.9244 46.1532 36.8619 46.1532C39.7588 46.1532 41.84 44.522 41.84 42.1032C41.84 39.6845 40.6307 38.7563 36.3557 38.0532C30.0557 37.2095 27.0744 35.297 27.0744 30.3751C27.0744 26.5782 29.9713 23.597 34.415 22.9782V19.4907C34.415 18.872 34.9213 18.3657 35.54 18.3657H37.79C38.4088 18.3657 38.915 18.872 38.915 19.4907V23.0626C42.5432 23.7095 44.8494 25.7626 45.6088 29.1938C45.7494 29.8407 45.2432 30.4313 44.5682 30.4313H42.2057C41.6994 30.4313 41.2775 30.0938 41.1369 29.6157C40.49 27.4501 38.9432 26.4938 36.2432 26.4938C33.2619 26.4938 31.715 27.9282 31.715 29.9532C31.715 32.0907 32.5869 33.1595 37.1713 33.8063C43.3588 34.6501 46.565 36.422 46.565 41.6813C46.565 45.6751 43.5838 48.9095 38.9432 49.6407V53.2407H38.915Z" fill="white"/>
    <path d="M44.8775 62.0999C44.0619 62.353 43.415 61.8749 43.415 61.0311V58.9217C43.415 58.303 43.7807 57.7124 44.3713 57.5155C52.9775 54.3655 59.165 46.0686 59.165 36.3936C59.165 26.6905 53.0057 18.4217 44.3713 15.2717C43.8369 15.0749 43.415 14.428 43.415 13.8655V11.7561C43.415 10.9124 44.09 10.4342 44.8775 10.6874C55.79 14.1186 63.665 24.328 63.665 36.3655C63.665 48.4311 55.79 58.6124 44.8775 62.0999Z" fill="white"/>
    <path d="M50.615 54.675L61.64 61.0875V36.7031L50.615 54.675Z" fill="#D7D7D7"/>
    <path d="M61.64 36.7031V61.0875L72.665 54.675L61.64 36.7031Z" fill="#878787"/>
    <path d="M61.64 49.7529L72.665 54.6748L61.64 61.0873V49.7529Z" fill="white"/>
    <path d="M61.64 49.7529V61.0873L50.615 54.6748L61.64 49.7529Z" fill="#999999"/>
    <path d="M50.615 56.728L61.64 71.9999V63.1405L50.615 56.728Z" fill="#D7D7D7"/>
    <path d="M61.64 63.1405V71.9999L72.665 56.728L61.64 63.1405Z" fill="#878787"/>
  </g>
  <defs>
    <clipPath id="clip0_165_18795">
      <rect width="72" height="72" fill="white" transform="translate(0.665039)"/>
    </clipPath>
  </defs>
</svg>