<svg xmlns="http://www.w3.org/2000/svg" width="72" height="72" viewBox="0 0 72 72" fill="none">
  <g clip-path="url(#clip0_165_18782)">
    <path d="M35.9949 72C55.8771 72 71.9949 55.8823 71.9949 36C71.9949 16.1177 55.8771 0 35.9949 0C16.1126 0 -0.00512695 16.1177 -0.00512695 36C-0.00512695 55.8823 16.1126 72 35.9949 72Z" fill="#2775CA"/>
    <path d="M29.2449 61.0312C29.2449 61.875 28.5699 62.3531 27.7824 62.1C16.8699 58.6125 8.99487 48.4312 8.99487 36.3656C8.99487 24.3281 16.8699 14.1187 27.7824 10.6312C28.598 10.3781 29.2449 10.8562 29.2449 11.7V13.8093C29.2449 14.3718 28.823 15.0187 28.2886 15.2156C19.6542 18.3937 13.4949 26.6906 13.4949 36.3656C13.4949 46.0687 19.6542 54.3375 28.2886 57.4875C28.823 57.6843 29.2449 58.3312 29.2449 58.8937V61.0312Z" fill="white"/>
    <path d="M38.2449 53.2407C38.2449 53.8595 37.7386 54.3657 37.1199 54.3657H34.8699C34.2511 54.3657 33.7449 53.8595 33.7449 53.2407V49.697C28.823 49.022 26.4324 46.2938 25.7855 42.5251C25.673 41.8782 26.1792 41.3157 26.8261 41.3157H29.3855C29.9199 41.3157 30.3699 41.7095 30.4824 42.2157C30.9605 44.4376 32.2542 46.1532 36.1917 46.1532C39.0886 46.1532 41.1699 44.522 41.1699 42.1032C41.1699 39.6845 39.9605 38.7563 35.6855 38.0532C29.3855 37.2095 26.4042 35.297 26.4042 30.3751C26.4042 26.5782 29.3011 23.597 33.7449 22.9782V19.4907C33.7449 18.872 34.2511 18.3657 34.8699 18.3657H37.1199C37.7386 18.3657 38.2449 18.872 38.2449 19.4907V23.0626C41.873 23.7095 44.1792 25.7626 44.9386 29.1938C45.0792 29.8407 44.573 30.4313 43.898 30.4313H41.5355C41.0292 30.4313 40.6074 30.0938 40.4667 29.6157C39.8199 27.4501 38.273 26.4938 35.573 26.4938C32.5917 26.4938 31.0449 27.9282 31.0449 29.9532C31.0449 32.0907 31.9167 33.1595 36.5011 33.8063C42.6886 34.6501 45.8949 36.422 45.8949 41.6813C45.8949 45.6751 42.9136 48.9095 38.273 49.6407V53.2407H38.2449Z" fill="white"/>
    <path d="M44.2074 62.0999C43.3917 62.353 42.7449 61.8749 42.7449 61.0311V58.9217C42.7449 58.303 43.1105 57.7124 43.7011 57.5155C52.3074 54.3655 58.4949 46.0686 58.4949 36.3936C58.4949 26.6905 52.3355 18.4217 43.7011 15.2717C43.1667 15.0749 42.7449 14.428 42.7449 13.8655V11.7561C42.7449 10.9124 43.4199 10.4342 44.2074 10.6874C55.1199 14.1186 62.9949 24.328 62.9949 36.3655C62.9949 48.4311 55.1199 58.6124 44.2074 62.0999Z" fill="white"/>
    <path fill-rule="evenodd" clip-rule="evenodd" d="M54.3605 36.7031C64.1199 36.7031 72.023 44.6063 72.023 54.3656C72.023 64.125 64.0917 72 54.3605 72C44.6292 72 36.698 64.0969 36.698 54.3375C36.698 44.5781 44.6011 36.7031 54.3605 36.7031Z" fill="black"/>
    <path d="M46.4011 54.3657V59.0345L50.3667 61.3688V64.097L44.0948 60.4126V53.0157L46.4011 54.3657ZM46.4011 49.697V52.4251L44.0948 51.047V48.3188L46.4011 46.9407L48.7355 48.3188L46.4011 49.697ZM52.0261 48.3188L54.3323 46.9407L56.6667 48.3188L54.3323 49.697L52.0261 48.3188ZM48.0605 58.0501V55.322L50.3667 56.7001V59.4282L48.0605 58.0501ZM52.0261 62.3251L54.3323 63.7032L56.6667 62.3251V65.0532L54.3323 66.4313L52.0261 65.0532V62.3251ZM59.9855 48.3188L62.2917 46.9407L64.6261 48.3188V51.047L62.2917 52.4251V49.697L59.9855 48.3188ZM62.2917 59.0063V54.3376L64.598 52.9595V60.3563L58.3261 64.0407V61.3126L62.2917 59.0063ZM60.6323 58.0501L58.3261 59.4001V56.672L60.6323 55.2938V58.0501ZM60.6323 50.6532V53.3813L56.6667 55.7157V60.3845L54.3605 61.7345L52.0542 60.3845V55.7157L48.0886 53.3813V50.6532L50.3948 49.2751L54.3605 51.6095L58.3261 49.2751L60.6323 50.6532ZM48.0605 45.9845L54.3323 42.272L60.6042 45.9845L58.298 47.3626L54.3323 45.0282L50.3667 47.3626L48.0605 45.9845Z" fill="#F0B90B"/>
  </g>
  <defs>
    <clipPath id="clip0_165_18782">
      <rect width="72" height="72" fill="white" transform="translate(-0.00512695)"/>
    </clipPath>
  </defs>
</svg>