<svg xmlns="http://www.w3.org/2000/svg" width="73" height="72" viewBox="0 0 73 72" fill="none">
  <g clip-path="url(#clip0_165_18885)">
    <path fill-rule="evenodd" clip-rule="evenodd" d="M13.2106 7.50946L0.0762599 35.072C-0.0362401 35.2688 0.0200099 35.522 0.18876 35.6907L35.6544 69.6657C35.8513 69.8626 36.1888 69.8626 36.4138 69.6657L71.8513 35.7188C72.02 35.5501 72.0763 35.297 71.9638 35.1001L58.8294 7.53759C58.745 7.34071 58.5481 7.22821 58.3513 7.22821H13.6888C13.4919 7.20009 13.295 7.34071 13.2106 7.50946Z" fill="#50AF95"/>
    <path fill-rule="evenodd" clip-rule="evenodd" d="M40.5762 37.9406C40.3231 37.9687 39.0012 38.025 36.0762 38.025C33.7419 38.025 32.0825 37.9687 31.4919 37.9406C22.4637 37.5469 15.7419 35.9719 15.7419 34.0875C15.7419 32.2031 22.4637 30.6281 31.4919 30.2344V36.3656C32.0825 36.4219 33.77 36.5063 36.1044 36.5063C38.9169 36.5063 40.295 36.3938 40.5481 36.3656V30.2344C49.5481 30.6281 56.27 32.2031 56.27 34.0875C56.27 35.9719 49.5762 37.5187 40.5762 37.9406ZM40.5762 29.6156V24.1031H53.1481V15.75H18.9481V24.1313H31.4919V29.6156C21.2825 30.0938 13.6044 32.1188 13.6044 34.5375C13.6044 36.9563 21.2825 38.9813 31.4919 39.4594V57.0375H40.5762V39.4594C50.7575 38.9813 58.4075 36.9844 58.4075 34.5375C58.4075 32.0906 50.7575 30.0656 40.5762 29.6156Z" fill="white"/>
    <path d="M62.6825 49.3596C61.9794 48.9377 61.0794 48.9377 60.2919 49.3596L54.8075 52.5377L51.095 54.6189L45.6107 57.7971C44.9075 58.2189 44.0075 58.2189 43.22 57.7971L38.8607 55.3221C38.1575 54.9002 37.6794 54.1408 37.6794 53.3252V48.3752C37.6794 47.5596 38.1013 46.8002 38.8607 46.3783L43.1357 43.9596C43.8388 43.5377 44.7388 43.5377 45.5263 43.9596L49.8013 46.3783C50.5044 46.8002 50.9825 47.5596 50.9825 48.3752V51.5533L54.695 49.4158V46.2377C54.695 45.4221 54.2731 44.6627 53.5138 44.2408L45.5825 39.6846C44.8794 39.2627 43.9794 39.2627 43.1919 39.6846L35.1763 44.2408C34.4169 44.6627 33.995 45.4221 33.995 46.2377V55.4064C33.995 56.2221 34.4169 56.9814 35.1763 57.4033L43.2481 61.9596C43.9513 62.3814 44.8513 62.3814 45.6388 61.9596L51.1231 58.8658L54.8356 56.7283L60.32 53.6346C61.0231 53.2127 61.9231 53.2127 62.7106 53.6346L66.9857 56.0533C67.6888 56.4752 68.1669 57.2346 68.1669 58.0502V62.9439C68.1669 63.7596 67.745 64.5189 66.9857 64.9408L62.7106 67.4158C62.0075 67.8377 61.1075 67.8377 60.32 67.4158L56.045 64.9971C55.3419 64.5752 54.8638 63.8158 54.8638 63.0002V59.8221L51.1513 61.9596V65.1377C51.1513 65.9533 51.5732 66.7127 52.3325 67.1346L60.4044 71.6908C61.1075 72.1127 62.0075 72.1127 62.795 71.6908L70.8669 67.1346C71.57 66.7127 72.0482 65.9533 72.0482 65.1377V55.9689C72.0482 55.1533 71.6263 54.3939 70.8669 53.9721L62.6825 49.3596Z" fill="#8247E5"/>
  </g>
  <defs>
    <clipPath id="clip0_165_18885">
      <rect width="72" height="72" fill="white" transform="translate(0.0200195)"/>
    </clipPath>
  </defs>
</svg>