<svg xmlns="http://www.w3.org/2000/svg" width="73" height="72" viewBox="0 0 73 72" fill="none">
  <g clip-path="url(#clip0_165_18869)">
    <path fill-rule="evenodd" clip-rule="evenodd" d="M14.0082 7.60111L0.895881 35.1432C0.794758 35.3539 0.839701 35.6067 1.01105 35.7668L36.424 69.6994C36.6318 69.8989 36.9633 69.8989 37.1712 69.6994L72.5841 35.7668C72.7554 35.6067 72.8004 35.3539 72.6992 35.1432L59.5869 7.60392C59.4998 7.41572 59.3116 7.29493 59.1037 7.29493H14.497C14.3952 7.29433 14.2954 7.32283 14.2093 7.37708C14.1232 7.43132 14.0544 7.50906 14.011 7.60111H14.0082Z" fill="#50AF95"/>
    <path fill-rule="evenodd" clip-rule="evenodd" d="M41.3481 37.972C41.0925 37.9917 39.7807 38.0703 36.8509 38.0703C34.5195 38.0703 32.865 38.0001 32.2863 37.972C23.2807 37.5759 16.5588 36.0085 16.5588 34.1321C16.5588 32.2557 23.2807 30.6883 32.2863 30.2866V36.4102C32.8762 36.4523 34.5616 36.5535 36.8931 36.5535C39.6908 36.5535 41.0897 36.4383 41.3425 36.413V30.2894C50.3284 30.6911 57.0363 32.2585 57.0363 34.1293C57.0363 36.0001 50.3313 37.5703 41.3425 37.9692H41.3509L41.3481 37.972ZM41.3481 29.6574V24.1771H53.8902V15.8203H19.7414V24.1771H32.2807V29.6546C22.0869 30.1237 14.424 32.1405 14.424 34.5619C14.424 36.9832 22.0897 38.9973 32.2807 39.4692V57.0338H41.3453V39.4636C51.5138 38.9945 59.1683 36.9776 59.1683 34.5619C59.1683 32.1462 51.5223 30.1265 41.3453 29.6574H41.3481Z" fill="white"/>
    <path fill-rule="evenodd" clip-rule="evenodd" d="M55.0335 36.7471C64.7695 36.7471 72.6599 44.6375 72.6599 54.3735C72.6599 64.1094 64.7695 71.9999 55.0335 71.9999C45.2976 71.9999 37.4071 64.1094 37.4071 54.3735C37.4071 44.6375 45.2976 36.7471 55.0335 36.7471Z" fill="#F0B90B"/>
    <path d="M47.0954 54.3737L47.1094 59.0338L51.0701 61.3653V64.0928L44.792 60.4102V53.0085L47.0982 54.3709L47.0954 54.3737ZM47.0954 49.7136V52.4299L44.7892 51.0647V48.3484L47.0954 46.9832L49.4128 48.3484L47.0954 49.7136ZM52.7218 48.3484L55.0279 46.9832L57.3454 48.3484L55.0279 49.7136L52.7218 48.3484ZM48.7611 58.0675V55.34L51.0673 56.7051V59.4214L48.7611 58.0703V58.0675ZM52.7218 62.34L55.0279 63.7051L57.3454 62.34V65.0563L55.0279 66.4214L52.7218 65.0563V62.34ZM60.6544 48.3456L62.9605 46.9804L65.2779 48.3456V51.0619L62.9605 52.4271V49.7108L60.6544 48.3456ZM62.9605 59.031L62.9746 54.3709L65.2808 53.0057V60.4074L59.0027 64.09V61.3624L62.9605 59.0338V59.031ZM61.306 58.0647L58.9999 59.4158V56.6995L61.306 55.3344V58.0619V58.0647ZM61.306 50.6742L61.3201 53.4018L57.3482 55.7332V60.4046L55.042 61.7557L52.7358 60.4046V55.7332L48.7639 53.4018V50.6742L51.0813 49.3091L55.0279 51.6518L58.9999 49.3091L61.3173 50.6742H61.306ZM48.7611 46.0141L55.0279 42.3203L61.306 46.0141L58.9999 47.3793L55.0279 45.0366L51.0673 47.3793L48.7611 46.0141Z" fill="white"/>
  </g>
  <defs>
    <clipPath id="clip0_165_18869">
      <rect width="72" height="72" fill="white" transform="translate(0.659912)"/>
    </clipPath>
  </defs>
</svg>