<svg xmlns="http://www.w3.org/2000/svg" width="73" height="72" viewBox="0 0 73 72" fill="none">
  <g clip-path="url(#clip0_165_18877)">
    <path fill-rule="evenodd" clip-rule="evenodd" d="M13.8209 7.60111L0.708534 35.1432C0.60741 35.3539 0.652354 35.6067 0.823702 35.7668L36.2366 69.6994C36.4445 69.8989 36.7759 69.8989 36.9838 69.6994L72.3967 35.7668C72.5681 35.6067 72.613 35.3539 72.5119 35.1432L59.3995 7.60392C59.3125 7.41572 59.1243 7.29493 58.9164 7.29493H14.3097C14.2079 7.29433 14.1081 7.32283 14.022 7.37708C13.9359 7.43132 13.8671 7.50906 13.8237 7.60111H13.8209Z" fill="#50AF95"/>
    <path fill-rule="evenodd" clip-rule="evenodd" d="M41.1608 37.972C40.9052 37.9917 39.5934 38.0703 36.6636 38.0703C34.3321 38.0703 32.6776 38.0001 32.099 37.972C23.0934 37.5759 16.3715 36.0085 16.3715 34.1321C16.3715 32.2557 23.0934 30.6883 32.099 30.2866V36.4102C32.6889 36.4523 34.3743 36.5535 36.7057 36.5535C39.5035 36.5535 40.9024 36.4383 41.1552 36.413V30.2894C50.1411 30.6911 56.849 32.2585 56.849 34.1293C56.849 36.0001 50.1439 37.5703 41.1552 37.9692H41.1636L41.1608 37.972ZM41.1608 29.6574V24.1771H53.7029V15.8203H19.554V24.1771H32.0934V29.6546C21.8995 30.1237 14.2366 32.1405 14.2366 34.5619C14.2366 36.9832 21.9024 38.9973 32.0934 39.4692V57.0338H41.158V39.4636C51.3265 38.9945 58.981 36.9776 58.981 34.5619C58.981 32.1462 51.3349 30.1265 41.158 29.6574H41.1608Z" fill="white"/>
    <path fill-rule="evenodd" clip-rule="evenodd" d="M54.7535 36.7471C64.4894 36.7471 72.3799 44.6375 72.3799 54.3735C72.3799 64.1094 64.4894 71.9999 54.7535 71.9999C45.0175 71.9999 37.1271 64.1094 37.1271 54.3735C37.1271 44.6375 45.0175 36.7471 54.7535 36.7471Z" fill="black"/>
    <path d="M46.8153 54.3737L46.8293 59.0338L50.79 61.3653V64.0928L44.5119 60.4102V53.0085L46.8181 54.3709L46.8153 54.3737ZM46.8153 49.7136V52.4299L44.5091 51.0647V48.3484L46.8153 46.9832L49.1327 48.3484L46.8153 49.7136ZM52.4417 48.3484L54.7479 46.9832L57.0653 48.3484L54.7479 49.7136L52.4417 48.3484ZM48.481 58.0675V55.34L50.7872 56.7051V59.4214L48.481 58.0703V58.0675ZM52.4417 62.34L54.7479 63.7051L57.0653 62.34V65.0563L54.7479 66.4214L52.4417 65.0563V62.34ZM60.3743 48.3456L62.6804 46.9804L64.9979 48.3456V51.0619L62.6804 52.4271V49.7108L60.3743 48.3456ZM62.6804 59.031L62.6945 54.3709L65.0007 53.0057V60.4074L58.7226 64.09V61.3624L62.6804 59.0338V59.031ZM61.0259 58.0647L58.7198 59.4158V56.6995L61.0259 55.3344V58.0619V58.0647ZM61.0259 50.6742L61.04 53.4018L57.0681 55.7332V60.4046L54.7619 61.7557L52.4557 60.4046V55.7332L48.4838 53.4018V50.6742L50.8012 49.3091L54.7479 51.6518L58.7198 49.3091L61.0372 50.6742H61.0259ZM48.481 46.0141L54.7479 42.3203L61.0259 46.0141L58.7198 47.3793L54.7479 45.0366L50.7872 47.3793L48.481 46.0141Z" fill="#F0B90B"/>
  </g>
  <defs>
    <clipPath id="clip0_165_18877">
      <rect width="72" height="72" fill="white" transform="translate(0.379883)"/>
    </clipPath>
  </defs>
</svg>