<svg xmlns="http://www.w3.org/2000/svg" width="73" height="72" viewBox="0 0 73 72" fill="none">
  <g clip-path="url(#clip0_165_18893)">
    <path fill-rule="evenodd" clip-rule="evenodd" d="M13.8721 7.52044L0.743391 35.097C0.642141 35.3079 0.687141 35.5611 0.858703 35.7214L36.3159 69.6964C36.524 69.8961 36.8559 69.8961 37.064 69.6964L72.5212 35.7214C72.6928 35.5611 72.7378 35.3079 72.6365 35.097L59.5078 7.52325C59.4206 7.33481 59.2321 7.21388 59.024 7.21388H14.3615C14.2596 7.21327 14.1597 7.24181 14.0735 7.29612C13.9873 7.35044 13.9184 7.42827 13.875 7.52044H13.8721Z" fill="#50AF95"/>
    <path fill-rule="evenodd" clip-rule="evenodd" d="M41.2462 37.9294C40.9903 37.9491 39.6768 38.0278 36.7434 38.0278C34.409 38.0278 32.7525 37.9575 32.1731 37.9294C23.1562 37.5328 16.4259 35.9634 16.4259 34.0847C16.4259 32.2059 23.1562 30.6366 32.1731 30.2344V36.3656C32.7637 36.4078 34.4512 36.5091 36.7856 36.5091C39.5868 36.5091 40.9875 36.3937 41.2406 36.3684V30.2372C50.2378 30.6394 56.954 32.2087 56.954 34.0819C56.954 35.955 50.2406 37.5272 41.2406 37.9266H41.249L41.2462 37.9294ZM41.2462 29.6044V24.1172H53.804V15.75H19.6125V24.1172H32.1675V29.6016C21.9609 30.0712 14.2884 32.0906 14.2884 34.515C14.2884 36.9394 21.9637 38.9559 32.1675 39.4284V57.015H41.2434V39.4228C51.4246 38.9531 59.0887 36.9338 59.0887 34.515C59.0887 32.0963 51.4331 30.0741 41.2434 29.6044H41.2462Z" fill="white"/>
    <path fill-rule="evenodd" clip-rule="evenodd" d="M55.0415 36.7031C64.7896 36.7031 72.6899 44.6034 72.6899 54.3516C72.6899 64.0997 64.7896 72 55.0415 72C45.2934 72 37.3931 64.0997 37.3931 54.3516C37.3931 44.6034 45.2934 36.7031 55.0415 36.7031Z" fill="black"/>
    <path fill-rule="evenodd" clip-rule="evenodd" d="M46.964 60.1649C47.0427 60.0806 47.1384 60.0103 47.2424 59.9624C47.3493 59.9146 47.4618 59.8893 47.5771 59.8865H66.9074C66.989 59.8865 67.0677 59.9118 67.1381 59.9568C67.2056 60.0018 67.259 60.0665 67.2927 60.1424C67.3265 60.2184 67.3349 60.2999 67.3209 60.3815C67.3068 60.4631 67.2702 60.5362 67.2168 60.5981L63.119 65.1487C63.0402 65.2331 62.9446 65.3034 62.8406 65.3512C62.7337 65.399 62.6212 65.4243 62.5059 65.4271H43.1643C43.0827 65.4271 43.004 65.4018 42.9337 65.3568C42.8662 65.3118 42.8127 65.2471 42.779 65.1712C42.7452 65.0953 42.7368 65.0137 42.7509 64.9321C42.7649 64.8506 42.8015 64.7774 42.8549 64.7156L46.964 60.1649ZM67.2365 56.3934C67.2927 56.4524 67.3293 56.5284 67.3406 56.6099C67.3546 56.6915 67.3434 56.7731 67.3124 56.849C67.2787 56.9249 67.2252 56.9868 67.1577 57.0346C67.0902 57.0796 67.0115 57.1049 66.9271 57.1049L47.5912 57.119C47.4759 57.119 47.3606 57.0909 47.2565 57.0431C47.1496 56.9953 47.0568 56.9278 46.9781 56.8406L42.8493 52.3068C42.7931 52.2478 42.7565 52.1718 42.7452 52.0903C42.7312 52.0087 42.7424 51.9271 42.7734 51.8512C42.8071 51.7753 42.8606 51.7134 42.9281 51.6656C42.9956 51.6206 43.0771 51.5953 43.1587 51.5953L62.4946 51.5812C62.6099 51.5812 62.7252 51.6093 62.8293 51.6571C62.9362 51.7049 63.029 51.7724 63.1077 51.8596L67.2365 56.3934ZM46.964 43.5543C47.0427 43.4699 47.1384 43.3996 47.2424 43.3518C47.3493 43.304 47.4618 43.2787 47.5771 43.2759L66.9187 43.2899C67.0002 43.2899 67.079 43.3153 67.1493 43.3603C67.2168 43.4053 67.2702 43.4699 67.304 43.5459C67.3377 43.6218 67.3462 43.7034 67.3321 43.7849C67.3181 43.8665 67.2815 43.9396 67.2281 44.0015L63.119 48.5353C63.0402 48.6196 62.9446 48.6899 62.8406 48.7378C62.7337 48.7856 62.6212 48.8109 62.5059 48.8137H43.1643C43.0827 48.8137 43.004 48.7884 42.9337 48.7434C42.8662 48.6984 42.8127 48.6337 42.779 48.5578C42.7452 48.4818 42.7368 48.4003 42.7509 48.3187C42.7649 48.2371 42.8015 48.164 42.8549 48.1021L46.964 43.5515V43.5543Z" fill="url(#paint0_linear_165_18893)"/>
  </g>
  <defs>
    <linearGradient id="paint0_linear_165_18893" x1="43.4793" y1="65.9137" x2="66.5952" y2="42.7978" gradientUnits="userSpaceOnUse">
      <stop stop-color="#9945FF"/>
      <stop offset="0.14" stop-color="#8A53F4"/>
      <stop offset="0.42" stop-color="#6377D6"/>
      <stop offset="0.79" stop-color="#24B0A7"/>
      <stop offset="0.99" stop-color="#00D18C"/>
      <stop offset="1" stop-color="#00D18C"/>
    </linearGradient>
    <clipPath id="clip0_165_18893">
      <rect width="72" height="72" fill="white" transform="translate(0.689941)"/>
    </clipPath>
  </defs>
</svg>