<svg xmlns="http://www.w3.org/2000/svg" width="73" height="72" viewBox="0 0 73 72" fill="none">
  <g clip-path="url(#clip0_165_18862)">
    <path fill-rule="evenodd" clip-rule="evenodd" d="M14.1705 7.50946L1.03613 35.072C0.923629 35.2688 0.979879 35.522 1.14863 35.6907L36.6143 69.6657C36.8111 69.8626 37.1486 69.8626 37.3736 69.6657L72.8111 35.7188C72.9799 35.5501 73.0361 35.297 72.9236 35.1001L59.7893 7.53759C59.7049 7.34071 59.508 7.22821 59.3111 7.22821H14.6486C14.4518 7.20009 14.2549 7.34071 14.1705 7.50946Z" fill="#50AF95"/>
    <path fill-rule="evenodd" clip-rule="evenodd" d="M41.5361 37.9406C41.283 37.9687 39.9611 38.025 37.0361 38.025C34.7018 38.025 33.0424 37.9687 32.4518 37.9406C23.4236 37.5469 16.7018 35.9719 16.7018 34.0875C16.7018 32.2031 23.4236 30.6281 32.4518 30.2344V36.3656C33.0424 36.4219 34.7299 36.5063 37.0643 36.5063C39.8768 36.5063 41.2549 36.3938 41.508 36.3656V30.2344C50.508 30.6281 57.2299 32.2031 57.2299 34.0875C57.2299 35.9719 50.5361 37.5187 41.5361 37.9406ZM41.5361 29.6156V24.1031H54.108V15.75H19.908V24.1313H32.4518V29.6156C22.2424 30.0938 14.5643 32.1188 14.5643 34.5375C14.5643 36.9563 22.2424 38.9813 32.4518 39.4594V57.0375H41.5361V39.4594C51.7174 38.9813 59.3674 36.9844 59.3674 34.5375C59.3674 32.0906 51.7174 30.0656 41.5361 29.6156Z" fill="white"/>
  </g>
  <defs>
    <clipPath id="clip0_165_18862">
      <rect width="72" height="72" fill="white" transform="translate(0.979858)"/>
    </clipPath>
  </defs>
</svg>