<svg xmlns="http://www.w3.org/2000/svg" width="73" height="72" viewBox="0 0 73 72" fill="none">
  <g clip-path="url(#clip0_165_18901)">
    <path fill-rule="evenodd" clip-rule="evenodd" d="M13.5894 7.61272L0.470387 35.143C0.358019 35.3396 0.414203 35.5924 0.582755 35.761L36.0069 69.6962C36.2035 69.8929 36.5406 69.8929 36.7654 69.6962L72.1895 35.761C72.358 35.5924 72.4142 35.3396 72.3018 35.143L59.1828 7.61272C59.0986 7.41608 58.9019 7.30371 58.7053 7.30371H14.067C13.8703 7.30371 13.6737 7.41608 13.5894 7.61272Z" fill="#50AF95"/>
    <path fill-rule="evenodd" clip-rule="evenodd" d="M40.923 37.9801C40.6701 38.0082 39.3498 38.0644 36.4282 38.0644C34.0966 38.0644 32.4392 38.0082 31.8492 37.9801C22.8317 37.5868 16.1177 36.0136 16.1177 34.1315C16.1177 32.2493 22.8317 30.6761 31.8492 30.2829V36.4069C32.4392 36.4631 34.1247 36.5474 36.4563 36.5474C39.2655 36.5474 40.642 36.435 40.8949 36.4069V30.2829C49.8843 30.6761 56.5984 32.2493 56.5984 34.1315C56.6264 36.0136 49.9124 37.5868 40.923 37.9801ZM40.923 29.6648V24.1869H53.4801V15.8154H19.3202V24.1869H31.8492V29.6648C21.6518 30.1424 13.9827 32.165 13.9827 34.5809C13.9827 36.9969 21.6518 39.0195 31.8492 39.4971V57.0265H40.923V39.469C51.0923 38.9914 58.7333 36.9969 58.7333 34.5528C58.7333 32.1088 51.0923 30.1143 40.923 29.6648Z" fill="white"/>
    <path d="M71.9367 49.8632C70.7287 49.0205 69.4084 48.0934 68.1443 47.1945C68.1162 47.1664 68.0881 47.1383 68.06 47.1383C67.9195 47.0259 67.751 46.9136 67.5543 46.8574H67.5262C64.1271 46.0427 60.6718 45.2 57.3288 44.3572C54.2949 43.6268 51.2609 42.8683 48.227 42.1379C48.1427 42.1098 48.0584 42.0817 47.9741 42.0817C47.6932 41.9975 47.3842 41.9132 47.0471 41.9694C46.9347 41.9975 46.8505 42.0256 46.7943 42.0817L46.71 42.166C46.5695 42.3065 46.5134 42.4469 46.4572 42.5593L46.4291 42.6155V42.9526L46.4572 43.0088C48.3674 48.4025 50.3339 53.8804 52.2441 59.1617C53.7049 63.2351 55.2219 67.4489 56.7108 71.6065C56.7951 71.8874 57.076 72.0841 57.385 72.1122H57.4693C57.7783 72.1122 58.0311 71.9717 58.1716 71.7189L63.7338 63.5722C65.0822 61.6057 66.4587 59.6112 67.8071 57.6167C68.369 56.802 68.9308 55.9873 69.4646 55.1726C70.3916 53.8242 71.3187 52.4477 72.2457 51.0993L72.3019 51.015V50.9307C72.3581 50.6217 72.3581 50.1161 71.9367 49.8632ZM65.4193 52.8129C64.099 53.4871 62.7787 54.1894 61.4302 54.8917L63.79 52.3634C64.7732 51.2959 65.7845 50.2003 66.7958 49.1328L66.8239 49.1048C66.9082 48.9924 67.0206 48.88 67.1329 48.7677L67.3858 48.5148C67.9195 48.88 68.4252 49.2452 68.9308 49.6104C69.296 49.8632 69.6612 50.1442 70.0545 50.397C68.4814 51.2117 66.9363 52.0263 65.4193 52.8129ZM62.0764 52.4758C61.0651 53.5714 60.0256 54.6951 58.9862 55.7907C56.9917 53.3467 54.941 50.8746 52.9464 48.4867C52.0475 47.3911 51.1485 46.2955 50.2496 45.228C50.053 45.0033 49.8563 44.7505 49.6597 44.4977C49.5192 44.3291 49.4068 44.1886 49.2664 44.0201C50.081 44.2448 50.8957 44.4415 51.7104 44.61C52.4127 44.7786 53.1712 44.9471 53.8735 45.1438C57.9468 46.127 62.0202 47.1383 66.0935 48.1215C64.7451 49.5823 63.3967 51.0431 62.0764 52.4758ZM58.5368 66.2128C58.621 65.4824 58.7053 64.7239 58.7615 63.9655C58.8177 63.3755 58.902 62.7575 58.9581 62.1676C59.0705 61.2405 59.1548 60.2573 59.2391 59.3022L59.2672 59.1336C59.3514 58.5156 59.4076 57.8976 59.4638 57.2795C59.5481 57.2234 59.6324 57.1953 59.7166 57.1672C59.829 57.111 59.9414 57.0829 60.0256 56.9986C61.655 56.1559 63.2843 55.285 64.9137 54.4423C66.543 53.5995 68.2004 52.7286 69.8579 51.8578C68.3409 54.049 66.852 56.2401 65.3912 58.4032C64.1271 60.2292 62.8348 62.1395 61.5426 63.9936C61.037 64.752 60.5032 65.5105 59.9975 66.2409C59.4357 67.0556 58.8458 67.8984 58.2839 68.7411L58.5368 66.2128ZM48.7326 45.6775C48.6484 45.4247 48.536 45.1719 48.4517 44.919C50.362 47.2226 52.2722 49.5261 54.1263 51.7735C55.0814 52.9253 56.0647 54.1051 57.0198 55.2569C57.2164 55.4817 57.4131 55.7064 57.5816 55.9311C57.8345 56.2121 58.0592 56.5211 58.312 56.802C58.2277 57.5324 58.1435 58.2628 58.0873 58.9651C58.0311 59.4707 57.9749 59.9483 57.9187 60.454C57.8906 60.763 57.8626 61.1001 57.8064 61.4091C57.7502 61.8305 57.6378 62.8137 57.6378 62.8137V62.8699C57.4974 64.3026 57.3569 65.7353 57.2164 67.1399C57.1602 67.7298 57.1041 68.3197 57.0198 68.9097C56.9917 68.7973 56.9355 68.6849 56.9074 68.6007C56.7951 68.3197 56.6827 68.0107 56.5984 67.7298L55.8399 65.6229C53.5083 58.9651 51.1205 52.3353 48.7326 45.6775Z" fill="#EC0928"/>
  </g>
  <defs>
    <clipPath id="clip0_165_18901">
      <rect width="72" height="72" fill="white" transform="translate(0.329956)"/>
    </clipPath>
  </defs>
</svg>