<svg xmlns="http://www.w3.org/2000/svg" width="73" height="72" viewBox="0 0 73 72" fill="none">
  <g clip-path="url(#clip0_165_18909)">
    <path d="M31.9455 66.9377L1.14867 4.19082C0.642415 3.17832 1.40179 1.99707 2.49867 1.99707H13.158C13.7205 1.99707 14.2549 2.33457 14.508 2.8127L37.008 48.3189C39.0049 52.3971 44.8268 52.3971 46.8237 48.3189L69.2393 2.84082C69.4924 2.33457 70.0268 2.0252 70.5893 2.0252H71.9112C72.6987 2.0252 73.2049 2.84082 72.8393 3.51582L41.733 66.9377C39.7362 71.0158 33.9424 71.0158 31.9455 66.9377Z" fill="url(#paint0_linear_165_18909)"/>
    <path opacity="0.1" d="M31.9455 66.9376L14.5361 2.86885C14.283 2.33447 13.7205 2.05322 13.2424 2.05322H2.52676C1.34551 2.05322 0.670513 3.23447 1.12051 4.24697L31.9455 66.9376Z" fill="white"/>
    <path opacity="0.1" d="M37.008 48.3752L1.14864 4.19082C0.726761 3.1502 1.37364 2.10957 2.35801 1.99707H13.2143C13.833 2.0252 14.283 2.41895 14.508 2.8127L37.008 48.3752Z" fill="white"/>
  </g>
  <defs>
    <linearGradient id="paint0_linear_165_18909" x1="0.979915" y1="36.0002" x2="72.9799" y2="36.0002" gradientUnits="userSpaceOnUse">
      <stop stop-color="#9D4ABE"/>
      <stop offset="0.03" stop-color="#9055C4"/>
      <stop offset="0.15" stop-color="#6B74D6"/>
      <stop offset="0.26" stop-color="#4C8FE5"/>
      <stop offset="0.39" stop-color="#34A3F0"/>
      <stop offset="0.52" stop-color="#22B2F9"/>
      <stop offset="0.66" stop-color="#18BAFD"/>
      <stop offset="0.83" stop-color="#15BDFF"/>
      <stop offset="1" stop-color="#28BAD5"/>
    </linearGradient>
    <clipPath id="clip0_165_18909">
      <rect width="72" height="72" fill="white" transform="translate(0.979858)"/>
    </clipPath>
  </defs>
</svg>