<svg xmlns="http://www.w3.org/2000/svg" width="73" height="72" viewBox="0 0 73 72" fill="none">
  <g clip-path="url(#clip0_165_18917)">
    <path fill-rule="evenodd" clip-rule="evenodd" d="M36.665 3.95581e-08C43.7852 3.95581e-08 50.7454 2.11136 56.6656 6.06709C62.5857 10.0228 67.1999 15.6453 69.9247 22.2234C72.6495 28.8015 73.3624 36.0399 71.9733 43.0233C70.5842 50.0066 67.1556 56.4212 62.1209 61.4558C57.0862 66.4905 50.6716 69.9192 43.6883 71.3083C36.705 72.6973 29.4666 71.9844 22.8884 69.2597C16.3103 66.5349 10.6879 61.9207 6.73213 56.0005C2.7764 50.0804 0.665039 43.1201 0.665039 36C0.664817 31.2724 1.59583 26.591 3.40492 22.2231C5.21402 17.8553 7.86575 13.8866 11.2087 10.5437C14.5517 7.20071 18.5204 4.54898 22.8882 2.73989C27.256 0.930795 31.9374 -0.000221585 36.665 3.95581e-08Z" fill="#F0B90B"/>
    <path d="M20.4506 36L20.4765 45.5192L28.565 50.2788V55.852L15.7428 48.3317V33.2156L20.4506 36ZM20.4506 26.4808V32.0279L15.74 29.2413V23.6942L20.4506 20.9076L25.1841 23.6942L20.4506 26.4808ZM31.9428 23.6942L36.6535 20.9076L41.3872 23.6942L36.6535 26.4808L31.9428 23.6942ZM23.8543 43.5462V37.973L28.565 40.7596V46.3067L23.8543 43.5462ZM31.9428 52.2751L36.6535 55.0614L41.3872 52.2751V57.8222L36.6535 60.6094L31.9428 57.8222V52.2751ZM48.1428 23.6942L52.8535 20.9076L57.5872 23.6942V29.2413L52.8535 32.0279V26.4808L48.1428 23.6942ZM52.8535 45.5192L52.8793 36L57.59 33.2134V48.3289L44.7678 55.8489V50.276L52.8535 45.5192ZM49.4756 43.5462L44.765 46.3067V40.7596L49.4756 37.973V43.5462ZM49.4756 28.4538L49.5015 34.027L41.39 38.7866V48.3289L36.6793 51.0893L31.9681 48.3289V38.7866L23.8574 34.027V28.4538L28.5881 25.6674L36.6506 30.4487L44.7622 25.6674L49.4959 28.4538H49.4756ZM23.8538 18.9374L36.6535 11.3906L49.4756 18.9366L44.765 21.724L36.6535 16.9414L28.565 21.724L23.8543 18.9374H23.8538Z" fill="white"/>
    <path fill-rule="evenodd" clip-rule="evenodd" d="M55.0166 36.7031C58.5071 36.7031 61.9193 37.7382 64.8215 39.6774C67.7238 41.6167 69.9859 44.373 71.3216 47.5978C72.6574 50.8226 73.0069 54.3711 72.3259 57.7946C71.645 61.2181 69.9641 64.3627 67.4959 66.8309C65.0278 69.2991 61.8831 70.9799 58.4596 71.6609C55.0362 72.3419 51.4877 71.9924 48.2628 70.6566C45.038 69.3208 42.2817 67.0588 40.3425 64.1565C38.4032 61.2542 37.3682 57.8421 37.3682 54.3516C37.3681 52.0339 37.8245 49.7389 38.7113 47.5977C39.5982 45.4564 40.8982 43.5108 42.537 41.872C44.1759 40.2332 46.1214 38.9332 48.2627 38.0463C50.404 37.1594 52.6989 36.703 55.0166 36.7031Z" fill="black"/>
    <path d="M47.0676 54.3515L47.0805 59.0183L51.0462 61.3527V64.0848L44.7605 60.3981V52.9875L47.0668 54.3521L47.0676 54.3515ZM47.0676 49.6848V52.4042L44.7585 51.0381V48.3187L47.0676 46.9527L49.3882 48.3187L47.0676 49.6848ZM52.7016 48.3187L55.011 46.9527L57.3315 48.3187L55.011 49.6848L52.7016 48.3187ZM48.736 58.05V55.3179L51.0453 56.6839V59.4033L48.736 58.05ZM52.7016 62.3292L55.011 63.6952L57.3315 62.3292V65.0486L55.011 66.4146L52.7016 65.0486V62.3292ZM60.6435 48.3187L62.9526 46.9527L65.2732 48.3187V51.0381L62.9526 52.4042V49.6848L60.6435 48.3187ZM62.9526 59.0183L62.9655 54.3515L65.2746 52.9855V60.3956L58.989 64.0822V61.3502L62.9526 59.0183ZM61.2969 58.0508L58.9875 59.4042V56.6848L61.2969 55.3188V58.0508ZM61.2969 50.6523L61.3095 53.3843L57.333 55.7187V60.3956L55.0236 61.749L52.7143 60.3956V55.7176L48.7377 53.3832V50.6531L51.0569 49.2871L55.0095 51.6316L58.9861 49.2871L61.3067 50.6531L61.2969 50.6523ZM48.7363 45.9869L55.011 42.2876L61.2969 45.9869L58.9875 47.3529L55.011 45.0084L51.0453 47.3529L48.7363 45.9869Z" fill="#F0B90B"/>
  </g>
  <defs>
    <clipPath id="clip0_165_18917">
      <rect width="72" height="72" fill="white" transform="translate(0.665039)"/>
    </clipPath>
  </defs>
</svg>