<svg xmlns="http://www.w3.org/2000/svg" width="73" height="72" viewBox="0 0 73 72" fill="none">
  <g clip-path="url(#clip0_165_18927)">
    <path d="M62.177 13.5L53.4863 17.9438L11.6363 39.2625C11.4957 38.1938 11.4113 37.0969 11.4113 36C11.4395 22.2188 22.6051 11.0813 36.3863 11.0813C40.6332 11.0813 44.7957 12.1782 48.5082 14.2594L53.4582 11.7282L54.1895 11.3625C40.6051 1.46254 21.5645 4.50004 11.6645 18.1125C7.89864 23.3166 5.87111 29.5764 5.8707 36C5.8707 36.7875 5.89883 37.5469 5.95508 38.3063C6.12383 40.5282 4.94258 42.6375 2.9457 43.65L0.330078 45.0282V51.2438L8.03633 47.3063L10.5395 46.0407L12.9863 44.775L57.1145 22.275L62.0645 19.7438L72.3301 14.5407V8.32504L62.177 13.5ZM72.3301 20.7844L15.4895 49.725L10.5395 52.2563L0.330078 57.4594V63.675L10.4551 58.5L19.1176 54.0844L61.0238 32.7375C61.1645 33.8344 61.2488 34.9313 61.2488 36.0282C61.2488 49.8094 50.0551 60.9469 36.302 60.9469C32.027 60.9469 27.8363 59.85 24.1238 57.7688L23.8145 57.9375L18.4426 60.6657C32.0551 70.5375 51.0957 67.5282 60.9957 53.9157C64.7645 48.7125 66.8176 42.4688 66.8176 36.0282C66.8176 35.2407 66.7895 34.4532 66.7332 33.6938C66.5645 31.4719 67.7457 29.3625 69.7426 28.35L72.3582 27.0282V20.7844H72.3301Z" fill="white"/>
  </g>
  <defs>
    <clipPath id="clip0_165_18927">
      <rect width="72" height="72" fill="white" transform="translate(0.330078)"/>
    </clipPath>
  </defs>
</svg>