<svg xmlns="http://www.w3.org/2000/svg" width="73" height="72" viewBox="0 0 73 72" fill="none">
  <g clip-path="url(#clip0_165_18933)">
    <path d="M66.9894 55.1249H52.73V35.6343L36.98 51.3843L21.23 35.6343V55.1249H6.46436C12.8206 65.2499 24.0987 71.9999 36.9519 71.9999C49.805 71.9999 61.0831 65.2499 67.4394 55.1249H66.9894Z" fill="#4D4D4D"/>
    <path d="M13.7206 47.6156V17.6344L36.98 40.8937L60.2394 17.6344V47.6437H71.0675C72.305 43.9875 73.0081 40.0781 73.0081 36.0281C72.98 16.1156 56.8644 0 36.98 0C17.0956 0 0.97998 16.1156 0.97998 36C0.97998 40.0781 1.65498 43.9875 2.92061 47.6156H13.7206Z" fill="#FF6600"/>
  </g>
  <defs>
    <clipPath id="clip0_165_18933">
      <rect width="72" height="72" fill="white" transform="translate(0.97998)"/>
    </clipPath>
  </defs>
</svg>