<svg xmlns="http://www.w3.org/2000/svg" width="73" height="72" viewBox="0 0 73 72" fill="none">
  <g clip-path="url(#clip0_165_18939)">
    <path d="M47.3474 1.94061C42.6224 4.72498 39.838 9.73123 39.838 15.0187C39.838 17.8031 40.963 20.5875 42.3412 23.0906C43.4662 25.3125 44.0005 29.2219 40.1193 31.1625C37.363 32.8219 33.7349 31.725 32.0755 28.9406C30.4162 26.7187 28.4755 24.4969 25.9724 22.8375C21.2474 20.0531 15.7068 20.0531 10.9818 22.8375C6.25679 25.6219 3.47241 30.6281 3.47241 35.9437C3.47241 41.2594 6.22866 46.2656 10.9818 49.05C15.7068 51.8344 21.2474 51.8344 25.9724 49.05C28.4755 47.6437 30.4162 45.4219 31.7943 42.9187C32.9193 40.9781 35.9568 38.4469 39.838 40.6969C42.5943 42.3562 43.438 45.9844 42.0599 48.7687C40.6818 51.2719 39.838 54.0562 39.838 56.8406C39.838 62.1281 42.5943 67.1625 47.3474 69.9187C52.0724 72.7031 57.613 72.7031 62.338 69.9187C67.063 67.1344 69.8474 62.1281 69.8474 56.8125C69.8474 51.4969 67.063 46.4906 62.338 43.7062C59.8349 42.3 57.0505 41.7656 54.013 41.7656C51.5099 41.7656 48.1912 40.1062 48.1912 35.9156C48.1912 32.5687 50.6943 30.0656 54.013 30.0656C56.7693 30.0656 59.8349 29.5031 62.338 28.125C67.063 25.3406 69.8474 20.3344 69.8474 15.0469C69.8474 9.75936 67.063 4.72498 62.338 1.96873C60.1162 0.56248 57.3599 -1.97275e-05 54.8287 -1.97275e-05C52.3537 -0.0281447 49.5693 0.56248 47.3474 1.94061Z" fill="url(#paint0_linear_165_18939)"/>
  </g>
  <defs>
    <linearGradient id="paint0_linear_165_18939" x1="3.47241" y1="36" x2="69.8474" y2="36" gradientUnits="userSpaceOnUse">
      <stop stop-color="#11AAE2"/>
      <stop offset="0.59" stop-color="#0880B7"/>
      <stop offset="1" stop-color="#016197"/>
    </linearGradient>
    <clipPath id="clip0_165_18939">
      <rect width="72" height="72" fill="white" transform="translate(0.659912)"/>
    </clipPath>
  </defs>
</svg>