<svg xmlns="http://www.w3.org/2000/svg" width="73" height="72" viewBox="0 0 73 72" fill="none">
  <g clip-path="url(#clip0_165_18944)">
    <path d="M62.0924 53.1281C61.3331 39.9094 44.7112 33.8906 43.1081 33.2719C43.0518 33.2438 43.0518 33.1875 43.0799 33.1031L60.2362 15.8906V14.0344C60.2362 13.7531 59.9831 13.4719 59.6737 13.4719H28.0612V0L16.4174 2.44687V4.19062H17.0643C17.0643 4.19062 19.9331 4.19063 19.9331 7.05938V13.4719H10.8768C10.7081 13.4719 10.5393 13.6406 10.5393 13.8094V17.8594H19.9331V39.9375C19.9331 46.8563 24.3768 51.6656 32.1674 51.0187C33.8268 50.8781 35.3456 50.2313 36.6393 49.3875C37.2299 48.9938 37.5674 48.375 37.5674 47.6719V45.5063C35.0362 47.1938 32.8987 47.1094 32.8987 47.1094C27.9487 47.1094 28.0612 40.8375 28.0612 40.8375V17.8313H50.8143L34.4456 34.3406C34.4174 36.5062 34.3893 38.1937 34.3893 38.25C34.3893 38.3063 34.4174 38.3344 34.4737 38.3344C49.4924 40.8656 53.5424 50.5687 53.5424 53.4094C53.5424 53.4094 55.1737 67.1625 41.4206 68.0906C41.4206 68.0906 32.4206 68.4844 30.8174 64.8844C30.7612 64.7438 30.8174 64.6312 30.9581 64.5469C32.4487 63.8719 33.4612 62.5219 33.4612 60.75C33.4612 58.0781 31.8299 55.9125 28.4268 55.9125C25.6706 55.9125 23.3924 58.0781 23.3924 60.75C23.3924 60.75 22.0987 72.3094 41.3924 72C63.4424 71.6062 62.0924 53.1281 62.0924 53.1281Z" fill="#0D61FF"/>
  </g>
  <defs>
    <clipPath id="clip0_165_18944">
      <rect width="72" height="72" fill="white" transform="translate(0.329956)"/>
    </clipPath>
  </defs>
</svg>