<svg xmlns="http://www.w3.org/2000/svg" width="73" height="72" viewBox="0 0 73 72" fill="none">
  <g clip-path="url(#clip0_165_18949)">
    <path d="M36.9799 72C56.8621 72 72.9799 55.8823 72.9799 36C72.9799 16.1177 56.8621 0 36.9799 0C17.0976 0 0.979858 16.1177 0.979858 36C0.979858 55.8823 17.0976 72 36.9799 72Z" fill="black"/>
    <path d="M36.9799 69.1312C55.2778 69.1312 70.1111 54.2978 70.1111 35.9999C70.1111 17.702 55.2778 2.86865 36.9799 2.86865C18.682 2.86865 3.84863 17.702 3.84863 35.9999C3.84863 54.2978 18.682 69.1312 36.9799 69.1312Z" fill="url(#paint0_linear_165_18949)"/>
    <path d="M50.4799 44.7469H35.5736V44.6063C37.3455 42.7219 38.9486 40.5563 40.6361 38.2781L49.9736 25.2844V18.9H40.7486V12.6562H33.0142V18.9281H24.5767V27.3656H38.2174V27.5063C36.4455 29.6156 35.0392 31.275 33.2674 33.6094L23.4799 47.1656V53.2687H32.958V59.3438H40.6924V53.2406H50.4799V44.7469Z" fill="black"/>
  </g>
  <defs>
    <linearGradient id="paint0_linear_165_18949" x1="60.4052" y1="12.5746" x2="13.5546" y2="59.4252" gradientUnits="userSpaceOnUse">
      <stop stop-color="#FFD25C"/>
      <stop offset="1" stop-color="#CD8421"/>
    </linearGradient>
    <clipPath id="clip0_165_18949">
      <rect width="72" height="72" fill="white" transform="translate(0.979858)"/>
    </clipPath>
  </defs>
</svg>