<svg xmlns="http://www.w3.org/2000/svg" width="73" height="72" viewBox="0 0 73 72" fill="none">
  <g clip-path="url(#clip0_165_18956)">
    <path d="M35.4224 0H37.588C38.938 0.084375 40.288 0.16875 41.638 0.365625C46.2505 1.0125 50.7224 2.53125 54.7162 4.89375C53.788 5.625 52.8037 6.27187 51.8755 6.975C45.4912 11.5312 39.1349 16.1437 32.7224 20.7C32.2162 20.2781 31.7662 19.7719 31.2599 19.3219C29.7974 17.9156 28.3912 16.4813 26.9005 15.1031C26.3662 15.3 25.888 15.5813 25.3818 15.8625C22.063 17.7188 19.2224 20.4469 17.1693 23.6531C14.4693 20.25 11.8818 16.7625 9.35054 13.2469C9.26616 13.1344 9.20991 13.0219 9.12554 12.8812C10.0818 11.7281 11.1224 10.6313 12.2193 9.61875C17.7318 4.5 24.8755 1.15312 32.3849 0.28125C33.3974 0.140625 34.4099 0.1125 35.4224 0ZM52.9162 13.4719C55.1662 11.7563 57.4443 10.0688 59.7505 8.4375C64.5037 12.375 68.188 17.6062 70.3537 23.3719C73.1099 30.6281 73.3912 38.7844 71.1693 46.2094C70.3818 48.825 69.313 51.3563 67.963 53.7188C67.738 53.55 67.5974 53.2969 67.4287 53.0719L54.3787 35.8031C53.5349 34.6781 52.663 33.5531 51.8193 32.4281C53.7318 30.375 55.7287 28.4062 57.6412 26.3531C56.3193 23.4844 54.4068 20.8969 52.0162 18.7875C51.088 17.9438 50.0474 17.2125 49.0349 16.5094C50.3005 15.4406 51.6224 14.4563 52.9162 13.4719ZM3.19116 22.8094C3.83804 21.2062 4.56929 19.6313 5.46929 18.1406C6.73491 19.7437 7.94429 21.375 9.18179 23.0063C13.1193 28.1813 17.0849 33.3563 21.0224 38.5312C21.2755 38.8688 21.5568 39.2062 21.7818 39.5719C19.7849 41.6531 17.7599 43.6781 15.763 45.7594C16.2412 46.8844 16.888 47.9531 17.563 48.9656C18.5755 50.4844 19.7849 51.8625 21.1349 53.1C22.1193 54 23.188 54.7875 24.2849 55.5469C23.3287 56.3344 22.3443 57.0938 21.3599 57.8531C19.6162 59.2031 17.8443 60.4969 16.0724 61.8188C15.2287 62.4094 14.413 63.0562 13.5693 63.6187C7.97241 58.8937 3.86616 52.4813 1.95366 45.45C1.16616 42.6656 0.800537 39.7969 0.659912 36.9V35.1C0.688037 34.4813 0.744287 33.8625 0.772412 33.2156C1.05366 29.6437 1.86929 26.1562 3.19116 22.8094ZM53.788 51.4688C54.688 50.5125 55.4474 49.4437 56.1787 48.3469C56.9943 49.3312 57.7537 50.3438 58.5412 51.3563C60.4818 53.8875 62.3943 56.4469 64.2224 59.0344C63.688 59.7656 63.0412 60.4125 62.4224 61.0594C57.2474 66.375 50.3849 70.0594 43.0724 71.3812C41.3568 71.7188 39.5849 71.8594 37.8412 71.9719H35.2537C34.4943 71.8875 33.7068 71.8594 32.9193 71.775C27.8849 71.2406 22.963 69.6656 18.6037 67.0781C20.0943 65.9531 21.613 64.8281 23.1037 63.7031C28.813 59.4281 34.5505 55.1813 40.2599 50.9062C41.2162 51.8063 42.1443 52.7625 43.1005 53.6625C44.2255 54.7313 45.2943 55.8563 46.4193 56.8969C49.2318 55.6313 51.7349 53.7469 53.788 51.4688Z" fill="white"/>
  </g>
  <defs>
    <clipPath id="clip0_165_18956">
      <rect width="72" height="72" fill="white" transform="translate(0.659912)"/>
    </clipPath>
  </defs>
</svg>