<svg xmlns="http://www.w3.org/2000/svg" width="20" height="20" viewBox="0 0 20 20" fill="none">
    <path d="M6.00001 8.99991C6.00001 8.7347 6.10537 8.48034 6.2929 8.29281C6.48044 8.10527 6.7348 7.99991 7.00001 7.99991H13C13.2652 7.99991 13.5196 8.10527 13.7071 8.29281C13.8947 8.48034 14 8.7347 14 8.99991C14 9.26513 13.8947 9.51948 13.7071 9.70702C13.5196 9.89456 13.2652 9.99991 13 9.99991H7.00001C6.7348 9.99991 6.48044 9.89456 6.2929 9.70702C6.10537 9.51948 6.00001 9.26513 6.00001 8.99991ZM7.00001 11.9999C6.7348 11.9999 6.48044 12.1053 6.2929 12.2928C6.10537 12.4803 6.00001 12.7347 6.00001 12.9999C6.00001 13.2651 6.10537 13.5195 6.2929 13.707C6.48044 13.8946 6.7348 13.9999 7.00001 13.9999H11C11.2652 13.9999 11.5196 13.8946 11.7071 13.707C11.8947 13.5195 12 13.2651 12 12.9999C12 12.7347 11.8947 12.4803 11.7071 12.2928C11.5196 12.1053 11.2652 11.9999 11 11.9999H7.00001ZM1.12522e-05 9.99991C0.000512807 7.80751 0.721494 5.67603 2.052 3.93351C3.3825 2.19098 5.24878 0.933992 7.36361 0.355988C9.47845 -0.222016 11.7246 -0.0889992 13.7565 0.734567C15.7883 1.55813 17.4932 3.0266 18.6087 4.91398C19.7243 6.80136 20.1886 9.00303 19.9304 11.1802C19.6721 13.3573 18.7056 15.3892 17.1794 16.9633C15.6533 18.5373 13.6521 19.5661 11.484 19.8915C9.3159 20.2168 7.10093 19.8207 5.18001 18.7639L1.29201 19.9479C1.11859 20.0007 0.934076 20.0054 0.758197 19.9615C0.582319 19.9175 0.421695 19.8266 0.293506 19.6984C0.165318 19.5702 0.0743872 19.4096 0.0304406 19.2337C-0.0135059 19.0578 -0.00881522 18.8733 0.0440112 18.6999L1.22801 14.8059C0.41992 13.3331 -0.00251363 11.6798 1.12522e-05 9.99991ZM10 1.99991C8.57989 1.99979 7.18533 2.3777 5.95957 3.09482C4.73381 3.81195 3.72103 4.84243 3.02527 6.08044C2.3295 7.31844 1.97582 8.71934 2.00055 10.1393C2.02529 11.5592 2.42755 12.9469 3.16601 14.1599C3.23932 14.2804 3.2863 14.4151 3.30388 14.555C3.32146 14.6949 3.30924 14.837 3.26801 14.9719L2.50201 17.4899L5.01601 16.7239C5.15133 16.6827 5.29385 16.6706 5.43417 16.6886C5.57449 16.7065 5.70941 16.754 5.83001 16.8279C6.88437 17.4716 8.07348 17.8624 9.30415 17.9697C10.5348 18.077 11.7736 17.8978 12.9234 17.4461C14.0733 16.9945 15.1029 16.2828 15.9316 15.3666C16.7603 14.4505 17.3656 13.3549 17.7 12.1657C18.0344 10.9765 18.0889 9.726 17.8592 8.51221C17.6295 7.29842 17.1218 6.15433 16.3759 5.16959C15.63 4.18485 14.6662 3.38623 13.56 2.8363C12.4539 2.28638 11.2353 2.00011 10 1.99991Z" fill="url(#paint0_linear_736_4736)"/>
    <defs>
    <linearGradient id="paint0_linear_736_4736" x1="10" y1="0.00219338" x2="20.5206" y2="0.808561" gradientUnits="userSpaceOnUse">
    <stop stop-color="#FBE3F1"/>
    <stop offset="1" stop-color="#CAAEFF"/>
    </linearGradient>
    </defs>
</svg>