<svg width="24" height="25" viewBox="0 0 24 25" fill="none" xmlns="http://www.w3.org/2000/svg">
<path d="M2.45395 5.95408C2.73524 5.67287 3.1167 5.5149 3.51445 5.5149C3.9122 5.5149 4.29366 5.67287 4.57495 5.95408L12 13.3791L19.4249 5.95408C19.7079 5.68084 20.0868 5.52965 20.4801 5.53307C20.8733 5.53648 21.2496 5.69424 21.5277 5.97235C21.8058 6.25046 21.9635 6.62668 21.967 7.01997C21.9704 7.41327 21.8192 7.79217 21.5459 8.07508L13.0604 16.5606C12.7792 16.8418 12.3977 16.9998 12 16.9998C11.6022 16.9998 11.2207 16.8418 10.9395 16.5606L2.45395 8.07508C2.17274 7.79378 2.01477 7.41232 2.01477 7.01458C2.01477 6.61683 2.17274 6.23537 2.45395 5.95408Z" fill="white"/>
</svg>
