<svg xmlns="http://www.w3.org/2000/svg" width="24" height="24" viewBox="0 0 24 24" fill="none">
<path d="M17.0457 21.5608C17.3269 21.2795 17.4849 20.8981 17.4849 20.5003C17.4849 20.1026 17.3269 19.7211 17.0457 19.4398L9.62068 12.0148L17.0457 4.58982C17.3189 4.30692 17.4701 3.92801 17.4667 3.53472C17.4633 3.14142 17.3055 2.7652 17.0274 2.48709C16.7493 2.20898 16.3731 2.05123 15.9798 2.04781C15.5865 2.04439 15.2076 2.19558 14.9247 2.46882L6.43918 10.9543C6.15797 11.2356 6 11.6171 6 12.0148C6 12.4126 6.15797 12.794 6.43918 13.0753L14.9247 21.5608C15.206 21.842 15.5874 22 15.9852 22C16.3829 22 16.7644 21.842 17.0457 21.5608Z" fill="white"/>
</svg>
