<svg width="24" height="24" viewBox="0 0 24 24" fill="none" xmlns="http://www.w3.org/2000/svg">
<path d="M2.45395 16.0606C2.73524 16.3418 3.1167 16.4998 3.51445 16.4998C3.9122 16.4998 4.29366 16.3418 4.57495 16.0606L12 8.63557L19.4249 16.0606C19.7079 16.3338 20.0868 16.485 20.4801 16.4816C20.8733 16.4782 21.2496 16.3204 21.5277 16.0423C21.8058 15.7642 21.9635 15.388 21.967 14.9947C21.9704 14.6014 21.8192 14.2225 21.5459 13.9396L13.0604 5.45407C12.7792 5.17287 12.3977 5.01489 12 5.01489C11.6022 5.01489 11.2207 5.17287 10.9395 5.45407L2.45395 13.9396C2.17274 14.2209 2.01477 14.6023 2.01477 15.0001C2.01477 15.3978 2.17274 15.7793 2.45395 16.0606Z" fill="white"/>
</svg>
