<svg xmlns="http://www.w3.org/2000/svg" width="24" height="24" viewBox="0 0 24 24" fill="none">
  <path d="M6.43918 21.5608C6.15798 21.2795 6 20.8981 6 20.5003C6 20.1026 6.15798 19.7211 6.43918 19.4398L13.8642 12.0148L6.43918 4.58982C6.16595 4.30692 6.01476 3.92801 6.01817 3.53472C6.02159 3.14142 6.17935 2.7652 6.45746 2.48709C6.73557 2.20898 7.11179 2.05123 7.50508 2.04781C7.89838 2.04439 8.27728 2.19558 8.56018 2.46882L17.0457 10.9543C17.3269 11.2356 17.4849 11.6171 17.4849 12.0148C17.4849 12.4126 17.3269 12.794 17.0457 13.0753L8.56018 21.5608C8.27889 21.842 7.89743 22 7.49968 22C7.10194 22 6.72048 21.842 6.43918 21.5608Z" fill="white"/>
</svg>