<svg width="24" height="24" viewBox="0 0 24 24" fill="none" xmlns="http://www.w3.org/2000/svg">
<g clip-path="url(#clip0_1403_25191)">
<path d="M13.2991 3.14801L21.9331 18.102C22.0647 18.33 22.134 18.5887 22.134 18.852C22.134 19.1153 22.0647 19.374 21.9331 19.602C21.8014 19.83 21.6121 20.0194 21.384 20.151C21.156 20.2827 20.8974 20.352 20.6341 20.352H3.36605C3.10275 20.352 2.84409 20.2827 2.61606 20.151C2.38804 20.0194 2.19869 19.83 2.06704 19.602C1.93539 19.374 1.86609 19.1153 1.86609 18.852C1.86609 18.5887 1.9354 18.33 2.06705 18.102L10.7011 3.14801C11.2781 2.14801 12.7211 2.14801 13.2991 3.14801ZM12.0001 15C11.7348 15 11.4805 15.1054 11.2929 15.2929C11.1054 15.4804 11.0001 15.7348 11.0001 16C11.0001 16.2652 11.1054 16.5196 11.2929 16.7071C11.4805 16.8947 11.7348 17 12.0001 17C12.2653 17 12.5196 16.8947 12.7072 16.7071C12.8947 16.5196 13.0001 16.2652 13.0001 16C13.0001 15.7348 12.8947 15.4804 12.7072 15.2929C12.5196 15.1054 12.2653 15 12.0001 15ZM12.0001 8.00001C11.7551 8.00004 11.5187 8.08997 11.3357 8.25273C11.1526 8.41548 11.0357 8.63976 11.0071 8.88301L11.0001 9.00001V13C11.0003 13.2549 11.0979 13.5 11.2729 13.6854C11.4479 13.8707 11.687 13.9822 11.9414 13.9972C12.1959 14.0121 12.4464 13.9293 12.6419 13.7657C12.8373 13.6022 12.9629 13.3701 12.9931 13.117L13.0001 13V9.00001C13.0001 8.73479 12.8947 8.48044 12.7072 8.2929C12.5196 8.10537 12.2653 8.00001 12.0001 8.00001Z" fill="#FF5454"/>
</g>
<defs>
<clipPath id="clip0_1403_25191">
<rect width="24" height="24" fill="white"/>
</clipPath>
</defs>
</svg>
