<svg width="44" height="33" viewBox="0 0 44 33" fill="none" xmlns="http://www.w3.org/2000/svg">
<g clip-path="url(#clip0_15_970)">
<path d="M0 0H44V33H0V0Z" fill="#012169"/>
<path d="M5.15625 0L21.9312 12.4438L38.6375 0H44V4.2625L27.5 16.5688L44 28.8063V33H38.5L22 20.6938L5.56875 33H0V28.875L16.4312 16.6375L0 4.4V0H5.15625Z" fill="white"/>
<path d="M29.15 19.3188L44 30.25V33L25.3687 19.3188H29.15ZM16.5 20.6938L16.9125 23.1L3.7125 33H0L16.5 20.6938ZM44 0V0.20625L26.8813 13.1313L27.0188 10.1062L40.5625 0H44ZM0 0L16.4312 12.1H12.3063L0 2.8875V0Z" fill="#C8102E"/>
<path d="M16.5688 0V33H27.5688V0H16.5688ZM0 11V22H44V11H0Z" fill="white"/>
<path d="M0 13.2688V19.8687H44V13.2688H0ZM18.7688 0V33H25.3687V0H18.7688Z" fill="#C8102E"/>
</g>
<defs>
<clipPath id="clip0_15_970">
<rect width="44" height="33" rx="8" fill="white"/>
</clipPath>
</defs>
</svg>
