<svg width="44" height="33" viewBox="0 0 44 33" fill="none" xmlns="http://www.w3.org/2000/svg">
<g clip-path="url(#clip0_15_980)">
<path d="M0 0H44V33H0V0Z" fill="white"/>
<path d="M18.7 0H25.3V33H18.7V0Z" fill="#FF0000"/>
<path d="M0 13.2H44V19.8H0V13.2Z" fill="#FF0000"/>
<g style="mix-blend-mode:multiply">
<path fill-rule="evenodd" clip-rule="evenodd" d="M10.0925 25.6507C10.1613 24.4957 10.3675 23.5125 10.3675 23.5125C10.3675 23.5125 9.69377 23.5813 9.35002 23.5813C9.01315 23.5813 8.33252 23.5125 8.33252 23.5125C8.33252 23.5125 8.53877 24.4957 8.60752 25.6575C7.44565 25.5888 6.46252 25.3825 6.46252 25.3825C6.46252 25.3825 6.53127 25.8913 6.53127 26.4C6.53127 26.9088 6.46252 27.4175 6.46252 27.4175C6.46252 27.4175 7.44565 27.2113 8.60752 27.1425C8.53877 28.3044 8.33252 29.2875 8.33252 29.2875C8.33252 29.2875 8.84127 29.2188 9.35002 29.2188C9.85877 29.2188 10.3675 29.2875 10.3675 29.2875C10.3675 29.2875 10.1613 28.3044 10.0925 27.1425C11.2544 27.2113 12.2375 27.4175 12.2375 27.4175C12.2375 27.4175 12.1688 26.7438 12.1688 26.4C12.1688 26.0632 12.2375 25.3825 12.2375 25.3825C12.2375 25.3825 11.2544 25.5888 10.0994 25.6575L10.0925 25.6507ZM35.3925 5.85065C35.4613 4.69565 35.6675 3.71252 35.6675 3.71252C35.6675 3.71252 34.9938 3.78127 34.65 3.78127C34.3132 3.78127 33.6325 3.71252 33.6325 3.71252C33.6325 3.71252 33.8388 4.69565 33.9075 5.85065C32.7457 5.7819 31.7625 5.58252 31.7625 5.58252C31.7625 5.58252 31.8313 6.09127 31.8313 6.60002C31.8313 7.10877 31.7625 7.61752 31.7625 7.61752C31.7625 7.61752 32.7457 7.41127 33.9075 7.34252C33.8388 8.5044 33.6325 9.48752 33.6325 9.48752C33.6325 9.48752 34.1413 9.41877 34.65 9.41877C35.1588 9.41877 35.6675 9.48752 35.6675 9.48752C35.6675 9.48752 35.4613 8.5044 35.3925 7.3494C36.5544 7.41815 37.5375 7.6244 37.5375 7.6244C37.5375 7.6244 37.4688 6.9369 37.4688 6.60002C37.4688 6.26315 37.5375 5.58252 37.5375 5.58252C37.5375 5.58252 36.5544 5.78877 35.3925 5.85752V5.85065ZM10.0925 5.85065C10.1613 4.69565 10.3675 3.71252 10.3675 3.71252C10.3675 3.71252 9.69377 3.78127 9.35002 3.78127C9.01315 3.78127 8.33252 3.71252 8.33252 3.71252C8.33252 3.71252 8.53877 4.69565 8.60752 5.85752C7.44565 5.78877 6.46252 5.58252 6.46252 5.58252C6.46252 5.58252 6.53127 6.09127 6.53127 6.60002C6.53127 7.10877 6.46252 7.61752 6.46252 7.61752C6.46252 7.61752 7.44565 7.41127 8.60752 7.34252C8.53877 8.5044 8.33252 9.48752 8.33252 9.48752C8.33252 9.48752 8.84127 9.41877 9.35002 9.41877C9.85877 9.41877 10.3675 9.48752 10.3675 9.48752C10.3675 9.48752 10.1613 8.5044 10.0925 7.34252C11.2544 7.41127 12.2375 7.61752 12.2375 7.61752C12.2375 7.61752 12.1688 6.94377 12.1688 6.60002C12.1688 6.26315 12.2375 5.58252 12.2375 5.58252C12.2375 5.58252 11.2544 5.78877 10.0994 5.85752L10.0925 5.85065ZM35.3925 25.6507C35.4613 24.4957 35.6675 23.5125 35.6675 23.5125C35.6675 23.5125 34.9938 23.5813 34.65 23.5813C34.3132 23.5813 33.6325 23.5125 33.6325 23.5125C33.6325 23.5125 33.8388 24.4957 33.9075 25.6575C32.7457 25.5888 31.7625 25.3825 31.7625 25.3825C31.7625 25.3825 31.8313 25.8913 31.8313 26.4C31.8313 26.9088 31.7625 27.4175 31.7625 27.4175C31.7625 27.4175 32.7457 27.2113 33.9075 27.1425C33.8388 28.3044 33.6325 29.2875 33.6325 29.2875C33.6325 29.2875 34.1413 29.2188 34.65 29.2188C35.1588 29.2188 35.6675 29.2875 35.6675 29.2875C35.6675 29.2875 35.4613 28.3044 35.3925 27.1425C36.5544 27.2113 37.5375 27.4175 37.5375 27.4175C37.5375 27.4175 37.4688 26.7438 37.4688 26.4C37.4688 26.0632 37.5375 25.3825 37.5375 25.3825C37.5375 25.3825 36.5544 25.5888 35.3925 25.6575V25.6507Z" fill="#FF0000"/>
</g>
</g>
<defs>
<clipPath id="clip0_15_980">
<rect width="44" height="33" rx="8" fill="white"/>
</clipPath>
</defs>
</svg>
