<svg xmlns="http://www.w3.org/2000/svg" width="24" height="24" viewBox="0 0 24 24" fill="none">
  <path d="M17.3666 17.7771C19.6735 17.7771 20.9541 16.35 21.2082 13.4956H19.1554C18.999 14.2776 18.8426 14.7957 18.6862 15.0499C18.4516 15.4604 18.0313 15.6657 17.4252 15.6657C16.7019 15.6657 16.1838 15.4409 15.871 14.9912C15.48 14.4633 15.2845 13.5347 15.2845 12.2053C15.2845 10.7781 15.4457 9.78592 15.7683 9.22874C16.0909 8.67155 16.653 8.39296 17.4545 8.39296C18.0606 8.39296 18.4907 8.56892 18.7449 8.92082C18.9013 9.13587 19.0479 9.57576 19.1848 10.2405H21.1496C21.0323 9.0479 20.7488 8.14858 20.2991 7.54252C19.6735 6.72141 18.696 6.31085 17.3666 6.31085C15.9589 6.31085 14.9081 6.79961 14.2141 7.77713C13.52 8.75464 13.173 10.1329 13.173 11.912C13.173 13.8475 13.4858 15.2942 14.1114 16.2522C14.7957 17.2688 15.8807 17.7771 17.3666 17.7771ZM7.77713 15.4018H5.63636V12.7625H7.95308C8.48094 12.7625 8.74487 13.2219 8.74487 14.1408C8.74487 14.5904 8.67155 14.913 8.52493 15.1085C8.3783 15.304 8.12903 15.4018 7.77713 15.4018ZM7.6305 10.7683H5.63636V8.56892H7.83578C8.08993 8.56892 8.25611 8.65689 8.33431 8.83284C8.41251 9.0088 8.45161 9.27273 8.45161 9.62463C8.45161 9.97654 8.39296 10.2551 8.27566 10.4604C8.15836 10.6657 7.9433 10.7683 7.6305 10.7683ZM18.8915 22H5.1085C4.24829 22 3.51515 21.697 2.90909 21.0909C2.30303 20.4848 2 19.7517 2 18.8915V5.10851C2 4.24829 2.30303 3.51515 2.90909 2.90909C3.51515 2.30303 4.24829 2 5.1085 2H18.8915C19.7517 2 20.4848 2.30303 21.0909 2.90909C21.697 3.51515 22 4.24829 22 5.10851V18.8915C22 19.7517 21.697 20.4848 21.0909 21.0909C20.4848 21.697 19.7517 22 18.8915 22ZM7.42522 17.5718C8.40274 17.5718 9.1652 17.3763 9.71261 16.9853C10.4751 16.4379 10.8563 15.4897 10.8563 14.1408C10.8563 12.8113 10.4946 11.9707 9.77126 11.6188C10.26 11.2669 10.5142 10.5924 10.5337 9.59531C10.5337 9.2434 10.4946 8.88172 10.4164 8.51026C10.3382 8.13881 10.1965 7.80645 9.9912 7.5132C9.78592 7.21994 9.50733 6.98045 9.15543 6.79472C8.80352 6.60899 8.35386 6.51613 7.80645 6.51613H3.52493V17.5718H7.42522ZM18.8915 21.7654C19.6931 21.7654 20.3724 21.4868 20.9296 20.9296C21.4868 20.3724 21.7654 19.6931 21.7654 18.8915V5.10851C21.7654 4.30694 21.4868 3.62757 20.9296 3.07038C20.3724 2.5132 19.6931 2.2346 18.8915 2.2346H12V21.7654H18.8915Z" fill="white"/>
</svg>