<svg width="32" height="32" viewBox="0 0 32 32" fill="none" xmlns="http://www.w3.org/2000/svg">
<g id="tabler:trash">
<path id="Vector" d="M5.3335 9.33333H26.6668M13.3335 14.6667V22.6667M18.6668 14.6667V22.6667M6.66683 9.33333L8.00016 25.3333C8.00016 26.0406 8.28111 26.7189 8.78121 27.219C9.28131 27.719 9.95959 28 10.6668 28H21.3335C22.0407 28 22.719 27.719 23.2191 27.219C23.7192 26.7189 24.0002 26.0406 24.0002 25.3333L25.3335 9.33333M12.0002 9.33333V5.33333C12.0002 4.97971 12.1406 4.64057 12.3907 4.39052C12.6407 4.14048 12.9799 4 13.3335 4H18.6668C19.0205 4 19.3596 4.14048 19.6096 4.39052C19.8597 4.64057 20.0002 4.97971 20.0002 5.33333V9.33333" stroke="#FF5454" stroke-width="2.66667" stroke-linecap="round" stroke-linejoin="round"/>
</g>
</svg>
