<svg width="48" height="48" viewBox="0 0 48 48" fill="none" xmlns="http://www.w3.org/2000/svg">
<path d="M16.7226 23.935C16.7226 22.9895 16.9088 22.0532 17.2706 21.1797C17.6325 20.3061 18.1628 19.5124 18.8314 18.8438C19.5 18.1753 20.2937 17.6449 21.1672 17.2831C22.0408 16.9212 22.9771 16.735 23.9226 16.735C24.8681 16.735 25.8043 16.9212 26.6779 17.2831C27.5514 17.6449 28.3452 18.1753 29.0137 18.8438C29.6823 19.5124 30.2127 20.3061 30.5745 21.1797C30.9363 22.0532 31.1226 22.9895 31.1226 23.935L31.1226 39.391L29.3946 37.663C29.2298 37.4862 29.0311 37.3443 28.8103 37.2459C28.5895 37.1476 28.3511 37.0947 28.1094 37.0904C27.8677 37.0861 27.6277 37.1306 27.4035 37.2211C27.1794 37.3116 26.9758 37.4464 26.8049 37.6173C26.634 37.7882 26.4992 37.9918 26.4087 38.216C26.3181 38.4401 26.2737 38.6802 26.278 38.9219C26.2822 39.1636 26.3351 39.4019 26.4335 39.6227C26.5319 39.8435 26.6737 40.0422 26.8506 40.207L31.6506 45.007C31.9881 45.3441 32.4456 45.5334 32.9226 45.5334C33.3996 45.5334 33.8571 45.3441 34.1946 45.007L38.9946 40.207C39.1714 40.0422 39.3133 39.8435 39.4116 39.6227C39.51 39.4019 39.5629 39.1636 39.5672 38.9219C39.5715 38.6802 39.527 38.4401 39.4365 38.216C39.3459 37.9918 39.2112 37.7882 39.0403 37.6173C38.8693 37.4464 38.6657 37.3116 38.4416 37.2211C38.2175 37.1306 37.9774 37.0861 37.7357 37.0904C37.494 37.0947 37.2557 37.1476 37.0349 37.2459C36.8141 37.3443 36.6154 37.4862 36.4506 37.663L34.7226 39.391L34.7226 23.935C34.7221 21.5868 33.9563 19.3027 32.5412 17.4287C31.1261 15.5548 29.1388 14.1931 26.8804 13.55C24.6219 12.9069 22.2154 13.0174 20.0254 13.8648C17.8354 14.7121 15.9812 16.2502 14.7438 18.2459C13.5064 20.2416 12.9531 22.5863 13.1678 24.9247C13.3825 27.2631 14.3536 29.4678 15.9337 31.2047C17.5139 32.9417 19.6172 34.1164 21.9249 34.5507C24.2326 34.9851 26.619 34.6555 28.7226 33.6118L28.7226 29.3014C27.6866 30.228 26.4046 30.8349 25.0313 31.049C23.658 31.263 22.2521 31.075 20.9833 30.5076C19.7145 29.9401 18.637 29.0176 17.881 27.8514C17.1249 26.6851 16.7226 25.3249 16.7226 23.935ZM31.1226 6.53501L31.1226 12.871C32.5316 13.7893 33.7533 14.967 34.7226 16.3414L34.7226 6.53501C34.7226 6.05762 34.5329 5.59978 34.1954 5.26221C33.8578 4.92465 33.4 4.73501 32.9226 4.73501C32.4452 4.73501 31.9873 4.92465 31.6498 5.26222C31.3122 5.59978 31.1226 6.05762 31.1226 6.53501Z" fill="white"/>
<path d="M31.1676 24.1929C31.1676 25.1385 30.9813 26.0747 30.6195 26.9483C30.2577 27.8218 29.7273 28.6155 29.0587 29.2841C28.3902 29.9527 27.5964 30.483 26.7229 30.8449C25.8493 31.2067 24.9131 31.3929 23.9676 31.3929C23.022 31.3929 22.0858 31.2067 21.2122 30.8449C20.3387 30.483 19.545 29.9527 18.8764 29.2841C18.2078 28.6155 17.6775 27.8218 17.3156 26.9483C16.9538 26.0747 16.7676 25.1385 16.7676 24.1929L16.7676 8.73694L18.4956 10.4649C18.6604 10.6418 18.8591 10.7836 19.0799 10.882C19.3007 10.9804 19.539 11.0333 19.7807 11.0376C20.0224 11.0418 20.2625 10.9974 20.4866 10.9068C20.7107 10.8163 20.9143 10.6816 21.0853 10.5106C21.2562 10.3397 21.3909 10.1361 21.4815 9.91198C21.572 9.68785 21.6164 9.44777 21.6122 9.20609C21.6079 8.9644 21.555 8.72605 21.4566 8.50525C21.3583 8.28445 21.2164 8.08573 21.0396 7.92094L16.2396 3.12094C15.9021 2.78386 15.4446 2.59453 14.9676 2.59453C14.4906 2.59453 14.0331 2.78386 13.6956 3.12094L8.89556 7.92094C8.71871 8.08573 8.57687 8.28445 8.47849 8.50525C8.38011 8.72605 8.32721 8.9644 8.32294 9.20609C8.31868 9.44778 8.36314 9.68785 8.45367 9.91198C8.5442 10.1361 8.67895 10.3397 8.84987 10.5106C9.0208 10.6816 9.2244 10.8163 9.44853 10.9068C9.67266 10.9974 9.91273 11.0418 10.1544 11.0376C10.3961 11.0333 10.6345 10.9804 10.8553 10.882C11.0761 10.7836 11.2748 10.6418 11.4396 10.4649L13.1676 8.73694L13.1676 24.1929C13.168 26.5412 13.9338 28.8253 15.3489 30.6992C16.764 32.5732 18.7513 33.9348 21.0098 34.5779C23.2682 35.221 25.6747 35.1106 27.8647 34.2632C30.0547 33.4158 31.9089 31.8778 33.1464 29.8821C34.3838 27.8863 34.937 25.5417 34.7223 23.2033C34.5076 20.8649 33.5366 18.6602 31.9564 16.9232C30.3762 15.1862 28.2729 14.0116 25.9652 13.5772C23.6575 13.1429 21.2711 13.4725 19.1676 14.5161L19.1676 18.8265C20.2035 17.8999 21.4855 17.293 22.8589 17.079C24.2322 16.865 25.6381 17.053 26.9069 17.6204C28.1757 18.1878 29.2531 19.1103 30.0092 20.2766C30.7652 21.4429 31.1675 22.803 31.1676 24.1929ZM16.7676 41.5929L16.7676 35.2569C15.3585 34.3387 14.1368 33.161 13.1676 31.7865L13.1676 41.5929C13.1676 42.0703 13.3572 42.5282 13.6948 42.8657C14.0323 43.2033 14.4902 43.3929 14.9676 43.3929C15.445 43.3929 15.9028 43.2033 16.2404 42.8657C16.5779 42.5282 16.7676 42.0703 16.7676 41.5929Z" fill="white"/>
</svg>
