<svg width="20" height="20" viewBox="0 0 20 20" fill="none" xmlns="http://www.w3.org/2000/svg">
<path d="M19 10V2.5C19 2.10218 18.842 1.72064 18.5607 1.43934C18.2794 1.15804 17.8978 1 17.5 1H2.5C2.10218 1 1.72064 1.15804 1.43934 1.43934C1.15804 1.72064 1 2.10218 1 2.5V17.5C1 17.8978 1.15804 18.2794 1.43934 18.5607C1.72064 18.842 2.10218 19 2.5 19H10" stroke="#D7DFFF" stroke-width="2" stroke-linecap="round" stroke-linejoin="round"/>
<path d="M14 17C15.6569 17 17 15.6569 17 14C17 12.3431 15.6569 11 14 11C12.3431 11 11 12.3431 11 14C11 15.6569 12.3431 17 14 17Z" stroke="#D7DFFF" stroke-width="2"/>
<path d="M16.5 16L19 18M5 6H15M5 10H9" stroke="#D7DFFF" stroke-width="2" stroke-linecap="round" stroke-linejoin="round"/>
</svg>
