<svg width="24" height="24" viewBox="0 0 24 24" fill="none" xmlns="http://www.w3.org/2000/svg">
<path d="M8.46499 11.2931C9.59799 10.1601 11.574 10.1601 12.707 11.2931L13.414 12.0001L14.828 10.5861L14.121 9.87906C13.178 8.93506 11.922 8.41406 10.586 8.41406C9.24999 8.41406 7.99399 8.93506 7.05099 9.87906L4.92899 12.0001C3.99329 12.9388 3.46786 14.2101 3.46786 15.5356C3.46786 16.861 3.99329 18.1323 4.92899 19.0711C5.39287 19.5356 5.94396 19.9039 6.55061 20.1548C7.15726 20.4057 7.80751 20.5342 8.46399 20.5331C9.12065 20.5344 9.77111 20.406 10.3779 20.1551C10.9848 19.9042 11.536 19.5358 12 19.0711L12.707 18.3641L11.293 16.9501L10.586 17.6571C10.0225 18.2181 9.25966 18.533 8.46449 18.533C7.66932 18.533 6.90652 18.2181 6.34299 17.6571C5.7815 17.0938 5.4662 16.3309 5.4662 15.5356C5.4662 14.7402 5.7815 13.9773 6.34299 13.4141L8.46499 11.2931Z" fill="white"/>
<path d="M12 4.92899L11.293 5.63599L12.707 7.04999L13.414 6.34299C13.9775 5.78198 14.7403 5.46702 15.5355 5.46702C16.3307 5.46702 17.0935 5.78198 17.657 6.34299C18.2185 6.90626 18.5338 7.66916 18.5338 8.46449C18.5338 9.25983 18.2185 10.0227 17.657 10.586L15.535 12.707C14.402 13.84 12.426 13.84 11.293 12.707L10.586 12L9.172 13.414L9.879 14.121C10.822 15.065 12.078 15.586 13.414 15.586C14.75 15.586 16.006 15.065 16.949 14.121L19.071 12C20.0067 11.0613 20.5321 9.78991 20.5321 8.46449C20.5321 7.13908 20.0067 5.86771 19.071 4.92899C18.1325 3.9928 16.8611 3.46704 15.5355 3.46704C14.2099 3.46704 12.9385 3.9928 12 4.92899Z" fill="white"/>
</svg>
