<svg width="49" height="48" viewBox="0 0 49 48" fill="none" xmlns="http://www.w3.org/2000/svg">
<path d="M24.5 41.9999C26.8642 42.003 29.2058 41.5388 31.39 40.634C33.5743 39.7292 35.5582 38.4017 37.2278 36.7277C38.9018 35.0582 40.2293 33.0743 41.1341 30.89C42.0388 28.7057 42.503 26.3642 42.5 24C42.503 21.6357 42.0388 19.2942 41.134 17.11C40.2292 14.9257 38.9017 12.9418 37.2278 11.2722C35.5582 9.59823 33.5743 8.27071 31.39 7.36593C29.2058 6.46115 26.8642 5.99695 24.5 6.00002C22.1358 5.997 19.7942 6.46122 17.61 7.366C15.4257 8.27077 13.4418 9.59827 11.7722 11.2722C10.0983 12.9418 8.77078 14.9257 7.866 17.11C6.96122 19.2942 6.497 21.6357 6.50002 24C6.49695 26.3642 6.96115 28.7057 7.86593 30.89C8.77071 33.0743 10.0982 35.0582 11.7722 36.7277C13.4418 38.4017 15.4257 39.7292 17.61 40.6339C19.7942 41.5387 22.1358 42.0029 24.5 41.9999Z" stroke="white" stroke-width="3.59999" stroke-linejoin="round"/>
<path d="M17.3 24L22.7 29.4L33.5 18.6" stroke="white" stroke-width="3.59999" stroke-linecap="round" stroke-linejoin="round"/>
</svg>
