<svg width="48" height="48" viewBox="0 0 48 48" fill="none" xmlns="http://www.w3.org/2000/svg">
<path d="M36 20C36 19.4696 35.7893 18.9609 35.4142 18.5858C35.0392 18.2107 34.5305 18 34 18H10.82L15.42 13.42C15.7966 13.0434 16.0082 12.5326 16.0082 12C16.0082 11.4674 15.7966 10.9566 15.42 10.58C15.0434 10.2034 14.5326 9.99182 14 9.99182C13.4674 9.99182 12.9566 10.2034 12.58 10.58L4.58003 18.58C4.30252 18.8613 4.11453 19.2184 4.03978 19.6064C3.96503 19.9944 4.00688 20.3958 4.16003 20.76C4.31007 21.1252 4.56487 21.4379 4.89231 21.6586C5.21975 21.8792 5.60518 21.998 6.00003 22H34C34.5305 22 35.0392 21.7893 35.4142 21.4142C35.7893 21.0391 36 20.5304 36 20ZM43.84 27.24C43.69 26.8748 43.4352 26.5621 43.1078 26.3414C42.7803 26.1208 42.3949 26.002 42 26H14C13.4696 26 12.9609 26.2107 12.5858 26.5858C12.2107 26.9609 12 27.4696 12 28C12 28.5304 12.2107 29.0391 12.5858 29.4142C12.9609 29.7893 13.4696 30 14 30H37.18L32.58 34.58C32.3926 34.7659 32.2438 34.9871 32.1423 35.2309C32.0407 35.4746 31.9884 35.736 31.9884 36C31.9884 36.264 32.0407 36.5254 32.1423 36.7692C32.2438 37.0129 32.3926 37.2341 32.58 37.42C32.766 37.6075 32.9872 37.7563 33.2309 37.8578C33.4746 37.9593 33.736 38.0116 34 38.0116C34.2641 38.0116 34.5255 37.9593 34.7692 37.8578C35.0129 37.7563 35.2341 37.6075 35.42 37.42L43.42 29.42C43.6975 29.1388 43.8855 28.7816 43.9603 28.3936C44.035 28.0057 43.9932 27.6042 43.84 27.24Z" fill="white"/>
</svg>
