<svg width="580" height="28" viewBox="0 0 580 28" fill="none" xmlns="http://www.w3.org/2000/svg">
<g clip-path="url(#clip0_132_12538)">
<rect x="17.8074" y="-4.46365" width="10.5217" height="43.4669" transform="rotate(29.4158 17.8074 -4.46365)" fill="#29FDFE"/>
</g>
<g clip-path="url(#clip1_132_12538)">
<rect x="31.9624" y="-4.46365" width="10.5217" height="43.4669" transform="rotate(29.4158 31.9624 -4.46365)" fill="#29FDFE"/>
</g>
<g clip-path="url(#clip2_132_12538)">
<rect x="46.1177" y="-4.46365" width="10.5217" height="43.4669" transform="rotate(29.4158 46.1177 -4.46365)" fill="#29FDFE"/>
</g>
<g clip-path="url(#clip3_132_12538)">
<rect x="60.2727" y="-4.46365" width="10.5217" height="43.4669" transform="rotate(29.4158 60.2727 -4.46365)" fill="#29FDFE"/>
</g>
<g clip-path="url(#clip4_132_12538)">
<rect x="74.428" y="-4.46365" width="10.5217" height="43.4669" transform="rotate(29.4158 74.428 -4.46365)" fill="#29FDFE"/>
</g>
<g clip-path="url(#clip5_132_12538)">
<rect x="88.583" y="-4.46365" width="10.5217" height="43.4669" transform="rotate(29.4158 88.583 -4.46365)" fill="#29FDFE"/>
</g>
<g clip-path="url(#clip6_132_12538)">
<rect x="102.738" y="-4.46365" width="10.5217" height="43.4669" transform="rotate(29.4158 102.738 -4.46365)" fill="#29FDFE"/>
</g>
<g clip-path="url(#clip7_132_12538)">
<rect x="116.893" y="-4.46365" width="10.5217" height="43.4669" transform="rotate(29.4158 116.893 -4.46365)" fill="#29FDFE"/>
<rect x="116.893" y="-4.46365" width="10.5217" height="43.4669" transform="rotate(29.4158 116.893 -4.46365)" fill="#2EBDFF" fill-opacity="0.3"/>
</g>
<g clip-path="url(#clip8_132_12538)">
<rect x="131.049" y="-4.46365" width="10.5217" height="43.4669" transform="rotate(29.4158 131.049 -4.46365)" fill="#29FDFE"/>
<rect x="131.049" y="-4.46365" width="10.5217" height="43.4669" transform="rotate(29.4158 131.049 -4.46365)" fill="#337DFF" fill-opacity="0.4"/>
</g>
<g clip-path="url(#clip9_132_12538)">
<rect x="145.204" y="-4.46365" width="10.5217" height="43.4669" transform="rotate(29.4158 145.204 -4.46365)" fill="#29FDFE"/>
<rect x="145.204" y="-4.46365" width="10.5217" height="43.4669" transform="rotate(29.4158 145.204 -4.46365)" fill="#337DFF" fill-opacity="0.5"/>
</g>
<g clip-path="url(#clip10_132_12538)">
<rect x="159.359" y="-4.46365" width="10.5217" height="43.4669" transform="rotate(29.4158 159.359 -4.46365)" fill="#2EBDFF"/>
<rect x="159.359" y="-4.46365" width="10.5217" height="43.4669" transform="rotate(29.4158 159.359 -4.46365)" fill="#337DFF" fill-opacity="0.6"/>
</g>
<g clip-path="url(#clip11_132_12538)">
<rect x="173.514" y="-4.46365" width="10.5217" height="43.4669" transform="rotate(29.4158 173.514 -4.46365)" fill="#337DFF"/>
</g>
<g clip-path="url(#clip12_132_12538)">
<rect x="187.669" y="-4.46365" width="10.5217" height="43.4669" transform="rotate(29.4158 187.669 -4.46365)" fill="white" fill-opacity="0.2"/>
</g>
<g clip-path="url(#clip13_132_12538)">
<rect x="201.824" y="-4.46365" width="10.5217" height="43.4669" transform="rotate(29.4158 201.824 -4.46365)" fill="white" fill-opacity="0.2"/>
</g>
<g clip-path="url(#clip14_132_12538)">
<rect x="215.979" y="-4.46365" width="10.5217" height="43.4669" transform="rotate(29.4158 215.979 -4.46365)" fill="white" fill-opacity="0.2"/>
</g>
<g clip-path="url(#clip15_132_12538)">
<rect x="230.135" y="-4.46365" width="10.5217" height="43.4669" transform="rotate(29.4158 230.135 -4.46365)" fill="white" fill-opacity="0.2"/>
</g>
<g clip-path="url(#clip16_132_12538)">
<rect x="244.29" y="-4.46365" width="10.5217" height="43.4669" transform="rotate(29.4158 244.29 -4.46365)" fill="white" fill-opacity="0.2"/>
</g>
<g clip-path="url(#clip17_132_12538)">
<rect x="258.445" y="-4.46365" width="10.5217" height="43.4669" transform="rotate(29.4158 258.445 -4.46365)" fill="white" fill-opacity="0.2"/>
</g>
<g clip-path="url(#clip18_132_12538)">
<rect x="272.6" y="-4.46365" width="10.5217" height="43.4669" transform="rotate(29.4158 272.6 -4.46365)" fill="white" fill-opacity="0.2"/>
</g>
<g clip-path="url(#clip19_132_12538)">
<rect x="286.755" y="-4.46365" width="10.5217" height="43.4669" transform="rotate(29.4158 286.755 -4.46365)" fill="white" fill-opacity="0.2"/>
</g>
<g clip-path="url(#clip20_132_12538)">
<rect x="300.91" y="-4.46365" width="10.5217" height="43.4669" transform="rotate(29.4158 300.91 -4.46365)" fill="white" fill-opacity="0.2"/>
</g>
<g clip-path="url(#clip21_132_12538)">
<rect x="315.065" y="-4.46365" width="10.5217" height="43.4669" transform="rotate(29.4158 315.065 -4.46365)" fill="white" fill-opacity="0.2"/>
</g>
<g clip-path="url(#clip22_132_12538)">
<rect x="329.221" y="-4.46365" width="10.5217" height="43.4669" transform="rotate(29.4158 329.221 -4.46365)" fill="white" fill-opacity="0.2"/>
</g>
<g clip-path="url(#clip23_132_12538)">
<rect x="343.376" y="-4.46365" width="10.5217" height="43.4669" transform="rotate(29.4158 343.376 -4.46365)" fill="white" fill-opacity="0.2"/>
</g>
<g clip-path="url(#clip24_132_12538)">
<rect x="357.531" y="-4.46365" width="10.5217" height="43.4669" transform="rotate(29.4158 357.531 -4.46365)" fill="white" fill-opacity="0.2"/>
</g>
<g clip-path="url(#clip25_132_12538)">
<rect x="371.686" y="-4.46365" width="10.5217" height="43.4669" transform="rotate(29.4158 371.686 -4.46365)" fill="white" fill-opacity="0.2"/>
</g>
<g clip-path="url(#clip26_132_12538)">
<rect x="385.841" y="-4.46365" width="10.5217" height="43.4669" transform="rotate(29.4158 385.841 -4.46365)" fill="white" fill-opacity="0.2"/>
</g>
<g clip-path="url(#clip27_132_12538)">
<rect x="399.996" y="-4.46365" width="10.5217" height="43.4669" transform="rotate(29.4158 399.996 -4.46365)" fill="white" fill-opacity="0.2"/>
</g>
<g clip-path="url(#clip28_132_12538)">
<rect x="414.152" y="-4.46365" width="10.5217" height="43.4669" transform="rotate(29.4158 414.152 -4.46365)" fill="white" fill-opacity="0.2"/>
</g>
<g clip-path="url(#clip29_132_12538)">
<rect x="428.307" y="-4.46365" width="10.5217" height="43.4669" transform="rotate(29.4158 428.307 -4.46365)" fill="white" fill-opacity="0.2"/>
</g>
<g clip-path="url(#clip30_132_12538)">
<rect x="442.462" y="-4.46365" width="10.5217" height="43.4669" transform="rotate(29.4158 442.462 -4.46365)" fill="white" fill-opacity="0.2"/>
</g>
<g clip-path="url(#clip31_132_12538)">
<rect x="456.617" y="-4.46365" width="10.5217" height="43.4669" transform="rotate(29.4158 456.617 -4.46365)" fill="white" fill-opacity="0.2"/>
</g>
<g clip-path="url(#clip32_132_12538)">
<rect x="470.772" y="-4.46365" width="10.5217" height="43.4669" transform="rotate(29.4158 470.772 -4.46365)" fill="white" fill-opacity="0.2"/>
</g>
<g clip-path="url(#clip33_132_12538)">
<rect x="484.927" y="-4.46365" width="10.5217" height="43.4669" transform="rotate(29.4158 484.927 -4.46365)" fill="white" fill-opacity="0.2"/>
</g>
<g clip-path="url(#clip34_132_12538)">
<rect x="499.083" y="-4.46365" width="10.5217" height="43.4669" transform="rotate(29.4158 499.083 -4.46365)" fill="white" fill-opacity="0.2"/>
</g>
<g clip-path="url(#clip35_132_12538)">
<rect x="513.238" y="-4.46365" width="10.5217" height="43.4669" transform="rotate(29.4158 513.238 -4.46365)" fill="white" fill-opacity="0.2"/>
</g>
<g clip-path="url(#clip36_132_12538)">
<rect x="527.393" y="-4.46365" width="10.5217" height="43.4669" transform="rotate(29.4158 527.393 -4.46365)" fill="white" fill-opacity="0.2"/>
</g>
<g clip-path="url(#clip37_132_12538)">
<rect x="541.548" y="-4.46365" width="10.5217" height="43.4669" transform="rotate(29.4158 541.548 -4.46365)" fill="white" fill-opacity="0.2"/>
</g>
<g clip-path="url(#clip38_132_12538)">
<rect x="555.703" y="-4.46365" width="10.5217" height="43.4669" transform="rotate(29.4158 555.703 -4.46365)" fill="white" fill-opacity="0.2"/>
</g>
<g clip-path="url(#clip39_132_12538)">
<rect x="569.858" y="-4.46365" width="10.5217" height="43.4669" transform="rotate(29.4158 569.858 -4.46365)" fill="white" fill-opacity="0.2"/>
</g>
<defs>
<clipPath id="clip0_132_12538">
<rect width="27.2386" height="27.2386" fill="white" transform="translate(0 0.439301)"/>
</clipPath>
<clipPath id="clip1_132_12538">
<rect width="27.2386" height="27.2386" fill="white" transform="translate(14.155 0.439301)"/>
</clipPath>
<clipPath id="clip2_132_12538">
<rect width="27.2386" height="27.2386" fill="white" transform="translate(28.3103 0.439301)"/>
</clipPath>
<clipPath id="clip3_132_12538">
<rect width="27.2386" height="27.2386" fill="white" transform="translate(42.4653 0.439301)"/>
</clipPath>
<clipPath id="clip4_132_12538">
<rect width="27.2386" height="27.2386" fill="white" transform="translate(56.6206 0.439301)"/>
</clipPath>
<clipPath id="clip5_132_12538">
<rect width="27.2386" height="27.2386" fill="white" transform="translate(70.7756 0.439301)"/>
</clipPath>
<clipPath id="clip6_132_12538">
<rect width="27.2386" height="27.2386" fill="white" transform="translate(84.9309 0.439301)"/>
</clipPath>
<clipPath id="clip7_132_12538">
<rect width="27.2386" height="27.2386" fill="white" transform="translate(99.0859 0.439301)"/>
</clipPath>
<clipPath id="clip8_132_12538">
<rect width="27.2386" height="27.2386" fill="white" transform="translate(113.241 0.439301)"/>
</clipPath>
<clipPath id="clip9_132_12538">
<rect width="27.2386" height="27.2386" fill="white" transform="translate(127.396 0.439301)"/>
</clipPath>
<clipPath id="clip10_132_12538">
<rect width="27.2386" height="27.2386" fill="white" transform="translate(141.552 0.439301)"/>
</clipPath>
<clipPath id="clip11_132_12538">
<rect width="27.2386" height="27.2386" fill="white" transform="translate(155.707 0.439301)"/>
</clipPath>
<clipPath id="clip12_132_12538">
<rect width="27.2386" height="27.2386" fill="white" transform="translate(169.862 0.439301)"/>
</clipPath>
<clipPath id="clip13_132_12538">
<rect width="27.2386" height="27.2386" fill="white" transform="translate(184.017 0.439301)"/>
</clipPath>
<clipPath id="clip14_132_12538">
<rect width="27.2386" height="27.2386" fill="white" transform="translate(198.172 0.439301)"/>
</clipPath>
<clipPath id="clip15_132_12538">
<rect width="27.2386" height="27.2386" fill="white" transform="translate(212.327 0.439301)"/>
</clipPath>
<clipPath id="clip16_132_12538">
<rect width="27.2386" height="27.2386" fill="white" transform="translate(226.482 0.439301)"/>
</clipPath>
<clipPath id="clip17_132_12538">
<rect width="27.2386" height="27.2386" fill="white" transform="translate(240.637 0.439301)"/>
</clipPath>
<clipPath id="clip18_132_12538">
<rect width="27.2386" height="27.2386" fill="white" transform="translate(254.793 0.439301)"/>
</clipPath>
<clipPath id="clip19_132_12538">
<rect width="27.2386" height="27.2386" fill="white" transform="translate(268.948 0.439301)"/>
</clipPath>
<clipPath id="clip20_132_12538">
<rect width="27.2386" height="27.2386" fill="white" transform="translate(283.103 0.439301)"/>
</clipPath>
<clipPath id="clip21_132_12538">
<rect width="27.2386" height="27.2386" fill="white" transform="translate(297.258 0.439301)"/>
</clipPath>
<clipPath id="clip22_132_12538">
<rect width="27.2386" height="27.2386" fill="white" transform="translate(311.413 0.439301)"/>
</clipPath>
<clipPath id="clip23_132_12538">
<rect width="27.2386" height="27.2386" fill="white" transform="translate(325.568 0.439301)"/>
</clipPath>
<clipPath id="clip24_132_12538">
<rect width="27.2386" height="27.2386" fill="white" transform="translate(339.724 0.439301)"/>
</clipPath>
<clipPath id="clip25_132_12538">
<rect width="27.2386" height="27.2386" fill="white" transform="translate(353.879 0.439301)"/>
</clipPath>
<clipPath id="clip26_132_12538">
<rect width="27.2386" height="27.2386" fill="white" transform="translate(368.034 0.439301)"/>
</clipPath>
<clipPath id="clip27_132_12538">
<rect width="27.2386" height="27.2386" fill="white" transform="translate(382.189 0.439301)"/>
</clipPath>
<clipPath id="clip28_132_12538">
<rect width="27.2386" height="27.2386" fill="white" transform="translate(396.344 0.439301)"/>
</clipPath>
<clipPath id="clip29_132_12538">
<rect width="27.2386" height="27.2386" fill="white" transform="translate(410.499 0.439301)"/>
</clipPath>
<clipPath id="clip30_132_12538">
<rect width="27.2386" height="27.2386" fill="white" transform="translate(424.655 0.439301)"/>
</clipPath>
<clipPath id="clip31_132_12538">
<rect width="27.2386" height="27.2386" fill="white" transform="translate(438.81 0.439301)"/>
</clipPath>
<clipPath id="clip32_132_12538">
<rect width="27.2386" height="27.2386" fill="white" transform="translate(452.965 0.439301)"/>
</clipPath>
<clipPath id="clip33_132_12538">
<rect width="27.2386" height="27.2386" fill="white" transform="translate(467.12 0.439301)"/>
</clipPath>
<clipPath id="clip34_132_12538">
<rect width="27.2386" height="27.2386" fill="white" transform="translate(481.275 0.439301)"/>
</clipPath>
<clipPath id="clip35_132_12538">
<rect width="27.2386" height="27.2386" fill="white" transform="translate(495.43 0.439301)"/>
</clipPath>
<clipPath id="clip36_132_12538">
<rect width="27.2386" height="27.2386" fill="white" transform="translate(509.585 0.439301)"/>
</clipPath>
<clipPath id="clip37_132_12538">
<rect width="27.2386" height="27.2386" fill="white" transform="translate(523.74 0.439301)"/>
</clipPath>
<clipPath id="clip38_132_12538">
<rect width="27.2386" height="27.2386" fill="white" transform="translate(537.896 0.439301)"/>
</clipPath>
<clipPath id="clip39_132_12538">
<rect width="27.2386" height="27.2386" fill="white" transform="translate(552.051 0.439301)"/>
</clipPath>
</defs>
</svg>
