<svg width="579" height="28" viewBox="0 0 579 28" fill="none" xmlns="http://www.w3.org/2000/svg">
<g clip-path="url(#clip0_132_12583)">
<rect x="17.7607" y="-4.47369" width="10.4941" height="43.3529" transform="rotate(29.4158 17.7607 -4.47369)" fill="#29FDFE"/>
</g>
<g clip-path="url(#clip1_132_12583)">
<rect x="31.9104" y="-4.47369" width="10.4941" height="43.3529" transform="rotate(29.4158 31.9104 -4.47369)" fill="#29FDFE"/>
</g>
<g clip-path="url(#clip2_132_12583)">
<rect x="46.0598" y="-4.47369" width="10.4941" height="43.3529" transform="rotate(29.4158 46.0598 -4.47369)" fill="#29FDFE"/>
</g>
<g clip-path="url(#clip3_132_12583)">
<rect x="60.2095" y="-4.47369" width="10.4941" height="43.3529" transform="rotate(29.4158 60.2095 -4.47369)" fill="#29FDFE"/>
</g>
<g clip-path="url(#clip4_132_12583)">
<rect x="74.3589" y="-4.47369" width="10.4941" height="43.3529" transform="rotate(29.4158 74.3589 -4.47369)" fill="#29FDFE"/>
</g>
<g clip-path="url(#clip5_132_12583)">
<rect x="88.5085" y="-4.47369" width="10.4941" height="43.3529" transform="rotate(29.4158 88.5085 -4.47369)" fill="#29FDFE"/>
</g>
<g clip-path="url(#clip6_132_12583)">
<rect x="102.658" y="-4.47369" width="10.4941" height="43.3529" transform="rotate(29.4158 102.658 -4.47369)" fill="#29FDFE"/>
</g>
<g clip-path="url(#clip7_132_12583)">
<rect x="116.808" y="-4.47369" width="10.4941" height="43.3529" transform="rotate(29.4158 116.808 -4.47369)" fill="#29FDFE"/>
<rect x="116.808" y="-4.47369" width="10.4941" height="43.3529" transform="rotate(29.4158 116.808 -4.47369)" fill="#2EBDFF" fill-opacity="0.3"/>
</g>
<g clip-path="url(#clip8_132_12583)">
<rect x="130.957" y="-4.47369" width="10.4941" height="43.3529" transform="rotate(29.4158 130.957 -4.47369)" fill="#29FDFE"/>
<rect x="130.957" y="-4.47369" width="10.4941" height="43.3529" transform="rotate(29.4158 130.957 -4.47369)" fill="#337DFF" fill-opacity="0.4"/>
</g>
<g clip-path="url(#clip9_132_12583)">
<rect x="145.107" y="-4.47369" width="10.4941" height="43.3529" transform="rotate(29.4158 145.107 -4.47369)" fill="#29FDFE"/>
<rect x="145.107" y="-4.47369" width="10.4941" height="43.3529" transform="rotate(29.4158 145.107 -4.47369)" fill="#337DFF" fill-opacity="0.5"/>
</g>
<g clip-path="url(#clip10_132_12583)">
<rect x="159.256" y="-4.47369" width="10.4941" height="43.3529" transform="rotate(29.4158 159.256 -4.47369)" fill="#2EBDFF"/>
<rect x="159.256" y="-4.47369" width="10.4941" height="43.3529" transform="rotate(29.4158 159.256 -4.47369)" fill="#337DFF" fill-opacity="0.6"/>
</g>
<g clip-path="url(#clip11_132_12583)">
<rect x="173.406" y="-4.47369" width="10.4941" height="43.3529" transform="rotate(29.4158 173.406 -4.47369)" fill="#337DFF"/>
</g>
<g clip-path="url(#clip12_132_12583)">
<rect x="187.555" y="-4.47369" width="10.4941" height="43.3529" transform="rotate(29.4158 187.555 -4.47369)" fill="#337DFF"/>
</g>
<g clip-path="url(#clip13_132_12583)">
<rect x="201.705" y="-4.47369" width="10.4941" height="43.3529" transform="rotate(29.4158 201.705 -4.47369)" fill="#337DFF"/>
</g>
<g clip-path="url(#clip14_132_12583)">
<rect x="215.854" y="-4.47369" width="10.4941" height="43.3529" transform="rotate(29.4158 215.854 -4.47369)" fill="#337DFF"/>
</g>
<g clip-path="url(#clip15_132_12583)">
<rect x="230.004" y="-4.47369" width="10.4941" height="43.3529" transform="rotate(29.4158 230.004 -4.47369)" fill="#337DFF"/>
</g>
<g clip-path="url(#clip16_132_12583)">
<rect x="244.154" y="-4.47369" width="10.4941" height="43.3529" transform="rotate(29.4158 244.154 -4.47369)" fill="#337DFF"/>
</g>
<g clip-path="url(#clip17_132_12583)">
<rect x="258.303" y="-4.47369" width="10.4941" height="43.3529" transform="rotate(29.4158 258.303 -4.47369)" fill="#337DFF"/>
</g>
<g clip-path="url(#clip18_132_12583)">
<rect x="272.453" y="-4.47369" width="10.4941" height="43.3529" transform="rotate(29.4158 272.453 -4.47369)" fill="#337DFF"/>
</g>
<g clip-path="url(#clip19_132_12583)">
<rect x="286.603" y="-4.47369" width="10.4941" height="43.3529" transform="rotate(29.4158 286.603 -4.47369)" fill="#337DFF"/>
<rect x="286.603" y="-4.47369" width="10.4941" height="43.3529" transform="rotate(29.4158 286.603 -4.47369)" fill="#8C1FF9" fill-opacity="0.3"/>
</g>
<g clip-path="url(#clip20_132_12583)">
<rect x="300.752" y="-4.47369" width="10.4941" height="43.3529" transform="rotate(29.4158 300.752 -4.47369)" fill="#4E61FD"/>
<rect x="300.752" y="-4.47369" width="10.4941" height="43.3529" transform="rotate(29.4158 300.752 -4.47369)" fill="#8C1FF9" fill-opacity="0.4"/>
</g>
<g clip-path="url(#clip21_132_12583)">
<rect x="314.902" y="-4.47369" width="10.4941" height="43.3529" transform="rotate(29.4158 314.902 -4.47369)" fill="#6747FB"/>
<rect x="314.902" y="-4.47369" width="10.4941" height="43.3529" transform="rotate(29.4158 314.902 -4.47369)" fill="#8C1FF9" fill-opacity="0.5"/>
</g>
<g clip-path="url(#clip22_132_12583)">
<rect x="329.051" y="-4.47369" width="10.4941" height="43.3529" transform="rotate(29.4158 329.051 -4.47369)" fill="white" fill-opacity="0.2"/>
</g>
<g clip-path="url(#clip23_132_12583)">
<rect x="343.201" y="-4.47369" width="10.4941" height="43.3529" transform="rotate(29.4158 343.201 -4.47369)" fill="white" fill-opacity="0.2"/>
</g>
<g clip-path="url(#clip24_132_12583)">
<rect x="357.35" y="-4.47369" width="10.4941" height="43.3529" transform="rotate(29.4158 357.35 -4.47369)" fill="white" fill-opacity="0.2"/>
</g>
<g clip-path="url(#clip25_132_12583)">
<rect x="371.5" y="-4.47369" width="10.4941" height="43.3529" transform="rotate(29.4158 371.5 -4.47369)" fill="white" fill-opacity="0.2"/>
</g>
<g clip-path="url(#clip26_132_12583)">
<rect x="385.649" y="-4.47369" width="10.4941" height="43.3529" transform="rotate(29.4158 385.649 -4.47369)" fill="white" fill-opacity="0.2"/>
</g>
<g clip-path="url(#clip27_132_12583)">
<rect x="399.799" y="-4.47369" width="10.4941" height="43.3529" transform="rotate(29.4158 399.799 -4.47369)" fill="white" fill-opacity="0.2"/>
</g>
<g clip-path="url(#clip28_132_12583)">
<rect x="413.948" y="-4.47369" width="10.4941" height="43.3529" transform="rotate(29.4158 413.948 -4.47369)" fill="white" fill-opacity="0.2"/>
</g>
<g clip-path="url(#clip29_132_12583)">
<rect x="428.098" y="-4.47369" width="10.4941" height="43.3529" transform="rotate(29.4158 428.098 -4.47369)" fill="white" fill-opacity="0.2"/>
</g>
<g clip-path="url(#clip30_132_12583)">
<rect x="442.248" y="-4.47369" width="10.4941" height="43.3529" transform="rotate(29.4158 442.248 -4.47369)" fill="white" fill-opacity="0.2"/>
</g>
<g clip-path="url(#clip31_132_12583)">
<rect x="456.397" y="-4.47369" width="10.4941" height="43.3529" transform="rotate(29.4158 456.397 -4.47369)" fill="white" fill-opacity="0.2"/>
</g>
<g clip-path="url(#clip32_132_12583)">
<rect x="470.547" y="-4.47369" width="10.4941" height="43.3529" transform="rotate(29.4158 470.547 -4.47369)" fill="white" fill-opacity="0.2"/>
</g>
<g clip-path="url(#clip33_132_12583)">
<rect x="484.696" y="-4.47369" width="10.4941" height="43.3529" transform="rotate(29.4158 484.696 -4.47369)" fill="white" fill-opacity="0.2"/>
</g>
<g clip-path="url(#clip34_132_12583)">
<rect x="498.846" y="-4.47369" width="10.4941" height="43.3529" transform="rotate(29.4158 498.846 -4.47369)" fill="white" fill-opacity="0.2"/>
</g>
<g clip-path="url(#clip35_132_12583)">
<rect x="512.996" y="-4.47369" width="10.4941" height="43.3529" transform="rotate(29.4158 512.996 -4.47369)" fill="white" fill-opacity="0.2"/>
</g>
<g clip-path="url(#clip36_132_12583)">
<rect x="527.145" y="-4.47369" width="10.4941" height="43.3529" transform="rotate(29.4158 527.145 -4.47369)" fill="white" fill-opacity="0.2"/>
</g>
<g clip-path="url(#clip37_132_12583)">
<rect x="541.295" y="-4.47369" width="10.4941" height="43.3529" transform="rotate(29.4158 541.295 -4.47369)" fill="white" fill-opacity="0.2"/>
</g>
<g clip-path="url(#clip38_132_12583)">
<rect x="555.444" y="-4.47369" width="10.4941" height="43.3529" transform="rotate(29.4158 555.444 -4.47369)" fill="white" fill-opacity="0.2"/>
</g>
<g clip-path="url(#clip39_132_12583)">
<rect x="569.594" y="-4.47369" width="10.4941" height="43.3529" transform="rotate(29.4158 569.594 -4.47369)" fill="white" fill-opacity="0.2"/>
</g>
<defs>
<clipPath id="clip0_132_12583">
<rect width="27.1672" height="27.1672" fill="white" transform="translate(0 0.416412)"/>
</clipPath>
<clipPath id="clip1_132_12583">
<rect width="27.1672" height="27.1672" fill="white" transform="translate(14.1497 0.416412)"/>
</clipPath>
<clipPath id="clip2_132_12583">
<rect width="27.1672" height="27.1672" fill="white" transform="translate(28.2991 0.416412)"/>
</clipPath>
<clipPath id="clip3_132_12583">
<rect width="27.1672" height="27.1672" fill="white" transform="translate(42.4487 0.416412)"/>
</clipPath>
<clipPath id="clip4_132_12583">
<rect width="27.1672" height="27.1672" fill="white" transform="translate(56.5981 0.416412)"/>
</clipPath>
<clipPath id="clip5_132_12583">
<rect width="27.1672" height="27.1672" fill="white" transform="translate(70.7478 0.416412)"/>
</clipPath>
<clipPath id="clip6_132_12583">
<rect width="27.1672" height="27.1672" fill="white" transform="translate(84.8975 0.416412)"/>
</clipPath>
<clipPath id="clip7_132_12583">
<rect width="27.1672" height="27.1672" fill="white" transform="translate(99.0469 0.416412)"/>
</clipPath>
<clipPath id="clip8_132_12583">
<rect width="27.1672" height="27.1672" fill="white" transform="translate(113.197 0.416412)"/>
</clipPath>
<clipPath id="clip9_132_12583">
<rect width="27.1672" height="27.1672" fill="white" transform="translate(127.346 0.416412)"/>
</clipPath>
<clipPath id="clip10_132_12583">
<rect width="27.1672" height="27.1672" fill="white" transform="translate(141.496 0.416412)"/>
</clipPath>
<clipPath id="clip11_132_12583">
<rect width="27.1672" height="27.1672" fill="white" transform="translate(155.645 0.416412)"/>
</clipPath>
<clipPath id="clip12_132_12583">
<rect width="27.1672" height="27.1672" fill="white" transform="translate(169.795 0.416412)"/>
</clipPath>
<clipPath id="clip13_132_12583">
<rect width="27.1672" height="27.1672" fill="white" transform="translate(183.944 0.416412)"/>
</clipPath>
<clipPath id="clip14_132_12583">
<rect width="27.1672" height="27.1672" fill="white" transform="translate(198.094 0.416412)"/>
</clipPath>
<clipPath id="clip15_132_12583">
<rect width="27.1672" height="27.1672" fill="white" transform="translate(212.243 0.416412)"/>
</clipPath>
<clipPath id="clip16_132_12583">
<rect width="27.1672" height="27.1672" fill="white" transform="translate(226.393 0.416412)"/>
</clipPath>
<clipPath id="clip17_132_12583">
<rect width="27.1672" height="27.1672" fill="white" transform="translate(240.542 0.416412)"/>
</clipPath>
<clipPath id="clip18_132_12583">
<rect width="27.1672" height="27.1672" fill="white" transform="translate(254.692 0.416412)"/>
</clipPath>
<clipPath id="clip19_132_12583">
<rect width="27.1672" height="27.1672" fill="white" transform="translate(268.842 0.416412)"/>
</clipPath>
<clipPath id="clip20_132_12583">
<rect width="27.1672" height="27.1672" fill="white" transform="translate(282.991 0.416412)"/>
</clipPath>
<clipPath id="clip21_132_12583">
<rect width="27.1672" height="27.1672" fill="white" transform="translate(297.141 0.416412)"/>
</clipPath>
<clipPath id="clip22_132_12583">
<rect width="27.1672" height="27.1672" fill="white" transform="translate(311.291 0.416412)"/>
</clipPath>
<clipPath id="clip23_132_12583">
<rect width="27.1672" height="27.1672" fill="white" transform="translate(325.44 0.416412)"/>
</clipPath>
<clipPath id="clip24_132_12583">
<rect width="27.1672" height="27.1672" fill="white" transform="translate(339.59 0.416412)"/>
</clipPath>
<clipPath id="clip25_132_12583">
<rect width="27.1672" height="27.1672" fill="white" transform="translate(353.739 0.416412)"/>
</clipPath>
<clipPath id="clip26_132_12583">
<rect width="27.1672" height="27.1672" fill="white" transform="translate(367.889 0.416412)"/>
</clipPath>
<clipPath id="clip27_132_12583">
<rect width="27.1672" height="27.1672" fill="white" transform="translate(382.038 0.416412)"/>
</clipPath>
<clipPath id="clip28_132_12583">
<rect width="27.1672" height="27.1672" fill="white" transform="translate(396.188 0.416412)"/>
</clipPath>
<clipPath id="clip29_132_12583">
<rect width="27.1672" height="27.1672" fill="white" transform="translate(410.337 0.416412)"/>
</clipPath>
<clipPath id="clip30_132_12583">
<rect width="27.1672" height="27.1672" fill="white" transform="translate(424.487 0.416412)"/>
</clipPath>
<clipPath id="clip31_132_12583">
<rect width="27.1672" height="27.1672" fill="white" transform="translate(438.636 0.416412)"/>
</clipPath>
<clipPath id="clip32_132_12583">
<rect width="27.1672" height="27.1672" fill="white" transform="translate(452.786 0.416412)"/>
</clipPath>
<clipPath id="clip33_132_12583">
<rect width="27.1672" height="27.1672" fill="white" transform="translate(466.936 0.416412)"/>
</clipPath>
<clipPath id="clip34_132_12583">
<rect width="27.1672" height="27.1672" fill="white" transform="translate(481.085 0.416412)"/>
</clipPath>
<clipPath id="clip35_132_12583">
<rect width="27.1672" height="27.1672" fill="white" transform="translate(495.235 0.416412)"/>
</clipPath>
<clipPath id="clip36_132_12583">
<rect width="27.1672" height="27.1672" fill="white" transform="translate(509.384 0.416412)"/>
</clipPath>
<clipPath id="clip37_132_12583">
<rect width="27.1672" height="27.1672" fill="white" transform="translate(523.534 0.416412)"/>
</clipPath>
<clipPath id="clip38_132_12583">
<rect width="27.1672" height="27.1672" fill="white" transform="translate(537.683 0.416412)"/>
</clipPath>
<clipPath id="clip39_132_12583">
<rect width="27.1672" height="27.1672" fill="white" transform="translate(551.833 0.416412)"/>
</clipPath>
</defs>
</svg>
