<svg width="48" height="48" viewBox="0 0 48 48" fill="none" xmlns="http://www.w3.org/2000/svg">
<g clip-path="url(#clip0_1184_2339)">
<path d="M31.1909 24.9775C28.2758 23.5206 24.4058 22.75 20 22.75C15.5942 22.75 11.7242 23.5206 8.80906 24.9775C5.89391 26.4344 4.25 28.4847 4.25 30.625V37.375C4.25 39.5153 5.91219 41.5727 8.80906 43.0225C11.7059 44.4723 15.5942 45.25 20 45.25C24.4058 45.25 28.2758 44.4794 31.1909 43.0225C34.1061 41.5656 35.75 39.5153 35.75 37.375V30.625C35.75 28.4847 34.0878 26.4273 31.1909 24.9775ZM20 25C28.8088 25 33.5 28.2667 33.5 30.625C33.5 32.9833 28.8088 36.25 20 36.25C11.1912 36.25 6.5 32.9833 6.5 30.625C6.5 28.2667 11.1912 25 20 25ZM18.875 38.4803V42.9803C16.2031 42.8931 13.9531 42.4994 12.125 41.927V37.5227C14.3288 38.1098 16.5949 38.4313 18.875 38.4803ZM21.125 38.4803C23.4051 38.4313 25.6712 38.1098 27.875 37.5227V41.9256C26.0469 42.498 23.7969 42.8917 21.125 42.9789V38.4803ZM6.5 37.375V34.7777C7.20798 35.3653 7.98307 35.8671 8.80906 36.2725C9.15078 36.4427 9.51219 36.603 9.875 36.7548V41.0312C7.64891 39.9287 6.5 38.5408 6.5 37.375ZM30.125 41.0312V36.7548C30.492 36.603 30.8492 36.4427 31.1909 36.2725C32.0169 35.8671 32.792 35.3653 33.5 34.7777V37.375C33.5 38.5408 32.3511 39.9287 30.125 41.0312Z" fill="white"/>
<path d="M18 13L42 13M42 13L33 22M42 13L33 4" stroke="white" stroke-width="3" stroke-linecap="round"/>
</g>
<defs>
<clipPath id="clip0_1184_2339">
<rect width="48" height="48" fill="white"/>
</clipPath>
</defs>
</svg>
