<svg width="56" height="56" viewBox="0 0 56 56" fill="none" xmlns="http://www.w3.org/2000/svg">
<g id="image" clip-path="url(#clip0_939_4729)">
<path id="Vector" d="M27.3219 2.27503C28.5469 1.64066 30.0344 3.10628 29.3781 4.33128C29.0063 5.31566 27.5844 5.60003 26.8406 4.83441C26.075 4.11253 26.3156 2.66878 27.3219 2.27503ZM14.175 3.69691C14.9188 3.39066 15.8594 4.06878 15.7719 4.87816C15.8594 5.75316 14.7875 6.40941 14.0219 5.99378C13.0375 5.60003 13.1469 3.98128 14.175 3.69691ZM41.0813 6.01566C39.9219 5.88441 39.7469 4.04691 40.8625 3.69691C41.7375 3.28128 42.525 4.06878 42.6563 4.87816C42.4594 5.57816 41.8688 6.21253 41.0813 6.01566ZM17.1719 9.27503C18.4188 8.48753 20.1906 9.66878 19.9938 11.0907C19.9281 12.5344 18.0031 13.3875 16.9094 12.4032C15.8594 11.6375 16.0125 9.88753 17.1719 9.27503ZM36.0938 10.1063C36.6406 8.68441 38.8938 8.64066 39.5063 10.0188C40.1188 11.0907 39.3531 12.425 38.2594 12.7969C36.7938 13.1032 35.3938 11.5063 36.0938 10.1063ZM25.725 12.7313C25.7031 11.5063 26.8188 10.5875 28 10.5C28.7656 10.6532 29.6188 10.9813 29.9469 11.7688C30.5594 12.8407 30.0125 14.3282 28.8969 14.8094C28.3938 15.0938 27.7813 14.9844 27.2344 14.9625C26.3813 14.5469 25.6594 13.7375 25.725 12.7313ZM6.21251 14.525C7.35001 13.825 8.88126 15.0938 8.44376 16.3188C8.20313 17.3907 6.78126 17.8063 5.95001 17.1282C5.07501 16.5157 5.22813 14.9844 6.21251 14.525ZM48.125 14.525C49.0875 13.7813 50.6625 14.6344 50.5531 15.8375C50.6188 16.9532 49.2406 17.7844 48.3 17.2157C47.25 16.7344 47.1406 15.1157 48.125 14.525ZM31.2156 16.7125C32.7906 16.1438 34.6938 16.8219 35.5906 18.2438C36.7719 19.9719 36.1375 22.5969 34.3 23.6032C32.375 24.7844 29.575 23.7782 28.875 21.6344C28.0656 19.7313 29.2469 17.325 31.2156 16.7125ZM21.9188 16.9094C23.6688 16.0782 26.0313 16.7782 26.8844 18.5719C27.8906 20.3219 27.1031 22.75 25.3313 23.6688C23.5375 24.675 21.0219 23.9094 20.1469 22.0282C19.1844 20.2125 20.0375 17.7407 21.9188 16.9094ZM12.6 20.1032C12.7313 18.9657 13.8031 18.2438 14.875 18.1563C16.0344 18.2875 16.9531 19.2063 17.0844 20.3657C17.0188 21.525 16.1 22.6625 14.875 22.6625C13.5406 22.7719 12.3375 21.4375 12.6 20.1032ZM40.1188 18.3969C41.5188 17.5875 43.4438 18.7688 43.3781 20.3657C43.4656 22.05 41.3438 23.2532 39.9438 22.2688C38.5 21.4375 38.6313 19.0969 40.1188 18.3969ZM18.1344 24.3688C19.7531 23.9313 21.6344 24.6969 22.4219 26.1844C23.2969 27.6938 22.9469 29.7938 21.5906 30.8875C19.8406 32.5063 16.625 31.85 15.7063 29.6407C14.6344 27.6282 15.925 24.8938 18.1344 24.3688ZM35.7875 24.3688C37.3625 23.9094 39.2219 24.5219 40.075 25.9657C41.1906 27.6063 40.6656 30.0782 38.9813 31.1282C37.2313 32.3532 34.5188 31.7188 33.5344 29.7938C32.375 27.7813 33.5563 24.9594 35.7875 24.3688ZM7.65626 26.25C9.05626 25.725 10.6313 27.2782 10.0625 28.6563C9.71251 29.925 7.91876 30.4063 7.00001 29.4657C5.90626 28.5907 6.32188 26.6219 7.65626 26.25ZM45.7844 28.2625C45.7406 27.1032 46.5938 26.075 47.7969 26.0094C48.7594 26.1625 49.7 26.9282 49.6125 27.9782C49.7 29.3563 48.0375 30.2969 46.8563 29.6625C46.3094 29.3782 46.025 28.8094 45.7844 28.2625ZM0.743756 26.9282C1.59688 26.5563 2.64688 27.3 2.45001 28.2407C2.40626 29.3125 0.831256 29.7063 0.262506 28.8313C-0.262494 28.1969 0.0437559 27.2344 0.743756 26.9282ZM54.0969 26.9063C54.6875 26.4907 55.65 26.7969 55.8906 27.475C56.2844 28.2407 55.5625 29.2688 54.7094 29.1375C53.5063 29.2688 53.1125 27.4313 54.0969 26.9063ZM22.7281 32.0032C24.9594 31.4344 27.3438 33.2719 27.3656 35.5688C27.5188 37.8875 25.1563 39.9438 22.8813 39.3969C21.1094 39.1125 19.7313 37.4063 19.7969 35.6344C19.775 33.95 21.0656 32.375 22.7281 32.0032ZM31.5438 32.0032C33.7969 31.3688 36.2688 33.2719 36.225 35.6125C36.3344 37.8875 34.0594 39.8782 31.8281 39.4188C29.7281 39.1563 28.175 36.8375 28.7656 34.8032C29.0719 33.4469 30.2094 32.3313 31.5438 32.0032ZM14.5469 33.425C16.1 33.1625 17.5875 34.9125 16.9531 36.3782C16.4938 37.9532 14.1969 38.3907 13.1688 37.1C11.9656 35.8532 12.8625 33.6 14.5469 33.425ZM40.4031 33.4907C41.8031 32.9 43.5094 34.1032 43.4 35.6344C43.4656 37.2969 41.3438 38.4563 39.9875 37.4719C38.4344 36.5969 38.7188 34.0157 40.4031 33.4907ZM47.6438 40.7313C47.0969 39.7032 48.0813 38.3688 49.2188 38.5438C49.7875 38.5438 50.1813 38.9813 50.5313 39.3532C50.5969 39.9657 50.7281 40.6657 50.225 41.1469C49.5469 42.0219 47.9938 41.7594 47.6438 40.7313ZM6.21251 38.85C7.26251 38.15 8.79376 39.2 8.55313 40.425C8.42188 41.5188 7.04376 42.1313 6.14688 41.5188C5.16251 40.95 5.20626 39.3532 6.21251 38.85ZM27.0594 41.125C28.4375 40.5125 30.2094 41.7157 30.0781 43.2469C30.1875 44.9313 28 46.0907 26.6438 45.0844C25.1563 44.2094 25.3969 41.6719 27.0594 41.125ZM17.4125 43.3782C18.5938 42.7657 20.1688 43.8375 20.0594 45.15C20.1031 46.2219 19.0313 47.1625 17.9813 46.9875C17.1063 46.9657 16.5156 46.1782 16.2313 45.4125C16.2313 44.6032 16.5813 43.6844 17.4125 43.3782ZM36.9906 43.4C38.1938 42.6563 39.9219 43.7282 39.8125 45.1282C39.8344 46.5938 37.8875 47.5344 36.7719 46.5719C35.6563 45.8282 35.8094 44.0125 36.9906 43.4ZM40.3813 51.8219C39.8344 51.0125 40.4688 50.0282 41.3438 49.8313C42.0438 49.9844 42.7875 50.5094 42.6344 51.3188C42.5469 52.4344 40.9281 52.7625 40.3813 51.8219ZM13.3656 51.1C13.5844 50.4438 14.1094 49.8094 14.8531 49.9844C15.9688 50.0719 16.2969 51.7344 15.3125 52.2594C14.4594 52.85 13.4313 52.0407 13.3656 51.1ZM26.4031 51.8438C26.6219 50.8813 27.8469 50.4219 28.6781 50.925C29.225 51.1657 29.3781 51.7563 29.5094 52.2813C29.4438 52.5438 29.3781 52.8063 29.3125 53.0907C28.9844 53.4844 28.5469 53.8782 28 53.8782C26.95 53.9875 26.0094 52.8282 26.4031 51.8438Z" fill="white"/>
<path id="Vector_2" fill-rule="evenodd" clip-rule="evenodd" d="M42.2844 28.5469C49.875 28.5469 56.0219 34.6938 56.0219 42.2844C56.0219 49.875 49.8531 56 42.2844 56C34.7156 56 28.5469 49.8531 28.5469 42.2625C28.5469 34.6719 34.6937 28.5469 42.2844 28.5469Z" fill="#F0B90B"/>
<path id="Vector_3" d="M36.0938 42.2844V45.9156L39.1781 47.7312V49.8531L34.3 46.9875V41.2344L36.0938 42.2844ZM36.0938 38.6531V40.775L34.3 39.7031V37.5812L36.0938 36.5094L37.9094 37.5812L36.0938 38.6531ZM40.4688 37.5812L42.2625 36.5094L44.0781 37.5812L42.2625 38.6531L40.4688 37.5812ZM37.3844 45.15V43.0281L39.1781 44.1V46.2219L37.3844 45.15ZM40.4688 48.475L42.2625 49.5469L44.0781 48.475V50.5969L42.2625 51.6687L40.4688 50.5969V48.475ZM46.6594 37.5812L48.4531 36.5094L50.2688 37.5812V39.7031L48.4531 40.775V38.6531L46.6594 37.5812ZM48.4531 45.8937V42.2625L50.2469 41.1906V46.9437L45.3688 49.8094V47.6875L48.4531 45.8937ZM47.1625 45.15L45.3688 46.2V44.0781L47.1625 43.0062V45.15ZM47.1625 39.3969V41.5187L44.0781 43.3344V46.9656L42.2844 48.0156L40.4906 46.9656V43.3344L37.4063 41.5187V39.3969L39.2 38.325L42.2844 40.1406L45.3688 38.325L47.1625 39.3969ZM37.3844 35.7656L42.2625 32.8781L47.1406 35.7656L45.3469 36.8375L42.2625 35.0219L39.1781 36.8375L37.3844 35.7656Z" fill="white"/>
</g>
<defs>
<clipPath id="clip0_939_4729">
<rect width="56" height="56" fill="white"/>
</clipPath>
</defs>
</svg>
