<svg width="56" height="56" viewBox="0 0 56 56" fill="none" xmlns="http://www.w3.org/2000/svg">
<g id="image" clip-path="url(#clip0_939_3349)">
<g id="Group">
<path id="Vector" fill-rule="evenodd" clip-rule="evenodd" d="M28 0C43.4656 0 56 12.5344 56 28C56 43.4656 43.4656 56 28 56C12.5344 56 0 43.4656 0 28C0 12.5344 12.5344 0 28 0Z" fill="white"/>
<path id="Vector_2" fill-rule="evenodd" clip-rule="evenodd" d="M27.9562 11.8563C36.8812 11.8563 44.1 19.0969 44.1 28C44.1 36.925 36.8594 44.1438 27.9562 44.1438C19.0312 44.1438 11.8125 36.9031 11.8125 28C11.7906 19.075 19.0312 11.8563 27.9562 11.8563Z" fill="#E6E6E6"/>
<path id="Vector_3" fill-rule="evenodd" clip-rule="evenodd" d="M28.4375 4.79059C28.2187 4.59371 28.1094 4.57184 28.0875 4.57184C28.0656 4.57184 27.9562 4.57184 27.7375 4.79059C27.5187 5.00934 27.2344 5.35934 26.95 5.92809C26.3594 7.04371 25.7906 8.72809 25.3094 10.9156C24.7625 13.3437 24.325 16.3406 24.0625 19.6875C25.375 20.3218 26.7312 21.0218 28.0875 21.7437C29.4656 21 30.8 20.3218 32.1125 19.6875C31.85 16.3406 31.4125 13.3437 30.8656 10.8937C30.3844 8.70621 29.8156 7.02184 29.225 5.90621C28.9406 5.35934 28.6781 5.00934 28.4375 4.79059ZM26.9281 22.3781C25.9219 21.8531 24.9375 21.3281 23.9531 20.8687C23.8875 21.9406 23.8219 23.0562 23.7781 24.1937C24.2812 23.8875 24.8062 23.5812 25.3312 23.275C25.8781 22.9687 26.4031 22.6843 26.9281 22.3781ZM22.9906 19.1843C23.7781 9.99684 25.7687 3.47809 28.0875 3.47809C30.4062 3.47809 32.3969 9.99684 33.1844 19.1843C41.5406 15.2687 48.1687 13.7375 49.35 15.7281C50.5094 17.7406 45.85 22.7062 38.2812 27.9781C45.85 33.25 50.5094 38.2375 49.35 40.2281C48.1906 42.2406 41.5406 40.6875 33.1844 36.7718C32.3969 45.9593 30.4062 52.4781 28.0875 52.4781C25.7687 52.4781 23.7781 45.9593 22.9906 36.7718C14.6344 40.6875 7.98436 42.2187 6.82498 40.2281C5.66561 38.2156 10.325 33.25 17.8937 27.9781C10.3469 22.7281 5.68748 17.7406 6.84686 15.75C8.00623 13.7375 14.6344 15.2687 22.9906 19.1843ZM18.8781 27.3437C16.1 25.4406 13.7375 23.5593 11.8781 21.875C10.2375 20.3656 9.05623 19.0312 8.37811 17.9812C8.04998 17.4562 7.85311 17.0187 7.78748 16.7343C7.72186 16.45 7.76561 16.3406 7.78748 16.3187C7.78748 16.2968 7.85311 16.2093 8.13748 16.1218C8.44373 16.0343 8.88123 15.9687 9.51561 15.9906C10.7844 16.0343 12.5125 16.4062 14.6562 17.0625C17.0406 17.8062 19.8625 18.9437 22.9031 20.3875C22.7937 21.8312 22.7281 23.3406 22.6844 24.9156C21.35 25.7031 20.0812 26.5125 18.8781 27.3437ZM18.8781 28.6562C16.1 30.5593 13.7375 32.4406 11.8781 34.125C10.2375 35.6343 9.05623 36.9687 8.37811 38.0187C8.04998 38.5437 7.85311 38.9812 7.78748 39.2656C7.72186 39.55 7.76561 39.6593 7.78748 39.6812C7.78748 39.7031 7.85311 39.7906 8.13748 39.8781C8.44373 39.9656 8.88123 40.0312 9.51561 40.0093C10.7844 39.9656 12.5125 39.5937 14.6562 38.9375C17.0406 38.1937 19.8625 37.0562 22.9031 35.6125C22.7937 34.1687 22.7281 32.6593 22.6844 31.0843C21.35 30.2968 20.0812 29.4875 18.8781 28.6562ZM22.6406 29.8156C21.6781 29.2031 20.7375 28.6125 19.8406 28C20.7375 27.3875 21.6781 26.7968 22.6406 26.1843C22.6406 26.775 22.6187 27.3875 22.6187 28C22.6406 28.6125 22.6406 29.225 22.6406 29.8156ZM23.7562 30.4937C23.7344 29.6843 23.7344 28.8312 23.7344 28C23.7344 27.1468 23.7344 26.3156 23.7562 25.5062C24.4562 25.0906 25.1781 24.6531 25.9 24.2375C26.6219 23.8218 27.3656 23.4062 28.0875 23.0125C28.8094 23.4062 29.5312 23.8218 30.275 24.2375C30.9969 24.6531 31.7187 25.0906 32.4187 25.5062C32.4406 26.3156 32.4406 27.1687 32.4406 28C32.4406 28.8312 32.4406 29.6843 32.4187 30.4937C31.7187 30.9093 30.9969 31.3468 30.275 31.7625C29.5531 32.1781 28.8094 32.5937 28.0875 32.9875C27.3656 32.5937 26.6437 32.1781 25.9 31.7625C25.1781 31.3468 24.4562 30.9312 23.7562 30.4937ZM23.8 31.8062C23.8437 32.9437 23.8875 34.0593 23.975 35.1312C24.9375 34.65 25.9437 34.1468 26.95 33.6218C26.425 33.3375 25.9 33.0312 25.375 32.725C24.8281 32.4187 24.3031 32.1125 23.8 31.8062ZM28.0875 34.2343C26.7094 34.9781 25.375 35.6562 24.0625 36.2906C24.325 39.6375 24.7625 42.6343 25.3094 45.0843C25.7906 47.2718 26.3594 48.9562 26.95 50.0718C27.2344 50.6406 27.5187 50.9906 27.7375 51.2093C27.9562 51.4062 28.0656 51.4281 28.0875 51.4281C28.1094 51.4281 28.2187 51.4281 28.4375 51.2093C28.6562 50.9906 28.9406 50.6406 29.225 50.0718C29.8156 48.9562 30.3844 47.2718 30.8656 45.0843C31.4125 42.6343 31.85 39.6375 32.1125 36.2906C30.8 35.6781 29.4437 34.9781 28.0875 34.2343ZM33.2719 35.6343C36.3125 37.0781 39.1125 38.1937 41.5187 38.9593C43.6406 39.6375 45.3906 39.9875 46.6594 40.0312C47.2937 40.0531 47.7312 40.0093 48.0375 39.9C48.3219 39.8125 48.3875 39.7031 48.3875 39.7031C48.3875 39.6812 48.4531 39.5937 48.3875 39.2875C48.3219 38.9812 48.1469 38.5656 47.7969 38.0406C47.1187 36.9687 45.9375 35.6343 44.2969 34.1468C42.4375 32.4406 40.075 30.5812 37.2969 28.6781C36.0937 29.4875 34.825 30.3187 33.4906 31.1281C33.4469 32.6812 33.3594 34.1906 33.2719 35.6343ZM37.2969 27.3437C40.075 25.4406 42.4375 23.5593 44.2969 21.875C45.9375 20.3656 47.1187 19.0312 47.7969 17.9812C48.125 17.4562 48.3219 17.0187 48.3875 16.7343C48.4531 16.45 48.4094 16.3406 48.3875 16.3187C48.3875 16.2968 48.3219 16.2093 48.0375 16.1218C47.7312 16.0343 47.2937 15.9687 46.6594 15.9906C45.3906 16.0343 43.6625 16.4062 41.5187 17.0625C39.1344 17.8062 36.3125 18.9437 33.2719 20.3875C33.3812 21.8312 33.4469 23.3406 33.4906 24.9156C34.825 25.7031 36.0937 26.5125 37.2969 27.3437ZM33.5125 26.1843C34.475 26.7968 35.4156 27.3875 36.3125 28C35.4156 28.6125 34.475 29.2031 33.5125 29.8156C33.5125 29.225 33.5344 28.6125 33.5344 28C33.5344 27.3875 33.5344 26.775 33.5125 26.1843ZM32.375 24.1937C32.3312 23.0562 32.2875 21.9406 32.2 20.8687C31.2375 21.35 30.2312 21.8531 29.225 22.3781C29.75 22.6625 30.275 22.9687 30.8 23.275C31.3469 23.5812 31.85 23.8875 32.375 24.1937ZM32.2 35.1312C31.2375 34.65 30.2312 34.1468 29.225 33.6218C29.75 33.3375 30.275 33.0312 30.8 32.725L32.375 31.8062C32.3312 32.9437 32.2656 34.0593 32.2 35.1312Z" fill="black"/>
<path id="Vector_4" fill-rule="evenodd" clip-rule="evenodd" d="M12.425 21.1313C13.3875 21.1313 14.1531 21.8969 14.1531 22.8594C14.1531 23.8219 13.3875 24.5875 12.425 24.5875C11.4625 24.5875 10.6969 23.8219 10.6969 22.8594C10.6969 21.8969 11.4625 21.1313 12.425 21.1313ZM39.8125 15.225C40.775 15.225 41.5406 15.9907 41.5406 16.9532C41.5406 17.9157 40.775 18.6813 39.8125 18.6813C38.85 18.6813 38.0844 17.9157 38.0844 16.9532C38.0844 15.9907 38.85 15.225 39.8125 15.225ZM24.6094 42.3063C25.5719 42.3063 26.3375 43.0719 26.3375 44.0344C26.3375 44.9969 25.5719 45.7625 24.6094 45.7625C23.6469 45.7625 22.8812 44.9969 22.8812 44.0344C22.8812 43.0719 23.6469 42.3063 24.6094 42.3063ZM27.9781 25.0688C29.5969 25.0688 30.8875 26.3813 30.8875 27.9782C30.8875 29.5969 29.575 30.8875 27.9781 30.8875C26.3594 30.8875 25.0687 29.575 25.0687 27.9782C25.0687 26.3813 26.3812 25.0688 27.9781 25.0688Z" fill="black"/>
</g>
</g>
<defs>
<clipPath id="clip0_939_3349">
<rect width="56" height="56" fill="white"/>
</clipPath>
</defs>
</svg>
