<svg width="24" height="24" viewBox="0 0 24 24" fill="none" xmlns="http://www.w3.org/2000/svg">
<g clip-path="url(#clip0_938_4892)">
<path d="M20 8H17.3333V9.33333H20V10.6667H21.3333V9.33333C21.3333 8.97971 21.1929 8.64057 20.9428 8.39052C20.6928 8.14048 20.3536 8 20 8Z" fill="white"/>
<path d="M20 12H21.3333V16H20V12Z" fill="white"/>
<path d="M20 20H18.6667V21.3334H20C20.3536 21.3334 20.6928 21.1929 20.9428 20.9428C21.1928 20.6928 21.3333 20.3537 21.3333 20V17.3334H20V20Z" fill="white"/>
<path d="M16 14.6666V3.99996C16 3.64634 15.8595 3.3072 15.6095 3.05715C15.3594 2.8071 15.0203 2.66663 14.6667 2.66663H3.99999C3.64637 2.66663 3.30723 2.8071 3.05718 3.05715C2.80713 3.3072 2.66666 3.64634 2.66666 3.99996V14.6666C2.66666 15.0202 2.80713 15.3594 3.05718 15.6094C3.30723 15.8595 3.64637 16 3.99999 16H14.6667C15.0203 16 15.3594 15.8595 15.6095 15.6094C15.8595 15.3594 16 15.0202 16 14.6666ZM3.99999 3.99996H14.6667V14.6666H3.99999V3.99996Z" fill="white"/>
<path d="M13.3333 20H17.3333V21.3333H13.3333V20Z" fill="white"/>
<path d="M9.33333 17.3334H8V20C8 20.3537 8.14048 20.6928 8.39052 20.9428C8.64057 21.1929 8.97971 21.3334 9.33333 21.3334H12V20H9.33333V17.3334Z" fill="white"/>
</g>
<defs>
<clipPath id="clip0_938_4892">
<rect width="24" height="24" fill="white"/>
</clipPath>
</defs>
</svg>
