<svg width="24" height="24" viewBox="0 0 24 24" fill="none" xmlns="http://www.w3.org/2000/svg">
<path d="M4.00098 3H20.001C20.2662 3 20.5205 3.10536 20.7081 3.29289C20.8956 3.48043 21.001 3.73478 21.001 4V20C21.001 20.2652 20.8956 20.5196 20.7081 20.7071C20.5205 20.8946 20.2662 21 20.001 21H4.00098C3.73576 21 3.48141 20.8946 3.29387 20.7071C3.10633 20.5196 3.00098 20.2652 3.00098 20V4C3.00098 3.73478 3.10633 3.48043 3.29387 3.29289C3.48141 3.10536 3.73576 3 4.00098 3ZM17.301 15.94C17.201 15.89 17.151 15.74 17.151 15.639V8.006C17.151 7.906 17.201 7.756 17.301 7.655L18.256 6.55V6.5H14.841L12.281 12.978L9.36698 6.5H5.85198V6.55L6.75598 7.806C6.95698 8.006 7.00698 8.308 7.00698 8.559V14.082C7.05698 14.384 7.00698 14.735 6.85698 15.036L5.49998 16.894V16.944H9.11598V16.894L7.75998 15.087C7.60998 14.785 7.55898 14.484 7.60998 14.133V9.11C7.65998 9.21 7.70998 9.21 7.75998 9.411L11.174 17.044H11.224L14.54 8.76C14.49 9.06 14.49 9.412 14.49 9.664V15.589C14.49 15.739 14.44 15.839 14.34 15.94L13.335 16.894V16.944H18.256V16.894L17.301 15.94Z" fill="white"/>
</svg>
