<svg xmlns="http://www.w3.org/2000/svg" width="31" height="30" viewBox="0 0 31 30" fill="none">
  <path d="M20 11.6667L18.7667 11.4617C18.7369 11.6408 18.7465 11.8242 18.7948 11.9991C18.8431 12.1741 18.9289 12.3365 19.0462 12.475C19.1636 12.6134 19.3097 12.7247 19.4744 12.801C19.6392 12.8772 19.8185 12.9167 20 12.9167V11.6667ZM1.66669 11.6667V10.4167C1.33517 10.4167 1.01722 10.5484 0.782803 10.7828C0.548383 11.0172 0.416687 11.3352 0.416687 11.6667H1.66669ZM5.00002 29.5834H23.9334V27.0834H5.00002V29.5834ZM25.9334 10.4167H20V12.9167H25.9334V10.4167ZM21.2334 11.8717L22.5767 3.81337L20.11 3.40171L18.7667 11.4617L21.2334 11.8717ZM19.7 0.416706H19.3434V2.91671H19.6984L19.7 0.416706ZM14.1417 3.20004L9.95002 9.48837L12.03 10.875L16.2217 4.58671L14.1417 3.20004ZM8.21669 10.4167H1.66669V12.9167H8.21669V10.4167ZM0.416687 11.6667V25H2.91669V11.6667H0.416687ZM28.4284 25.9L30.4284 15.9L27.9784 15.4084L25.9784 25.4084L28.4284 25.8984V25.9ZM9.95002 9.48837C9.75985 9.77385 9.50214 10.0063 9.19976 10.1682C8.89739 10.3302 8.5597 10.415 8.21669 10.415V12.915C9.75002 12.915 11.18 12.15 12.03 10.875L9.95002 9.48837ZM22.5767 3.81337C22.6461 3.39565 22.6238 2.96616 22.5112 2.55794C22.3986 2.14973 22.1985 1.77093 21.9248 1.44786C21.651 1.12479 21.3102 0.865196 20.926 0.687127C20.5418 0.509058 20.1235 0.41678 19.7 0.416706L19.6984 2.91671C19.7588 2.91685 19.8201 2.93014 19.8749 2.95564C19.9296 2.98114 19.9782 3.01824 20.0172 3.06438C20.0562 3.11051 20.0847 3.16458 20.1007 3.22283C20.1168 3.28107 20.1199 3.34211 20.11 3.40171L22.5767 3.81337ZM25.9334 12.915C27.25 12.915 28.2334 14.1184 27.9767 15.4067L30.4284 15.8984C30.561 15.2335 30.5445 14.5459 30.38 13.8882C30.2156 13.2305 29.9072 12.6175 29.4773 12.0933C29.0473 11.5691 28.5065 11.1469 27.8936 10.857C27.2808 10.567 26.6113 10.4167 25.9334 10.4167V12.9167V12.915ZM23.9334 29.5834C24.9929 29.5836 26.0197 29.215 26.8392 28.5435C27.6588 27.872 28.2203 26.9373 28.4284 25.8984L25.9784 25.4067C25.8839 25.8794 25.6284 26.3047 25.2555 26.6101C24.8826 26.9155 24.4154 27.0839 23.9334 27.0834V29.5834ZM19.3434 0.416706C18.3145 0.41678 17.3015 0.669198 16.3944 1.15474C15.4873 1.64028 14.714 2.34226 14.1434 3.19837L16.2217 4.58671C16.5643 4.0728 17.0285 3.6498 17.573 3.35847C18.1176 3.06713 18.7257 2.91648 19.3434 2.91671V0.416706ZM5.00002 27.0834C3.85002 27.0834 2.91669 26.15 2.91669 25H0.416687C0.416687 26.2156 0.899572 27.3814 1.75911 28.2409C2.61866 29.1005 3.78444 29.5834 5.00002 29.5834V27.0834Z" fill="url(#paint0_linear_922_1457)"/>
  <path d="M8.33331 11.6665V28.3332" stroke="url(#paint1_linear_922_1457)" stroke-width="2.5"/>
  <defs>
    <linearGradient id="paint0_linear_922_1457" x1="15.4668" y1="0.415033" x2="31.2944" y2="1.66692" gradientUnits="userSpaceOnUse">
      <stop stop-color="#FBE3F1"/>
      <stop offset="1" stop-color="#CAAEFF"/>
    </linearGradient>
    <linearGradient id="paint1_linear_922_1457" x1="8.83331" y1="11.6665" x2="9.36242" y2="11.6689" gradientUnits="userSpaceOnUse">
      <stop stop-color="#FBE3F1"/>
      <stop offset="1" stop-color="#CAAEFF"/>
    </linearGradient>
  </defs>
</svg>