<svg xmlns="http://www.w3.org/2000/svg" width="40" height="40" viewBox="0 0 40 40" fill="none">
    <path d="M20 6.875C17.0333 6.875 14.1332 7.75473 11.6665 9.40296C9.19972 11.0512 7.27713 13.3939 6.14181 16.1347C5.0065 18.8756 4.70945 21.8916 5.28823 24.8014C5.86701 27.7111 7.29562 30.3838 9.3934 32.4816C11.4912 34.5794 14.1639 36.008 17.0737 36.5868C19.9834 37.1656 22.9994 36.8685 25.7403 35.7332C28.4811 34.5979 30.8238 32.6753 32.472 30.2086C34.1203 27.7418 35 24.8417 35 21.875C34.9955 17.8981 33.4136 14.0855 30.6016 11.2734C27.7895 8.46136 23.9769 6.87955 20 6.875ZM20 33.125C17.775 33.125 15.5999 32.4652 13.7498 31.229C11.8998 29.9929 10.4578 28.2359 9.60636 26.1802C8.75488 24.1245 8.53209 21.8625 8.96617 19.6802C9.40026 17.4979 10.4717 15.4934 12.0451 13.92C13.6184 12.3467 15.623 11.2752 17.8052 10.8412C19.9875 10.4071 22.2495 10.6299 24.3052 11.4814C26.3609 12.3328 28.1179 13.7748 29.354 15.6248C30.5902 17.4749 31.25 19.65 31.25 21.875C31.2467 24.8577 30.0604 27.7172 27.9513 29.8263C25.8422 31.9354 22.9827 33.1217 20 33.125ZM25.7016 15.5484C25.8764 15.7226 26.0151 15.9296 26.1097 16.1575C26.2043 16.3854 26.253 16.6298 26.253 16.8766C26.253 17.1233 26.2043 17.3677 26.1097 17.5956C26.0151 17.8235 25.8764 18.0305 25.7016 18.2047L21.3266 22.5797C20.9743 22.9319 20.4966 23.1298 19.9984 23.1298C19.5003 23.1298 19.0226 22.9319 18.6703 22.5797C18.3181 22.2274 18.1202 21.7497 18.1202 21.2516C18.1202 20.7534 18.3181 20.2757 18.6703 19.9234L23.0453 15.5484C23.2195 15.3736 23.4265 15.2349 23.6544 15.1403C23.8823 15.0457 24.1267 14.997 24.3734 14.997C24.6202 14.997 24.8646 15.0457 25.0925 15.1403C25.3204 15.2349 25.5274 15.3736 25.7016 15.5484ZM14.375 2.5C14.375 2.00272 14.5726 1.52581 14.9242 1.17417C15.2758 0.822544 15.7527 0.625 16.25 0.625H23.75C24.2473 0.625 24.7242 0.822544 25.0758 1.17417C25.4275 1.52581 25.625 2.00272 25.625 2.5C25.625 2.99728 25.4275 3.47419 25.0758 3.82583C24.7242 4.17746 24.2473 4.375 23.75 4.375H16.25C15.7527 4.375 15.2758 4.17746 14.9242 3.82583C14.5726 3.47419 14.375 2.99728 14.375 2.5Z" fill="url(#paint0_linear_217_19344)"/>
    <defs>
    <linearGradient id="paint0_linear_217_19344" x1="20" y1="0.624993" x2="35.81" y2="1.62784" gradientUnits="userSpaceOnUse">
    <stop stop-color="#FBE3F1"/>
    <stop offset="1" stop-color="#CAAEFF"/>
    </linearGradient>
    </defs>
</svg>