<svg width="56" height="56" viewBox="0 0 56 56" fill="none" xmlns="http://www.w3.org/2000/svg">
<g id="image" clip-path="url(#clip0_939_5420)">
<g id="a">
<g id="b">
<path id="Vector" d="M28 56C43.464 56 56 43.464 56 28C56 12.536 43.464 0 28 0C12.536 0 0 12.536 0 28C0 43.464 12.536 56 28 56Z" fill="url(#paint0_linear_939_5420)"/>
<path id="Vector_2" d="M40.2544 39.1562L30.7869 16.2662C30.2531 15.0828 29.4591 14.5053 28.4134 14.5053H27.5756C26.53 14.5053 25.7359 15.0828 25.2022 16.2662L21.0809 26.2391H17.9638C17.5149 26.2417 17.0853 26.4212 16.7679 26.7385C16.4505 27.0559 16.2711 27.4856 16.2684 27.9344V27.9562C16.275 28.8881 17.0341 29.645 17.9638 29.6516H19.6372L15.7041 39.1562C15.6319 39.3662 15.5881 39.5828 15.5881 39.8059C15.5881 40.3397 15.7544 40.7575 16.0497 41.0834C16.345 41.4072 16.7716 41.5669 17.3053 41.5669C17.6597 41.5603 17.9988 41.4509 18.2788 41.2431C18.5828 41.0331 18.7906 40.7312 18.9569 40.3834L23.2859 29.645H26.2872C26.736 29.6424 27.1657 29.4629 27.483 29.1455C27.8004 28.8282 27.9799 28.3985 27.9825 27.9497V27.9059C27.9759 26.9741 27.2169 26.2172 26.2872 26.2106H24.6859L27.9913 17.9769L36.9972 40.3769C37.1634 40.7225 37.3734 41.0266 37.6753 41.2366C37.9575 41.4466 38.3031 41.5537 38.6488 41.5603C39.1825 41.5603 39.6003 41.4006 39.9044 41.0769C40.2084 40.7531 40.3659 40.3331 40.3659 39.7994C40.3725 39.5828 40.3375 39.3597 40.25 39.1562H40.2544Z" fill="white"/>
</g>
</g>
<g id="f">
<path id="Vector_3" d="M38.8412 42.5272L47.4184 47.5081V28.5469L38.8412 42.5272Z" fill="#D7D7D7"/>
<path id="Vector_4" d="M47.4185 28.5469V47.5081L55.9956 42.5272L47.4185 28.5469Z" fill="#878787"/>
<path id="Vector_5" d="M47.4206 38.699L55.9956 42.5272L47.4206 47.5059V38.6968V38.699Z" fill="white"/>
<path id="Vector_6" d="M47.4184 38.699H47.4206V47.5081H47.4184L38.8412 42.5293L47.4184 38.699Z" fill="#999999"/>
<path id="Vector_7" d="M38.8412 44.1263L47.4184 56V49.105L38.8412 44.1263Z" fill="#D7D7D7"/>
<path id="Vector_8" d="M47.4185 49.105V56L56 44.1263L47.4185 49.105Z" fill="#878787"/>
</g>
</g>
<defs>
<linearGradient id="paint0_linear_939_5420" x1="48.755" y1="10.5962" x2="8.015" y2="46.2437" gradientUnits="userSpaceOnUse">
<stop stop-color="#B6509E"/>
<stop offset="1" stop-color="#2EBAC6"/>
</linearGradient>
<clipPath id="clip0_939_5420">
<rect width="56" height="56" fill="white"/>
</clipPath>
</defs>
</svg>
