<svg width="56" height="56" viewBox="0 0 56 56" fill="none" xmlns="http://www.w3.org/2000/svg">
<g id="image" clip-path="url(#clip0_939_5300)">
<g id="Group">
<path id="Vector" d="M28 56C43.464 56 56 43.464 56 28C56 12.536 43.464 0 28 0C12.536 0 0 12.536 0 28C0 43.464 12.536 56 28 56Z" fill="#E84142"/>
<path id="Vector_2" fill-rule="evenodd" clip-rule="evenodd" d="M20.0594 39.1344H14.6344C13.4969 39.1344 12.9281 39.1344 12.5781 38.9156C12.2062 38.675 11.9875 38.2812 11.9437 37.8437C11.9219 37.4281 12.2062 36.9469 12.775 35.9625L26.1844 12.3156C26.7531 11.3094 27.0375 10.8062 27.4094 10.6312C27.8031 10.4344 28.2625 10.4344 28.6562 10.6312C29.0281 10.8062 29.3125 11.3094 29.8812 12.3156L32.6375 17.1281L32.6594 17.15C33.2719 18.2219 33.5781 18.7687 33.7312 19.3375C33.8844 19.9719 33.8844 20.6281 33.7312 21.2406C33.6 21.8094 33.2937 22.3781 32.6594 23.4719L25.6156 35.9406L25.5937 35.9625C24.9812 37.0562 24.6531 37.6031 24.2156 38.0187C23.7344 38.4781 23.1656 38.8062 22.5531 38.9812C21.9844 39.1344 21.35 39.1344 20.0594 39.1344ZM33.7969 39.1344H41.5844C42.7437 39.1344 43.3125 39.1344 43.6625 38.9156C44.0344 38.675 44.275 38.2594 44.2969 37.8219C44.3187 37.4281 44.0344 36.9469 43.5094 36.0281C43.4875 36.0062 43.4656 35.9625 43.4437 35.9406L39.55 29.2687L39.5062 29.2031C38.9594 28.2844 38.675 27.8031 38.325 27.6281C37.9312 27.4312 37.4719 27.4312 37.0781 27.6281C36.7281 27.8031 36.4219 28.3062 35.8531 29.2906L31.9375 35.9406L31.9156 35.9625C31.3469 36.9469 31.0625 37.4281 31.0844 37.8437C31.1062 38.2812 31.3469 38.6969 31.7187 38.9375C32.0687 39.1344 32.6375 39.1344 33.7969 39.1344Z" fill="white"/>
</g>
</g>
<defs>
<clipPath id="clip0_939_5300">
<rect width="56" height="56" fill="white"/>
</clipPath>
</defs>
</svg>
