<svg width="64" height="64" viewBox="0 0 64 64" fill="none" xmlns="http://www.w3.org/2000/svg">
<rect width="64" height="64" rx="32" fill="white" fill-opacity="0.2"/>
<path d="M23.85 28.0938H26V30.2437C26 30.3 26.0563 30.3438 26.125 30.3438H27.625C27.6938 30.3438 27.75 30.3 27.75 30.2406V28.0938H29.9C29.9562 28.0938 30 28.0375 30 27.9688V26.4688C30 26.4 29.9563 26.3438 29.8969 26.3438H27.75V24.1938C27.75 24.1375 27.6938 24.0938 27.625 24.0938H26.125C26.0563 24.0938 26 24.1375 26 24.1938V26.3438H23.85C23.7937 26.3438 23.75 26.4 23.75 26.4688V27.9688C23.75 28.0375 23.7937 28.0938 23.85 28.0938ZM34.1 28.0938H40.15C40.2062 28.0938 40.25 28.0375 40.25 27.9688V26.4688C40.25 26.4 40.2063 26.3438 40.1469 26.3438H34.1C34.0438 26.3438 34 26.4 34 26.4688V27.9688C34 28.0375 34.0438 28.0938 34.1 28.0938ZM34.1 36.375H40.15C40.2062 36.375 40.25 36.3188 40.25 36.25V34.75C40.25 34.6812 40.2063 34.625 40.1469 34.625H34.1C34.0438 34.625 34 34.6812 34 34.75V36.25C34 36.3188 34.0438 36.375 34.1 36.375ZM34.1 39.625H40.15C40.2062 39.625 40.25 39.5688 40.25 39.5V38C40.25 37.9312 40.2063 37.875 40.1469 37.875H34.1C34.0438 37.875 34 37.9312 34 38V39.5C34 39.5688 34.0438 39.625 34.1 39.625ZM27.9844 37.0938L29.8969 34.7531C30.0312 34.5906 29.9187 34.3438 29.7125 34.3438H28.125C28.0531 34.3438 27.9844 34.375 27.9406 34.4344L26.8781 35.7344L25.8156 34.4344C25.7933 34.4068 25.7652 34.3845 25.7334 34.3688C25.7016 34.3532 25.6667 34.3446 25.6313 34.3438H24.0406C23.8344 34.3438 23.7219 34.5906 23.8562 34.7531L25.7688 37.0938L23.8094 39.4937C23.6719 39.6562 23.7844 39.9031 23.9906 39.9031H25.5781C25.65 39.9031 25.7188 39.8719 25.7625 39.8125L26.8719 38.4531L27.9812 39.8125C28.0281 39.8687 28.0969 39.9031 28.1656 39.9031H29.7531C29.9594 39.9031 30.0719 39.6562 29.9375 39.4937L27.9844 37.0938ZM43.5 19.5H20.5C19.9469 19.5 19.5 19.9469 19.5 20.5V43.5C19.5 44.0531 19.9469 44.5 20.5 44.5H43.5C44.0531 44.5 44.5 44.0531 44.5 43.5V20.5C44.5 19.9469 44.0531 19.5 43.5 19.5ZM42.375 42.375H21.625V21.625H42.375V42.375Z" fill="#D7DFFF"/>
</svg>
