<svg xmlns="http://www.w3.org/2000/svg" width="24" height="24" viewBox="0 0 24 24" fill="none">
    <path d="M8.00001 10.9999C8.00001 10.7347 8.10537 10.4803 8.2929 10.2928C8.48044 10.1053 8.7348 9.99991 9.00001 9.99991H15C15.2652 9.99991 15.5196 10.1053 15.7071 10.2928C15.8947 10.4803 16 10.7347 16 10.9999C16 11.2651 15.8947 11.5195 15.7071 11.707C15.5196 11.8946 15.2652 11.9999 15 11.9999H9.00001C8.7348 11.9999 8.48044 11.8946 8.2929 11.707C8.10537 11.5195 8.00001 11.2651 8.00001 10.9999ZM9.00001 13.9999C8.7348 13.9999 8.48044 14.1053 8.2929 14.2928C8.10537 14.4803 8.00001 14.7347 8.00001 14.9999C8.00001 15.2651 8.10537 15.5195 8.2929 15.707C8.48044 15.8946 8.7348 15.9999 9.00001 15.9999H13C13.2652 15.9999 13.5196 15.8946 13.7071 15.707C13.8947 15.5195 14 15.2651 14 14.9999C14 14.7347 13.8947 14.4803 13.7071 14.2928C13.5196 14.1053 13.2652 13.9999 13 13.9999H9.00001ZM2.00001 11.9999C2.00051 9.80751 2.72149 7.67603 4.052 5.93351C5.3825 4.19098 7.24878 2.93399 9.36361 2.35599C11.4784 1.77798 13.7246 1.911 15.7565 2.73457C17.7883 3.55813 19.4932 5.0266 20.6087 6.91398C21.7243 8.80136 22.1886 11.003 21.9304 13.1802C21.6721 15.3573 20.7056 17.3892 19.1794 18.9633C17.6533 20.5373 15.6521 21.5661 13.484 21.8915C11.3159 22.2168 9.10093 21.8207 7.18001 20.7639L3.29201 21.9479C3.11859 22.0007 2.93408 22.0054 2.7582 21.9615C2.58232 21.9175 2.42169 21.8266 2.29351 21.6984C2.16532 21.5702 2.07439 21.4096 2.03044 21.2337C1.98649 21.0578 1.99118 20.8733 2.04401 20.6999L3.22801 16.8059C2.41992 15.3331 1.99749 13.6798 2.00001 11.9999ZM12 3.99991C10.5799 3.99979 9.18533 4.3777 7.95957 5.09482C6.73381 5.81195 5.72103 6.84243 5.02527 8.08044C4.3295 9.31844 3.97582 10.7193 4.00055 12.1393C4.02529 13.5592 4.42755 14.9469 5.16601 16.1599C5.23932 16.2804 5.2863 16.4151 5.30388 16.555C5.32146 16.6949 5.30924 16.837 5.26801 16.9719L4.50201 19.4899L7.01601 18.7239C7.15133 18.6827 7.29385 18.6706 7.43417 18.6886C7.57449 18.7065 7.70941 18.754 7.83001 18.8279C8.88437 19.4716 10.0735 19.8624 11.3041 19.9697C12.5348 20.077 13.7736 19.8978 14.9234 19.4461C16.0733 18.9945 17.1029 18.2828 17.9316 17.3666C18.7603 16.4505 19.3656 15.3549 19.7 14.1657C20.0344 12.9765 20.0889 11.726 19.8592 10.5122C19.6295 9.29842 19.1218 8.15433 18.3759 7.16959C17.63 6.18485 16.6662 5.38623 15.56 4.8363C14.4539 4.28638 13.2353 4.00011 12 3.99991Z" fill="url(#paint0_linear_169_19481)"/>
    <defs>
        <linearGradient id="paint0_linear_169_19481" x1="12" y1="2.00219" x2="22.5206" y2="2.80856" gradientUnits="userSpaceOnUse">
        <stop stop-color="#FBE3F1"/>
        <stop offset="1" stop-color="#CAAEFF"/>
        </linearGradient>
    </defs>
</svg>