<svg width="1023" height="48" viewBox="0 0 1023 48" fill="none" xmlns="http://www.w3.org/2000/svg">
<g clip-path="url(#clip0_107_5381)">
<rect x="31.3805" y="-8.64001" width="18.5414" height="76.5976" transform="rotate(29.4158 31.3805 -8.64001)" fill="#29FDFE"/>
</g>
<g clip-path="url(#clip1_107_5381)">
<rect x="56.3805" y="-8.64001" width="18.5414" height="76.5976" transform="rotate(29.4158 56.3805 -8.64001)" fill="#29FDFE"/>
</g>
<g clip-path="url(#clip2_107_5381)">
<rect x="81.3805" y="-8.64001" width="18.5414" height="76.5976" transform="rotate(29.4158 81.3805 -8.64001)" fill="#29FDFE"/>
</g>
<g clip-path="url(#clip3_107_5381)">
<rect x="106.38" y="-8.64001" width="18.5414" height="76.5976" transform="rotate(29.4158 106.38 -8.64001)" fill="#29FDFE"/>
</g>
<g clip-path="url(#clip4_107_5381)">
<rect x="131.38" y="-8.64001" width="18.5414" height="76.5976" transform="rotate(29.4158 131.38 -8.64001)" fill="#29FDFE"/>
</g>
<g clip-path="url(#clip5_107_5381)">
<rect x="156.38" y="-8.64001" width="18.5414" height="76.5976" transform="rotate(29.4158 156.38 -8.64001)" fill="#29FDFE"/>
</g>
<g clip-path="url(#clip6_107_5381)">
<rect x="181.38" y="-8.64001" width="18.5414" height="76.5976" transform="rotate(29.4158 181.38 -8.64001)" fill="#29FDFE"/>
</g>
<g clip-path="url(#clip7_107_5381)">
<rect x="206.38" y="-8.64001" width="18.5414" height="76.5976" transform="rotate(29.4158 206.38 -8.64001)" fill="#29FDFE"/>
<rect x="206.38" y="-8.64001" width="18.5414" height="76.5976" transform="rotate(29.4158 206.38 -8.64001)" fill="#2EBDFF" fill-opacity="0.3"/>
</g>
<g clip-path="url(#clip8_107_5381)">
<rect x="231.38" y="-8.64001" width="18.5414" height="76.5976" transform="rotate(29.4158 231.38 -8.64001)" fill="#29FDFE"/>
<rect x="231.38" y="-8.64001" width="18.5414" height="76.5976" transform="rotate(29.4158 231.38 -8.64001)" fill="#337DFF" fill-opacity="0.4"/>
</g>
<g clip-path="url(#clip9_107_5381)">
<rect x="256.38" y="-8.64001" width="18.5414" height="76.5976" transform="rotate(29.4158 256.38 -8.64001)" fill="#29FDFE"/>
<rect x="256.38" y="-8.64001" width="18.5414" height="76.5976" transform="rotate(29.4158 256.38 -8.64001)" fill="#337DFF" fill-opacity="0.5"/>
</g>
<g clip-path="url(#clip10_107_5381)">
<rect x="281.38" y="-8.64001" width="18.5414" height="76.5976" transform="rotate(29.4158 281.38 -8.64001)" fill="#2EBDFF"/>
<rect x="281.38" y="-8.64001" width="18.5414" height="76.5976" transform="rotate(29.4158 281.38 -8.64001)" fill="#337DFF" fill-opacity="0.6"/>
</g>
<g clip-path="url(#clip11_107_5381)">
<rect x="306.38" y="-8.64001" width="18.5414" height="76.5976" transform="rotate(29.4158 306.38 -8.64001)" fill="#337DFF"/>
</g>
<g clip-path="url(#clip12_107_5381)">
<rect x="331.38" y="-8.64001" width="18.5414" height="76.5976" transform="rotate(29.4158 331.38 -8.64001)" fill="#337DFF"/>
</g>
<g clip-path="url(#clip13_107_5381)">
<rect x="356.38" y="-8.64001" width="18.5414" height="76.5976" transform="rotate(29.4158 356.38 -8.64001)" fill="#337DFF"/>
</g>
<g clip-path="url(#clip14_107_5381)">
<rect x="381.38" y="-8.64001" width="18.5414" height="76.5976" transform="rotate(29.4158 381.38 -8.64001)" fill="#337DFF"/>
</g>
<g clip-path="url(#clip15_107_5381)">
<rect x="406.38" y="-8.64001" width="18.5414" height="76.5976" transform="rotate(29.4158 406.38 -8.64001)" fill="#337DFF"/>
</g>
<g clip-path="url(#clip16_107_5381)">
<rect x="431.38" y="-8.64001" width="18.5414" height="76.5976" transform="rotate(29.4158 431.38 -8.64001)" fill="#337DFF"/>
</g>
<g clip-path="url(#clip17_107_5381)">
<rect x="456.38" y="-8.64001" width="18.5414" height="76.5976" transform="rotate(29.4158 456.38 -8.64001)" fill="#337DFF"/>
</g>
<g clip-path="url(#clip18_107_5381)">
<rect x="481.38" y="-8.64001" width="18.5414" height="76.5976" transform="rotate(29.4158 481.38 -8.64001)" fill="#337DFF"/>
</g>
<g clip-path="url(#clip19_107_5381)">
<rect x="506.38" y="-8.64001" width="18.5414" height="76.5976" transform="rotate(29.4158 506.38 -8.64001)" fill="#337DFF"/>
<rect x="506.38" y="-8.64001" width="18.5414" height="76.5976" transform="rotate(29.4158 506.38 -8.64001)" fill="#8C1FF9" fill-opacity="0.3"/>
</g>
<g clip-path="url(#clip20_107_5381)">
<rect x="531.38" y="-8.64001" width="18.5414" height="76.5976" transform="rotate(29.4158 531.38 -8.64001)" fill="#4E61FD"/>
<rect x="531.38" y="-8.64001" width="18.5414" height="76.5976" transform="rotate(29.4158 531.38 -8.64001)" fill="#8C1FF9" fill-opacity="0.4"/>
</g>
<g clip-path="url(#clip21_107_5381)">
<rect x="556.38" y="-8.64001" width="18.5414" height="76.5976" transform="rotate(29.4158 556.38 -8.64001)" fill="#6747FB"/>
<rect x="556.38" y="-8.64001" width="18.5414" height="76.5976" transform="rotate(29.4158 556.38 -8.64001)" fill="#8C1FF9" fill-opacity="0.5"/>
</g>
<g clip-path="url(#clip22_107_5381)">
<rect x="581.38" y="-8.64001" width="18.5414" height="76.5976" transform="rotate(29.4158 581.38 -8.64001)" fill="#8C1FF9"/>
</g>
<g clip-path="url(#clip23_107_5381)">
<rect x="606.38" y="-8.64001" width="18.5414" height="76.5976" transform="rotate(29.4158 606.38 -8.64001)" fill="#8C1FF9"/>
</g>
<g clip-path="url(#clip24_107_5381)">
<rect x="631.38" y="-8.64001" width="18.5414" height="76.5976" transform="rotate(29.4158 631.38 -8.64001)" fill="#8C1FF9"/>
</g>
<g clip-path="url(#clip25_107_5381)">
<rect x="656.38" y="-8.64001" width="18.5414" height="76.5976" transform="rotate(29.4158 656.38 -8.64001)" fill="#8C1FF9"/>
</g>
<g clip-path="url(#clip26_107_5381)">
<rect x="681.38" y="-8.64001" width="18.5414" height="76.5976" transform="rotate(29.4158 681.38 -8.64001)" fill="#8C1FF9"/>
</g>
<g clip-path="url(#clip27_107_5381)">
<rect x="706.38" y="-8.64001" width="18.5414" height="76.5976" transform="rotate(29.4158 706.38 -8.64001)" fill="#8C1FF9"/>
</g>
<g clip-path="url(#clip28_107_5381)">
<rect x="731.38" y="-8.64001" width="18.5414" height="76.5976" transform="rotate(29.4158 731.38 -8.64001)" fill="#8C1FF9"/>
</g>
<g clip-path="url(#clip29_107_5381)">
<rect x="756.38" y="-8.64001" width="18.5414" height="76.5976" transform="rotate(29.4158 756.38 -8.64001)" fill="#8C1FF9"/>
</g>
<g clip-path="url(#clip30_107_5381)">
<rect x="781.38" y="-8.64001" width="18.5414" height="76.5976" transform="rotate(29.4158 781.38 -8.64001)" fill="#8C1FF9"/>
</g>
<g clip-path="url(#clip31_107_5381)">
<rect x="806.38" y="-8.64001" width="18.5414" height="76.5976" transform="rotate(29.4158 806.38 -8.64001)" fill="#BC22D5"/>
<rect x="806.38" y="-8.64001" width="18.5414" height="76.5976" transform="rotate(29.4158 806.38 -8.64001)" fill="#8C1FF9" fill-opacity="0.4"/>
</g>
<g clip-path="url(#clip32_107_5381)">
<rect x="831.38" y="-8.64001" width="18.5414" height="76.5976" transform="rotate(29.4158 831.38 -8.64001)" fill="#BC22D5"/>
<rect x="831.38" y="-8.64001" width="18.5414" height="76.5976" transform="rotate(29.4158 831.38 -8.64001)" fill="#8C1FF9" fill-opacity="0.3"/>
</g>
<g clip-path="url(#clip33_107_5381)">
<rect x="856.38" y="-8.64001" width="18.5414" height="76.5976" transform="rotate(29.4158 856.38 -8.64001)" fill="#BC22D5"/>
<rect x="856.38" y="-8.64001" width="18.5414" height="76.5976" transform="rotate(29.4158 856.38 -8.64001)" fill="#AE21E0" fill-opacity="0.2"/>
</g>
<g clip-path="url(#clip34_107_5381)">
<rect x="881.38" y="-8.64001" width="18.5414" height="76.5976" transform="rotate(29.4158 881.38 -8.64001)" fill="#BC22D5"/>
</g>
<g clip-path="url(#clip35_107_5381)">
<rect x="906.38" y="-8.64001" width="18.5414" height="76.5976" transform="rotate(29.4158 906.38 -8.64001)" fill="#BC22D5"/>
</g>
<g clip-path="url(#clip36_107_5381)">
<rect x="931.38" y="-8.64001" width="18.5414" height="76.5976" transform="rotate(29.4158 931.38 -8.64001)" fill="#BC22D5"/>
</g>
<g clip-path="url(#clip37_107_5381)">
<rect x="956.38" y="-8.64001" width="18.5414" height="76.5976" transform="rotate(29.4158 956.38 -8.64001)" fill="#BC22D5"/>
</g>
<g clip-path="url(#clip38_107_5381)">
<rect x="981.38" y="-8.64001" width="18.5414" height="76.5976" transform="rotate(29.4158 981.38 -8.64001)" fill="#BC22D5"/>
</g>
<g clip-path="url(#clip39_107_5381)">
<rect x="1006.38" y="-8.64001" width="18.5414" height="76.5976" transform="rotate(29.4158 1006.38 -8.64001)" fill="#BC22D5"/>
</g>
<defs>
<clipPath id="clip0_107_5381">
<rect width="48" height="48" fill="white"/>
</clipPath>
<clipPath id="clip1_107_5381">
<rect width="48" height="48" fill="white" transform="translate(25)"/>
</clipPath>
<clipPath id="clip2_107_5381">
<rect width="48" height="48" fill="white" transform="translate(50)"/>
</clipPath>
<clipPath id="clip3_107_5381">
<rect width="48" height="48" fill="white" transform="translate(75)"/>
</clipPath>
<clipPath id="clip4_107_5381">
<rect width="48" height="48" fill="white" transform="translate(100)"/>
</clipPath>
<clipPath id="clip5_107_5381">
<rect width="48" height="48" fill="white" transform="translate(125)"/>
</clipPath>
<clipPath id="clip6_107_5381">
<rect width="48" height="48" fill="white" transform="translate(150)"/>
</clipPath>
<clipPath id="clip7_107_5381">
<rect width="48" height="48" fill="white" transform="translate(175)"/>
</clipPath>
<clipPath id="clip8_107_5381">
<rect width="48" height="48" fill="white" transform="translate(200)"/>
</clipPath>
<clipPath id="clip9_107_5381">
<rect width="48" height="48" fill="white" transform="translate(225)"/>
</clipPath>
<clipPath id="clip10_107_5381">
<rect width="48" height="48" fill="white" transform="translate(250)"/>
</clipPath>
<clipPath id="clip11_107_5381">
<rect width="48" height="48" fill="white" transform="translate(275)"/>
</clipPath>
<clipPath id="clip12_107_5381">
<rect width="48" height="48" fill="white" transform="translate(300)"/>
</clipPath>
<clipPath id="clip13_107_5381">
<rect width="48" height="48" fill="white" transform="translate(325)"/>
</clipPath>
<clipPath id="clip14_107_5381">
<rect width="48" height="48" fill="white" transform="translate(350)"/>
</clipPath>
<clipPath id="clip15_107_5381">
<rect width="48" height="48" fill="white" transform="translate(375)"/>
</clipPath>
<clipPath id="clip16_107_5381">
<rect width="48" height="48" fill="white" transform="translate(400)"/>
</clipPath>
<clipPath id="clip17_107_5381">
<rect width="48" height="48" fill="white" transform="translate(425)"/>
</clipPath>
<clipPath id="clip18_107_5381">
<rect width="48" height="48" fill="white" transform="translate(450)"/>
</clipPath>
<clipPath id="clip19_107_5381">
<rect width="48" height="48" fill="white" transform="translate(475)"/>
</clipPath>
<clipPath id="clip20_107_5381">
<rect width="48" height="48" fill="white" transform="translate(500)"/>
</clipPath>
<clipPath id="clip21_107_5381">
<rect width="48" height="48" fill="white" transform="translate(525)"/>
</clipPath>
<clipPath id="clip22_107_5381">
<rect width="48" height="48" fill="white" transform="translate(550)"/>
</clipPath>
<clipPath id="clip23_107_5381">
<rect width="48" height="48" fill="white" transform="translate(575)"/>
</clipPath>
<clipPath id="clip24_107_5381">
<rect width="48" height="48" fill="white" transform="translate(600)"/>
</clipPath>
<clipPath id="clip25_107_5381">
<rect width="48" height="48" fill="white" transform="translate(625)"/>
</clipPath>
<clipPath id="clip26_107_5381">
<rect width="48" height="48" fill="white" transform="translate(650)"/>
</clipPath>
<clipPath id="clip27_107_5381">
<rect width="48" height="48" fill="white" transform="translate(675)"/>
</clipPath>
<clipPath id="clip28_107_5381">
<rect width="48" height="48" fill="white" transform="translate(700)"/>
</clipPath>
<clipPath id="clip29_107_5381">
<rect width="48" height="48" fill="white" transform="translate(725)"/>
</clipPath>
<clipPath id="clip30_107_5381">
<rect width="48" height="48" fill="white" transform="translate(750)"/>
</clipPath>
<clipPath id="clip31_107_5381">
<rect width="48" height="48" fill="white" transform="translate(775)"/>
</clipPath>
<clipPath id="clip32_107_5381">
<rect width="48" height="48" fill="white" transform="translate(800)"/>
</clipPath>
<clipPath id="clip33_107_5381">
<rect width="48" height="48" fill="white" transform="translate(825)"/>
</clipPath>
<clipPath id="clip34_107_5381">
<rect width="48" height="48" fill="white" transform="translate(850)"/>
</clipPath>
<clipPath id="clip35_107_5381">
<rect width="48" height="48" fill="white" transform="translate(875)"/>
</clipPath>
<clipPath id="clip36_107_5381">
<rect width="48" height="48" fill="white" transform="translate(900)"/>
</clipPath>
<clipPath id="clip37_107_5381">
<rect width="48" height="48" fill="white" transform="translate(925)"/>
</clipPath>
<clipPath id="clip38_107_5381">
<rect width="48" height="48" fill="white" transform="translate(950)"/>
</clipPath>
<clipPath id="clip39_107_5381">
<rect width="48" height="48" fill="white" transform="translate(975)"/>
</clipPath>
</defs>
</svg>
