<svg width="311" height="15" viewBox="0 0 311 15" fill="none" xmlns="http://www.w3.org/2000/svg">
<g clip-path="url(#clip0_133_15488)">
<rect x="9.53979" y="-2.42285" width="5.63674" height="23.2863" transform="rotate(29.4158 9.53979 -2.42285)" fill="#29FDFE"/>
</g>
<g clip-path="url(#clip1_133_15488)">
<rect x="17.1399" y="-2.42285" width="5.63674" height="23.2863" transform="rotate(29.4158 17.1399 -2.42285)" fill="#29FDFE"/>
</g>
<g clip-path="url(#clip2_133_15488)">
<rect x="24.7402" y="-2.42285" width="5.63674" height="23.2863" transform="rotate(29.4158 24.7402 -2.42285)" fill="#29FDFE"/>
</g>
<g clip-path="url(#clip3_133_15488)">
<rect x="32.3403" y="-2.42285" width="5.63674" height="23.2863" transform="rotate(29.4158 32.3403 -2.42285)" fill="#29FDFE"/>
</g>
<g clip-path="url(#clip4_133_15488)">
<rect x="39.9407" y="-2.42285" width="5.63674" height="23.2863" transform="rotate(29.4158 39.9407 -2.42285)" fill="#29FDFE"/>
</g>
<g clip-path="url(#clip5_133_15488)">
<rect x="47.5408" y="-2.42285" width="5.63674" height="23.2863" transform="rotate(29.4158 47.5408 -2.42285)" fill="#29FDFE"/>
</g>
<g clip-path="url(#clip6_133_15488)">
<rect x="55.1409" y="-2.42285" width="5.63674" height="23.2863" transform="rotate(29.4158 55.1409 -2.42285)" fill="#29FDFE"/>
</g>
<g clip-path="url(#clip7_133_15488)">
<rect x="62.7412" y="-2.42285" width="5.63674" height="23.2863" transform="rotate(29.4158 62.7412 -2.42285)" fill="#29FDFE"/>
<rect x="62.7412" y="-2.42285" width="5.63674" height="23.2863" transform="rotate(29.4158 62.7412 -2.42285)" fill="#2EBDFF" fill-opacity="0.3"/>
</g>
<g clip-path="url(#clip8_133_15488)">
<rect x="70.3413" y="-2.42285" width="5.63674" height="23.2863" transform="rotate(29.4158 70.3413 -2.42285)" fill="#29FDFE"/>
<rect x="70.3413" y="-2.42285" width="5.63674" height="23.2863" transform="rotate(29.4158 70.3413 -2.42285)" fill="#337DFF" fill-opacity="0.4"/>
</g>
<g clip-path="url(#clip9_133_15488)">
<rect x="77.9417" y="-2.42285" width="5.63674" height="23.2863" transform="rotate(29.4158 77.9417 -2.42285)" fill="#29FDFE"/>
<rect x="77.9417" y="-2.42285" width="5.63674" height="23.2863" transform="rotate(29.4158 77.9417 -2.42285)" fill="#337DFF" fill-opacity="0.5"/>
</g>
<g clip-path="url(#clip10_133_15488)">
<rect x="85.5417" y="-2.42285" width="5.63674" height="23.2863" transform="rotate(29.4158 85.5417 -2.42285)" fill="#2EBDFF"/>
<rect x="85.5417" y="-2.42285" width="5.63674" height="23.2863" transform="rotate(29.4158 85.5417 -2.42285)" fill="#337DFF" fill-opacity="0.6"/>
</g>
<g clip-path="url(#clip11_133_15488)">
<rect x="93.1418" y="-2.42285" width="5.63674" height="23.2863" transform="rotate(29.4158 93.1418 -2.42285)" fill="#337DFF"/>
</g>
<g clip-path="url(#clip12_133_15488)">
<rect x="100.742" y="-2.42285" width="5.63674" height="23.2863" transform="rotate(29.4158 100.742 -2.42285)" fill="#337DFF"/>
</g>
<g clip-path="url(#clip13_133_15488)">
<rect x="108.342" y="-2.42285" width="5.63674" height="23.2863" transform="rotate(29.4158 108.342 -2.42285)" fill="#337DFF"/>
</g>
<g clip-path="url(#clip14_133_15488)">
<rect x="115.943" y="-2.42285" width="5.63674" height="23.2863" transform="rotate(29.4158 115.943 -2.42285)" fill="#337DFF"/>
</g>
<g clip-path="url(#clip15_133_15488)">
<rect x="123.543" y="-2.42285" width="5.63674" height="23.2863" transform="rotate(29.4158 123.543 -2.42285)" fill="#337DFF"/>
</g>
<g clip-path="url(#clip16_133_15488)">
<rect x="131.143" y="-2.42285" width="5.63674" height="23.2863" transform="rotate(29.4158 131.143 -2.42285)" fill="#337DFF"/>
</g>
<g clip-path="url(#clip17_133_15488)">
<rect x="138.743" y="-2.42285" width="5.63674" height="23.2863" transform="rotate(29.4158 138.743 -2.42285)" fill="#337DFF"/>
</g>
<g clip-path="url(#clip18_133_15488)">
<rect x="146.343" y="-2.42285" width="5.63674" height="23.2863" transform="rotate(29.4158 146.343 -2.42285)" fill="#337DFF"/>
</g>
<g clip-path="url(#clip19_133_15488)">
<rect x="153.944" y="-2.42285" width="5.63674" height="23.2863" transform="rotate(29.4158 153.944 -2.42285)" fill="#337DFF"/>
<rect x="153.944" y="-2.42285" width="5.63674" height="23.2863" transform="rotate(29.4158 153.944 -2.42285)" fill="#8C1FF9" fill-opacity="0.3"/>
</g>
<g clip-path="url(#clip20_133_15488)">
<rect x="161.544" y="-2.42285" width="5.63674" height="23.2863" transform="rotate(29.4158 161.544 -2.42285)" fill="#4E61FD"/>
<rect x="161.544" y="-2.42285" width="5.63674" height="23.2863" transform="rotate(29.4158 161.544 -2.42285)" fill="#8C1FF9" fill-opacity="0.4"/>
</g>
<g clip-path="url(#clip21_133_15488)">
<rect x="169.144" y="-2.42285" width="5.63674" height="23.2863" transform="rotate(29.4158 169.144 -2.42285)" fill="#6747FB"/>
<rect x="169.144" y="-2.42285" width="5.63674" height="23.2863" transform="rotate(29.4158 169.144 -2.42285)" fill="#8C1FF9" fill-opacity="0.5"/>
</g>
<g clip-path="url(#clip22_133_15488)">
<rect x="176.744" y="-2.42285" width="5.63674" height="23.2863" transform="rotate(29.4158 176.744 -2.42285)" fill="#8C1FF9"/>
</g>
<g clip-path="url(#clip23_133_15488)">
<rect x="184.344" y="-2.42285" width="5.63674" height="23.2863" transform="rotate(29.4158 184.344 -2.42285)" fill="#8C1FF9"/>
</g>
<g clip-path="url(#clip24_133_15488)">
<rect x="191.945" y="-2.42285" width="5.63674" height="23.2863" transform="rotate(29.4158 191.945 -2.42285)" fill="#8C1FF9"/>
</g>
<g clip-path="url(#clip25_133_15488)">
<rect x="199.545" y="-2.42285" width="5.63674" height="23.2863" transform="rotate(29.4158 199.545 -2.42285)" fill="#8C1FF9"/>
</g>
<g clip-path="url(#clip26_133_15488)">
<rect x="207.145" y="-2.42285" width="5.63674" height="23.2863" transform="rotate(29.4158 207.145 -2.42285)" fill="#8C1FF9"/>
</g>
<g clip-path="url(#clip27_133_15488)">
<rect x="214.745" y="-2.42285" width="5.63674" height="23.2863" transform="rotate(29.4158 214.745 -2.42285)" fill="#8C1FF9"/>
</g>
<g clip-path="url(#clip28_133_15488)">
<rect x="222.345" y="-2.42285" width="5.63674" height="23.2863" transform="rotate(29.4158 222.345 -2.42285)" fill="#8C1FF9"/>
</g>
<g clip-path="url(#clip29_133_15488)">
<rect x="229.946" y="-2.42285" width="5.63674" height="23.2863" transform="rotate(29.4158 229.946 -2.42285)" fill="#8C1FF9"/>
</g>
<g clip-path="url(#clip30_133_15488)">
<rect x="237.546" y="-2.42285" width="5.63674" height="23.2863" transform="rotate(29.4158 237.546 -2.42285)" fill="white" fill-opacity="0.2"/>
</g>
<g clip-path="url(#clip31_133_15488)">
<rect x="245.146" y="-2.42285" width="5.63674" height="23.2863" transform="rotate(29.4158 245.146 -2.42285)" fill="white" fill-opacity="0.2"/>
</g>
<g clip-path="url(#clip32_133_15488)">
<rect x="252.746" y="-2.42285" width="5.63674" height="23.2863" transform="rotate(29.4158 252.746 -2.42285)" fill="white" fill-opacity="0.2"/>
</g>
<g clip-path="url(#clip33_133_15488)">
<rect x="260.346" y="-2.42285" width="5.63674" height="23.2863" transform="rotate(29.4158 260.346 -2.42285)" fill="white" fill-opacity="0.2"/>
</g>
<g clip-path="url(#clip34_133_15488)">
<rect x="267.947" y="-2.42285" width="5.63674" height="23.2863" transform="rotate(29.4158 267.947 -2.42285)" fill="white" fill-opacity="0.2"/>
</g>
<g clip-path="url(#clip35_133_15488)">
<rect x="275.547" y="-2.42285" width="5.63674" height="23.2863" transform="rotate(29.4158 275.547 -2.42285)" fill="white" fill-opacity="0.2"/>
</g>
<g clip-path="url(#clip36_133_15488)">
<rect x="283.147" y="-2.42285" width="5.63674" height="23.2863" transform="rotate(29.4158 283.147 -2.42285)" fill="white" fill-opacity="0.2"/>
</g>
<g clip-path="url(#clip37_133_15488)">
<rect x="290.747" y="-2.42285" width="5.63674" height="23.2863" transform="rotate(29.4158 290.747 -2.42285)" fill="white" fill-opacity="0.2"/>
</g>
<g clip-path="url(#clip38_133_15488)">
<rect x="298.347" y="-2.42285" width="5.63674" height="23.2863" transform="rotate(29.4158 298.347 -2.42285)" fill="white" fill-opacity="0.2"/>
</g>
<g clip-path="url(#clip39_133_15488)">
<rect x="305.948" y="-2.42285" width="5.63674" height="23.2863" transform="rotate(29.4158 305.948 -2.42285)" fill="white" fill-opacity="0.2"/>
</g>
<defs>
<clipPath id="clip0_133_15488">
<rect width="14.5924" height="14.5924" fill="white" transform="translate(0 0.203796)"/>
</clipPath>
<clipPath id="clip1_133_15488">
<rect width="14.5924" height="14.5924" fill="white" transform="translate(7.6001 0.203796)"/>
</clipPath>
<clipPath id="clip2_133_15488">
<rect width="14.5924" height="14.5924" fill="white" transform="translate(15.2004 0.203796)"/>
</clipPath>
<clipPath id="clip3_133_15488">
<rect width="14.5924" height="14.5924" fill="white" transform="translate(22.8005 0.203796)"/>
</clipPath>
<clipPath id="clip4_133_15488">
<rect width="14.5924" height="14.5924" fill="white" transform="translate(30.4009 0.203796)"/>
</clipPath>
<clipPath id="clip5_133_15488">
<rect width="14.5924" height="14.5924" fill="white" transform="translate(38.001 0.203796)"/>
</clipPath>
<clipPath id="clip6_133_15488">
<rect width="14.5924" height="14.5924" fill="white" transform="translate(45.6011 0.203796)"/>
</clipPath>
<clipPath id="clip7_133_15488">
<rect width="14.5924" height="14.5924" fill="white" transform="translate(53.2014 0.203796)"/>
</clipPath>
<clipPath id="clip8_133_15488">
<rect width="14.5924" height="14.5924" fill="white" transform="translate(60.8015 0.203796)"/>
</clipPath>
<clipPath id="clip9_133_15488">
<rect width="14.5924" height="14.5924" fill="white" transform="translate(68.4019 0.203796)"/>
</clipPath>
<clipPath id="clip10_133_15488">
<rect width="14.5924" height="14.5924" fill="white" transform="translate(76.002 0.203796)"/>
</clipPath>
<clipPath id="clip11_133_15488">
<rect width="14.5924" height="14.5924" fill="white" transform="translate(83.6021 0.203796)"/>
</clipPath>
<clipPath id="clip12_133_15488">
<rect width="14.5924" height="14.5924" fill="white" transform="translate(91.2024 0.203796)"/>
</clipPath>
<clipPath id="clip13_133_15488">
<rect width="14.5924" height="14.5924" fill="white" transform="translate(98.8025 0.203796)"/>
</clipPath>
<clipPath id="clip14_133_15488">
<rect width="14.5924" height="14.5924" fill="white" transform="translate(106.403 0.203796)"/>
</clipPath>
<clipPath id="clip15_133_15488">
<rect width="14.5924" height="14.5924" fill="white" transform="translate(114.003 0.203796)"/>
</clipPath>
<clipPath id="clip16_133_15488">
<rect width="14.5924" height="14.5924" fill="white" transform="translate(121.603 0.203796)"/>
</clipPath>
<clipPath id="clip17_133_15488">
<rect width="14.5924" height="14.5924" fill="white" transform="translate(129.203 0.203796)"/>
</clipPath>
<clipPath id="clip18_133_15488">
<rect width="14.5924" height="14.5924" fill="white" transform="translate(136.803 0.203796)"/>
</clipPath>
<clipPath id="clip19_133_15488">
<rect width="14.5924" height="14.5924" fill="white" transform="translate(144.404 0.203796)"/>
</clipPath>
<clipPath id="clip20_133_15488">
<rect width="14.5924" height="14.5924" fill="white" transform="translate(152.004 0.203796)"/>
</clipPath>
<clipPath id="clip21_133_15488">
<rect width="14.5924" height="14.5924" fill="white" transform="translate(159.604 0.203796)"/>
</clipPath>
<clipPath id="clip22_133_15488">
<rect width="14.5924" height="14.5924" fill="white" transform="translate(167.204 0.203796)"/>
</clipPath>
<clipPath id="clip23_133_15488">
<rect width="14.5924" height="14.5924" fill="white" transform="translate(174.805 0.203796)"/>
</clipPath>
<clipPath id="clip24_133_15488">
<rect width="14.5924" height="14.5924" fill="white" transform="translate(182.405 0.203796)"/>
</clipPath>
<clipPath id="clip25_133_15488">
<rect width="14.5924" height="14.5924" fill="white" transform="translate(190.005 0.203796)"/>
</clipPath>
<clipPath id="clip26_133_15488">
<rect width="14.5924" height="14.5924" fill="white" transform="translate(197.605 0.203796)"/>
</clipPath>
<clipPath id="clip27_133_15488">
<rect width="14.5924" height="14.5924" fill="white" transform="translate(205.205 0.203796)"/>
</clipPath>
<clipPath id="clip28_133_15488">
<rect width="14.5924" height="14.5924" fill="white" transform="translate(212.806 0.203796)"/>
</clipPath>
<clipPath id="clip29_133_15488">
<rect width="14.5924" height="14.5924" fill="white" transform="translate(220.406 0.203796)"/>
</clipPath>
<clipPath id="clip30_133_15488">
<rect width="14.5924" height="14.5924" fill="white" transform="translate(228.006 0.203796)"/>
</clipPath>
<clipPath id="clip31_133_15488">
<rect width="14.5924" height="14.5924" fill="white" transform="translate(235.606 0.203796)"/>
</clipPath>
<clipPath id="clip32_133_15488">
<rect width="14.5924" height="14.5924" fill="white" transform="translate(243.207 0.203796)"/>
</clipPath>
<clipPath id="clip33_133_15488">
<rect width="14.5924" height="14.5924" fill="white" transform="translate(250.807 0.203796)"/>
</clipPath>
<clipPath id="clip34_133_15488">
<rect width="14.5924" height="14.5924" fill="white" transform="translate(258.407 0.203796)"/>
</clipPath>
<clipPath id="clip35_133_15488">
<rect width="14.5924" height="14.5924" fill="white" transform="translate(266.007 0.203796)"/>
</clipPath>
<clipPath id="clip36_133_15488">
<rect width="14.5924" height="14.5924" fill="white" transform="translate(273.607 0.203796)"/>
</clipPath>
<clipPath id="clip37_133_15488">
<rect width="14.5924" height="14.5924" fill="white" transform="translate(281.208 0.203796)"/>
</clipPath>
<clipPath id="clip38_133_15488">
<rect width="14.5924" height="14.5924" fill="white" transform="translate(288.808 0.203796)"/>
</clipPath>
<clipPath id="clip39_133_15488">
<rect width="14.5924" height="14.5924" fill="white" transform="translate(296.408 0.203796)"/>
</clipPath>
</defs>
</svg>
