<svg width="311" height="15" viewBox="0 0 311 15" fill="none" xmlns="http://www.w3.org/2000/svg">
<g clip-path="url(#clip0_133_15398)">
<rect x="9.5603" y="-2.44394" width="5.64874" height="23.3359" transform="rotate(29.4158 9.5603 -2.44394)" fill="#29FDFE"/>
</g>
<g clip-path="url(#clip1_133_15398)">
<rect x="17.1597" y="-2.44394" width="5.64874" height="23.3359" transform="rotate(29.4158 17.1597 -2.44394)" fill="#29FDFE"/>
</g>
<g clip-path="url(#clip2_133_15398)">
<rect x="24.759" y="-2.44394" width="5.64874" height="23.3359" transform="rotate(29.4158 24.759 -2.44394)" fill="#29FDFE"/>
</g>
<g clip-path="url(#clip3_133_15398)">
<rect x="32.3584" y="-2.44394" width="5.64874" height="23.3359" transform="rotate(29.4158 32.3584 -2.44394)" fill="#29FDFE"/>
</g>
<g clip-path="url(#clip4_133_15398)">
<rect x="39.958" y="-2.44394" width="5.64874" height="23.3359" transform="rotate(29.4158 39.958 -2.44394)" fill="#29FDFE"/>
</g>
<g clip-path="url(#clip5_133_15398)">
<rect x="47.5574" y="-2.44394" width="5.64874" height="23.3359" transform="rotate(29.4158 47.5574 -2.44394)" fill="#29FDFE"/>
</g>
<g clip-path="url(#clip6_133_15398)">
<rect x="55.1567" y="-2.44394" width="5.64874" height="23.3359" transform="rotate(29.4158 55.1567 -2.44394)" fill="#29FDFE"/>
</g>
<g clip-path="url(#clip7_133_15398)">
<rect x="62.7561" y="-2.44394" width="5.64874" height="23.3359" transform="rotate(29.4158 62.7561 -2.44394)" fill="#29FDFE"/>
<rect x="62.7561" y="-2.44394" width="5.64874" height="23.3359" transform="rotate(29.4158 62.7561 -2.44394)" fill="#2EBDFF" fill-opacity="0.3"/>
</g>
<g clip-path="url(#clip8_133_15398)">
<rect x="70.3555" y="-2.44394" width="5.64874" height="23.3359" transform="rotate(29.4158 70.3555 -2.44394)" fill="#29FDFE"/>
<rect x="70.3555" y="-2.44394" width="5.64874" height="23.3359" transform="rotate(29.4158 70.3555 -2.44394)" fill="#337DFF" fill-opacity="0.4"/>
</g>
<g clip-path="url(#clip9_133_15398)">
<rect x="77.9548" y="-2.44394" width="5.64874" height="23.3359" transform="rotate(29.4158 77.9548 -2.44394)" fill="#29FDFE"/>
<rect x="77.9548" y="-2.44394" width="5.64874" height="23.3359" transform="rotate(29.4158 77.9548 -2.44394)" fill="#337DFF" fill-opacity="0.5"/>
</g>
<g clip-path="url(#clip10_133_15398)">
<rect x="85.5542" y="-2.44394" width="5.64874" height="23.3359" transform="rotate(29.4158 85.5542 -2.44394)" fill="#2EBDFF"/>
<rect x="85.5542" y="-2.44394" width="5.64874" height="23.3359" transform="rotate(29.4158 85.5542 -2.44394)" fill="#337DFF" fill-opacity="0.6"/>
</g>
<g clip-path="url(#clip11_133_15398)">
<rect x="93.1536" y="-2.44394" width="5.64874" height="23.3359" transform="rotate(29.4158 93.1536 -2.44394)" fill="#337DFF"/>
</g>
<g clip-path="url(#clip12_133_15398)">
<rect x="100.753" y="-2.44394" width="5.64874" height="23.3359" transform="rotate(29.4158 100.753 -2.44394)" fill="white" fill-opacity="0.2"/>
</g>
<g clip-path="url(#clip13_133_15398)">
<rect x="108.353" y="-2.44394" width="5.64874" height="23.3359" transform="rotate(29.4158 108.353 -2.44394)" fill="white" fill-opacity="0.2"/>
</g>
<g clip-path="url(#clip14_133_15398)">
<rect x="115.952" y="-2.44394" width="5.64874" height="23.3359" transform="rotate(29.4158 115.952 -2.44394)" fill="white" fill-opacity="0.2"/>
</g>
<g clip-path="url(#clip15_133_15398)">
<rect x="123.551" y="-2.44394" width="5.64874" height="23.3359" transform="rotate(29.4158 123.551 -2.44394)" fill="white" fill-opacity="0.2"/>
</g>
<g clip-path="url(#clip16_133_15398)">
<rect x="131.151" y="-2.44394" width="5.64874" height="23.3359" transform="rotate(29.4158 131.151 -2.44394)" fill="white" fill-opacity="0.2"/>
</g>
<g clip-path="url(#clip17_133_15398)">
<rect x="138.75" y="-2.44394" width="5.64874" height="23.3359" transform="rotate(29.4158 138.75 -2.44394)" fill="white" fill-opacity="0.2"/>
</g>
<g clip-path="url(#clip18_133_15398)">
<rect x="146.349" y="-2.44394" width="5.64874" height="23.3359" transform="rotate(29.4158 146.349 -2.44394)" fill="white" fill-opacity="0.2"/>
</g>
<g clip-path="url(#clip19_133_15398)">
<rect x="153.949" y="-2.44394" width="5.64874" height="23.3359" transform="rotate(29.4158 153.949 -2.44394)" fill="white" fill-opacity="0.2"/>
</g>
<g clip-path="url(#clip20_133_15398)">
<rect x="161.548" y="-2.44394" width="5.64874" height="23.3359" transform="rotate(29.4158 161.548 -2.44394)" fill="white" fill-opacity="0.2"/>
</g>
<g clip-path="url(#clip21_133_15398)">
<rect x="169.148" y="-2.44394" width="5.64874" height="23.3359" transform="rotate(29.4158 169.148 -2.44394)" fill="white" fill-opacity="0.2"/>
</g>
<g clip-path="url(#clip22_133_15398)">
<rect x="176.747" y="-2.44394" width="5.64874" height="23.3359" transform="rotate(29.4158 176.747 -2.44394)" fill="white" fill-opacity="0.2"/>
</g>
<g clip-path="url(#clip23_133_15398)">
<rect x="184.346" y="-2.44394" width="5.64874" height="23.3359" transform="rotate(29.4158 184.346 -2.44394)" fill="white" fill-opacity="0.2"/>
</g>
<g clip-path="url(#clip24_133_15398)">
<rect x="191.946" y="-2.44394" width="5.64874" height="23.3359" transform="rotate(29.4158 191.946 -2.44394)" fill="white" fill-opacity="0.2"/>
</g>
<g clip-path="url(#clip25_133_15398)">
<rect x="199.545" y="-2.44394" width="5.64874" height="23.3359" transform="rotate(29.4158 199.545 -2.44394)" fill="white" fill-opacity="0.2"/>
</g>
<g clip-path="url(#clip26_133_15398)">
<rect x="207.145" y="-2.44394" width="5.64874" height="23.3359" transform="rotate(29.4158 207.145 -2.44394)" fill="white" fill-opacity="0.2"/>
</g>
<g clip-path="url(#clip27_133_15398)">
<rect x="214.744" y="-2.44394" width="5.64874" height="23.3359" transform="rotate(29.4158 214.744 -2.44394)" fill="white" fill-opacity="0.2"/>
</g>
<g clip-path="url(#clip28_133_15398)">
<rect x="222.344" y="-2.44394" width="5.64874" height="23.3359" transform="rotate(29.4158 222.344 -2.44394)" fill="white" fill-opacity="0.2"/>
</g>
<g clip-path="url(#clip29_133_15398)">
<rect x="229.943" y="-2.44394" width="5.64874" height="23.3359" transform="rotate(29.4158 229.943 -2.44394)" fill="white" fill-opacity="0.2"/>
</g>
<g clip-path="url(#clip30_133_15398)">
<rect x="237.542" y="-2.44394" width="5.64874" height="23.3359" transform="rotate(29.4158 237.542 -2.44394)" fill="white" fill-opacity="0.2"/>
</g>
<g clip-path="url(#clip31_133_15398)">
<rect x="245.142" y="-2.44394" width="5.64874" height="23.3359" transform="rotate(29.4158 245.142 -2.44394)" fill="white" fill-opacity="0.2"/>
</g>
<g clip-path="url(#clip32_133_15398)">
<rect x="252.741" y="-2.44394" width="5.64874" height="23.3359" transform="rotate(29.4158 252.741 -2.44394)" fill="white" fill-opacity="0.2"/>
</g>
<g clip-path="url(#clip33_133_15398)">
<rect x="260.34" y="-2.44394" width="5.64874" height="23.3359" transform="rotate(29.4158 260.34 -2.44394)" fill="white" fill-opacity="0.2"/>
</g>
<g clip-path="url(#clip34_133_15398)">
<rect x="267.94" y="-2.44394" width="5.64874" height="23.3359" transform="rotate(29.4158 267.94 -2.44394)" fill="white" fill-opacity="0.2"/>
</g>
<g clip-path="url(#clip35_133_15398)">
<rect x="275.539" y="-2.44394" width="5.64874" height="23.3359" transform="rotate(29.4158 275.539 -2.44394)" fill="white" fill-opacity="0.2"/>
</g>
<g clip-path="url(#clip36_133_15398)">
<rect x="283.139" y="-2.44394" width="5.64874" height="23.3359" transform="rotate(29.4158 283.139 -2.44394)" fill="white" fill-opacity="0.2"/>
</g>
<g clip-path="url(#clip37_133_15398)">
<rect x="290.738" y="-2.44394" width="5.64874" height="23.3359" transform="rotate(29.4158 290.738 -2.44394)" fill="white" fill-opacity="0.2"/>
</g>
<g clip-path="url(#clip38_133_15398)">
<rect x="298.337" y="-2.44394" width="5.64874" height="23.3359" transform="rotate(29.4158 298.337 -2.44394)" fill="white" fill-opacity="0.2"/>
</g>
<g clip-path="url(#clip39_133_15398)">
<rect x="305.937" y="-2.44394" width="5.64874" height="23.3359" transform="rotate(29.4158 305.937 -2.44394)" fill="white" fill-opacity="0.2"/>
</g>
<defs>
<clipPath id="clip0_133_15398">
<rect width="14.6234" height="14.6234" fill="white" transform="translate(0 0.188278)"/>
</clipPath>
<clipPath id="clip1_133_15398">
<rect width="14.6234" height="14.6234" fill="white" transform="translate(7.59937 0.188278)"/>
</clipPath>
<clipPath id="clip2_133_15398">
<rect width="14.6234" height="14.6234" fill="white" transform="translate(15.1987 0.188278)"/>
</clipPath>
<clipPath id="clip3_133_15398">
<rect width="14.6234" height="14.6234" fill="white" transform="translate(22.7981 0.188278)"/>
</clipPath>
<clipPath id="clip4_133_15398">
<rect width="14.6234" height="14.6234" fill="white" transform="translate(30.3977 0.188278)"/>
</clipPath>
<clipPath id="clip5_133_15398">
<rect width="14.6234" height="14.6234" fill="white" transform="translate(37.9971 0.188278)"/>
</clipPath>
<clipPath id="clip6_133_15398">
<rect width="14.6234" height="14.6234" fill="white" transform="translate(45.5964 0.188278)"/>
</clipPath>
<clipPath id="clip7_133_15398">
<rect width="14.6234" height="14.6234" fill="white" transform="translate(53.1958 0.188278)"/>
</clipPath>
<clipPath id="clip8_133_15398">
<rect width="14.6234" height="14.6234" fill="white" transform="translate(60.7952 0.188278)"/>
</clipPath>
<clipPath id="clip9_133_15398">
<rect width="14.6234" height="14.6234" fill="white" transform="translate(68.3945 0.188278)"/>
</clipPath>
<clipPath id="clip10_133_15398">
<rect width="14.6234" height="14.6234" fill="white" transform="translate(75.9939 0.188278)"/>
</clipPath>
<clipPath id="clip11_133_15398">
<rect width="14.6234" height="14.6234" fill="white" transform="translate(83.5933 0.188278)"/>
</clipPath>
<clipPath id="clip12_133_15398">
<rect width="14.6234" height="14.6234" fill="white" transform="translate(91.1929 0.188278)"/>
</clipPath>
<clipPath id="clip13_133_15398">
<rect width="14.6234" height="14.6234" fill="white" transform="translate(98.7922 0.188278)"/>
</clipPath>
<clipPath id="clip14_133_15398">
<rect width="14.6234" height="14.6234" fill="white" transform="translate(106.392 0.188278)"/>
</clipPath>
<clipPath id="clip15_133_15398">
<rect width="14.6234" height="14.6234" fill="white" transform="translate(113.991 0.188278)"/>
</clipPath>
<clipPath id="clip16_133_15398">
<rect width="14.6234" height="14.6234" fill="white" transform="translate(121.59 0.188278)"/>
</clipPath>
<clipPath id="clip17_133_15398">
<rect width="14.6234" height="14.6234" fill="white" transform="translate(129.19 0.188278)"/>
</clipPath>
<clipPath id="clip18_133_15398">
<rect width="14.6234" height="14.6234" fill="white" transform="translate(136.789 0.188278)"/>
</clipPath>
<clipPath id="clip19_133_15398">
<rect width="14.6234" height="14.6234" fill="white" transform="translate(144.389 0.188278)"/>
</clipPath>
<clipPath id="clip20_133_15398">
<rect width="14.6234" height="14.6234" fill="white" transform="translate(151.988 0.188278)"/>
</clipPath>
<clipPath id="clip21_133_15398">
<rect width="14.6234" height="14.6234" fill="white" transform="translate(159.587 0.188278)"/>
</clipPath>
<clipPath id="clip22_133_15398">
<rect width="14.6234" height="14.6234" fill="white" transform="translate(167.187 0.188278)"/>
</clipPath>
<clipPath id="clip23_133_15398">
<rect width="14.6234" height="14.6234" fill="white" transform="translate(174.786 0.188278)"/>
</clipPath>
<clipPath id="clip24_133_15398">
<rect width="14.6234" height="14.6234" fill="white" transform="translate(182.385 0.188278)"/>
</clipPath>
<clipPath id="clip25_133_15398">
<rect width="14.6234" height="14.6234" fill="white" transform="translate(189.985 0.188278)"/>
</clipPath>
<clipPath id="clip26_133_15398">
<rect width="14.6234" height="14.6234" fill="white" transform="translate(197.584 0.188278)"/>
</clipPath>
<clipPath id="clip27_133_15398">
<rect width="14.6234" height="14.6234" fill="white" transform="translate(205.184 0.188278)"/>
</clipPath>
<clipPath id="clip28_133_15398">
<rect width="14.6234" height="14.6234" fill="white" transform="translate(212.783 0.188278)"/>
</clipPath>
<clipPath id="clip29_133_15398">
<rect width="14.6234" height="14.6234" fill="white" transform="translate(220.383 0.188278)"/>
</clipPath>
<clipPath id="clip30_133_15398">
<rect width="14.6234" height="14.6234" fill="white" transform="translate(227.982 0.188278)"/>
</clipPath>
<clipPath id="clip31_133_15398">
<rect width="14.6234" height="14.6234" fill="white" transform="translate(235.581 0.188278)"/>
</clipPath>
<clipPath id="clip32_133_15398">
<rect width="14.6234" height="14.6234" fill="white" transform="translate(243.181 0.188278)"/>
</clipPath>
<clipPath id="clip33_133_15398">
<rect width="14.6234" height="14.6234" fill="white" transform="translate(250.78 0.188278)"/>
</clipPath>
<clipPath id="clip34_133_15398">
<rect width="14.6234" height="14.6234" fill="white" transform="translate(258.379 0.188278)"/>
</clipPath>
<clipPath id="clip35_133_15398">
<rect width="14.6234" height="14.6234" fill="white" transform="translate(265.979 0.188278)"/>
</clipPath>
<clipPath id="clip36_133_15398">
<rect width="14.6234" height="14.6234" fill="white" transform="translate(273.578 0.188278)"/>
</clipPath>
<clipPath id="clip37_133_15398">
<rect width="14.6234" height="14.6234" fill="white" transform="translate(281.178 0.188278)"/>
</clipPath>
<clipPath id="clip38_133_15398">
<rect width="14.6234" height="14.6234" fill="white" transform="translate(288.777 0.188278)"/>
</clipPath>
<clipPath id="clip39_133_15398">
<rect width="14.6234" height="14.6234" fill="white" transform="translate(296.376 0.188278)"/>
</clipPath>
</defs>
</svg>
