<svg width="74" height="74" viewBox="0 0 74 74" fill="none" xmlns="http://www.w3.org/2000/svg">
<path d="M36.8998 48.2193C35.4421 48.2193 33.9987 47.9322 32.652 47.3743C31.3053 46.8165 30.0816 45.9989 29.0509 44.9682C28.0202 43.9374 27.2026 42.7138 26.6447 41.3671C26.0869 40.0203 25.7998 38.5769 25.7998 37.1193C25.7998 35.6616 26.0869 34.2182 26.6447 32.8715C27.2026 31.5248 28.0202 30.3011 29.0509 29.2704C30.0816 28.2397 31.3053 27.422 32.652 26.8642C33.9987 26.3064 35.4421 26.0193 36.8998 26.0193L60.7278 26.0193L58.0638 28.6833C57.7912 28.9373 57.5725 29.2437 57.4208 29.5841C57.2691 29.9245 57.1876 30.2919 57.181 30.6645C57.1744 31.0371 57.243 31.4072 57.3825 31.7528C57.5221 32.0983 57.7299 32.4122 57.9934 32.6757C58.2569 32.9392 58.5708 33.147 58.9163 33.2865C59.2618 33.4261 59.6319 33.4946 60.0045 33.4881C60.3771 33.4815 60.7446 33.3999 61.085 33.2483C61.4254 33.0966 61.7318 32.8779 61.9858 32.6053L69.3858 25.2053C69.9055 24.685 70.1974 23.9796 70.1974 23.2443C70.1974 22.5089 69.9055 21.8036 69.3858 21.2833L61.9858 13.8833C61.7318 13.6106 61.4254 13.3919 61.085 13.2403C60.7446 13.0886 60.3771 13.0071 60.0045 13.0005C59.6319 12.9939 59.2618 13.0624 58.9163 13.202C58.5708 13.3416 58.2569 13.5493 57.9934 13.8128C57.7299 14.0763 57.5221 14.3902 57.3825 14.7358C57.243 15.0813 57.1744 15.4514 57.181 15.824C57.1876 16.1966 57.2691 16.5641 57.4208 16.9045C57.5725 17.2449 57.7912 17.5512 58.0638 17.8053L60.7278 20.4693L36.8998 20.4693C33.2796 20.47 29.7583 21.6506 26.8693 23.8322C23.9803 26.0138 21.8811 29.0775 20.8896 32.5593C19.8982 36.0411 20.0685 39.7511 21.3748 43.1274C22.6812 46.5037 25.0523 49.3622 28.1291 51.2699C31.2058 53.1776 34.8205 54.0305 38.4255 53.6995C42.0305 53.3685 45.4294 51.8715 48.1073 49.4354C50.7852 46.9992 52.5961 43.7567 53.2657 40.199C53.9353 36.6413 53.4272 32.9622 51.8182 29.7193L45.173 29.7193C46.6015 31.3164 47.5372 33.2928 47.8672 35.41C48.1971 37.5272 47.9072 39.6946 47.0325 41.6507C46.1577 43.6068 44.7355 45.2678 42.9375 46.4334C41.1395 47.599 39.0426 48.2192 36.8998 48.2193ZM10.0748 26.0193L19.8428 26.0193C21.2584 23.847 23.0741 21.9636 25.193 20.4693L10.0748 20.4693C9.33883 20.4693 8.63299 20.7616 8.11258 21.2821C7.59217 21.8025 7.2998 22.5083 7.2998 23.2443C7.2998 23.9802 7.59217 24.6861 8.11258 25.2065C8.63299 25.7269 9.33883 26.0193 10.0748 26.0193Z" fill="#AB42C1"/>
<path d="M37.2975 25.9499C38.7551 25.9499 40.1985 26.237 41.5452 26.7949C42.892 27.3527 44.1156 28.1703 45.1463 29.201C46.1771 30.2318 46.9947 31.4554 47.5525 32.8021C48.1104 34.1488 48.3975 35.5922 48.3975 37.0499C48.3975 38.5076 48.1104 39.951 47.5525 41.2977C46.9947 42.6444 46.1771 43.8681 45.1463 44.8988C44.1156 45.9295 42.892 46.7472 41.5453 47.305C40.1985 47.8628 38.7551 48.1499 37.2975 48.1499L13.4695 48.1499L16.1335 45.4859C16.4061 45.2319 16.6248 44.9255 16.7765 44.5851C16.9281 44.2447 17.0097 43.8773 17.0163 43.5047C17.0228 43.1321 16.9543 42.762 16.8147 42.4164C16.6752 42.0709 16.4674 41.757 16.2039 41.4935C15.9404 41.23 15.6265 41.0222 15.281 40.8827C14.9354 40.7431 14.5653 40.6746 14.1927 40.6811C13.8201 40.6877 13.4527 40.7693 13.1123 40.9209C12.7719 41.0726 12.4655 41.2913 12.2115 41.5639L4.81146 48.9639C4.2918 49.4842 3.99991 50.1896 3.99991 50.9249C3.99991 51.6603 4.2918 52.3656 4.81146 52.8859L12.2115 60.2859C12.4655 60.5586 12.7719 60.7772 13.1123 60.9289C13.4527 61.0806 13.8201 61.1621 14.1927 61.1687C14.5653 61.1753 14.9354 61.1067 15.281 60.9672C15.6265 60.8276 15.9404 60.6199 16.2039 60.3564C16.4674 60.0929 16.6752 59.779 16.8147 59.4334C16.9543 59.0879 17.0228 58.7178 17.0163 58.3452C17.0097 57.9726 16.9281 57.6051 16.7765 57.2647C16.6248 56.9243 16.4061 56.618 16.1335 56.3639L13.4695 53.6999L37.2975 53.6999C40.9176 53.6992 44.439 52.5186 47.328 50.337C50.217 48.1554 52.3162 45.0916 53.3077 41.6099C54.2991 38.1281 54.1288 34.4181 52.8224 31.0418C51.5161 27.6655 49.1449 24.807 46.0682 22.8993C42.9914 20.9916 39.3768 20.1386 35.7717 20.4697C32.1667 20.8007 28.7678 22.2977 26.09 24.7338C23.4121 27.17 21.6012 30.4125 20.9315 33.9702C20.2619 37.5279 20.7701 41.2069 22.3791 44.4499L29.0243 44.4499C27.5958 42.8528 26.6601 40.8764 26.3301 38.7592C26.0002 36.642 26.29 34.4745 27.1648 32.5185C28.0395 30.5624 29.4618 28.9014 31.2598 27.7358C33.0578 26.5702 35.1547 25.95 37.2975 25.9499ZM64.1225 48.1499L54.3545 48.1499C52.9388 50.3222 51.1232 52.2056 49.0043 53.6999L64.1225 53.6999C64.8584 53.6999 65.5643 53.4076 66.0847 52.8871C66.6051 52.3667 66.8975 51.6609 66.8975 50.9249C66.8975 50.1889 66.6051 49.4831 66.0847 48.9627C65.5643 48.4423 64.8584 48.1499 64.1225 48.1499Z" fill="#AB42C1"/>
</svg>
