<svg width="56" height="56" viewBox="0 0 56 56" fill="none" xmlns="http://www.w3.org/2000/svg">
<rect width="56" height="56" rx="28" fill="url(#paint0_linear_73_4834)" fill-opacity="0.5"/>
<path d="M22.4392 37.5608C22.158 37.2795 22 36.8981 22 36.5003C22 36.1026 22.158 35.7211 22.4392 35.4398L29.8642 28.0148L22.4392 20.5898C22.1659 20.3069 22.0148 19.928 22.0182 19.5347C22.0216 19.1414 22.1793 18.7652 22.4575 18.4871C22.7356 18.209 23.1118 18.0512 23.5051 18.0478C23.8984 18.0444 24.2773 18.1956 24.5602 18.4688L33.0457 26.9543C33.3269 27.2356 33.4849 27.6171 33.4849 28.0148C33.4849 28.4126 33.3269 28.794 33.0457 29.0753L24.5602 37.5608C24.2789 37.842 23.8974 38 23.4997 38C23.1019 38 22.7205 37.842 22.4392 37.5608Z" fill="white"/>
<defs>
<linearGradient id="paint0_linear_73_4834" x1="8.98641e-07" y1="1.80444" x2="62.1304" y2="14.4635" gradientUnits="userSpaceOnUse">
<stop stop-color="#380967"/>
<stop offset="1" stop-color="#7811C5"/>
</linearGradient>
</defs>
</svg>
