<svg width="56" height="56" viewBox="0 0 56 56" fill="none" xmlns="http://www.w3.org/2000/svg">
<rect width="56" height="56" rx="28" fill="url(#paint0_linear_73_4817)" fill-opacity="0.5"/>
<path d="M33.0457 37.5608C33.3269 37.2795 33.4849 36.8981 33.4849 36.5003C33.4849 36.1026 33.3269 35.7211 33.0457 35.4398L25.6207 28.0148L33.0457 20.5898C33.3189 20.3069 33.4701 19.928 33.4667 19.5347C33.4633 19.1414 33.3055 18.7652 33.0274 18.4871C32.7493 18.209 32.3731 18.0512 31.9798 18.0478C31.5865 18.0444 31.2076 18.1956 30.9247 18.4688L22.4392 26.9543C22.158 27.2356 22 27.6171 22 28.0148C22 28.4126 22.158 28.794 22.4392 29.0753L30.9247 37.5608C31.206 37.842 31.5874 38 31.9852 38C32.3829 38 32.7644 37.842 33.0457 37.5608Z" fill="white"/>
<defs>
<linearGradient id="paint0_linear_73_4817" x1="8.98641e-07" y1="1.80444" x2="62.1304" y2="14.4635" gradientUnits="userSpaceOnUse">
<stop stop-color="#380967"/>
<stop offset="1" stop-color="#7811C5"/>
</linearGradient>
</defs>
</svg>
