<svg width="49" height="48" viewBox="0 0 49 48" fill="none" xmlns="http://www.w3.org/2000/svg">
<path d="M26.5001 10.14C29.998 10.6526 33.1726 12.4691 35.3868 15.2251C37.601 17.9811 38.6909 21.4726 38.4378 24.9988C38.1847 28.525 36.6072 31.825 34.0221 34.2364C31.4369 36.6479 28.0354 37.9924 24.5001 38C21.6811 38.0001 18.9277 37.1492 16.6003 35.5586C14.2729 33.9679 12.4799 31.7118 11.4559 29.0853C10.4319 26.4588 10.2247 23.5844 10.8614 20.8382C11.498 18.092 12.9489 15.602 15.0241 13.694L12.1941 10.864C9.07422 13.7877 7.09693 17.7264 6.61631 21.975C6.1357 26.2236 7.18313 30.5045 9.57107 34.0512C11.959 37.5979 15.5315 40.1788 19.6488 41.3316C23.7661 42.4845 28.1593 42.1341 32.0419 40.3432C35.9244 38.5522 39.0426 35.4377 40.8381 31.5573C42.6337 27.6769 42.9893 23.2841 41.8413 19.1654C40.6933 15.0468 38.1167 11.4712 34.5728 9.07909C31.0289 6.68695 26.7492 5.63444 22.5001 6.11002V18.17H26.5001V10.144V10.14Z" fill="white"/>
<path d="M15.9142 17.414C15.5392 17.7891 15.3286 18.2977 15.3286 18.828C15.3286 19.3583 15.5392 19.8669 15.9142 20.242L21.5722 25.9C21.9494 26.2643 22.4546 26.4659 22.979 26.4614C23.5034 26.4568 24.005 26.2465 24.3758 25.8756C24.7466 25.5048 24.957 25.0032 24.9615 24.4788C24.9661 23.9544 24.7645 23.4492 24.4002 23.072L18.7402 17.414C18.3651 17.0391 17.8565 16.8284 17.3262 16.8284C16.7959 16.8284 16.2892 17.0391 15.9142 17.414Z" fill="white"/>
</svg>
