<svg xmlns="http://www.w3.org/2000/svg" width="24" height="24" viewBox="0 0 24 24" fill="none">
  <path d="M13.2991 3.14795L21.9331 18.1019C22.0647 18.33 22.134 18.5886 22.134 18.8519C22.134 19.1152 22.0647 19.3739 21.9331 19.6019C21.8014 19.83 21.6121 20.0193 21.384 20.151C21.156 20.2826 20.8974 20.3519 20.6341 20.3519H3.36605C3.10275 20.3519 2.84409 20.2826 2.61606 20.151C2.38804 20.0193 2.19869 19.83 2.06704 19.6019C1.93539 19.3739 1.86609 19.1152 1.86609 18.8519C1.86609 18.5886 1.9354 18.33 2.06705 18.1019L10.7011 3.14795C11.2781 2.14795 12.7211 2.14795 13.2991 3.14795ZM12.0001 14.9999C11.7348 14.9999 11.4805 15.1053 11.2929 15.2928C11.1054 15.4804 11.0001 15.7347 11.0001 15.9999C11.0001 16.2652 11.1054 16.5195 11.2929 16.7071C11.4805 16.8946 11.7348 16.9999 12.0001 16.9999C12.2653 16.9999 12.5196 16.8946 12.7072 16.7071C12.8947 16.5195 13.0001 16.2652 13.0001 15.9999C13.0001 15.7347 12.8947 15.4804 12.7072 15.2928C12.5196 15.1053 12.2653 14.9999 12.0001 14.9999ZM12.0001 7.99995C11.7551 7.99998 11.5187 8.08991 11.3357 8.25266C11.1526 8.41542 11.0357 8.6397 11.0071 8.88295L11.0001 8.99995V12.9999C11.0003 13.2548 11.0979 13.5 11.2729 13.6853C11.4479 13.8707 11.687 13.9822 11.9414 13.9971C12.1959 14.0121 12.4464 13.9293 12.6419 13.7657C12.8373 13.6021 12.9629 13.37 12.9931 13.1169L13.0001 12.9999V8.99995C13.0001 8.73473 12.8947 8.48038 12.7072 8.29284C12.5196 8.10531 12.2653 7.99995 12.0001 7.99995Z" fill="#08035B"/>
</svg>